<svg id="Layer_1" data-name="Layer 1" xmlns="http://www.w3.org/2000/svg" viewBox="0 0 1540.94 1534.51"><defs><style>.cls-1{fill:#fff;}</style></defs><title>country_names</title><path class="cls-1" d="M1724.92,854.43l0.59-10.3,2.42,0.14-0.43,7.53,4,0.23,0.41-7.14,2.33,0.13-0.41,7.14,4.39,0.25,0.45-7.93,2.46,0.14-0.61,10.7Z" transform="translate(-201.45 -40.04)"/><path class="cls-1" d="M1728.21,837.75l-0.19,4.77-2.42-.1,0.49-12.31,2.42,0.1-0.19,4.77,13.15,0.52-0.11,2.77Z" transform="translate(-201.45 -40.04)"/><path class="cls-1" d="M1726.15,828.11l0.06-2.77,6.29,0.13,0.15-7.28-6.29-.13,0.06-2.77,15.57,0.33-0.06,2.77-6.91-.14-0.15,7.28,6.91,0.14-0.06,2.77Z" transform="translate(-201.45 -40.04)"/><path class="cls-1" d="M1726.42,811.4l0-2.77,15.57,0.25,0,2.77Z" transform="translate(-201.45 -40.04)"/><path class="cls-1" d="M1734.29,805.46a8.72,8.72,0,0,1-3.39-.57,7.41,7.41,0,0,1-2.59-1.7,7.69,7.69,0,0,1-1.67-2.61,9.44,9.44,0,0,1-.63-3.32,9.61,9.61,0,0,1,.52-3.37,7.79,7.79,0,0,1,1.58-2.69,7.33,7.33,0,0,1,2.53-1.79,8.73,8.73,0,0,1,3.37-.68,8.6,8.6,0,0,1,3.34.57A7.68,7.68,0,0,1,1740,791a7.94,7.94,0,0,1,1.74,2.63,9.12,9.12,0,0,1,.66,3.36,9,9,0,0,1-.55,3.34,7.84,7.84,0,0,1-1.65,2.67,7.76,7.76,0,0,1-2.57,1.78A8.6,8.6,0,0,1,1734.29,805.46Zm0-3a6.61,6.61,0,0,0,2.29-.42,5.34,5.34,0,0,0,1.8-1.13,5.05,5.05,0,0,0,1.17-1.71,5.34,5.34,0,0,0,.39-2.17,5.41,5.41,0,0,0-.46-2.17,5,5,0,0,0-1.23-1.69,5.37,5.37,0,0,0-1.83-1.07,6.6,6.6,0,0,0-2.3-.35,6.4,6.4,0,0,0-2.24.42,5.48,5.48,0,0,0-1.79,1.12,5,5,0,0,0-1.18,1.71,5.37,5.37,0,0,0-.4,2.21,5.29,5.29,0,0,0,.48,2.18,5.07,5.07,0,0,0,1.24,1.66,5.47,5.47,0,0,0,1.82,1.06A6.38,6.38,0,0,0,1734.24,802.44Z" transform="translate(-201.45 -40.04)"/><path class="cls-1" d="M1726.22,785.91l-0.16-5.08a11,11,0,0,1,.16-2.43,5,5,0,0,1,.73-1.87,3.7,3.7,0,0,1,1.37-1.23,4.68,4.68,0,0,1,2.05-.48,4.46,4.46,0,0,1,2.19.41,3.92,3.92,0,0,1,1.46,1.26,5.73,5.73,0,0,1,.84,1.9,10.78,10.78,0,0,1,.32,2.32l0.07,2.13,6.44-.21,0.09,2.77Zm6.64-4.92a8,8,0,0,0-.14-1.29,3.59,3.59,0,0,0-.39-1.09,2,2,0,0,0-.72-0.75,2.06,2.06,0,0,0-1.15-.25,1.84,1.84,0,0,0-1.75,1.1,3.24,3.24,0,0,0-.28,1.09,9.9,9.9,0,0,0,0,1.25l0.06,2,4.46-.14Z" transform="translate(-201.45 -40.04)"/><path class="cls-1" d="M1725.73,772.21l-0.13-2.77,15.56-.71,0.13,2.77Z" transform="translate(-201.45 -40.04)"/><path class="cls-1" d="M1725.15,760.88l-0.14-2.39,15.15-7.63,0.19,3.16-3.47,1.66,0.4,6.74,3.64,1.19,0.19,3.1Zm9.41-4.09-6.18,2.77,6.47,2.06Z" transform="translate(-201.45 -40.04)"/><path class="cls-1" d="M1704.08,622.43l-1.35-5.24a9.75,9.75,0,0,1-.31-2.12,5.48,5.48,0,0,1,.28-2,4,4,0,0,1,1-1.59,4.19,4.19,0,0,1,1.9-1,4,4,0,0,1,2.91.24,4.81,4.81,0,0,1,2,2.17l5.66-5.75,0.83,3.24-5.5,5.14,0.5,2,6.39-1.64,0.69,2.68Zm5.25-6.55a8,8,0,0,0-.38-1.13,3.44,3.44,0,0,0-.58-1,2.08,2.08,0,0,0-.87-0.58,2,2,0,0,0-1.2,0,1.78,1.78,0,0,0-.94.54,2.13,2.13,0,0,0-.45.87,3,3,0,0,0-.07,1.05,7,7,0,0,0,.19,1.08l0.62,2.43,4.24-1.09Z" transform="translate(-201.45 -40.04)"/><path class="cls-1" d="M1706.75,594.29a6.42,6.42,0,0,1,2.58-.21,5.69,5.69,0,0,1,2.21.76,5.8,5.8,0,0,1,1.71,1.58,7.41,7.41,0,0,1,1.33,4.79,5.91,5.91,0,0,1-.64,2.25,5.49,5.49,0,0,1-1.5,1.79,6.53,6.53,0,0,1-2.32,1.14l-9.5,2.64-0.74-2.67,9.39-2.61a5.26,5.26,0,0,0,1.26-.53,3.31,3.31,0,0,0,1-.88,3,3,0,0,0,.54-1.27,4.34,4.34,0,0,0-.89-3.2A3,3,0,0,0,1710,597a3.32,3.32,0,0,0-1.31-.24,5.35,5.35,0,0,0-1.35.19L1698,599.6l-0.74-2.67Z" transform="translate(-201.45 -40.04)"/><path class="cls-1" d="M1697.12,585a3.38,3.38,0,0,0-.56,1.47,3.71,3.71,0,0,0,.09,1.66,4,4,0,0,0,.39.89,3,3,0,0,0,.61.74,2.07,2.07,0,0,0,.82.43,1.82,1.82,0,0,0,1,0,1.74,1.74,0,0,0,.8-0.47,2,2,0,0,0,.44-0.76,4.13,4.13,0,0,0,.17-1q0-.58,0-1.27T1701,585a6,6,0,0,1,.36-1.65,4,4,0,0,1,.91-1.42,3.89,3.89,0,0,1,1.71-1,4.87,4.87,0,0,1,2.23-.18,4.51,4.51,0,0,1,1.84.74,5.25,5.25,0,0,1,1.4,1.46,7.59,7.59,0,0,1,.92,2,8.18,8.18,0,0,1,.31,3,5.74,5.74,0,0,1-.91,2.75l-2.34-1.37a4,4,0,0,0,.76-1.82,4.07,4.07,0,0,0-.5-2.85,2.64,2.64,0,0,0-.65-0.76,2.28,2.28,0,0,0-.87-0.43,2.07,2.07,0,0,0-1.09.06,1.74,1.74,0,0,0-.9.57,2.56,2.56,0,0,0-.45.94,5.56,5.56,0,0,0-.17,1.24q0,0.69,0,1.46a13.4,13.4,0,0,1-.1,1.5,4.65,4.65,0,0,1-.42,1.45,3.91,3.91,0,0,1-.93,1.23,4.24,4.24,0,0,1-1.66.86,4,4,0,0,1-2.1.11,4.37,4.37,0,0,1-1.73-.84,5.77,5.77,0,0,1-1.32-1.51,8,8,0,0,1-.86-1.91,7.43,7.43,0,0,1-.29-2.43,5.9,5.9,0,0,1,.59-2.39Z" transform="translate(-201.45 -40.04)"/><path class="cls-1" d="M1693.26,572.73a3.38,3.38,0,0,0-.54,1.47,3.72,3.72,0,0,0,.12,1.66,4,4,0,0,0,.41.89,3,3,0,0,0,.62.73,2.07,2.07,0,0,0,.83.42,1.81,1.81,0,0,0,1-.05,1.74,1.74,0,0,0,.79-0.48,2,2,0,0,0,.42-0.77,4.07,4.07,0,0,0,.16-1c0-.39,0-0.81,0-1.27s0-1.07.05-1.64a6,6,0,0,1,.33-1.65,4,4,0,0,1,.88-1.43,3.89,3.89,0,0,1,1.69-1,4.88,4.88,0,0,1,2.23-.22,4.5,4.5,0,0,1,1.85.7,5.26,5.26,0,0,1,1.43,1.44,7.55,7.55,0,0,1,1,2,8.17,8.17,0,0,1,.37,3,5.73,5.73,0,0,1-.86,2.77l-2.36-1.33a4,4,0,0,0,.73-1.84,4.32,4.32,0,0,0-.13-1.93,4.23,4.23,0,0,0-.42-0.91,2.63,2.63,0,0,0-.66-0.75,2.28,2.28,0,0,0-.88-0.41,2.07,2.07,0,0,0-1.09.08,1.74,1.74,0,0,0-.89.58,2.57,2.57,0,0,0-.44.95,5.56,5.56,0,0,0-.15,1.25c0,0.46,0,1,0,1.46a13.57,13.57,0,0,1-.08,1.5,4.68,4.68,0,0,1-.39,1.45,3.93,3.93,0,0,1-.91,1.25,4.25,4.25,0,0,1-1.64.89,4,4,0,0,1-2.1.15,4.37,4.37,0,0,1-1.75-.81,5.79,5.79,0,0,1-1.35-1.49,8,8,0,0,1-.89-1.9,7.39,7.39,0,0,1-.33-2.42,5.89,5.89,0,0,1,.55-2.4Z" transform="translate(-201.45 -40.04)"/><path class="cls-1" d="M1688.6,569l-0.87-2.63,14.78-4.91,0.87,2.63Z" transform="translate(-201.45 -40.04)"/><path class="cls-1" d="M1685,558.23l-0.79-2.26,12.5-11.46,1,3-2.89,2.54,2.22,6.38,3.83,0.16,1,2.93Zm7.94-6.5-5.19,4.35,6.79,0.22Z" transform="translate(-201.45 -40.04)"/><path class="cls-1" d="M1643,453.35a3.36,3.36,0,0,0-.28,1.54,3.71,3.71,0,0,0,.4,1.61,4,4,0,0,0,.55.8,3,3,0,0,0,.74.61,2.07,2.07,0,0,0,.88.27,1.82,1.82,0,0,0,1-.23,1.75,1.75,0,0,0,.7-0.61,2,2,0,0,0,.29-0.83,4.11,4.11,0,0,0,0-1c-0.05-.39-0.12-0.8-0.21-1.26s-0.16-1.06-.23-1.63a6.06,6.06,0,0,1,0-1.68,4.06,4.06,0,0,1,.63-1.57,3.89,3.89,0,0,1,1.5-1.26,4.89,4.89,0,0,1,2.15-.6,4.52,4.52,0,0,1,1.95.38,5.27,5.27,0,0,1,1.65,1.17,7.63,7.63,0,0,1,1.28,1.79,8.19,8.19,0,0,1,.87,2.89,5.72,5.72,0,0,1-.38,2.87l-2.55-.9a4,4,0,0,0,.41-1.93,4.31,4.31,0,0,0-.46-1.88,4.25,4.25,0,0,0-.56-0.82,2.63,2.63,0,0,0-.78-0.62,2.27,2.27,0,0,0-.94-0.26,2.07,2.07,0,0,0-1.06.27,1.75,1.75,0,0,0-.78.73,2.56,2.56,0,0,0-.27,1,5.48,5.48,0,0,0,.07,1.25l0.23,1.44a13.56,13.56,0,0,1,.18,1.49,4.66,4.66,0,0,1-.14,1.5,3.92,3.92,0,0,1-.68,1.38,4.23,4.23,0,0,1-1.47,1.16,4,4,0,0,1-2,.51,4.38,4.38,0,0,1-1.86-.5,5.76,5.76,0,0,1-1.58-1.23,7.94,7.94,0,0,1-1.2-1.72,7.39,7.39,0,0,1-.74-2.33,5.9,5.9,0,0,1,.13-2.46Z" transform="translate(-201.45 -40.04)"/><path class="cls-1" d="M1645.07,447.51a8.72,8.72,0,0,1-3.26,1.07,7.42,7.42,0,0,1-3.08-.29,7.7,7.7,0,0,1-2.7-1.53,9.44,9.44,0,0,1-2.1-2.65,9.58,9.58,0,0,1-1.11-3.23,7.81,7.81,0,0,1,.15-3.12,7.34,7.34,0,0,1,1.41-2.76,8.71,8.71,0,0,1,2.66-2.17,8.6,8.6,0,0,1,3.22-1,7.68,7.68,0,0,1,3.12.29,7.94,7.94,0,0,1,2.76,1.52,9.14,9.14,0,0,1,2.15,2.66,9,9,0,0,1,1.07,3.21,7.85,7.85,0,0,1-.22,3.13,7.76,7.76,0,0,1-1.44,2.77A8.6,8.6,0,0,1,1645.07,447.51Zm-1.45-2.64a6.6,6.6,0,0,0,1.83-1.44,5.35,5.35,0,0,0,1.06-1.84,5,5,0,0,0,.24-2.06,5.34,5.34,0,0,0-.66-2.11,5.43,5.43,0,0,0-1.42-1.71,5,5,0,0,0-1.87-.92,5.35,5.35,0,0,0-2.12-.09,6.61,6.61,0,0,0-2.2.77,6.37,6.37,0,0,0-1.78,1.42,5.49,5.49,0,0,0-1.06,1.82,5,5,0,0,0-.25,2.07,5.36,5.36,0,0,0,.67,2.14,5.27,5.27,0,0,0,1.44,1.71,5.07,5.07,0,0,0,1.87.9,5.48,5.48,0,0,0,2.11.09A6.38,6.38,0,0,0,1643.62,444.87Z" transform="translate(-201.45 -40.04)"/><path class="cls-1" d="M1631.18,418.46a6.41,6.41,0,0,1,2.44-.85,5.69,5.69,0,0,1,2.33.18,5.81,5.81,0,0,1,2,1.1,7.42,7.42,0,0,1,2.49,4.31,5.93,5.93,0,0,1-.06,2.33,5.5,5.5,0,0,1-1,2.11,6.54,6.54,0,0,1-2,1.68l-8.54,4.93-1.39-2.4L1636,427a5.31,5.31,0,0,0,1.08-.83,3.31,3.31,0,0,0,.75-1.1,3,3,0,0,0,.2-1.36,4.34,4.34,0,0,0-1.66-2.88,3,3,0,0,0-1.28-.5,3.33,3.33,0,0,0-1.33.1,5.3,5.3,0,0,0-1.26.52l-8.44,4.87-1.39-2.4Z" transform="translate(-201.45 -40.04)"/><path class="cls-1" d="M1621.3,416.44l2.46,4.09-2.07,1.25-6.36-10.55,2.07-1.25,2.47,4.09,11.27-6.79,1.43,2.37Z" transform="translate(-201.45 -40.04)"/><path class="cls-1" d="M1614.3,409.55l-1.48-2.35,5.32-3.35-3.88-6.16-5.32,3.35-1.48-2.35,13.18-8.3,1.48,2.35-5.85,3.68,3.88,6.16,5.85-3.68,1.48,2.35Z" transform="translate(-201.45 -40.04)"/><path class="cls-1" d="M1602.29,390.74l-1.54-2.3,5.59-3.75,0-.06-9.22-1.66-2.08-3.11,10,2,2.64-11.12,2.17,3.23-2.67,10,0,0.05,6.49-4.35,1.54,2.3Z" transform="translate(-201.45 -40.04)"/><path class="cls-1" d="M1600.94,374.82a8.73,8.73,0,0,1-3.12,1.43,7.41,7.41,0,0,1-3.1.05,7.69,7.69,0,0,1-2.85-1.22,9.43,9.43,0,0,1-2.38-2.4,9.61,9.61,0,0,1-1.47-3.08,7.8,7.8,0,0,1-.2-3.11,7.33,7.33,0,0,1,1.09-2.9,8.72,8.72,0,0,1,2.4-2.45,8.58,8.58,0,0,1,3.09-1.4,7.68,7.68,0,0,1,3.13-.06,8,8,0,0,1,2.92,1.21,9.11,9.11,0,0,1,2.43,2.41,9,9,0,0,1,1.42,3.08,7.68,7.68,0,0,1-1,6A8.6,8.6,0,0,1,1600.94,374.82Zm-1.73-2.47a6.6,6.6,0,0,0,1.66-1.64,5.35,5.35,0,0,0,.85-1.94,5,5,0,0,0,0-2.08,5.32,5.32,0,0,0-.89-2,5.42,5.42,0,0,0-1.6-1.54,5,5,0,0,0-2-.71,5.36,5.36,0,0,0-2.12.14,6.62,6.62,0,0,0-2.1,1,6.4,6.4,0,0,0-1.61,1.61,5.47,5.47,0,0,0-.85,1.93,5,5,0,0,0,0,2.08,5.37,5.37,0,0,0,.9,2.05,5.3,5.3,0,0,0,1.62,1.54,5.08,5.08,0,0,0,2,.68,5.47,5.47,0,0,0,2.1-.15A6.36,6.36,0,0,0,1599.2,372.35Z" transform="translate(-201.45 -40.04)"/><path class="cls-1" d="M1583.29,363.28l-3.21-4.36a9.74,9.74,0,0,1-1.08-1.86,5.48,5.48,0,0,1-.48-1.93,4,4,0,0,1,.35-1.86,4.2,4.2,0,0,1,1.4-1.63,4,4,0,0,1,2.79-.86,4.81,4.81,0,0,1,2.71,1.25l3.1-7.44,2,2.69-3.18,6.82,1.2,1.63,5.32-3.91,1.64,2.23Zm2.42-8a8.19,8.19,0,0,0-.78-0.9,3.38,3.38,0,0,0-.9-0.66,2.08,2.08,0,0,0-1-.22,2,2,0,0,0-1.11.44,1.78,1.78,0,0,0-.67.85,2.13,2.13,0,0,0-.09,1,3.06,3.06,0,0,0,.33,1,7.11,7.11,0,0,0,.57.93l1.49,2,3.53-2.59Z" transform="translate(-201.45 -40.04)"/><path class="cls-1" d="M1575,352l-6.26-8.2,1.92-1.47,4.58,6,3.15-2.4-4.34-5.68,1.85-1.42,4.34,5.68,3.5-2.67-4.82-6.31,2-1.5,6.5,8.51Z" transform="translate(-201.45 -40.04)"/><path class="cls-1" d="M1563.63,337.38l-1.49-1.88,8-14.95,2,2.48-1.89,3.35,4.2,5.29,3.67-1.12L1580,333Zm5.35-8.75-3.47,5.82,6.48-2Z" transform="translate(-201.45 -40.04)"/><path class="cls-1" d="M1502.55,269.19l-1.71-1.68,6.16-15.8,2.26,2.22-1.47,3.56,4.81,4.74,3.5-1.55,2.21,2.18Zm4.26-9.33-2.74,6.19,6.19-2.8Z" transform="translate(-201.45 -40.04)"/><path class="cls-1" d="M1492.82,246.15a6.4,6.4,0,0,1,2.1-1.51,5.68,5.68,0,0,1,2.28-.49,5.79,5.79,0,0,1,2.28.47,7.41,7.41,0,0,1,3.61,3.42,5.92,5.92,0,0,1,.61,2.26,5.49,5.49,0,0,1-.37,2.31,6.54,6.54,0,0,1-1.4,2.17l-6.78,7.16-2-1.91,6.7-7.08a5.26,5.26,0,0,0,.8-1.1,3.31,3.31,0,0,0,.4-1.27,3,3,0,0,0-.19-1.36,4.34,4.34,0,0,0-2.41-2.28,3,3,0,0,0-1.37-.12,3.32,3.32,0,0,0-1.25.47,5.32,5.32,0,0,0-1.06.86l-6.7,7.08-2-1.91Z" transform="translate(-201.45 -40.04)"/><path class="cls-1" d="M1479.8,243.18a3.37,3.37,0,0,0,.27,1.54,3.7,3.7,0,0,0,.94,1.37,3.93,3.93,0,0,0,.8.56,2.93,2.93,0,0,0,.9.32,2.06,2.06,0,0,0,.92,0,1.82,1.82,0,0,0,.85-0.55,1.74,1.74,0,0,0,.45-0.81,2,2,0,0,0,0-.88,4.11,4.11,0,0,0-.38-1q-0.27-.52-0.63-1.11t-0.78-1.45a6,6,0,0,1-.54-1.59,4,4,0,0,1,0-1.68,3.89,3.89,0,0,1,1-1.7,4.88,4.88,0,0,1,1.82-1.31,4.53,4.53,0,0,1,2-.32,5.27,5.27,0,0,1,2,.53,7.62,7.62,0,0,1,1.82,1.24,8.19,8.19,0,0,1,1.82,2.42,5.74,5.74,0,0,1,.64,2.83l-2.71,0a4,4,0,0,0-.29-2,4.3,4.3,0,0,0-1.08-1.61,4.19,4.19,0,0,0-.81-0.58,2.64,2.64,0,0,0-.95-0.31,2.28,2.28,0,0,0-1,.08,2.07,2.07,0,0,0-.91.62,1.74,1.74,0,0,0-.48.95,2.58,2.58,0,0,0,.09,1,5.59,5.59,0,0,0,.5,1.15l0.71,1.28a13.66,13.66,0,0,1,.68,1.34,4.67,4.67,0,0,1,.39,1.45,3.93,3.93,0,0,1-.16,1.53,4.24,4.24,0,0,1-1,1.59,4,4,0,0,1-1.74,1.18,4.37,4.37,0,0,1-1.92.17,5.77,5.77,0,0,1-1.91-.61,8,8,0,0,1-1.72-1.2,7.42,7.42,0,0,1-1.5-1.93,5.89,5.89,0,0,1-.72-2.36Z" transform="translate(-201.45 -40.04)"/><path class="cls-1" d="M1473.46,238.64l3.58,3.16-1.6,1.82-9.24-8.15,1.6-1.82,3.58,3.16,8.7-9.87,2.08,1.83Z" transform="translate(-201.45 -40.04)"/><path class="cls-1" d="M1464.66,234.14l-4.12-3.51a9.74,9.74,0,0,1-1.48-1.56,5.49,5.49,0,0,1-.91-1.77,4,4,0,0,1-.08-1.89,4.2,4.2,0,0,1,1-1.91,4,4,0,0,1,2.52-1.48,4.82,4.82,0,0,1,2.92.59l1.31-8,2.55,2.17-1.53,7.36,1.54,1.31,4.28-5,2.11,1.8Zm0.51-8.37a8.07,8.07,0,0,0-1-.7,3.42,3.42,0,0,0-1-.44,2.09,2.09,0,0,0-1,0,2,2,0,0,0-1,.68,1.78,1.78,0,0,0-.46,1,2.13,2.13,0,0,0,.13,1,3,3,0,0,0,.55.9,7.11,7.11,0,0,0,.77.77l1.91,1.63,2.84-3.33Z" transform="translate(-201.45 -40.04)"/><path class="cls-1" d="M1450.2,222l-1.86-1.52,4.67-16.3,2.45,2-1.13,3.68,5.23,4.28,3.35-1.87,2.4,2Zm3.38-9.69-2.16,6.42,5.9-3.36Z" transform="translate(-201.45 -40.04)"/><path class="cls-1" d="M1441.78,215.18l-2.18-1.72,8.12-10.3-5.2-4.1,1.53-1.93,7.38,5.82Z" transform="translate(-201.45 -40.04)"/><path class="cls-1" d="M1432.66,208l-2.2-1.69L1440,194l2.2,1.69Z" transform="translate(-201.45 -40.04)"/><path class="cls-1" d="M1423.63,201.17l-1.92-1.43,3.94-16.5,2.54,1.89-1,3.72,5.41,4,3.26-2,2.49,1.86Zm2.94-9.83-1.87,6.51,5.75-3.62Z" transform="translate(-201.45 -40.04)"/><path class="cls-1" d="M1365.21,158.71l4.08,2.48-1.25,2.07-10.53-6.39,1.26-2.07,4.08,2.48,6.83-11.25,2.37,1.44Z" transform="translate(-201.45 -40.04)"/><path class="cls-1" d="M1355.79,155.85l-2.4-1.39,3.16-5.44-6.3-3.66-3.16,5.44-2.4-1.39,7.82-13.47,2.4,1.39-3.47,6,6.3,3.66,3.47-6,2.4,1.39Z" transform="translate(-201.45 -40.04)"/><path class="cls-1" d="M1341.57,147.65l-9-5,1.17-2.12,6.6,3.66,1.92-3.46-6.25-3.47,1.13-2,6.25,3.47,2.13-3.85-6.95-3.85,1.19-2.15,9.37,5.19Z" transform="translate(-201.45 -40.04)"/><path class="cls-1" d="M1324.42,138.28l-4.51-2.35a11.11,11.11,0,0,1-2-1.33,5.06,5.06,0,0,1-1.27-1.56,3.68,3.68,0,0,1-.4-1.8,4.69,4.69,0,0,1,.58-2,4.47,4.47,0,0,1,1.43-1.71,3.94,3.94,0,0,1,1.82-.65,5.73,5.73,0,0,1,2.07.2,10.83,10.83,0,0,1,2.18.86l1.89,1,3-5.72,2.46,1.28Zm-1-8.2a8.11,8.11,0,0,0-1.2-.51,3.56,3.56,0,0,0-1.14-.2,2,2,0,0,0-1,.26,2.06,2.06,0,0,0-.78.88,1.84,1.84,0,0,0,.1,2.06,3.24,3.24,0,0,0,.81.78,9.66,9.66,0,0,0,1.07.64l1.79,0.94,2.06-4Z" transform="translate(-201.45 -40.04)"/><path class="cls-1" d="M1312.37,132l-2.48-1.23,2.8-5.64-6.52-3.24-2.79,5.64-2.48-1.23,6.92-14,2.48,1.23-3.07,6.19,6.52,3.23,3.07-6.19,2.48,1.23Z" transform="translate(-201.45 -40.04)"/><path class="cls-1" d="M1297.56,124.76l-2.5-1.19,6.71-14.06,2.5,1.19Z" transform="translate(-201.45 -40.04)"/><path class="cls-1" d="M1291.66,122l-2.52-1.16,5.5-11.9-6-2.78,1-2.24,8.53,3.94Z" transform="translate(-201.45 -40.04)"/><path class="cls-1" d="M1281.21,117.15l-2.53-1.12,5.32-12-6.05-2.69,1-2.25,8.59,3.81Z" transform="translate(-201.45 -40.04)"/><path class="cls-1" d="M1270.63,112.5l-2.55-1.09,6.15-14.31,2.55,1.09Z" transform="translate(-201.45 -40.04)"/><path class="cls-1" d="M1264.68,109.95L1260,108a11.07,11.07,0,0,1-2.14-1.15,5,5,0,0,1-1.4-1.44,3.69,3.69,0,0,1-.56-1.75,4.71,4.71,0,0,1,.4-2.07,4.46,4.46,0,0,1,1.28-1.83,3.93,3.93,0,0,1,1.75-.81,5.72,5.72,0,0,1,2.08,0,10.83,10.83,0,0,1,2.25.67l2,0.82,2.46-6,2.56,1.06Zm-1.75-8.08a8.15,8.15,0,0,0-1.24-.4,3.58,3.58,0,0,0-1.15-.09,2,2,0,0,0-1,.35,2.07,2.07,0,0,0-.7.95,1.84,1.84,0,0,0,.29,2,3.25,3.25,0,0,0,.87.71,9.9,9.9,0,0,0,1.12.55l1.87,0.77,1.71-4.13Z" transform="translate(-201.45 -40.04)"/><path class="cls-1" d="M1252.08,104.77l-4.73-1.86a11.05,11.05,0,0,1-2.16-1.11,5,5,0,0,1-1.43-1.41,3.69,3.69,0,0,1-.59-1.74,4.69,4.69,0,0,1,.37-2.08,4.48,4.48,0,0,1,1.25-1.85,3.92,3.92,0,0,1,1.74-.84,5.73,5.73,0,0,1,2.08,0,10.78,10.78,0,0,1,2.26.63l2,0.78,2.35-6,2.58,1Zm-1.9-8a8.18,8.18,0,0,0-1.25-.38,3.58,3.58,0,0,0-1.15-.07,2,2,0,0,0-1,.36,2.07,2.07,0,0,0-.68,1,1.84,1.84,0,0,0,.32,2,3.27,3.27,0,0,0,.89.69,9.88,9.88,0,0,0,1.13.53l1.88,0.74,1.63-4.16Z" transform="translate(-201.45 -40.04)"/><path class="cls-1" d="M1239.28,99.8l-2.59-1,5.49-14.58,2.59,1Z" transform="translate(-201.45 -40.04)"/><path class="cls-1" d="M1233.25,97.52l-3.46-1.24-2.87-13.42h0l-3.94,11-2.61-.94,5.26-14.66,3.31,1.19,2.89,13.82h0l4.06-11.33,2.61,0.94Z" transform="translate(-201.45 -40.04)"/><path class="cls-1" d="M1216.94,91.72l-9.78-3.28,0.77-2.29,7.15,2.4,1.26-3.75-6.78-2.28,0.74-2.21,6.78,2.28,1.4-4.17L1211,75.88l0.78-2.34L1221.9,77Z" transform="translate(-201.45 -40.04)"/><path class="cls-1" d="M1197.42,81.92a3.37,3.37,0,0,0,.9,1.29,3.7,3.7,0,0,0,1.43.85,4,4,0,0,0,1,.18,3,3,0,0,0,1-.09,2.08,2.08,0,0,0,.82-0.43,1.82,1.82,0,0,0,.54-0.86,1.75,1.75,0,0,0,.06-0.93,2,2,0,0,0-.38-0.79,4.11,4.11,0,0,0-.75-0.72q-0.47-.35-1-0.74t-1.31-1a6,6,0,0,1-1.16-1.22,4.05,4.05,0,0,1-.66-1.55,3.89,3.89,0,0,1,.17-2A4.88,4.88,0,0,1,1199,72a4.51,4.51,0,0,1,1.64-1.11,5.24,5.24,0,0,1,2-.34,7.59,7.59,0,0,1,2.17.36,8.18,8.18,0,0,1,2.66,1.43,5.73,5.73,0,0,1,1.76,2.3l-2.44,1.17a4,4,0,0,0-1.08-1.66,4.3,4.3,0,0,0-1.65-1,4.25,4.25,0,0,0-1-.18,2.66,2.66,0,0,0-1,.11,2.27,2.27,0,0,0-.84.48,2.08,2.08,0,0,0-.56.94,1.74,1.74,0,0,0,0,1.06,2.56,2.56,0,0,0,.52.9,5.51,5.51,0,0,0,.94.84l1.18,0.86a13.65,13.65,0,0,1,1.18.93,4.66,4.66,0,0,1,1,1.16,3.92,3.92,0,0,1,.5,1.46,4.25,4.25,0,0,1-.22,1.86,4,4,0,0,1-1.09,1.8,4.37,4.37,0,0,1-1.67,1,5.76,5.76,0,0,1-2,.25,8,8,0,0,1-2.07-.36,7.43,7.43,0,0,1-2.17-1.12,5.89,5.89,0,0,1-1.65-1.84Z" transform="translate(-201.45 -40.04)"/><path class="cls-1" d="M1094.13,60.9l-9.93-1.56,0.37-2.39,7.19,1.13,0.66-4.22-6.78-1.06,0.36-2.3,6.78,1.06,1-6.48,2.74,0.43Z" transform="translate(-201.45 -40.04)"/><path class="cls-1" d="M1081.37,58.94l-2.74-.39,2.21-15.42,2.74,0.39Z" transform="translate(-201.45 -40.04)"/><path class="cls-1" d="M1068.69,46.58a9.33,9.33,0,0,1,.42-1.76,5.23,5.23,0,0,1,.92-1.66,3.94,3.94,0,0,1,1.59-1.14,4.75,4.75,0,0,1,2.42-.21,4.56,4.56,0,0,1,2.88,1.33,4.76,4.76,0,0,1,1.21,2.67l-2.62.39a2.3,2.3,0,0,0-.56-1.3,1.86,1.86,0,0,0-1.18-.61,2,2,0,0,0-1,.09,1.49,1.49,0,0,0-.67.54,3.19,3.19,0,0,0-.42.92,7.86,7.86,0,0,0-.25,1.2l-1.36,10.36-2.75-.36Z" transform="translate(-201.45 -40.04)"/><path class="cls-1" d="M1063.74,56.59l-2.75-.33,1.85-15.47,2.75,0.33Z" transform="translate(-201.45 -40.04)"/><path class="cls-1" d="M889,53.12l4.74-.53L894,55,881.8,56.36,881.54,54l4.75-.53-1.45-13.08,2.76-.3Z" transform="translate(-201.45 -40.04)"/><path class="cls-1" d="M880.24,48.72a8.71,8.71,0,0,1-.18,3.43,7.42,7.42,0,0,1-1.39,2.77,7.69,7.69,0,0,1-2.41,2,9.43,9.43,0,0,1-3.23,1,9.61,9.61,0,0,1-3.41-.13,7.8,7.8,0,0,1-2.85-1.27,7.35,7.35,0,0,1-2.07-2.31,8.71,8.71,0,0,1-1.06-3.27,8.59,8.59,0,0,1,.19-3.39,7.68,7.68,0,0,1,1.4-2.8,8,8,0,0,1,2.42-2,9.14,9.14,0,0,1,3.26-1,9,9,0,0,1,3.38.17,7.85,7.85,0,0,1,2.84,1.34,7.76,7.76,0,0,1,2.06,2.35A8.58,8.58,0,0,1,880.24,48.72Zm-3,.39a6.61,6.61,0,0,0-.68-2.23,5.34,5.34,0,0,0-1.33-1.66,5,5,0,0,0-1.83-1,5.34,5.34,0,0,0-2.2-.14,5.44,5.44,0,0,0-2.1.71,5,5,0,0,0-1.53,1.41,5.35,5.35,0,0,0-.86,1.94,6.6,6.6,0,0,0-.08,2.33,6.38,6.38,0,0,0,.67,2.17,5.48,5.48,0,0,0,1.31,1.65,5,5,0,0,0,1.84,1,5.36,5.36,0,0,0,2.24.15,5.3,5.3,0,0,0,2.11-.72,5.07,5.07,0,0,0,1.51-1.42,5.48,5.48,0,0,0,.85-1.93A6.38,6.38,0,0,0,877.25,49.11Z" transform="translate(-201.45 -40.04)"/><path class="cls-1" d="M861.91,59l-3.63.56-8.94-10.41h0l1.79,11.52-2.74.43L846,45.7l3.48-.54,9.15,10.76h0L856.78,44l2.74-.42Z" transform="translate(-201.45 -40.04)"/><path class="cls-1" d="M828.8,49.55a12,12,0,0,1,2.41-1.34,15,15,0,0,1,3.16-.89,9.51,9.51,0,0,1,3.51,0,7.9,7.9,0,0,1,2.94,1.2A7.67,7.67,0,0,1,843,50.75a8.57,8.57,0,0,1,1.2,3.17,8.45,8.45,0,0,1,0,3.44,7.51,7.51,0,0,1-1.3,2.84,7.9,7.9,0,0,1-2.34,2.07,9.54,9.54,0,0,1-3.19,1.15,10.38,10.38,0,0,1-3.46.07,7,7,0,0,1-2.71-1l1.52-2.37a4.71,4.71,0,0,0,1.83.81,5.78,5.78,0,0,0,2.37,0A5.51,5.51,0,0,0,839,60.2a5,5,0,0,0,1.46-1.49,5.46,5.46,0,0,0,.75-2,6.38,6.38,0,0,0,0-2.28,6.62,6.62,0,0,0-.78-2.2,5.35,5.35,0,0,0-1.4-1.59,4.94,4.94,0,0,0-1.92-.87,6,6,0,0,0-2.36,0,8,8,0,0,0-3,1.09l0.7,3.9,3.23-.58,0.4,2.25-5.87,1Z" transform="translate(-201.45 -40.04)"/><path class="cls-1" d="M823.19,65.7l-2.35.47-9.65-13.94,3.11-.62,2.13,3.21L823,53.48l0.68-3.77,3-.61ZM817.83,57l3.6,5.74L822.58,56Z" transform="translate(-201.45 -40.04)"/><path class="cls-1" d="M710.38,93.69a3.56,3.56,0,0,0,1.92.61,5.38,5.38,0,0,0,3.87-1.45,5.14,5.14,0,0,0,1.2-1.71,5.36,5.36,0,0,0,.42-2.07,6.35,6.35,0,0,0-.4-2.24,6.93,6.93,0,0,0-1.14-2.07,5.24,5.24,0,0,0-1.62-1.35,4.77,4.77,0,0,0-2-.55,5.45,5.45,0,0,0-2.19.34,4.81,4.81,0,0,0-1.92,1.22,4.33,4.33,0,0,0-1,1.76l-2.62-.72a7.12,7.12,0,0,1,1.7-2.75,8,8,0,0,1,3-1.86,9.05,9.05,0,0,1,3.36-.57,7.59,7.59,0,0,1,5.54,2.57,8.73,8.73,0,0,1,1.71,2.93,8.45,8.45,0,0,1,.53,3.4,7.53,7.53,0,0,1-.81,3,7.91,7.91,0,0,1-2,2.44,9.54,9.54,0,0,1-3,1.67,9.1,9.1,0,0,1-1.52.39,8,8,0,0,1-1.62.11,7.51,7.51,0,0,1-1.57-.22A4.53,4.53,0,0,1,709,96Z" transform="translate(-201.45 -40.04)"/><path class="cls-1" d="M705.83,91a8.73,8.73,0,0,1,.63,3.38,7.41,7.41,0,0,1-.7,3,7.7,7.7,0,0,1-1.88,2.47,9.44,9.44,0,0,1-2.9,1.73,9.59,9.59,0,0,1-3.35.68,7.79,7.79,0,0,1-3.07-.56A7.34,7.34,0,0,1,692,99.92a8.73,8.73,0,0,1-1.8-2.93,8.59,8.59,0,0,1-.61-3.34,7.7,7.7,0,0,1,.7-3.05,7.94,7.94,0,0,1,1.88-2.54,9.12,9.12,0,0,1,2.92-1.77,9,9,0,0,1,3.33-.63A7.68,7.68,0,0,1,704,88.09,8.6,8.6,0,0,1,705.83,91ZM703,92.06a6.6,6.6,0,0,0-1.19-2,5.35,5.35,0,0,0-1.68-1.3,5,5,0,0,0-2-.51,5.34,5.34,0,0,0-2.18.38,5.41,5.41,0,0,0-1.88,1.18,5,5,0,0,0-1.16,1.73,5.33,5.33,0,0,0-.37,2.09,6.6,6.6,0,0,0,.47,2.28,6.37,6.37,0,0,0,1.17,2,5.47,5.47,0,0,0,1.67,1.29,5,5,0,0,0,2,.52,5.36,5.36,0,0,0,2.21-.38A5.29,5.29,0,0,0,702,98.1a5.08,5.08,0,0,0,1.14-1.73,5.47,5.47,0,0,0,.37-2.07A6.38,6.38,0,0,0,703,92.06Z" transform="translate(-201.45 -40.04)"/><path class="cls-1" d="M688.18,97.8a8.7,8.7,0,0,1,.71,3.36,7.41,7.41,0,0,1-.62,3,7.7,7.7,0,0,1-1.82,2.51,9.44,9.44,0,0,1-2.86,1.8,9.59,9.59,0,0,1-3.33.76,7.8,7.8,0,0,1-3.08-.49,7.33,7.33,0,0,1-2.6-1.7,8.71,8.71,0,0,1-1.87-2.88,8.59,8.59,0,0,1-.7-3.32,7.69,7.69,0,0,1,.62-3.07,8,8,0,0,1,1.81-2.58,9.13,9.13,0,0,1,2.88-1.85,9,9,0,0,1,3.31-.72A7.68,7.68,0,0,1,686.33,95,8.6,8.6,0,0,1,688.18,97.8ZM685.4,99a6.6,6.6,0,0,0-1.24-2,5.36,5.36,0,0,0-1.71-1.26,5,5,0,0,0-2-.46,5.32,5.32,0,0,0-2.17.43,5.41,5.41,0,0,0-1.85,1.23,5,5,0,0,0-1.12,1.76,5.35,5.35,0,0,0-.32,2.1,6.61,6.61,0,0,0,.52,2.27,6.39,6.39,0,0,0,1.21,1.93,5.47,5.47,0,0,0,1.7,1.25,5,5,0,0,0,2,.47,5.37,5.37,0,0,0,2.2-.44,5.29,5.29,0,0,0,1.85-1.24,5.08,5.08,0,0,0,1.09-1.76,5.48,5.48,0,0,0,.32-2.08A6.4,6.4,0,0,0,685.4,99Z" transform="translate(-201.45 -40.04)"/><path class="cls-1" d="M673.1,112.49l-2.54,1.12-2.72-6.16-0.06,0-3.24,8.79-3.42,1.51,3.76-9.52-10.49-4.54,3.56-1.57,9.41,4.39,0.06,0-3.15-7.15,2.54-1.12Z" transform="translate(-201.45 -40.04)"/><path class="cls-1" d="M653.9,121.13l-2.51,1.17-6.6-14.11L647.3,107Z" transform="translate(-201.45 -40.04)"/><path class="cls-1" d="M639.43,124.42a3.37,3.37,0,0,0,1.54.32,3.71,3.71,0,0,0,1.62-.36,4,4,0,0,0,.82-0.53,3,3,0,0,0,.63-0.72,2.08,2.08,0,0,0,.3-0.88,1.83,1.83,0,0,0-.2-1,1.75,1.75,0,0,0-.59-0.72,2,2,0,0,0-.82-0.31,4.1,4.1,0,0,0-1,0c-0.39,0-.81.1-1.26,0.17s-1.06.13-1.64,0.18a6,6,0,0,1-1.68-.09,4,4,0,0,1-1.55-.67,3.89,3.89,0,0,1-1.22-1.54,4.88,4.88,0,0,1-.54-2.17,4.52,4.52,0,0,1,.43-1.93,5.24,5.24,0,0,1,1.22-1.62,7.6,7.6,0,0,1,1.83-1.23,8.19,8.19,0,0,1,2.92-.79,5.74,5.74,0,0,1,2.86.46l-1,2.53a4,4,0,0,0-1.92-.46,4.31,4.31,0,0,0-1.89.4,4.19,4.19,0,0,0-.84.54,2.62,2.62,0,0,0-.64.76,2.26,2.26,0,0,0-.28.93,2.07,2.07,0,0,0,.24,1.07,1.73,1.73,0,0,0,.7.8,2.57,2.57,0,0,0,1,.3,5.56,5.56,0,0,0,1.25,0l1.45-.19a13.5,13.5,0,0,1,1.5-.14,4.65,4.65,0,0,1,1.49.18,3.93,3.93,0,0,1,1.36.72,4.25,4.25,0,0,1,1.12,1.5,4,4,0,0,1,.44,2.06,4.38,4.38,0,0,1-.55,1.84,5.78,5.78,0,0,1-1.28,1.55,8,8,0,0,1-1.75,1.15,7.4,7.4,0,0,1-2.35.67,5.88,5.88,0,0,1-2.46-.21Z" transform="translate(-201.45 -40.04)"/><path class="cls-1" d="M636.43,129.52L634,130.77l-5.9-11.71-5.91,3-1.11-2.2,8.39-4.23Z" transform="translate(-201.45 -40.04)"/><path class="cls-1" d="M621.9,137l-2.12,1.12-13.19-10.66,2.8-1.48,2.94,2.48,6-3.15-0.41-3.81,2.74-1.45Zm-7.6-6.89,5.07,4.49-0.79-6.74Z" transform="translate(-201.45 -40.04)"/><path class="cls-1" d="M612.38,142l-3.21,1.78-12-6.69,0,0,5.66,10.2-2.42,1.34L592.82,135l3.08-1.71,12.3,6.94,0,0-5.84-10.52,2.42-1.34Z" transform="translate(-201.45 -40.04)"/><path class="cls-1" d="M597.29,150.42l-4.77,2.79a12.27,12.27,0,0,1-2.84,1.2,7.93,7.93,0,0,1-3.05.27,6.87,6.87,0,0,1-2.94-1.06,8,8,0,0,1-2.53-2.79,7.52,7.52,0,0,1-1.11-3.43,7.21,7.21,0,0,1,.51-3.1,8.37,8.37,0,0,1,1.69-2.61,10.83,10.83,0,0,1,2.41-1.93l4.77-2.79Zm-11-8.79a9.42,9.42,0,0,0-1.73,1.31,5.6,5.6,0,0,0-1.25,1.72,4.55,4.55,0,0,0-.4,2.13,5.54,5.54,0,0,0,.85,2.54,5.9,5.9,0,0,0,1.85,2.08,4.42,4.42,0,0,0,2.06.71,5.27,5.27,0,0,0,2.09-.28,10.73,10.73,0,0,0,2-.9l2-1.17-5.44-9.31Z" transform="translate(-201.45 -40.04)"/><path class="cls-1" d="M574.19,160.41a3.35,3.35,0,0,0,1.56.17,3.71,3.71,0,0,0,1.58-.51,4,4,0,0,0,.76-0.61,3,3,0,0,0,.56-0.78,2.07,2.07,0,0,0,.21-0.9,1.81,1.81,0,0,0-.29-1,1.75,1.75,0,0,0-.66-0.65,2,2,0,0,0-.85-0.23,4.08,4.08,0,0,0-1,.09q-0.57.12-1.24,0.29t-1.61.34a6,6,0,0,1-1.68.08,4,4,0,0,1-1.6-.51,3.89,3.89,0,0,1-1.36-1.41,4.88,4.88,0,0,1-.75-2.11,4.52,4.52,0,0,1,.24-2,5.24,5.24,0,0,1,1.06-1.73,7.61,7.61,0,0,1,1.7-1.4,8.2,8.2,0,0,1,2.83-1.07,5.74,5.74,0,0,1,2.89.18l-0.72,2.61a4,4,0,0,0-2-.27,4.31,4.31,0,0,0-1.85.59,4.26,4.26,0,0,0-.78.62,2.62,2.62,0,0,0-.57.82,2.29,2.29,0,0,0-.19,1,2.08,2.08,0,0,0,.34,1,1.74,1.74,0,0,0,.78.72,2.57,2.57,0,0,0,1,.2,5.51,5.51,0,0,0,1.25-.16l1.42-.33a14,14,0,0,1,1.48-.28,4.68,4.68,0,0,1,1.5,0,3.92,3.92,0,0,1,1.43.58,4.25,4.25,0,0,1,1.26,1.38,4,4,0,0,1,.64,2,4.36,4.36,0,0,1-.37,1.89,5.78,5.78,0,0,1-1.12,1.67,8,8,0,0,1-1.63,1.32,7.43,7.43,0,0,1-2.27.9,5.9,5.9,0,0,1-2.46,0Z" transform="translate(-201.45 -40.04)"/><path class="cls-1" d="M507.14,206.47a3.55,3.55,0,0,0,2,0,5.3,5.3,0,0,0,1.77-.87,5.36,5.36,0,0,0,1.48-1.69,5.16,5.16,0,0,0,.62-2,5.37,5.37,0,0,0-.22-2.1,6.38,6.38,0,0,0-1.06-2,6.92,6.92,0,0,0-1.71-1.62,5.27,5.27,0,0,0-2-.79,4.79,4.79,0,0,0-2,.08,5.43,5.43,0,0,0-2,1,4.8,4.8,0,0,0-1.46,1.74,4.35,4.35,0,0,0-.45,2l-2.71.11a7.1,7.1,0,0,1,.78-3.14,8,8,0,0,1,2.34-2.69,9,9,0,0,1,3-1.56,7.59,7.59,0,0,1,6.06.76,8.73,8.73,0,0,1,2.52,2.27,8.45,8.45,0,0,1,1.54,3.08,7.51,7.51,0,0,1,.14,3.12,7.91,7.91,0,0,1-1.13,2.92,9.54,9.54,0,0,1-2.31,2.49,9.18,9.18,0,0,1-1.33.84,8,8,0,0,1-1.51.6,7.57,7.57,0,0,1-1.57.27,4.55,4.55,0,0,1-1.53-.16Z" transform="translate(-201.45 -40.04)"/><path class="cls-1" d="M502.42,214.85l-1.87,1.5-15-8,2.48-2,3.36,1.88,5.28-4.21-1.12-3.66,2.42-1.93Zm-8.76-5.33,5.83,3.46-2-6.47Z" transform="translate(-201.45 -40.04)"/><path class="cls-1" d="M494,221.61L491.18,224l-13-4.31,0,0,7.47,9-2.13,1.78-10-12,2.7-2.26,13.39,4.5,0,0-7.71-9.24,2.13-1.78Z" transform="translate(-201.45 -40.04)"/><path class="cls-1" d="M477.08,235.93l-1.81,1.58L460,230.18l2.39-2.08,3.44,1.73,5.09-4.44-1.28-3.61,2.34-2Zm-9-4.95,6,3.2-2.32-6.38Z" transform="translate(-201.45 -40.04)"/><path class="cls-1" d="M469,243l-4.08,3.72a12.25,12.25,0,0,1-2.53,1.77,7.92,7.92,0,0,1-2.93.9,6.85,6.85,0,0,1-3.09-.43,8,8,0,0,1-3-2.21,7.51,7.51,0,0,1-1.8-3.12,7.21,7.21,0,0,1-.15-3.14,8.38,8.38,0,0,1,1.11-2.9,10.81,10.81,0,0,1,2-2.39l4.08-3.72Zm-12.62-6.31a9.37,9.37,0,0,0-1.42,1.64,5.62,5.62,0,0,0-.86,1.95,4.57,4.57,0,0,0,.05,2.17,5.54,5.54,0,0,0,1.36,2.31,5.92,5.92,0,0,0,2.24,1.65,4.44,4.44,0,0,0,2.16.26,5.3,5.3,0,0,0,2-.71,10.82,10.82,0,0,0,1.74-1.29l1.71-1.55-7.26-8Z" transform="translate(-201.45 -40.04)"/><path class="cls-1" d="M453.3,257.5l-1.74,1.65L436,252.47l2.3-2.18,3.51,1.58,4.9-4.65-1.43-3.55,2.25-2.14Zm-9.19-4.57,6.1,2.94-2.59-6.28Z" transform="translate(-201.45 -40.04)"/><path class="cls-1" d="M342.25,372a6.41,6.41,0,0,1-1.8-1.86,5.7,5.7,0,0,1-.82-2.19,5.81,5.81,0,0,1,.14-2.32,7.41,7.41,0,0,1,2.86-4.07,5.91,5.91,0,0,1,2.14-.93,5.48,5.48,0,0,1,2.33,0,6.53,6.53,0,0,1,2.35,1.07l8.07,5.66-1.59,2.27-8-5.6a5.33,5.33,0,0,0-1.21-.63,3.32,3.32,0,0,0-1.32-.21,3,3,0,0,0-1.32.39,4.35,4.35,0,0,0-1.91,2.72,3,3,0,0,0,.08,1.38,3.33,3.33,0,0,0,.65,1.17,5.32,5.32,0,0,0,1,.92l8,5.6-1.59,2.27Z" transform="translate(-201.45 -40.04)"/><path class="cls-1" d="M337.36,371.75a1.64,1.64,0,0,1,.71,1.11,1.71,1.71,0,0,1-.28,1.31,1.77,1.77,0,0,1-1.09.75,1.55,1.55,0,0,1-1.28-.23,1.63,1.63,0,0,1-.71-1.11,1.71,1.71,0,0,1,.28-1.31,1.73,1.73,0,0,1,.49-0.48,1.93,1.93,0,0,1,.61-0.27,1.63,1.63,0,0,1,.65,0A1.55,1.55,0,0,1,337.36,371.75Z" transform="translate(-201.45 -40.04)"/><path class="cls-1" d="M338.12,390a3.38,3.38,0,0,0,1.48-.51,3.71,3.71,0,0,0,1.21-1.13,4,4,0,0,0,.43-0.87,3,3,0,0,0,.17-0.94,2.06,2.06,0,0,0-.19-0.91,1.81,1.81,0,0,0-.68-0.75,1.74,1.74,0,0,0-.87-0.32,2,2,0,0,0-.87.15,4.11,4.11,0,0,0-.9.52q-0.47.35-1,.79t-1.32,1a6,6,0,0,1-1.49.78,4,4,0,0,1-1.67.21,3.9,3.9,0,0,1-1.83-.7,4.88,4.88,0,0,1-1.57-1.6,4.5,4.5,0,0,1-.61-1.88,5.25,5.25,0,0,1,.23-2,7.57,7.57,0,0,1,.95-2,8.17,8.17,0,0,1,2.11-2.17,5.73,5.73,0,0,1,2.7-1.06l0.44,2.67a4,4,0,0,0-1.89.58,4.09,4.09,0,0,0-1.87,2.2,2.64,2.64,0,0,0-.17,1,2.28,2.28,0,0,0,.23.95,2.07,2.07,0,0,0,.75.8,1.74,1.74,0,0,0,1,.33,2.58,2.58,0,0,0,1-.25,5.57,5.57,0,0,0,1.06-.67l1.15-.9a13.59,13.59,0,0,1,1.22-.88,4.67,4.67,0,0,1,1.38-.6,3.91,3.91,0,0,1,1.54-.07,4.24,4.24,0,0,1,1.73.72,4,4,0,0,1,1.43,1.54,4.38,4.38,0,0,1,.46,1.87,5.79,5.79,0,0,1-.31,2,8,8,0,0,1-.92,1.88,7.41,7.41,0,0,1-1.68,1.78,5.91,5.91,0,0,1-2.22,1.08Z" transform="translate(-201.45 -40.04)"/><path class="cls-1" d="M326.65,387.81a1.63,1.63,0,0,1,.74,1.09,1.72,1.72,0,0,1-.25,1.32,1.77,1.77,0,0,1-1.08.77,1.55,1.55,0,0,1-1.28-.2,1.63,1.63,0,0,1-.74-1.09,1.71,1.71,0,0,1,.25-1.32,1.73,1.73,0,0,1,.47-0.49,1.91,1.91,0,0,1,.6-0.28,1.62,1.62,0,0,1,.65,0A1.54,1.54,0,0,1,326.65,387.81Z" transform="translate(-201.45 -40.04)"/><path class="cls-1" d="M332.26,405.12l-1.27,2-16.76-2.57,1.68-2.69,3.79,0.66,3.58-5.73L321,393.75l1.65-2.63Zm-10-2.12,6.64,1.33-4.08-5.43Z" transform="translate(-201.45 -40.04)"/><path class="cls-1" d="M314.83,406.61a1.63,1.63,0,0,1,.77,1.07,1.71,1.71,0,0,1-.21,1.33,1.77,1.77,0,0,1-1.05.8,1.55,1.55,0,0,1-1.29-.16,1.63,1.63,0,0,1-.77-1.07,1.71,1.71,0,0,1,.21-1.33,1.74,1.74,0,0,1,.46-0.51,1.92,1.92,0,0,1,.59-0.3,1.62,1.62,0,0,1,.65-0.06A1.55,1.55,0,0,1,314.83,406.61Z" transform="translate(-201.45 -40.04)"/><path class="cls-1" d="M252.65,531.86a12.08,12.08,0,0,1,.12-2.75,15,15,0,0,1,.89-3.16,9.51,9.51,0,0,1,1.82-3,7.9,7.9,0,0,1,2.56-1.88,7.68,7.68,0,0,1,3.05-.68,8.58,8.58,0,0,1,3.33.63,8.46,8.46,0,0,1,2.91,1.83,7.52,7.52,0,0,1,1.74,2.59,7.92,7.92,0,0,1,.54,3.08,9.53,9.53,0,0,1-.69,3.32,10.37,10.37,0,0,1-1.75,3,7,7,0,0,1-2.23,1.81l-1.23-2.54a4.71,4.71,0,0,0,1.65-1.14,5.78,5.78,0,0,0,1.28-2,5.5,5.5,0,0,0,.4-2.24,5,5,0,0,0-.51-2,5.47,5.47,0,0,0-1.28-1.67,6.39,6.39,0,0,0-1.95-1.18,6.6,6.6,0,0,0-2.28-.48,5.36,5.36,0,0,0-2.09.36,5,5,0,0,0-1.75,1.18,6,6,0,0,0-1.25,2,8,8,0,0,0-.62,3.09l3.69,1.44,1.19-3.05,2.13,0.83-2.17,5.55Z" transform="translate(-201.45 -40.04)"/><path class="cls-1" d="M251.65,548.79a6.41,6.41,0,0,1-2.22-1.33,5.7,5.7,0,0,1-1.35-1.9,5.82,5.82,0,0,1-.47-2.28,7.41,7.41,0,0,1,1.71-4.67,5.92,5.92,0,0,1,1.83-1.45,5.48,5.48,0,0,1,2.26-.58A6.53,6.53,0,0,1,256,537l9.26,3.39-1,2.6-9.15-3.35a5.28,5.28,0,0,0-1.33-.3,3.31,3.31,0,0,0-1.33.13,3,3,0,0,0-1.18.72,4.34,4.34,0,0,0-1.14,3.12,3,3,0,0,0,.44,1.31,3.33,3.33,0,0,0,.93,1,5.31,5.31,0,0,0,1.21.63l9.15,3.35-1,2.6Z" transform="translate(-201.45 -40.04)"/><path class="cls-1" d="M258.27,559.76L257.5,562l-16.91,1.3,1-3,3.84-.22,2.19-6.39-2.92-2.49,1-2.93ZM248,560l6.77-.21-5.2-4.36Z" transform="translate(-201.45 -40.04)"/><path class="cls-1" d="M251.94,571l1.47-4.54,2.3,0.75L251.92,579l-2.3-.75,1.47-4.54-12.52-4,0.85-2.64Z" transform="translate(-201.45 -40.04)"/><path class="cls-1" d="M251.32,580.9l-3,9.87-2.32-.71,2.2-7.22-3.79-1.15-2.08,6.84-2.23-.68,2.08-6.84L238,579.73l-2.31,7.6-2.36-.72,3.12-10.25Z" transform="translate(-201.45 -40.04)"/><path class="cls-1" d="M247.39,593.84L246.22,598l-11.75.92,0,0.06,9.58,6.84-1.17,4.2-15-4.2,0.74-2.65,12.06,3.37v0l-10.78-7.93,0.52-1.86,13.31-1.12v0l-12.06-3.37,0.71-2.54Z" transform="translate(-201.45 -40.04)"/><path class="cls-1" d="M240.78,618.17l-0.59,2.32-16.75,2.67,0.78-3.07,3.81-.53,1.66-6.55-3.11-2.24,0.76-3Zm-10.21,1,6.73-.76-5.54-3.93Z" transform="translate(-201.45 -40.04)"/><path class="cls-1" d="M238.16,628.7l-0.63,2.7-12.77-3-1.51,6.45-2.4-.56,2.15-9.15Z" transform="translate(-201.45 -40.04)"/><path class="cls-1" d="M234.53,644.61L234,647l-16.64,3.27,0.67-3.1,3.79-.67,1.42-6.6-3.19-2.13,0.65-3ZM224.37,646l6.7-1-5.68-3.72Z" transform="translate(-201.45 -40.04)"/><path class="cls-1" d="M219.9,742.36l-0.21,2.76-6.27-.47-0.54,7.26,6.27,0.47-0.21,2.76L203.42,754l0.21-2.76,6.89,0.51,0.54-7.26-6.89-.51,0.21-2.76Z" transform="translate(-201.45 -40.04)"/><path class="cls-1" d="M211,757.54a8.71,8.71,0,0,1,3.34.8,7.4,7.4,0,0,1,2.47,1.87,7.7,7.7,0,0,1,1.49,2.72,9.45,9.45,0,0,1,.4,3.36,9.6,9.6,0,0,1-.74,3.33,7.8,7.8,0,0,1-1.76,2.57,7.33,7.33,0,0,1-2.65,1.62,8.7,8.7,0,0,1-3.4.45,8.6,8.6,0,0,1-3.3-.8,7.69,7.69,0,0,1-2.5-1.88,8,8,0,0,1-1.56-2.75,9.13,9.13,0,0,1-.43-3.39,9,9,0,0,1,.77-3.3A7.86,7.86,0,0,1,205,759.6a7.78,7.78,0,0,1,2.68-1.6A8.61,8.61,0,0,1,211,757.54Zm-0.15,3a6.6,6.6,0,0,0-2.32.27,5.35,5.35,0,0,0-1.87,1,5.05,5.05,0,0,0-1.28,1.63,5.35,5.35,0,0,0-.54,2.14,5.42,5.42,0,0,0,.32,2.2,5,5,0,0,0,1.11,1.76,5.36,5.36,0,0,0,1.76,1.19,6.63,6.63,0,0,0,2.28.5,6.4,6.4,0,0,0,2.26-.27,5.47,5.47,0,0,0,1.86-1,5,5,0,0,0,1.3-1.63,5.36,5.36,0,0,0,.55-2.17A5.29,5.29,0,0,0,216,764a5.07,5.07,0,0,0-1.12-1.74,5.46,5.46,0,0,0-1.75-1.18A6.39,6.39,0,0,0,210.86,760.55Z" transform="translate(-201.45 -40.04)"/><path class="cls-1" d="M217.8,777.43l-0.1,3.67L205.84,788v0l11.66,0.32-0.08,2.77-15.57-.43,0.1-3.52,12.23-7.05v0l-12-.33,0.08-2.77Z" transform="translate(-201.45 -40.04)"/><path class="cls-1" d="M217.43,794.92l-0.09,5.52a12.25,12.25,0,0,1-.45,3.05,7.93,7.93,0,0,1-1.35,2.75,6.85,6.85,0,0,1-2.43,2,7.94,7.94,0,0,1-3.7.71,7.52,7.52,0,0,1-3.51-.83,7.22,7.22,0,0,1-2.39-2,8.37,8.37,0,0,1-1.35-2.79,10.82,10.82,0,0,1-.4-3.06l0.09-5.52Zm-13.24,4.87a9.42,9.42,0,0,0,.22,2.16,5.61,5.61,0,0,0,.83,2,4.56,4.56,0,0,0,1.62,1.45,5.54,5.54,0,0,0,2.61.59,5.9,5.9,0,0,0,2.74-.5,4.42,4.42,0,0,0,1.67-1.39,5.29,5.29,0,0,0,.85-1.93A10.77,10.77,0,0,0,215,800l0-2.31-10.78-.17Z" transform="translate(-201.45 -40.04)"/><path class="cls-1" d="M207.66,824.63a6.4,6.4,0,0,1-2.55-.44,5.68,5.68,0,0,1-1.95-1.29,5.81,5.81,0,0,1-1.25-2,7.42,7.42,0,0,1-.08-5,5.91,5.91,0,0,1,1.19-2,5.48,5.48,0,0,1,1.9-1.35,6.53,6.53,0,0,1,2.53-.51l9.85-.16,0,2.77-9.74.16a5.31,5.31,0,0,0-1.35.2,3.33,3.33,0,0,0-1.19.6,3,3,0,0,0-.84,1.09,4.34,4.34,0,0,0,.05,3.32,3,3,0,0,0,.88,1.06,3.32,3.32,0,0,0,1.21.56,5.32,5.32,0,0,0,1.36.15l9.74-.16,0,2.77Z" transform="translate(-201.45 -40.04)"/><path class="cls-1" d="M217.62,828l0.19,5.41a9.74,9.74,0,0,1-.15,2.14,5.49,5.49,0,0,1-.69,1.86,4,4,0,0,1-1.34,1.34,4.2,4.2,0,0,1-2.07.56,4,4,0,0,1-2.79-.86,4.82,4.82,0,0,1-1.53-2.55l-6.75,4.4-0.12-3.34,6.47-3.84-0.07-2-6.6.24-0.1-2.77Zm-6.52,5.27a8,8,0,0,0,.13,1.18,3.41,3.41,0,0,0,.37,1.05,2.09,2.09,0,0,0,.72.75,2,2,0,0,0,1.17.27,1.77,1.77,0,0,0,1-.32,2.14,2.14,0,0,0,.62-0.75,3,3,0,0,0,.29-1,7,7,0,0,0,0-1.09l-0.09-2.51L211,831Z" transform="translate(-201.45 -40.04)"/><path class="cls-1" d="M218.42,846.85l0.13,2.39-15.18,7.56-0.18-3.16,3.48-1.65-0.37-6.74L202.66,844l-0.17-3.1Zm-9.43,4,6.19-2.74-6.46-2.09Z" transform="translate(-201.45 -40.04)"/><path class="cls-1" d="M216.4,865.82a3.37,3.37,0,0,0,.86-1.31,3.71,3.71,0,0,0,.26-1.64,4,4,0,0,0-.19-1,3,3,0,0,0-.44-0.85,2.07,2.07,0,0,0-.71-0.6,1.82,1.82,0,0,0-1-.18,1.75,1.75,0,0,0-.88.29,2,2,0,0,0-.59.65,4.11,4.11,0,0,0-.39,1q-0.16.56-.31,1.24T212.59,865a6,6,0,0,1-.7,1.53,4,4,0,0,1-1.19,1.19,3.89,3.89,0,0,1-1.88.57,4.89,4.89,0,0,1-2.22-.3,4.53,4.53,0,0,1-1.64-1.11,5.26,5.26,0,0,1-1.05-1.73,7.6,7.6,0,0,1-.47-2.15,8.18,8.18,0,0,1,.34-3,5.74,5.74,0,0,1,1.48-2.49l2,1.84a4,4,0,0,0-1.14,1.62,4.3,4.3,0,0,0-.32,1.91,4.22,4.22,0,0,0,.19,1,2.63,2.63,0,0,0,.47.88,2.28,2.28,0,0,0,.76.61,2.07,2.07,0,0,0,1.08.17,1.74,1.74,0,0,0,1-.36,2.55,2.55,0,0,0,.65-0.82,5.51,5.51,0,0,0,.43-1.18l0.36-1.42a13.55,13.55,0,0,1,.42-1.44,4.67,4.67,0,0,1,.72-1.32,3.92,3.92,0,0,1,1.17-1,4.25,4.25,0,0,1,1.81-.49,4,4,0,0,1,2.08.34,4.36,4.36,0,0,1,1.51,1.19,5.78,5.78,0,0,1,1,1.76,8,8,0,0,1,.43,2.05,7.42,7.42,0,0,1-.24,2.43,5.88,5.88,0,0,1-1.09,2.21Z" transform="translate(-201.45 -40.04)"/><path class="cls-1" d="M223.1,899.77l0.73,5.47a12.24,12.24,0,0,1,0,3.08,7.94,7.94,0,0,1-.93,2.92,6.85,6.85,0,0,1-2.11,2.3,8,8,0,0,1-3.55,1.25,7.51,7.51,0,0,1-3.59-.3,7.21,7.21,0,0,1-2.66-1.66,8.37,8.37,0,0,1-1.75-2.56,10.85,10.85,0,0,1-.85-3l-0.73-5.47Zm-12.37,6.78a9.39,9.39,0,0,0,.54,2.1,5.6,5.6,0,0,0,1.11,1.82,4.56,4.56,0,0,0,1.81,1.19,5.55,5.55,0,0,0,2.67.2,5.9,5.9,0,0,0,2.63-.91,4.43,4.43,0,0,0,1.45-1.62,5.29,5.29,0,0,0,.55-2,10.79,10.79,0,0,0-.07-2.17l-0.31-2.29-10.69,1.43Z" transform="translate(-201.45 -40.04)"/><path class="cls-1" d="M217.6,917a8.7,8.7,0,0,1,3.43.09,7.41,7.41,0,0,1,2.8,1.32,7.71,7.71,0,0,1,2,2.35,9.45,9.45,0,0,1,1.08,3.2,9.6,9.6,0,0,1,0,3.41,7.79,7.79,0,0,1-1.19,2.88,7.34,7.34,0,0,1-2.26,2.13,8.72,8.72,0,0,1-3.24,1.15,8.61,8.61,0,0,1-3.39-.1,7.69,7.69,0,0,1-2.84-1.32,8,8,0,0,1-2.09-2.37,9.14,9.14,0,0,1-1.12-3.23,9,9,0,0,1,.08-3.39,7.85,7.85,0,0,1,1.26-2.87,7.77,7.77,0,0,1,2.29-2.12A8.59,8.59,0,0,1,217.6,917Zm0.47,3a6.61,6.61,0,0,0-2.21.74,5.36,5.36,0,0,0-1.62,1.37,5,5,0,0,0-.92,1.86,5.33,5.33,0,0,0-.09,2.21,5.42,5.42,0,0,0,.76,2.08,5,5,0,0,0,1.45,1.5,5.36,5.36,0,0,0,2,.8,6.62,6.62,0,0,0,2.33,0,6.4,6.4,0,0,0,2.16-.73,5.49,5.49,0,0,0,1.61-1.36,5.05,5.05,0,0,0,.93-1.86,5.37,5.37,0,0,0,.09-2.24,5.27,5.27,0,0,0-.78-2.09,5.07,5.07,0,0,0-1.46-1.47,5.48,5.48,0,0,0-2-.79A6.37,6.37,0,0,0,218.06,920Z" transform="translate(-201.45 -40.04)"/><path class="cls-1" d="M228.31,935l0.79,4.26-10.15,6v0.07l11.61,1.93,0.79,4.28L216,954.37l-0.5-2.7,12.31-2.27v0L214.68,947l-0.35-1.9,11.47-6.86v0l-12.31,2.27-0.48-2.6Z" transform="translate(-201.45 -40.04)"/><path class="cls-1" d="M232.11,955.1l0.55,2.72-15.27,3.1-0.55-2.72Z" transform="translate(-201.45 -40.04)"/><path class="cls-1" d="M233.38,961.42l0.79,3.59-9.84,9.57v0l11.39-2.5,0.59,2.71-15.21,3.34-0.75-3.44,10.17-9.8v0l-11.75,2.58-0.59-2.71Z" transform="translate(-201.45 -40.04)"/><path class="cls-1" d="M237.18,978.41l0.64,2.7-15.16,3.58L222,982Z" transform="translate(-201.45 -40.04)"/><path class="cls-1" d="M237.87,996.51a3.55,3.55,0,0,0,.79-1.86,5.39,5.39,0,0,0-1.06-4A5.16,5.16,0,0,0,236,989.3a5.37,5.37,0,0,0-2-.63,6.36,6.36,0,0,0-2.27.17,6.92,6.92,0,0,0-2.17.93,5.27,5.27,0,0,0-1.5,1.48,4.8,4.8,0,0,0-.74,1.9,5.44,5.44,0,0,0,.13,2.21,4.8,4.8,0,0,0,1,2,4.35,4.35,0,0,0,1.65,1.2l-1,2.54a7.11,7.11,0,0,1-2.57-2A8,8,0,0,1,225,996a9,9,0,0,1-.23-3.4,7.59,7.59,0,0,1,3.1-5.26,8.72,8.72,0,0,1,3.08-1.41,8.46,8.46,0,0,1,3.43-.2,7.52,7.52,0,0,1,2.92,1.1,7.91,7.91,0,0,1,2.23,2.19,9.53,9.53,0,0,1,1.37,3.1,9,9,0,0,1,.24,1.55,8,8,0,0,1,0,1.62,7.58,7.58,0,0,1-.37,1.54,4.54,4.54,0,0,1-.75,1.35Z" transform="translate(-201.45 -40.04)"/><path class="cls-1" d="M243.7,1004.15l0.63,2.31L231.08,1017l-0.84-3.06,3.05-2.34-1.78-6.51-3.81-.42-0.82-3Zm-8.37,5.94,5.48-4-6.76-.68Z" transform="translate(-201.45 -40.04)"/><path class="cls-1" d="M246.58,1014.56l1,3.52-9.11,10.26v0l11.18-3.32,0.79,2.66-14.93,4.44-1-3.37,9.43-10.52v0l-11.53,3.43-0.79-2.66Z" transform="translate(-201.45 -40.04)"/><path class="cls-1" d="M253.34,1036.74l1.69,5.14a9.75,9.75,0,0,1,.45,2.1,5.48,5.48,0,0,1-.15,2,4,4,0,0,1-.91,1.66,4.2,4.2,0,0,1-1.83,1.11,4,4,0,0,1-2.92,0,4.81,4.81,0,0,1-2.18-2l-5.26,6.11-1-3.18,5.14-5.49-0.63-1.92-6.27,2.06-0.87-2.63Zm-4.8,6.88a8.09,8.09,0,0,0,.46,1.1,3.41,3.41,0,0,0,.65.91,2.08,2.08,0,0,0,.9.53,2,2,0,0,0,1.19-.07,1.78,1.78,0,0,0,.9-0.6,2.14,2.14,0,0,0,.39-0.89,3,3,0,0,0,0-1.05,7.09,7.09,0,0,0-.26-1.06L252,1040.1l-4.16,1.37Z" transform="translate(-201.45 -40.04)"/><path class="cls-1" d="M257.77,1050.07l3.41,9.74-2.28.8-2.49-7.12-3.74,1.31,2.36,6.75-2.2.77-2.36-6.75L246.3,1057l2.62,7.5-2.33.81-3.54-10.11Z" transform="translate(-201.45 -40.04)"/><path class="cls-1" d="M262.28,1062.9l1.76,4.77a11.1,11.1,0,0,1,.61,2.35,5.06,5.06,0,0,1-.1,2,3.69,3.69,0,0,1-.91,1.6,4.69,4.69,0,0,1-1.79,1.11,4.47,4.47,0,0,1-2.21.3,3.94,3.94,0,0,1-1.79-.74,5.72,5.72,0,0,1-1.4-1.53,10.83,10.83,0,0,1-1-2.1l-0.74-2-6,2.24-1-2.6Zm-4.74,6.77a8.15,8.15,0,0,0,.54,1.18,3.59,3.59,0,0,0,.71.91,2,2,0,0,0,.92.48,2.06,2.06,0,0,0,1.17-.13,1.84,1.84,0,0,0,1.31-1.6,3.26,3.26,0,0,0-.07-1.12,10,10,0,0,0-.36-1.19l-0.7-1.9-4.19,1.55Z" transform="translate(-201.45 -40.04)"/><path class="cls-1" d="M262.4,1090.81a6.41,6.41,0,0,1-2.54.48,5.69,5.69,0,0,1-2.27-.52,5.81,5.81,0,0,1-1.86-1.4,7.42,7.42,0,0,1-1.82-4.63,5.92,5.92,0,0,1,.41-2.3,5.49,5.49,0,0,1,1.31-1.93,6.55,6.55,0,0,1,2.19-1.37l9.17-3.6,1,2.58-9.07,3.56a5.32,5.32,0,0,0-1.2.66,3.31,3.31,0,0,0-.9,1,3,3,0,0,0-.4,1.32,4.34,4.34,0,0,0,1.21,3.09,3,3,0,0,0,1.19.69,3.31,3.31,0,0,0,1.33.1,5.3,5.3,0,0,0,1.32-.33l9.07-3.56,1,2.58Z" transform="translate(-201.45 -40.04)"/><path class="cls-1" d="M272.88,1090.41l2.33,5.61a7.34,7.34,0,0,1,.47,1.68,4.45,4.45,0,0,1,0,1.67,3.52,3.52,0,0,1-2.21,2.55,3.19,3.19,0,0,1-2.3.15,4.16,4.16,0,0,1-1.89-1.33l0,0a4.08,4.08,0,0,1-.13,2.67,3.42,3.42,0,0,1-2,1.85,4.2,4.2,0,0,1-2.17.36,4,4,0,0,1-1.8-.69,5.72,5.72,0,0,1-1.43-1.46,10.21,10.21,0,0,1-1-1.91l-2.16-5.18Zm-11.16,7.65,1,2.29a9.17,9.17,0,0,0,.51,1,3.74,3.74,0,0,0,.73.92,2.23,2.23,0,0,0,1,.52,2,2,0,0,0,1.27-.16,1.81,1.81,0,0,0,1.26-1.43,5.18,5.18,0,0,0-.53-2.52l-1-2.4Zm6.38-2.65,0.95,2.27a3.45,3.45,0,0,0,1.32,1.74,1.84,1.84,0,0,0,1.72.07,1.59,1.59,0,0,0,1.09-1.27,4.76,4.76,0,0,0-.49-2.32l-0.85-2.05Z" transform="translate(-201.45 -40.04)"/><path class="cls-1" d="M278.47,1103.74l1.11,2.54-12,5.25,2.65,6.07-2.26,1L264.2,1110Z" transform="translate(-201.45 -40.04)"/><path class="cls-1" d="M283.13,1114.31l1.14,2.53-14.2,6.4-1.14-2.53Z" transform="translate(-201.45 -40.04)"/><path class="cls-1" d="M287.25,1131.94a3.55,3.55,0,0,0,.42-2,5.39,5.39,0,0,0-1.81-3.72,5.15,5.15,0,0,0-1.82-1,5.37,5.37,0,0,0-2.1-.23,6.38,6.38,0,0,0-2.2.6,7,7,0,0,0-2,1.33,5.26,5.26,0,0,0-1.19,1.74,4.79,4.79,0,0,0-.36,2,5.43,5.43,0,0,0,.55,2.15,4.81,4.81,0,0,0,1.39,1.8,4.34,4.34,0,0,0,1.85.86l-0.47,2.68a7.12,7.12,0,0,1-2.9-1.44,8,8,0,0,1-2.13-2.86,9,9,0,0,1-.88-3.29,7.58,7.58,0,0,1,2-5.75,8.71,8.71,0,0,1,2.76-2,8.46,8.46,0,0,1,3.33-.85,7.53,7.53,0,0,1,3.08.53,7.91,7.91,0,0,1,2.61,1.73,9.51,9.51,0,0,1,1.94,2.79,9,9,0,0,1,.53,1.47,7.93,7.93,0,0,1,.26,1.6,7.55,7.55,0,0,1-.07,1.59,4.53,4.53,0,0,1-.48,1.46Z" transform="translate(-201.45 -40.04)"/><path class="cls-1" d="M317.21,1181.14l3.06,5.24a7.33,7.33,0,0,1,.7,1.61,4.48,4.48,0,0,1,.18,1.66,3.52,3.52,0,0,1-1.85,2.83,3.2,3.2,0,0,1-2.26.45,4.17,4.17,0,0,1-2.05-1.07l0,0a4.08,4.08,0,0,1,.23,2.67,3.42,3.42,0,0,1-1.71,2.09,4.21,4.21,0,0,1-2.11.65,4.05,4.05,0,0,1-1.88-.44,5.7,5.7,0,0,1-1.61-1.25,10.2,10.2,0,0,1-1.29-1.75l-2.83-4.84Zm-10,9.08,1.25,2.15a9.17,9.17,0,0,0,.64.95,3.72,3.72,0,0,0,.85.82,2.22,2.22,0,0,0,1,.39,2,2,0,0,0,1.24-.33,1.81,1.81,0,0,0,1.06-1.59,5.2,5.2,0,0,0-.86-2.43l-1.31-2.24Zm6-3.49,1.24,2.13a3.45,3.45,0,0,0,1.54,1.55,1.84,1.84,0,0,0,1.71-.16,1.59,1.59,0,0,0,.92-1.4,4.77,4.77,0,0,0-.8-2.24l-1.12-1.92Z" transform="translate(-201.45 -40.04)"/><path class="cls-1" d="M324.52,1193.57l2.82,4.62a9.82,9.82,0,0,1,.92,1.94,5.52,5.52,0,0,1,.31,2,4,4,0,0,1-.51,1.82,4.19,4.19,0,0,1-1.53,1.5,4,4,0,0,1-2.86.62,4.82,4.82,0,0,1-2.59-1.48l-3.73,7.15-1.74-2.85,3.75-6.52-1.05-1.73-5.63,3.44-1.44-2.37Zm-3.1,7.79a8,8,0,0,0,.69,1,3.43,3.43,0,0,0,.84.74,2.09,2.09,0,0,0,1,.31,2,2,0,0,0,1.15-.34,1.77,1.77,0,0,0,.74-0.79,2.13,2.13,0,0,0,.18-1,3.06,3.06,0,0,0-.24-1,7,7,0,0,0-.49-1l-1.31-2.14-3.74,2.28Z" transform="translate(-201.45 -40.04)"/><path class="cls-1" d="M334.46,1209.64l1.29,2-9.53,14-1.7-2.67,2.23-3.14-3.63-5.7-3.76.73-1.67-2.62Zm-6.23,8.15,4.05-5.43-6.66,1.35Z" transform="translate(-201.45 -40.04)"/><path class="cls-1" d="M328.91,1225.19l13.56,1.16-4.62-6.94,2-1.34,6.44,9.69-2.09,1.39-13.54-1.22,4.79,7.2-2.05,1.36-6.59-9.91Z" transform="translate(-201.45 -40.04)"/><path class="cls-1" d="M348,1230.15l1.57,2.29-12.85,8.8-1.57-2.29Z" transform="translate(-201.45 -40.04)"/><path class="cls-1" d="M351.66,1235.53l1.59,2.27-10.73,7.53,3.8,5.42-2,1.42-5.4-7.69Z" transform="translate(-201.45 -40.04)"/><path class="cls-1" d="M442.26,1343.1l2,1.94-10.91,11.11-2-1.94Z" transform="translate(-201.45 -40.04)"/><path class="cls-1" d="M446.9,1347.66l3.91,3.74a9.78,9.78,0,0,1,1.38,1.64,5.5,5.5,0,0,1,.8,1.82,4,4,0,0,1,0,1.89,4.2,4.2,0,0,1-1.09,1.84,4,4,0,0,1-2.6,1.34,4.82,4.82,0,0,1-2.88-.76l-1.77,7.87-2.42-2.31,2-7.26-1.46-1.4-4.56,4.77-2-1.92Zm-1,8.33a8.08,8.08,0,0,0,.92.76,3.44,3.44,0,0,0,1,.5,2.07,2.07,0,0,0,1,0,2,2,0,0,0,1-.62,1.78,1.78,0,0,0,.52-1,2.14,2.14,0,0,0-.08-1,3,3,0,0,0-.5-0.93,7.14,7.14,0,0,0-.73-0.82l-1.81-1.73-3,3.17Z" transform="translate(-201.45 -40.04)"/><path class="cls-1" d="M457.08,1357.33l7.59,7-1.64,1.78-5.55-5.11-2.68,2.91,5.26,4.84-1.58,1.72-5.26-4.84-3,3.24,5.84,5.38L454.4,1376l-7.88-7.26Z" transform="translate(-201.45 -40.04)"/><path class="cls-1" d="M467.14,1366.55l2.07,1.84-8.72,9.79,4.94,4.41-1.64,1.84-7-6.25Z" transform="translate(-201.45 -40.04)"/><path class="cls-1" d="M479.39,1377.34l1.82,1.56-5.06,16.19-2.4-2.07,1.22-3.65-5.12-4.4-3.39,1.79-2.35-2Zm-3.61,9.6,2.31-6.37-6,3.21Z" transform="translate(-201.45 -40.04)"/><path class="cls-1" d="M487.6,1384.35l2.84,2.33-1.82,13.6,0,0,7.41-9,2.14,1.76-9.89,12-2.72-2.24,1.94-14,0,0-7.64,9.29-2.14-1.76Z" transform="translate(-201.45 -40.04)"/><path class="cls-1" d="M501,1395.29l4.34,3.41a12.25,12.25,0,0,1,2.16,2.2,7.94,7.94,0,0,1,1.37,2.74,6.87,6.87,0,0,1,.09,3.12,8,8,0,0,1-1.67,3.37,7.52,7.52,0,0,1-2.78,2.29,7.21,7.21,0,0,1-3.07.67,8.38,8.38,0,0,1-3-.61,10.86,10.86,0,0,1-2.68-1.53l-4.34-3.41Zm-4.13,13.49a9.39,9.39,0,0,0,1.85,1.13,5.62,5.62,0,0,0,2.06.53,4.57,4.57,0,0,0,2.13-.41,5.54,5.54,0,0,0,2-1.72,5.9,5.9,0,0,0,1.25-2.49,4.42,4.42,0,0,0-.1-2.17,5.29,5.29,0,0,0-1-1.84,10.7,10.7,0,0,0-1.56-1.5l-1.82-1.43-6.66,8.48Z" transform="translate(-201.45 -40.04)"/><path class="cls-1" d="M583.06,1464a6.4,6.4,0,0,1-1.73,1.93,5.69,5.69,0,0,1-2.12,1,5.82,5.82,0,0,1-2.33,0,7.43,7.43,0,0,1-4.26-2.57,5.92,5.92,0,0,1-1.08-2.07,5.49,5.49,0,0,1-.14-2.33,6.51,6.51,0,0,1,.91-2.42l5.09-8.44,2.37,1.43-5,8.35a5.26,5.26,0,0,0-.55,1.25,3.31,3.31,0,0,0-.12,1.33,3,3,0,0,0,.48,1.29,4.34,4.34,0,0,0,2.84,1.71,3,3,0,0,0,1.37-.18,3.33,3.33,0,0,0,1.12-.73,5.32,5.32,0,0,0,.85-1.07l5-8.35,2.37,1.43Z" transform="translate(-201.45 -40.04)"/><path class="cls-1" d="M591.09,1457.25l3.19,1.83,0.48,13.72,0,0,5.8-10.11,2.41,1.38-7.75,13.51-3.05-1.75-0.43-14.12,0,0-6,10.44-2.41-1.38Z" transform="translate(-201.45 -40.04)"/><path class="cls-1" d="M606.23,1465.85l2.43,1.34-7.53,13.63-2.43-1.34Z" transform="translate(-201.45 -40.04)"/><path class="cls-1" d="M613.56,1472.61l-4.21-2.25,1.14-2.13,10.86,5.82-1.14,2.13-4.21-2.26-6.21,11.6-2.44-1.31Z" transform="translate(-201.45 -40.04)"/><path class="cls-1" d="M623.14,1475l9.18,4.71-1.11,2.15-6.71-3.45-1.81,3.52,6.36,3.27-1.07,2.07-6.36-3.27-2,3.91,7.06,3.63-1.13,2.19-9.53-4.9Z" transform="translate(-201.45 -40.04)"/><path class="cls-1" d="M635.24,1481.17l5,2.42a12.23,12.23,0,0,1,2.57,1.7,7.93,7.93,0,0,1,1.92,2.39,6.87,6.87,0,0,1,.75,3,8,8,0,0,1-.92,3.65,7.52,7.52,0,0,1-2.24,2.83,7.21,7.21,0,0,1-2.86,1.3,8.37,8.37,0,0,1-3.1,0,10.84,10.84,0,0,1-2.95-.94l-5-2.42ZM634,1495.22a9.36,9.36,0,0,0,2,.72,5.61,5.61,0,0,0,2.13.08,4.55,4.55,0,0,0,2-.85,5.55,5.55,0,0,0,1.64-2.11,5.91,5.91,0,0,0,.7-2.69,4.42,4.42,0,0,0-.55-2.11,5.3,5.3,0,0,0-1.39-1.59,10.79,10.79,0,0,0-1.84-1.14l-2.08-1-4.73,9.69Z" transform="translate(-201.45 -40.04)"/><path class="cls-1" d="M655.82,1491l2.53,1.14-2.78,6.13,0.06,0,8.71-3.45,3.41,1.54-9.6,3.55,3.62,10.84-3.55-1.6-3-9.94-0.06,0-3.22,7.12-2.53-1.14Z" transform="translate(-201.45 -40.04)"/><path class="cls-1" d="M669.92,1497.36l2.54,1.11-6.21,14.28-2.54-1.11Z" transform="translate(-201.45 -40.04)"/><path class="cls-1" d="M675.81,1499.94l3.39,1.41,2.2,13.55,0,0,4.48-10.76,2.56,1.07-6,14.38-3.25-1.35-2.2-14,0,0-4.62,11.11-2.56-1.07Z" transform="translate(-201.45 -40.04)"/><path class="cls-1" d="M699.15,1525.25a12.07,12.07,0,0,1-2.75-.12,15,15,0,0,1-3.16-.89,9.5,9.5,0,0,1-3-1.82,7.89,7.89,0,0,1-1.89-2.55,7.68,7.68,0,0,1-.69-3.05,8.59,8.59,0,0,1,.63-3.33,8.45,8.45,0,0,1,1.83-2.91,7.51,7.51,0,0,1,2.59-1.74,7.92,7.92,0,0,1,3.08-.55,9.54,9.54,0,0,1,3.32.68,10.38,10.38,0,0,1,3,1.74,7,7,0,0,1,1.81,2.23l-2.53,1.23a4.73,4.73,0,0,0-1.14-1.65,5.78,5.78,0,0,0-2-1.27,5.48,5.48,0,0,0-2.24-.4,5,5,0,0,0-2,.51,5.47,5.47,0,0,0-1.67,1.29,6.38,6.38,0,0,0-1.17,2,6.62,6.62,0,0,0-.48,2.28A5.36,5.36,0,0,0,691,1519a5,5,0,0,0,1.18,1.75,5.94,5.94,0,0,0,2,1.24,8,8,0,0,0,3.09.61l1.44-3.69-3.05-1.19,0.83-2.13,5.56,2.16Z" transform="translate(-201.45 -40.04)"/><path class="cls-1" d="M707.74,1512.71l5.19,1.89a12.25,12.25,0,0,1,2.74,1.42,7.94,7.94,0,0,1,2.16,2.18,6.86,6.86,0,0,1,1.06,2.94,8,8,0,0,1-.54,3.73,7.51,7.51,0,0,1-1.93,3,7.2,7.2,0,0,1-2.71,1.59,8.36,8.36,0,0,1-3.08.37,10.84,10.84,0,0,1-3-.62l-5.19-1.89Zm0.28,14.1a9.42,9.42,0,0,0,2.11.5,5.61,5.61,0,0,0,2.12-.14,4.55,4.55,0,0,0,1.89-1.06,5.54,5.54,0,0,0,1.41-2.27,5.9,5.9,0,0,0,.42-2.75,4.44,4.44,0,0,0-.77-2,5.29,5.29,0,0,0-1.55-1.43,10.81,10.81,0,0,0-2-.94l-2.17-.79L705.85,1526Z" transform="translate(-201.45 -40.04)"/><path class="cls-1" d="M720.46,1525.56a8.72,8.72,0,0,1,1.67-3,7.41,7.41,0,0,1,2.46-1.87,7.7,7.7,0,0,1,3-.7,9.44,9.44,0,0,1,3.34.52,9.6,9.6,0,0,1,3,1.62,7.77,7.77,0,0,1,2,2.39,7.35,7.35,0,0,1,.84,3,8.71,8.71,0,0,1-.48,3.4,8.6,8.6,0,0,1-1.66,3,7.68,7.68,0,0,1-2.49,1.9,7.94,7.94,0,0,1-3.06.75,9.12,9.12,0,0,1-3.38-.5,9,9,0,0,1-3-1.64,7.68,7.68,0,0,1-2.78-5.46A8.6,8.6,0,0,1,720.46,1525.56Zm2.86,1a6.62,6.62,0,0,0-.37,2.3,5.36,5.36,0,0,0,.46,2.07,5,5,0,0,0,1.22,1.68,5.34,5.34,0,0,0,1.92,1.1,5.43,5.43,0,0,0,2.2.29,5,5,0,0,0,2-.59,5.35,5.35,0,0,0,1.62-1.37,6.59,6.59,0,0,0,1.1-2.06,6.36,6.36,0,0,0,.35-2.25,5.47,5.47,0,0,0-.46-2.06,5.06,5.06,0,0,0-1.22-1.69,5.38,5.38,0,0,0-1.94-1.12,5.28,5.28,0,0,0-2.21-.28,5.05,5.05,0,0,0-2,.61,5.47,5.47,0,0,0-1.61,1.36A6.42,6.42,0,0,0,723.31,1526.52Z" transform="translate(-201.45 -40.04)"/><path class="cls-1" d="M741.4,1524.41l4.14,1.28,0.61,11.77,0.06,0,7.08-9.4,4.16,1.28-4.59,14.88-2.63-.81,3.69-12h0L745.69,1542l-1.85-.57-0.77-13.34h0l-3.69,12-2.52-.78Z" transform="translate(-201.45 -40.04)"/><path class="cls-1" d="M818.08,1544.55l5.42,1.07a12.21,12.21,0,0,1,2.92,1,7.93,7.93,0,0,1,2.46,1.82,6.85,6.85,0,0,1,1.5,2.74,7.94,7.94,0,0,1,0,3.76,7.51,7.51,0,0,1-1.44,3.3,7.2,7.2,0,0,1-2.43,2,8.38,8.38,0,0,1-3,.83,10.84,10.84,0,0,1-3.09-.15l-5.42-1.07Zm2.43,13.89a9.42,9.42,0,0,0,2.16.17,5.63,5.63,0,0,0,2.08-.46,4.56,4.56,0,0,0,1.71-1.33,5.55,5.55,0,0,0,1-2.46,5.91,5.91,0,0,0,0-2.78,4.41,4.41,0,0,0-1.07-1.89,5.29,5.29,0,0,0-1.75-1.18,10.69,10.69,0,0,0-2.07-.63l-2.27-.45L818.25,1558Z" transform="translate(-201.45 -40.04)"/><path class="cls-1" d="M834.74,1547.79l10.16,1.8-0.42,2.38-7.43-1.31-0.69,3.9,7,1.24-0.41,2.3-7-1.24-0.77,4.33,7.82,1.38-0.43,2.43L832,1563.13Z" transform="translate(-201.45 -40.04)"/><path class="cls-1" d="M848.12,1550.14l3.63,0.57,5.36,12.63h0l1.79-11.52,2.74,0.43-2.39,15.39-3.48-.54-5.45-13h0L848.46,1566l-2.74-.43Z" transform="translate(-201.45 -40.04)"/><path class="cls-1" d="M865.14,1552.76l4.3,0.56,2.58,11.5h0.07l5.4-10.46,4.32,0.56-2,15.45-2.73-.35,1.62-12.41h0l-6.31,11.8-1.92-.25-3-13h0l-1.62,12.41-2.62-.34Z" transform="translate(-201.45 -40.04)"/><path class="cls-1" d="M890.18,1555.83l2.38,0.25,5,16.2-3.15-.33-1.07-3.7-6.72-.71-1.78,3.4-3.08-.33Zm2.48,10-1.72-6.55-3.1,6Z" transform="translate(-201.45 -40.04)"/><path class="cls-1" d="M900.93,1556.93l5.39,0.47a9.78,9.78,0,0,1,2.11.41,5.47,5.47,0,0,1,1.76.91,4,4,0,0,1,1.16,1.49,4.2,4.2,0,0,1,.3,2.12,4,4,0,0,1-1.19,2.67,4.81,4.81,0,0,1-2.72,1.21l3.55,7.24-3.33-.29-3-6.89-2-.17-0.57,6.58-2.76-.24Zm4.44,7.12a8.08,8.08,0,0,0,1.19,0,3.44,3.44,0,0,0,1.09-.24,2.09,2.09,0,0,0,.84-0.62,2,2,0,0,0,.41-1.12,1.78,1.78,0,0,0-.19-1.07,2.15,2.15,0,0,0-.67-0.71,3.05,3.05,0,0,0-1-.42,7.11,7.11,0,0,0-1.08-.18l-2.5-.22-0.38,4.36Z" transform="translate(-201.45 -40.04)"/><path class="cls-1" d="M914.91,1558.11l2.77,0.18-0.45,6.72h0.07l6.95-6.28L928,1559l-7.75,6.69,7.19,8.88-3.89-.26-6.3-8.25h-0.07l-0.52,7.79-2.77-.19Z" transform="translate(-201.45 -40.04)"/><path class="cls-1" d="M1044.75,1560a3.36,3.36,0,0,0-1.32-.84,3.72,3.72,0,0,0-1.65-.24,4,4,0,0,0-1,.21,3,3,0,0,0-.84.45,2.07,2.07,0,0,0-.59.72,1.82,1.82,0,0,0-.16,1,1.75,1.75,0,0,0,.3.88,2,2,0,0,0,.66.58,4.12,4.12,0,0,0,1,.38c0.38,0.1.79,0.19,1.24,0.28s1,0.25,1.59.41a6,6,0,0,1,1.54.68,4,4,0,0,1,1.21,1.17,3.9,3.9,0,0,1,.6,1.87,4.88,4.88,0,0,1-.26,2.22,4.51,4.51,0,0,1-1.09,1.66,5.24,5.24,0,0,1-1.71,1.08,7.61,7.61,0,0,1-2.14.5,8.16,8.16,0,0,1-3-.29,5.72,5.72,0,0,1-2.52-1.44l1.8-2a4,4,0,0,0,1.64,1.11,4.3,4.3,0,0,0,1.92.29,4.22,4.22,0,0,0,1-.21,2.63,2.63,0,0,0,.87-0.49,2.27,2.27,0,0,0,.59-0.77,2.06,2.06,0,0,0,.16-1.09,1.74,1.74,0,0,0-.38-1,2.56,2.56,0,0,0-.83-0.63,5.53,5.53,0,0,0-1.19-.41l-1.42-.33a13.41,13.41,0,0,1-1.45-.4,4.68,4.68,0,0,1-1.33-.7,3.92,3.92,0,0,1-1-1.16,4.25,4.25,0,0,1-.52-1.8,4,4,0,0,1,.31-2.08,4.39,4.39,0,0,1,1.16-1.53,5.81,5.81,0,0,1,1.74-1,8,8,0,0,1,2-.46,7.44,7.44,0,0,1,2.44.2,5.88,5.88,0,0,1,2.23,1.06Z" transform="translate(-201.45 -40.04)"/><path class="cls-1" d="M1047.67,1556.52l3-.34,4.29,11h0l2.11-11.76,2.84-.32,4.64,11h0l1.76-11.72,2.93-.33-2.76,16-2.67.3-5-11.19h0l-2.3,12-2.67.3Z" transform="translate(-201.45 -40.04)"/><path class="cls-1" d="M1071.27,1553.73l10.22-1.41,0.33,2.4-7.47,1,0.54,3.92,7.08-1,0.32,2.31-7.08,1,0.6,4.36,7.87-1.09,0.34,2.44-10.61,1.47Z" transform="translate(-201.45 -40.04)"/><path class="cls-1" d="M1084.71,1551.85l5.45-.87a12.28,12.28,0,0,1,3.08-.09,7.93,7.93,0,0,1,2.94.86,6.87,6.87,0,0,1,2.35,2.05,8,8,0,0,1,1.34,3.52,7.52,7.52,0,0,1-.21,3.6,7.21,7.21,0,0,1-1.6,2.7,8.36,8.36,0,0,1-2.52,1.81,10.79,10.79,0,0,1-2.95.93l-5.45.87Zm7.08,12.2a9.44,9.44,0,0,0,2.09-.59,5.6,5.6,0,0,0,1.79-1.15,4.56,4.56,0,0,0,1.14-1.84,5.54,5.54,0,0,0,.13-2.67,5.9,5.9,0,0,0-1-2.61,4.42,4.42,0,0,0-1.66-1.41,5.3,5.3,0,0,0-2.05-.5,10.71,10.71,0,0,0-2.16.12l-2.28.36,1.69,10.65Z" transform="translate(-201.45 -40.04)"/><path class="cls-1" d="M1101.47,1549.14l10.15-1.83,0.43,2.38-7.43,1.34,0.7,3.9,7-1.27,0.41,2.29-7,1.27,0.78,4.33,7.82-1.41,0.44,2.42-10.54,1.9Z" transform="translate(-201.45 -40.04)"/><path class="cls-1" d="M1114.83,1546.71l3.6-.72,9.4,10h0l-2.3-11.43,2.72-.55,3.07,15.27-3.45.69-9.62-10.34h0l2.37,11.8-2.72.55Z" transform="translate(-201.45 -40.04)"/><path class="cls-1" d="M1255.75,1505l2.57-1,5.89,14.42-2.57,1Z" transform="translate(-201.45 -40.04)"/><path class="cls-1" d="M1270.34,1502.44a3.37,3.37,0,0,0-1.52-.4,3.71,3.71,0,0,0-1.64.28,4,4,0,0,0-.84.49,3,3,0,0,0-.66.69,2.06,2.06,0,0,0-.34.86,1.83,1.83,0,0,0,.15,1,1.75,1.75,0,0,0,.55.74,2,2,0,0,0,.81.35,4.09,4.09,0,0,0,1,.06c0.39,0,.81-0.06,1.27-0.11s1.07-.08,1.64-0.1a6,6,0,0,1,1.67.17,4,4,0,0,1,1.51.75,3.88,3.88,0,0,1,1.14,1.59,4.89,4.89,0,0,1,.43,2.2,4.51,4.51,0,0,1-.53,1.91,5.26,5.26,0,0,1-1.3,1.55,7.57,7.57,0,0,1-1.89,1.13,8.18,8.18,0,0,1-3,.64,5.74,5.74,0,0,1-2.84-.6l1.1-2.47a4,4,0,0,0,1.9.56,4.32,4.32,0,0,0,1.91-.31,4.25,4.25,0,0,0,.86-0.5,2.63,2.63,0,0,0,.68-0.73,2.28,2.28,0,0,0,.33-0.92,2.08,2.08,0,0,0-.18-1.08,1.74,1.74,0,0,0-.66-0.83,2.56,2.56,0,0,0-1-.35,5.54,5.54,0,0,0-1.25,0l-1.46.12a13.57,13.57,0,0,1-1.5.06,4.68,4.68,0,0,1-1.48-.26,3.93,3.93,0,0,1-1.33-.79,4.26,4.26,0,0,1-1-1.55,4,4,0,0,1-.34-2.08,4.37,4.37,0,0,1,.64-1.81,5.76,5.76,0,0,1,1.36-1.48,8,8,0,0,1,1.81-1.06,7.43,7.43,0,0,1,2.38-.55,5.9,5.9,0,0,1,2.44.33Z" transform="translate(-201.45 -40.04)"/><path class="cls-1" d="M1273.57,1497.5l4.95-2.2a9.77,9.77,0,0,1,2-.66,5.5,5.5,0,0,1,2-.05,4,4,0,0,1,1.74.74,4.2,4.2,0,0,1,1.29,1.71,4,4,0,0,1,.25,2.91,4.82,4.82,0,0,1-1.8,2.38l6.61,4.62-3.05,1.36-6-4.56-1.85.82,2.68,6-2.53,1.13Zm7.33,4.08a8,8,0,0,0,1-.56,3.44,3.44,0,0,0,.84-0.74,2.08,2.08,0,0,0,.43-1,2,2,0,0,0-.19-1.18,1.78,1.78,0,0,0-.69-0.84,2.14,2.14,0,0,0-.93-0.3,3,3,0,0,0-1,.11,7.1,7.1,0,0,0-1,.36l-2.29,1,1.78,4Z" transform="translate(-201.45 -40.04)"/><path class="cls-1" d="M1290.79,1489.71l2.17-1,12.69,11.25-2.87,1.35-2.83-2.61-6.12,2.87,0.24,3.82-2.81,1.32Zm7.28,7.23-4.86-4.72,0.48,6.77Z" transform="translate(-201.45 -40.04)"/><path class="cls-1" d="M1300.58,1485.07l9.25-4.56,1.07,2.17-6.77,3.34,1.75,3.55,6.41-3.16,1,2.09-6.41,3.16,1.95,3.95,7.12-3.51,1.09,2.21-9.61,4.74Z" transform="translate(-201.45 -40.04)"/><path class="cls-1" d="M1312.79,1479l2.47-1.27,6,11.66,5.89-3,1.13,2.19-8.36,4.29Z" transform="translate(-201.45 -40.04)"/><path class="cls-1" d="M1411.5,1423a3.36,3.36,0,0,0-1.57-.06,3.71,3.71,0,0,0-1.54.62,4,4,0,0,0-.72.66,3,3,0,0,0-.5.81,2.06,2.06,0,0,0-.15.91,1.81,1.81,0,0,0,.36.95,1.75,1.75,0,0,0,.7.61,2,2,0,0,0,.86.17,4.12,4.12,0,0,0,1-.16q0.56-.16,1.22-0.37t1.58-.45a6,6,0,0,1,1.67-.19,4,4,0,0,1,1.63.41,3.89,3.89,0,0,1,1.46,1.32,4.89,4.89,0,0,1,.89,2.05,4.51,4.51,0,0,1-.11,2,5.26,5.26,0,0,1-.94,1.8,7.62,7.62,0,0,1-1.6,1.51,8.18,8.18,0,0,1-2.75,1.26,5.74,5.74,0,0,1-2.9,0l0.55-2.65a4,4,0,0,0,2,.14,4.3,4.3,0,0,0,1.8-.71,4.23,4.23,0,0,0,.74-0.67,2.63,2.63,0,0,0,.51-0.86,2.28,2.28,0,0,0,.13-1,2.08,2.08,0,0,0-.41-1,1.74,1.74,0,0,0-.82-0.67,2.57,2.57,0,0,0-1-.13,5.48,5.48,0,0,0-1.23.24l-1.4.42a13.56,13.56,0,0,1-1.46.38,4.66,4.66,0,0,1-1.5.07,3.92,3.92,0,0,1-1.46-.49,4.24,4.24,0,0,1-1.35-1.3,4,4,0,0,1-.78-2,4.39,4.39,0,0,1,.24-1.91,5.8,5.8,0,0,1,1-1.74,8,8,0,0,1,1.54-1.42,7.42,7.42,0,0,1,2.21-1,5.88,5.88,0,0,1,2.46-.2Z" transform="translate(-201.45 -40.04)"/><path class="cls-1" d="M1417.57,1424.21a8.71,8.71,0,0,1-1.5-3.09,7.41,7.41,0,0,1-.12-3.09,7.72,7.72,0,0,1,1.16-2.88,9.43,9.43,0,0,1,2.34-2.44,9.6,9.6,0,0,1,3-1.54,7.8,7.8,0,0,1,3.11-.27,7.33,7.33,0,0,1,2.93,1,8.7,8.7,0,0,1,2.51,2.34,8.57,8.57,0,0,1,1.48,3.05,7.69,7.69,0,0,1,.14,3.13,8,8,0,0,1-1.13,2.94,9.14,9.14,0,0,1-2.35,2.49,9,9,0,0,1-3,1.49,7.85,7.85,0,0,1-3.13.21,7.76,7.76,0,0,1-2.94-1.06A8.57,8.57,0,0,1,1417.57,1424.21Zm2.42-1.79a6.62,6.62,0,0,0,1.68,1.62,5.35,5.35,0,0,0,2,.81,5.06,5.06,0,0,0,2.08,0,5.35,5.35,0,0,0,2-.94,5.43,5.43,0,0,0,1.5-1.64,5,5,0,0,0,.66-2,5.37,5.37,0,0,0-.19-2.11,6.62,6.62,0,0,0-1.06-2.08,6.4,6.4,0,0,0-1.64-1.58,5.48,5.48,0,0,0-1.95-.8,5,5,0,0,0-2.08,0,5.36,5.36,0,0,0-2,1,5.27,5.27,0,0,0-1.5,1.65,5.07,5.07,0,0,0-.63,2,5.48,5.48,0,0,0,.2,2.1A6.39,6.39,0,0,0,1420,1422.42Z" transform="translate(-201.45 -40.04)"/><path class="cls-1" d="M1444.52,1406.51a6.39,6.39,0,0,1,1.17,2.31,5.69,5.69,0,0,1,.14,2.33,5.82,5.82,0,0,1-.82,2.18,7.41,7.41,0,0,1-3.93,3,5.91,5.91,0,0,1-2.32.25,5.48,5.48,0,0,1-2.22-.71,6.53,6.53,0,0,1-1.93-1.72l-6-7.79,2.19-1.7,6,7.71a5.28,5.28,0,0,0,1,1,3.31,3.31,0,0,0,1.2.59,3,3,0,0,0,1.38,0,4.35,4.35,0,0,0,2.63-2,3,3,0,0,0,.33-1.34,3.33,3.33,0,0,0-.27-1.3,5.33,5.33,0,0,0-.69-1.18l-6-7.71,2.19-1.7Z" transform="translate(-201.45 -40.04)"/><path class="cls-1" d="M1445.16,1396.47l-3.72,3-1.52-1.88,9.6-7.73,1.52,1.89-3.72,3,8.25,10.25-2.16,1.74Z" transform="translate(-201.45 -40.04)"/><path class="cls-1" d="M1451.07,1388.58l2.13-1.78,4,4.83,5.58-4.67-4-4.83,2.13-1.78,10,11.94-2.12,1.78-4.43-5.3-5.58,4.67,4.43,5.3-2.13,1.78Z" transform="translate(-201.45 -40.04)"/><path class="cls-1" d="M1471.44,1371.17l1.79-1.59,15.35,7.2-2.37,2.1-3.45-1.7-5.05,4.48,1.31,3.6-2.32,2.06Zm9,4.88-6-3.15,2.38,6.36Z" transform="translate(-201.45 -40.04)"/><path class="cls-1" d="M1479.52,1363.95l7.4-6.81,1.64,1.78-5.36,4.93,2.89,3.14,5-4.65,1.58,1.71-5,4.65,4.44,4.82-2,1.88Z" transform="translate(-201.45 -40.04)"/><path class="cls-1" d="M1488.93,1355.24l3.92-3.74a9.79,9.79,0,0,1,1.7-1.31,5.5,5.5,0,0,1,1.85-.72,4,4,0,0,1,1.89.11,4.21,4.21,0,0,1,1.79,1.18,4,4,0,0,1,1.21,2.66,4.81,4.81,0,0,1-.89,2.84l7.78,2.13-2.42,2.31-7.17-2.28-1.46,1.4,4.56,4.78-2,1.91Zm8.28,1.38a8.1,8.1,0,0,0,.8-0.88,3.43,3.43,0,0,0,.54-1,2.09,2.09,0,0,0,.09-1,2,2,0,0,0-.58-1,1.78,1.78,0,0,0-.93-0.56,2.13,2.13,0,0,0-1,0,3,3,0,0,0-1,.45,7.08,7.08,0,0,0-.85.69l-1.81,1.73,3,3.17Z" transform="translate(-201.45 -40.04)"/><path class="cls-1" d="M1499.1,1345.46l2-1.94,10.9,11.12-2,1.94Z" transform="translate(-201.45 -40.04)"/><path class="cls-1" d="M1514.24,1335.52a3.55,3.55,0,0,0-2,.28,5.4,5.4,0,0,0-2.87,3,5.16,5.16,0,0,0-.34,2.06,5.36,5.36,0,0,0,.51,2.05,6.37,6.37,0,0,0,1.32,1.85,6.92,6.92,0,0,0,1.92,1.38,5.25,5.25,0,0,0,2,.52,4.78,4.78,0,0,0,2-.35,5.44,5.44,0,0,0,1.83-1.25,4.81,4.81,0,0,0,1.21-1.93,4.35,4.35,0,0,0,.17-2l2.67-.48a7.11,7.11,0,0,1-.35,3.21,8,8,0,0,1-2,3,9,9,0,0,1-2.79,2,7.58,7.58,0,0,1-6.11.07,8.7,8.7,0,0,1-2.8-1.91,8.45,8.45,0,0,1-1.94-2.84,7.5,7.5,0,0,1-.57-3.07,7.92,7.92,0,0,1,.72-3,9.55,9.55,0,0,1,1.95-2.78,9.09,9.09,0,0,1,1.2-1,8,8,0,0,1,1.41-.8,7.57,7.57,0,0,1,1.51-.48,4.52,4.52,0,0,1,1.54-.05Z" transform="translate(-201.45 -40.04)"/><path class="cls-1" d="M1517.78,1326.57l1.65-1.74,15.91,5.88-2.18,2.29-3.58-1.41-4.66,4.89,1.61,3.48-2.14,2.25Zm9.41,4.09-6.24-2.63,2.91,6.14Z" transform="translate(-201.45 -40.04)"/><path class="cls-1" d="M1584.73,1246l2.49-3.54,11.38,3.05,0-.05-6.75-9.64,2.51-3.56,12.74,9-1.58,2.25-10.24-7.2,0,0,7.52,11.07-1.11,1.58-12.92-3.39,0,0,10.24,7.2-1.52,2.16Z" transform="translate(-201.45 -40.04)"/><path class="cls-1" d="M1599.07,1225.33l1.33-2,16.68,3.08-1.76,2.63-3.77-.77-3.75,5.62L1610,1237l-1.72,2.58Zm10,2.43-6.6-1.53,3.91,5.55Z" transform="translate(-201.45 -40.04)"/><path class="cls-1" d="M1605.06,1216.27l1.5-2.33,11,7.09,3.58-5.57,2.07,1.33-5.08,7.9Z" transform="translate(-201.45 -40.04)"/><path class="cls-1" d="M1613.81,1202.46l1.26-2,16.78,2.47-1.66,2.7-3.8-.64-3.55,5.75,2.29,3.07-1.63,2.64Zm10,2.07-6.65-1.29,4.11,5.41Z" transform="translate(-201.45 -40.04)"/><path class="cls-1" d="M1618.51,1194.92l1.53-2.62,11.4,3.17,0,0-8.15-8.73,1.44-2.47,11.58,2.86,0,0-8.33-8.43,1.49-2.55,11.16,11.79-1.35,2.32-11.93-2.74,0,0,8.25,9-1.35,2.32Z" transform="translate(-201.45 -40.04)"/><path class="cls-1" d="M1630.43,1174.27l1.35-2.42,13.6,7.6-1.35,2.42Z" transform="translate(-201.45 -40.04)"/><path class="cls-1" d="M1695.52,1052.74a6.41,6.41,0,0,1,2.24,1.3,5.71,5.71,0,0,1,1.38,1.88,5.82,5.82,0,0,1,.5,2.27,7.42,7.42,0,0,1-1.65,4.69,5.94,5.94,0,0,1-1.81,1.47,5.48,5.48,0,0,1-2.25.61,6.54,6.54,0,0,1-2.55-.39l-9.3-3.26,0.92-2.62,9.2,3.22a5.31,5.31,0,0,0,1.33.28,3.33,3.33,0,0,0,1.33-.15,3,3,0,0,0,1.17-.73,4.35,4.35,0,0,0,1.1-3.13,3,3,0,0,0-.45-1.3,3.35,3.35,0,0,0-.94-0.95,5.36,5.36,0,0,0-1.22-.61l-9.2-3.22,0.92-2.62Z" transform="translate(-201.45 -40.04)"/><path class="cls-1" d="M1705.58,1037.85a12.12,12.12,0,0,1,0,2.75,15.06,15.06,0,0,1-.71,3.21,9.5,9.5,0,0,1-1.65,3.1,7.88,7.88,0,0,1-2.44,2,7.68,7.68,0,0,1-3,.86,8.58,8.58,0,0,1-3.36-.44,8.46,8.46,0,0,1-3-1.66,7.5,7.5,0,0,1-1.88-2.49,7.92,7.92,0,0,1-.72-3,9.54,9.54,0,0,1,.49-3.36,10.38,10.38,0,0,1,1.57-3.08,7,7,0,0,1,2.12-1.93l1.37,2.46a4.73,4.73,0,0,0-1.58,1.23,5.78,5.78,0,0,0-1.16,2.06,5.5,5.5,0,0,0-.27,2.26,5,5,0,0,0,.62,2,5.46,5.46,0,0,0,1.38,1.59,6.38,6.38,0,0,0,2,1.06,6.61,6.61,0,0,0,2.31.35,5.32,5.32,0,0,0,2.07-.48,4.94,4.94,0,0,0,1.68-1.28,6,6,0,0,0,1.13-2.07,8,8,0,0,0,.44-3.12l-3.76-1.23-1,3.12-2.17-.71,1.85-5.67Z" transform="translate(-201.45 -40.04)"/><path class="cls-1" d="M1694,1025.25l0.69-2.3,16.85-1.92-0.92,3-3.83.36-2,6.46,3,2.38-0.9,3Zm10.24-.58-6.76.46,5.36,4.17Z" transform="translate(-201.45 -40.04)"/><path class="cls-1" d="M1697.08,1014.94l1-3.54,13.17-3.85v0l-11.23-3.12,0.74-2.67,15,4.17-0.94,3.39-13.57,3.9v0l11.59,3.22-0.74,2.67Z" transform="translate(-201.45 -40.04)"/><path class="cls-1" d="M1701.68,998.27l1.36-5.35a12.23,12.23,0,0,1,1.14-2.87,7.93,7.93,0,0,1,2-2.37,6.86,6.86,0,0,1,2.82-1.35,7.94,7.94,0,0,1,3.76.16,7.52,7.52,0,0,1,3.22,1.61,7.22,7.22,0,0,1,1.85,2.54,8.38,8.38,0,0,1,.67,3,10.83,10.83,0,0,1-.31,3.08l-1.36,5.35Zm14-1.69a9.43,9.43,0,0,0,.29-2.15,5.62,5.62,0,0,0-.35-2.1,4.56,4.56,0,0,0-1.24-1.78,5.55,5.55,0,0,0-2.4-1.18,5.89,5.89,0,0,0-2.78-.14,4.41,4.41,0,0,0-1.95,1,5.29,5.29,0,0,0-1.27,1.69,10.8,10.8,0,0,0-.74,2l-0.57,2.24,10.45,2.65Z" transform="translate(-201.45 -40.04)"/><path class="cls-1" d="M1706.78,977.58l0.54-2.34,16.69-3-0.71,3.09-3.8.61L1718,982.5l3.15,2.18-0.7,3Zm10.18-1.26-6.71.91,5.62,3.81Z" transform="translate(-201.45 -40.04)"/></svg>