<?xml version="1.0" encoding="UTF-8" standalone="no"?>
<svg width="3865px" height="3865px" viewBox="0 0 3865 3865" version="1.1" xmlns="http://www.w3.org/2000/svg" xmlns:xlink="http://www.w3.org/1999/xlink">
    <!-- Generator: Sketch 41.2 (35397) - http://www.bohemiancoding.com/sketch -->
    <title>polar lines 2</title>
    <desc>Created with Sketch.</desc>
    <defs></defs>
    <g id="Symbols" stroke="none" stroke-width="1" fill="none" fill-rule="evenodd" opacity="0.681028451">
        <g id="polar-background" transform="translate(25.000000, 959.000000)" stroke="#B3E4FF">
            <g id="background" transform="translate(-25.000000, -959.000000)">
                <g id="polar-lines-2">
                    <g>
                        <path d="M3864.411,1932.5 C3864.411,864.666821 3000.33318,0.588997257 1932.5,0.588997257 C864.666821,0.588997257 0.588997257,864.666821 0.588997257,1932.5 C0.588997257,3000.33318 864.666821,3864.411 1932.5,3864.411 C3000.33318,3864.411 3864.411,3000.33318 3864.411,1932.5 L3864.411,1932.5 Z" id="Stroke-1"></path>
                        <path d="M1932.5,3715.8024 C946.807201,3715.8024 149.197717,2918.19292 149.197717,1932.50012 C149.197717,946.807318 946.807201,149.197835 1932.5,149.197835 C2918.1928,149.197835 3715.80228,946.807318 3715.80228,1932.50012 C3715.80228,2918.19292 2918.1928,3715.8024 1932.5,3715.8024 L1932.5,3715.8024 Z" id="Stroke-3"></path>
                        <path d="M3567.19403,1932.5 C3567.19403,1028.94876 2836.05171,297.806437 1932.50047,297.806437 C1028.94805,297.806437 297.80573,1028.94876 297.80573,1932.5 C297.80573,2836.05124 1028.94805,3567.19356 1932.50047,3567.19356 C2836.05171,3567.19356 3567.19403,2836.05124 3567.19403,1932.5 L3567.19403,1932.5 Z" id="Stroke-5"></path>
                        <path d="M1932.5,3418.58543 C1111.08914,3418.58543 446.415157,2753.91027 446.415157,1932.50059 C446.415157,1111.08973 1111.08914,446.414568 1932.5,446.414568 C2753.91086,446.414568 3418.58602,1111.08973 3418.58602,1932.50059 C3418.58602,2753.91027 2753.91086,3418.58543 1932.5,3418.58543 L1932.5,3418.58543 Z" id="Stroke-7"></path>
                        <path d="M3269.97671,1932.5 C3269.97671,1193.23069 2671.76989,595.022699 1932.49941,595.022699 C1193.23011,595.022699 595.023288,1193.23069 595.023288,1932.5 C595.023288,2671.76931 1193.23011,3269.9773 1932.49941,3269.9773 C2671.76989,3269.9773 3269.97671,2671.76931 3269.97671,1932.5 L3269.97671,1932.5 Z" id="Stroke-9"></path>
                        <path d="M1932.5,3121.36835 C1275.37107,3121.36835 743.631419,2589.62869 743.631419,1932.49976 C743.631419,1275.37202 1275.37107,743.632361 1932.5,743.632361 C2589.62775,743.632361 3121.36858,1275.37202 3121.36858,1932.49976 C3121.36858,2589.62869 2589.62775,3121.36835 1932.5,3121.36835 L1932.5,3121.36835 Z" id="Stroke-11"></path>
                        <path d="M2972.75974,1932.5 C2972.75974,1357.51263 2507.48725,892.240139 1932.49988,892.240139 C1357.51251,892.240139 892.240021,1357.51263 892.240021,1932.5 C892.240021,2507.48737 1357.51251,2972.75986 1932.49988,2972.75986 C2507.48725,2972.75986 2972.75974,2507.48737 2972.75974,1932.5 L2972.75974,1932.5 Z" id="Stroke-13"></path>
                        <path d="M1932.5,2824.15126 C1439.65419,2824.15126 1040.84886,2425.34593 1040.84886,1932.50012 C1040.84886,1439.65313 1439.65419,1040.84898 1932.5,1040.84898 C2425.34581,1040.84898 2824.15114,1439.65313 2824.15114,1932.50012 C2824.15114,2425.34593 2425.34581,2824.15126 1932.5,2824.15126 L1932.5,2824.15126 Z" id="Stroke-15"></path>
                        <path d="M2675.54277,1932.5 C2675.54277,1521.79457 2343.20578,1189.45758 1932.50035,1189.45758 C1521.79492,1189.45758 1189.45675,1521.79457 1189.45675,1932.5 C1189.45675,2343.20543 1521.79492,2675.54242 1932.50035,2675.54242 C2343.20578,2675.54242 2675.54277,2343.20543 2675.54277,1932.5 L2675.54277,1932.5 Z" id="Stroke-17"></path>
                        <path d="M1932.5,2526.93417 C1603.93613,2526.93417 1338.0663,2261.06435 1338.0663,1932.50047 C1338.0663,1603.93542 1603.93613,1338.06559 1932.5,1338.06559 C2261.06387,1338.06559 2526.9337,1603.93542 2526.9337,1932.50047 C2526.9337,2261.06435 2261.06387,2526.93417 1932.5,2526.93417 L1932.5,2526.93417 Z" id="Stroke-19"></path>
                        <path d="M2378.32557,1932.5 C2378.32557,1686.07651 2178.92291,1486.67384 1932.49941,1486.67384 C1686.07709,1486.67384 1486.67443,1686.07651 1486.67443,1932.5 C1486.67443,2178.92349 1686.07709,2378.32616 1932.49941,2378.32616 C2178.92291,2378.32616 2378.32557,2178.92349 2378.32557,1932.5 L2378.32557,1932.5 Z" id="Stroke-21"></path>
                        <path d="M1932.5,2229.71709 C1768.21806,2229.71709 1635.28256,2096.78158 1635.28256,1932.49965 C1635.28256,1768.21771 1768.21806,1635.28338 1932.5,1635.28338 C2096.78194,1635.28338 2229.71744,1768.21771 2229.71744,1932.49965 C2229.71744,2096.78158 2096.78194,2229.71709 1932.5,2229.71709 L1932.5,2229.71709 Z" id="Stroke-23"></path>
                        <path d="M2081.10848,1932.5 C2081.10848,1850.35844 2014.64132,1783.89128 1932.49976,1783.89128 C1850.35938,1783.89128 1783.89104,1850.35844 1783.89104,1932.5 C1783.89104,2014.64156 1850.35938,2081.10872 1932.49976,2081.10872 C2014.64132,2081.10872 2081.10848,2014.64156 2081.10848,1932.5 L2081.10848,1932.5 Z" id="Stroke-25"></path>
                        <path d="M1932.5,1932.5 L1932.5,3864.411" id="Stroke-27"></path>
                        <path d="M1932.5,1932.5 L2898.4555,3605.5844" id="Stroke-29"></path>
                        <path d="M1932.5,1932.5 L3605.5844,2898.4555" id="Stroke-31"></path>
                        <path d="M1932.5,1932.5 L3864.411,1932.5" id="Stroke-33"></path>
                        <path d="M1932.5,1932.5 L3605.5844,966.544499" id="Stroke-35"></path>
                        <path d="M1932.5,1932.5 L2898.4555,259.415596" id="Stroke-37"></path>
                        <path d="M1932.5,1932.5 L1932.5,0.588997257" id="Stroke-39"></path>
                        <path d="M1932.5,1932.5 L966.544499,259.415596" id="Stroke-41"></path>
                        <path d="M1932.5,1932.5 L259.415596,966.544499" id="Stroke-43"></path>
                        <path d="M1932.5,1932.5 L0.588997257,1932.5" id="Stroke-45"></path>
                        <path d="M1932.5,1932.5 L259.415596,2898.4555" id="Stroke-47"></path>
                        <path d="M1932.5,1932.5 L966.544499,3605.5844" id="Stroke-49"></path>
                    </g>
                </g>
            </g>
        </g>
    </g>
</svg>