<?xml version="1.0" encoding="utf-8"?>
<!-- Generator: Adobe Illustrator 20.1.0, SVG Export Plug-In . SVG Version: 6.00 Build 0)  -->
<svg version="1.1" id="Layer_1" xmlns="http://www.w3.org/2000/svg" xmlns:xlink="http://www.w3.org/1999/xlink" x="0px" y="0px"
	 viewBox="0 0 69.7 151.6" style="enable-background:new 0 0 69.7 151.6;" xml:space="preserve">
<style type="text/css">
	.st0{fill:#FFFFFF;}
</style>
<g id="_x30_5-polar-projection">
	<g id="documents-copy-3" transform="translate(-2829.000000, -2090.000000)">
		
			<g id="arrow-copy" transform="translate(2905.000000, 2125.000000) rotate(-180.000000) translate(-2905.000000, -2125.000000) translate(2829.000000, 2090.000000)">
			<polygon id="Fill-1" class="st0" points="83.6,-23.8 117.2,-58 152,-23.8 152,-46.6 117.5,-80.8 83.6,-46.6 			"/>
			<path id="Fill-2" class="st0" d="M82.4-22.4l34.2-34.8L152-22.4v-24.4l-34.7-34.4l-0.4-0.4L82.6-47l-0.2,0.2V-22.4z M116.6-58.8
				L83.6-25.2v-21.2L116.9-80l33.9,33.7v21.2L116.6-58.8z"/>
			<polygon id="Fill-3" class="st0" points="82.6,22.4 116.2,-11.8 151,22.4 151,-0.4 116.5,-34.6 82.6,-0.4 			"/>
			<path id="Fill-4" class="st0" d="M82.4,23.8L116.6-11L152,23.8V-0.6L117.3-35l-0.4-0.4L82.6-0.8l-0.2,0.2V23.8z M116.6-12.6
				L83.6,21V-0.2l33.4-33.6l33.9,33.7V21L116.6-12.6z"/>
			<polygon id="Fill-5" class="st0" points="83.4,68.6 83.4,45.8 117.4,11.6 151.9,45.8 151.9,68.6 117.1,34.4 			"/>
			<path id="Fill-6" class="st0" d="M82.3,70l34.2-34.8L151.9,70V45.6l-34.7-34.4l-0.4-0.4L82.4,45.4l-0.2,0.2V70z M116.5,33.6
				L83.4,67.2V46l33.4-33.6L150.7,46v21.2L116.5,33.6z"/>
		</g>
	</g>
</g>
</svg>
