<?xml version="1.0" encoding="utf-8"?>
<!-- Generator: Adobe Illustrator 20.1.0, SVG Export Plug-In . SVG Version: 6.00 Build 0)  -->
<svg version="1.1" id="Layer_1" xmlns="http://www.w3.org/2000/svg" xmlns:xlink="http://www.w3.org/1999/xlink" x="0px" y="0px"
	 viewBox="0 0 69.7 151.6" style="enable-background:new 0 0 69.7 151.6;" xml:space="preserve">
<style type="text/css">
	.st0{fill:#FFFFFF;}
</style>
<g id="_x30_5-polar-projection_1_">
	<g id="documents-copy-3_1_" transform="translate(-2829.000000, -2090.000000)">
		
			<g id="arrow-copy_1_" transform="translate(2905.000000, 2125.000000) rotate(-180.000000) translate(-2905.000000, -2125.000000) translate(2829.000000, 2090.000000)">
			<polygon id="Fill-1_1_" class="st0" points="150.7,12.2 117.1,46.4 82.3,12.2 82.3,35 116.8,69.2 150.7,35 			"/>
			<path id="Fill-2_1_" class="st0" d="M151.9,10.8l-34.2,34.8L82.3,10.8v24.4L117,69.6l0.4,0.4l34.3-34.6l0.2-0.2V10.8z
				 M117.6,47.2l33.1-33.6v21.2l-33.4,33.6L83.4,34.7V13.5L117.6,47.2z"/>
			<polygon id="Fill-3_1_" class="st0" points="151.7,-34 118.1,0.2 83.3,-34 83.3,-11.2 117.8,23 151.7,-11.2 			"/>
			<path id="Fill-4_1_" class="st0" d="M151.9-35.4L117.6-0.6L82.3-35.4V-11L117,23.4l0.4,0.4l34.3-34.6l0.2-0.2V-35.4z M117.6,1
				l33.1-33.6v21.2l-33.4,33.6L83.4-11.5v-21.2L117.6,1z"/>
			<polygon id="Fill-5_1_" class="st0" points="150.9,-80.2 150.9,-57.4 116.9,-23.2 82.4,-57.4 82.4,-80.2 117.2,-46 			"/>
			<path id="Fill-6_1_" class="st0" d="M152-81.6l-34.2,34.8L82.4-81.6v24.4l34.7,34.4l0.4,0.4L151.8-57l0.2-0.2V-81.6z M117.8-45.2
				l33.1-33.6v21.2L117.5-24L83.6-57.7v-21.2L117.8-45.2z"/>
		</g>
	</g>
</g>
</svg>
