<?xml version="1.0" encoding="UTF-8" standalone="no"?>
<svg width="152px" height="70px" viewBox="0 0 152 70" version="1.1" xmlns="http://www.w3.org/2000/svg" xmlns:xlink="http://www.w3.org/1999/xlink">
    <!-- Generator: Sketch 39.1 (31720) - http://www.bohemiancoding.com/sketch -->
    <title>arrow copy</title>
    <desc>Created with Sketch.</desc>
    <defs></defs>
    <g id="05-polar-projection" stroke="none" stroke-width="1" fill="none" fill-rule="evenodd">
        <g id="documents-copy-3" transform="translate(-2829.000000, -2090.000000)" fill="#FFFFFF">
            <g id="arrow-copy" transform="translate(2905.000000, 2125.000000) rotate(-180.000000) translate(-2905.000000, -2125.000000) translate(2829.000000, 2090.000000)">
                <polygon id="Fill-1" points="93.7893016 1.2810198 128.009732 34.9311094 93.7893016 69.72188 116.602922 69.72188 150.822211 35.2162797 116.602922 1.2810198"></polygon>
                <path d="M92.3951613,0.140452867 L127.203042,34.3677271 L92.428241,69.7219941 L116.839955,69.7219941 L151.226925,35.0498543 L151.628444,34.6437719 L117.004213,0.305851613 L116.837674,0.140452867 L92.3951613,0.140452867 Z M128.815965,34.3540389 L95.1829857,1.28113387 L116.367713,1.28113387 L150.016662,34.6494753 L116.365432,68.5813131 L95.1499059,68.5813131 L128.815965,34.3540389 Z" id="Fill-2"></path>
                <polygon id="Fill-3" points="47.591721 0.281019803 81.8121511 33.9311094 47.591721 68.72188 70.405341 68.72188 104.62463 34.2162797 70.405341 0.281019803"></polygon>
                <path d="M46.1975806,0.140452867 L81.0054615,34.3677271 L46.2306604,69.7219941 L70.6423746,69.7219941 L105.029344,35.0498543 L105.430864,34.6437719 L70.8066326,0.305851613 L70.6400932,0.140452867 L46.1975806,0.140452867 Z M82.6183844,34.3540389 L48.985405,1.28113387 L70.1701326,1.28113387 L103.819082,34.6494753 L70.1678513,68.5813131 L48.9523253,68.5813131 L82.6183844,34.3540389 Z" id="Fill-4"></path>
                <polygon id="Fill-5" points="1.39391219 1.140681 24.2075323 1.140681 58.4279624 35.0759409 24.2075323 69.5815412 1.39391219 69.5815412 35.6143423 34.7907706"></polygon>
                <path d="M4.54747351e-13,-0.000114068098 L34.8078808,34.2271601 L0.0330797491,69.5814272 L24.4447939,69.5814272 L58.8317634,34.9081467 L59.2332832,34.5032049 L24.609052,0.165284677 L24.4425125,-0.000114068098 L4.54747351e-13,-0.000114068098 Z M36.4208038,34.213472 L2.78782437,1.14056694 L23.972552,1.14056694 L57.6215009,34.510049 L23.9702706,68.4407461 L2.75474462,68.4407461 L36.4208038,34.213472 Z" id="Fill-6"></path>
            </g>
        </g>
    </g>
</svg>