<?xml version="1.0" encoding="UTF-8" standalone="no"?>
<svg width="128px" height="1020px" viewBox="0 0 128 1020" version="1.1" xmlns="http://www.w3.org/2000/svg" xmlns:xlink="http://www.w3.org/1999/xlink">
    <!-- Generator: Sketch 41.2 (35397) - http://www.bohemiancoding.com/sketch -->
    <title>Page 1</title>
    <desc>Created with Sketch.</desc>
    <defs>
        <polygon id="path-1" points="0 0.788423833 0 36.9451 40.9178885 36.9451 40.9178885 0.788423833 0 0.788423833"></polygon>
    </defs>
    <g id="Symbols" stroke="none" stroke-width="1" fill="none" fill-rule="evenodd" opacity="0.616895989">
        <g id="polar-background" transform="translate(-3531.000000, -569.000000)">
            <g id="Page-1" transform="translate(3595.000000, 1079.000000) rotate(-180.000000) translate(-3595.000000, -1079.000000) translate(3531.000000, 569.000000)">
                <polygon id="Fill-1" fill="#98DAF8" points="123.2604 0.0031 119.1544 11.8511 87.0384 0.7221 85.3094 5.7111 117.4254 16.8411 113.3194 28.6901 117.9964 30.3101 127.9374 1.6241"></polygon>
                <polygon id="Fill-2" fill="#98DAF8" points="113.2637 44.653 111.6857 49.692 96.2547 44.859 90.2217 64.121 105.6527 68.954 104.0747 73.993 66.9137 62.354 68.4927 57.315 85.4977 62.641 91.5307 43.379 74.5257 38.053 76.1037 33.014"></polygon>
                <polygon id="Fill-3" fill="#98DAF8" points="98.5874 92.6959 91.8154 116.9009 87.0474 115.5679 92.3984 96.4469 81.2224 93.3199 76.2424 111.1159 71.4754 109.7829 76.4554 91.9869 64.4314 88.6219 58.8154 108.6959 54.0484 107.3629 61.0874 82.2039"></polygon>
                <g id="Group-41" transform="translate(0.000000, 150.110000)">
                    <path d="M64.1202,10.4824 L62.4972,17.5024 C62.2742,18.4664 62.1612,19.4004 62.1602,20.3034 C62.1572,21.2054 62.3142,22.0324 62.6302,22.7824 C62.9452,23.5334 63.4172,24.1784 64.0452,24.7194 C64.6732,25.2594 65.5042,25.6494 66.5412,25.8894 C68.0412,26.2354 69.4562,26.0554 70.7872,25.3464 C72.1172,24.6384 73.0232,23.2474 73.5022,21.1764 L75.3732,13.0854 L64.1202,10.4824 Z M46.4372,6.3924 L44.6892,13.9484 C44.5082,14.7334 44.3882,15.6184 44.3292,16.6034 C44.2712,17.5864 44.3892,18.5444 44.6812,19.4784 C44.9732,20.4114 45.4632,21.2584 46.1532,22.0204 C46.8432,22.7814 47.8662,23.3194 49.2242,23.6334 C51.4742,24.1544 53.3312,23.8124 54.7962,22.6074 C56.2602,21.4024 57.2812,19.5504 57.8592,17.0504 L59.6192,9.4414 L46.4372,6.3924 Z M81.0642,8.9814 L78.0162,22.1634 C77.6362,23.8064 77.0852,25.2884 76.3672,26.6084 C75.6462,27.9284 74.7862,29.0094 73.7822,29.8504 C72.7782,30.6904 71.6102,31.2674 70.2772,31.5794 C68.9442,31.8924 67.4742,31.8624 65.8662,31.4914 C63.6872,30.9864 62.0502,29.9674 60.9562,28.4364 C59.8612,26.9024 59.2162,25.0984 59.0192,23.0204 L58.9112,22.9954 C58.5762,24.1214 58.0332,25.1254 57.2842,26.0064 C56.5352,26.8854 55.6552,27.5954 54.6472,28.1344 C53.6382,28.6714 52.5302,29.0274 51.3242,29.2004 C50.1172,29.3724 48.8702,29.3104 47.5842,29.0124 C45.8692,28.6164 44.4412,27.9194 43.2982,26.9204 C42.1552,25.9224 41.2772,24.7124 40.6662,23.2914 C40.0532,21.8704 39.7012,20.3024 39.6082,18.5874 C39.5152,16.8724 39.6842,15.0864 40.1142,13.2284 L43.1252,0.2074 L81.0642,8.9814 Z" id="Fill-4" fill="#98DAF8"></path>
                    <polygon id="Fill-6" fill="#98DAF8" points="71.3638 52.4263 70.2918 57.5963 32.1628 49.6933 33.2348 44.5233"></polygon>
                    <path d="M49.5127,79.3638 L48.2127,86.4498 C48.0337,87.4248 47.9637,88.3618 48.0037,89.2638 C48.0427,90.1658 48.2377,90.9848 48.5867,91.7198 C48.9367,92.4548 49.4367,93.0778 50.0897,93.5888 C50.7407,94.0998 51.5897,94.4518 52.6357,94.6438 C54.1507,94.9218 55.5557,94.6768 56.8527,93.9078 C58.1487,93.1388 58.9907,91.7088 59.3737,89.6168 L60.8727,81.4488 L49.5127,79.3638 Z M31.6607,76.0878 L30.2617,83.7148 C30.1157,84.5078 30.0357,85.3978 30.0227,86.3838 C30.0097,87.3678 30.1707,88.3208 30.5057,89.2398 C30.8397,90.1578 31.3687,90.9828 32.0927,91.7118 C32.8157,92.4408 33.8627,92.9318 35.2337,93.1828 C37.5057,93.5998 39.3457,93.1738 40.7527,91.9038 C42.1597,90.6328 43.0957,88.7358 43.5587,86.2118 L44.9687,78.5298 L31.6607,76.0878 Z M66.3707,77.0898 L63.9277,90.3978 C63.6237,92.0558 63.1417,93.5608 62.4837,94.9128 C61.8257,96.2648 61.0137,97.3838 60.0507,98.2688 C59.0857,99.1548 57.9457,99.7838 56.6287,100.1568 C55.3107,100.5308 53.8407,100.5688 52.2187,100.2708 C50.0177,99.8668 48.3357,98.9238 47.1737,97.4438 C46.0097,95.9618 45.2827,94.1888 44.9907,92.1218 L44.8827,92.1018 C44.5977,93.2428 44.1017,94.2698 43.3937,95.1838 C42.6857,96.0968 41.8397,96.8458 40.8567,97.4298 C39.8737,98.0138 38.7827,98.4198 37.5857,98.6478 C36.3877,98.8748 35.1407,98.8698 33.8427,98.6318 C32.1117,98.3138 30.6517,97.6818 29.4647,96.7378 C28.2767,95.7928 27.3457,94.6238 26.6687,93.2328 C25.9917,91.8408 25.5677,90.2908 25.3977,88.5818 C25.2267,86.8728 25.3137,85.0798 25.6577,83.2058 L28.0707,70.0598 L66.3707,77.0898 Z" id="Fill-8" fill="#98DAF8"></path>
                    <polygon id="Fill-10" fill="#98DAF8" points="58.6714 120.7397 57.8594 125.9567 24.2744 120.7277 21.5244 138.3897 16.6324 137.6277 20.1954 114.7487"></polygon>
                    <polygon id="Fill-12" fill="#98DAF8" points="53.0176 158.5356 49.8136 183.4656 44.9036 182.8346 47.4346 163.1416 35.9246 161.6616 33.5686 179.9916 28.6596 179.3596 31.0156 161.0306 18.6316 159.4386 15.9746 180.1136 11.0646 179.4826 14.3956 153.5716"></polygon>
                    <path d="M18.8711,246.2881 L37.2781,240.5081 L37.2871,240.3981 L20.0711,231.5971 L18.8711,246.2881 Z M44.2541,238.8701 L43.8651,243.6391 L3.6971,257.0781 L4.1991,250.9381 L14.1101,247.8301 L15.6191,229.3571 L6.3401,224.7361 L6.8411,218.5961 L44.2541,238.8701 Z" id="Fill-14" fill="#98DAF8"></path>
                    <polygon id="Fill-16" fill="#98DAF8" points="41.6089 274.6509 41.2709 281.5729 8.2539 301.4369 8.2479 301.5469 40.2199 303.1069 39.9629 308.3799 1.0689 306.4829 1.3959 299.7799 34.4239 279.6959 34.4299 279.5869 2.4579 278.0259 2.7149 272.7529"></polygon>
                    <path d="M5.3179,331.6426 L5.2099,338.2966 C5.1739,340.5326 5.4419,342.6546 6.0139,344.6636 C6.5869,346.6706 7.4659,348.4356 8.6509,349.9586 C9.8369,351.4816 11.3299,352.6976 13.1299,353.6076 C14.9309,354.5166 17.0409,354.9906 19.4609,355.0306 C20.7069,355.0506 22.1669,354.8716 23.8419,354.4966 C25.5169,354.1196 27.1139,353.3846 28.6359,352.2906 C30.1569,351.1966 31.4569,349.6686 32.5339,347.7056 C33.6099,345.7436 34.1739,343.1846 34.2259,340.0326 L34.3539,332.1136 L5.3179,331.6426 Z M39.3889,326.9146 L39.1689,340.4976 C39.1239,343.2466 38.7729,345.6526 38.1169,347.7136 C37.4599,349.7746 36.5969,351.5586 35.5269,353.0626 C34.4579,354.5666 33.2359,355.8126 31.8639,356.7986 C30.4899,357.7856 29.0849,358.5596 27.6459,359.1226 C26.2059,359.6866 24.7699,360.0846 23.3359,360.3186 C21.9009,360.5516 20.5799,360.6596 19.3699,360.6396 C16.8759,360.5996 14.4729,360.1016 12.1599,359.1476 C9.8469,358.1936 7.7979,356.8026 6.0119,354.9766 C4.2269,353.1506 2.8049,350.8996 1.7489,348.2246 C0.6919,345.5486 0.1919,342.4696 0.2479,338.9866 L0.4539,326.2836 L39.3889,326.9146 Z" id="Fill-18" fill="#98DAF8"></path>
                    <g id="Group-22" transform="translate(0.000000, 402.000000)">
                        <mask id="mask-2" fill="white">
                            <use xlink:href="#path-1"></use>
                        </mask>
                        <g id="Clip-21"></g>
                        <path d="M23.2788,36.2871 L4.0948,36.9451 C3.4758,36.0131 2.9258,34.9491 2.4448,33.7551 C1.9638,32.5611 1.5448,31.3181 1.1888,30.0281 C0.8338,28.7381 0.5588,27.4271 0.3658,26.0951 C0.1738,24.7621 0.0568,23.5091 0.0168,22.3371 C-0.0962,19.0391 0.3528,16.0791 1.3628,13.4581 C2.3738,10.8371 3.7828,8.6051 5.5908,6.7641 C7.3988,4.9221 9.5238,3.4921 11.9648,2.4731 C14.4068,1.4531 17.0018,0.8961 19.7498,0.8031 C22.6438,0.7031 25.3548,1.1141 27.8818,2.0371 C30.4078,2.9591 32.6178,4.2761 34.5118,5.9911 C36.4038,7.7061 37.9168,9.7911 39.0468,12.2471 C40.1758,14.7031 40.7918,17.4151 40.8938,20.3841 C41.0168,23.9741 40.6688,26.9211 39.8488,29.2251 C39.0288,31.5271 37.8578,33.4751 36.3348,35.0681 L32.1938,31.4691 C33.6778,29.8031 34.6908,28.0621 35.2348,26.2461 C35.7778,24.4301 36.0148,22.5321 35.9468,20.5541 C35.8698,18.3171 35.3888,16.3161 34.5028,14.5501 C33.6158,12.7821 32.4548,11.2811 31.0188,10.0461 C29.5818,8.8101 27.9078,7.8781 25.9968,7.2471 C24.0858,6.6151 22.0668,6.3361 19.9428,6.4091 C17.7438,6.4841 15.7138,6.9391 13.8528,7.7731 C11.9918,8.6081 10.3888,9.7261 9.0428,11.1311 C7.6958,12.5341 6.6608,14.1651 5.9368,16.0251 C5.2108,17.8841 4.8858,19.8941 4.9598,22.0581 C5.0248,23.9261 5.2578,25.6871 5.6648,27.3441 C6.0698,28.9991 6.6228,30.4011 7.3218,31.5521 L18.1508,31.1801 L17.8548,22.5501 L22.8018,22.3811 L23.2788,36.2871 Z" id="Fill-20" fill="#98DAF8" mask="url(#mask-2)"></path>
                    </g>
                    <path d="M7.7178,476.8252 C7.8718,479.0562 8.4218,481.0402 9.3688,482.7762 C10.3158,484.5112 11.5278,485.9712 13.0068,487.1562 C14.4848,488.3402 16.1888,489.2152 18.1218,489.7802 C20.0528,490.3452 22.0798,490.5542 24.2018,490.4082 C26.3228,490.2622 28.3008,489.7752 30.1378,488.9512 C31.9738,488.1262 33.5418,487.0252 34.8438,485.6492 C36.1458,484.2722 37.1468,482.6602 37.8458,480.8112 C38.5458,478.9622 38.8178,476.9222 38.6638,474.6902 C38.5098,472.4592 37.9598,470.4752 37.0128,468.7402 C36.0668,467.0042 34.8538,465.5442 33.3758,464.3602 C31.8968,463.1752 30.1918,462.3012 28.2598,461.7362 C26.3278,461.1712 24.3008,460.9622 22.1798,461.1082 C20.0578,461.2542 18.0798,461.7402 16.2438,462.5652 C14.4068,463.3892 12.8388,464.4902 11.5378,465.8672 C10.2358,467.2432 9.2358,468.8552 8.5358,470.7052 C7.8368,472.5542 7.5638,474.5942 7.7178,476.8252 M2.7798,477.1662 C2.5748,474.2032 2.9078,471.4422 3.7798,468.8832 C4.6498,466.3232 5.9388,464.0942 7.6458,462.1932 C9.3518,460.2932 11.4138,458.7542 13.8328,457.5772 C16.2498,456.3982 18.9038,455.7112 21.7938,455.5122 C24.6838,455.3112 27.4068,455.6292 29.9638,456.4642 C32.5208,457.2982 34.7748,458.5392 36.7268,460.1872 C38.6768,461.8352 40.2598,463.8662 41.4748,466.2822 C42.6888,468.6972 43.3978,471.3872 43.6028,474.3492 C43.8068,477.3122 43.4738,480.0732 42.6028,482.6342 C41.7318,485.1922 40.4428,487.4222 38.7368,489.3232 C37.0298,491.2222 34.9678,492.7622 32.5498,493.9392 C30.1308,495.1172 27.4768,495.8052 24.5878,496.0052 C21.6978,496.2042 18.9738,495.8872 16.4178,495.0532 C13.8608,494.2182 11.6068,492.9762 9.6558,491.3292 C7.7038,489.6802 6.1218,487.6492 4.9068,485.2342 C3.6928,482.8182 2.9838,480.1292 2.7798,477.1662" id="Fill-23" fill="#98DAF8"></path>
                    <polygon id="Fill-25" fill="#98DAF8" points="45.044 506.2861 45.66 512.3601 15.296 526.9381 15.307 527.0481 48.024 535.6701 48.607 541.4161 8.317 530.0791 7.818 525.1541"></polygon>
                    <polygon id="Fill-27" fill="#98DAF8" points="50.3306 555.5752 53.5786 580.4992 48.6696 581.1382 46.1046 561.4502 34.5966 562.9502 36.9846 581.2752 32.0766 581.9142 29.6876 563.5902 17.3076 565.2032 20.0016 585.8732 15.0926 586.5122 11.7166 560.6062"></polygon>
                    <path d="M40.0713,606.2969 L41.1603,613.1409 C41.3213,614.1529 41.5633,615.1459 41.8843,616.1159 C42.2063,617.0859 42.6463,617.9249 43.2043,618.6349 C43.7623,619.3439 44.4873,619.8689 45.3763,620.2109 C46.2663,620.5509 47.3633,620.6179 48.6663,620.4109 C49.9693,620.2029 50.9913,619.7989 51.7313,619.1989 C52.4713,618.5989 52.9963,617.8739 53.3073,617.0269 C53.6173,616.1789 53.7753,615.2439 53.7793,614.2229 C53.7843,613.1999 53.7053,612.1829 53.5443,611.1689 L52.4553,604.3249 L40.0713,606.2969 Z M56.1883,598.3849 L58.3403,611.9099 C58.7323,614.3719 58.7193,616.4529 58.3033,618.1529 C57.8863,619.8529 57.2373,621.2469 56.3513,622.3339 C55.4673,623.4219 54.4093,624.2489 53.1823,624.8159 C51.9543,625.3819 50.7433,625.7609 49.5483,625.9509 C48.3163,626.1479 47.0963,626.1179 45.8863,625.8649 C44.6763,625.6119 43.5453,625.1519 42.4923,624.4839 C41.4393,623.8169 40.5013,622.9439 39.6813,621.8689 C38.8603,620.7929 38.2613,619.5419 37.8863,618.1159 L22.0803,631.8259 L21.0433,625.3089 L36.4333,612.8339 L35.5093,607.0229 L18.5623,609.7199 L17.7323,604.5049 L56.1883,598.3849 Z" id="Fill-29" fill="#98DAF8"></path>
                    <polygon id="Fill-31" fill="#98DAF8" points="63.1787 640.8662 64.4837 647.6722 37.0837 674.7642 37.1047 674.8732 68.5417 668.8462 69.5357 674.0322 31.2917 681.3632 30.0287 674.7732 57.3867 647.4652 57.3667 647.3562 25.9287 653.3832 24.9347 648.1962"></polygon>
                    <polygon id="Fill-33" fill="#98DAF8" points="73.3531 692.4473 75.1171 700.1123 49.1621 718.7823 49.2111 718.9973 80.6911 724.3393 82.4551 732.0043 44.5061 740.7353 43.3221 735.5903 74.5171 728.4123 74.4931 728.3043 40.3501 722.6733 39.5611 719.2423 67.8081 699.2543 67.7841 699.1463 36.5881 706.3243 35.4051 701.1783"></polygon>
                    <polygon id="Fill-35" fill="#98DAF8" points="87.1602 750.3955 93.6162 774.6875 88.8322 775.9585 83.7322 756.7705 72.5172 759.7505 77.2642 777.6115 72.4792 778.8825 67.7332 761.0225 55.6672 764.2295 61.0212 784.3745 56.2372 785.6465 49.5272 760.3975"></polygon>
                    <polygon id="Fill-37" fill="#98DAF8" points="98.4366 791.9375 100.4276 798.5755 75.9316 828.3185 75.9626 828.4225 106.6236 819.2255 108.1406 824.2835 70.8426 835.4715 68.9146 829.0445 93.3476 799.0905 93.3156 798.9855 62.6556 808.1835 61.1386 803.1255"></polygon>
                    <polygon id="Fill-39" fill="#98DAF8" points="111.9961 852.0986 108.0221 840.2046 112.7171 838.6366 122.3381 867.4316 117.6431 868.9996 113.6691 857.1066 81.4321 867.8786 79.7581 862.8706"></polygon>
                </g>
            </g>
        </g>
    </g>
</svg>