<?xml version="1.0" encoding="utf-8"?>
<!-- Generator: Adobe Illustrator 19.2.1, SVG Export Plug-In . SVG Version: 6.00 Build 0)  -->
<svg version="1.1" id="Layer_1" xmlns="http://www.w3.org/2000/svg" xmlns:xlink="http://www.w3.org/1999/xlink" x="0px" y="0px"
	 viewBox="0 0 90 90" style="enable-background:new 0 0 90 90;" xml:space="preserve">
<style type="text/css">
	.st0{clip-path:url(#SVGID_2_);}
	.st1{fill:#003876;stroke:#000000;stroke-width:0.25;}
	.st2{fill:#FFFFFF;stroke:#000000;stroke-width:0.25;}
	.st3{fill:#E03A3E;stroke:#000000;stroke-width:0.25;stroke-linejoin:bevel;}
	.st4{fill:#E03A3E;stroke:#000000;stroke-width:0.25;}
	.st5{fill:#FFFFFF;}
</style>
<g>
	<defs>
		<circle id="SVGID_1_" cx="45" cy="45" r="45"/>
	</defs>
	<clipPath id="SVGID_2_">
		<use xlink:href="#SVGID_1_"  style="overflow:visible;"/>
	</clipPath>
	<g class="st0">
		<g>
			<rect x="0.6" y="-0.4" class="st1" width="181.5" height="90.7"/>
			<path class="st1" d="M91.3,45"/>
		</g>
		<polygon class="st2" points="0.6,14.8 19.8,14.8 0.6,5.2 0.6,-0.4 11.6,-0.4 38.3,13 38.3,-0.4 53.4,-0.4 53.4,13 80.2,-0.4 
			91.2,-0.4 91.2,5.2 72,14.8 91.2,14.8 91.2,29.9 72,29.9 91.2,39.5 91.2,45 80.2,45 53.4,31.7 53.4,45 38.3,45 38.3,31.7 11.6,45 
			0.6,45 0.6,39.5 19.8,29.9 0.6,29.9 		"/>
		<g>
			<polygon class="st3" points="84.1,-0.4 53.9,14.8 61.1,14.8 91.2,-0.4 			"/>
			<polygon class="st3" points="91.2,45 61.1,29.9 68.3,29.9 91.2,41.4 			"/>
			<polygon class="st3" points="30.9,14.8 0.6,-0.4 0.6,3.3 23.6,14.8 			"/>
			<polygon class="st3" points="30.9,29.9 0.6,45 7.9,45 38.1,29.9 			"/>
			<polygon class="st4" points="0.6,17.9 41.5,17.9 41.5,-0.4 50.4,-0.4 50.4,17.9 91.2,17.9 91.2,26.8 50.4,26.8 50.4,45 41.5,45 
				41.5,26.8 0.6,26.8 			"/>
		</g>
		<g>
			<polygon class="st5" points="48.6,62.2 56.6,59.2 51.9,66.3 59.2,70.6 50.7,71.4 51.9,79.8 46,73.6 40.1,79.8 41.2,71.4 
				32.8,70.6 40,66.3 35.4,59.2 43.4,62.2 46,54.1 			"/>
			<polygon class="st5" points="137.9,12.2 141.7,10.7 139.5,14.1 143,16.1 138.9,16.5 139.5,20.5 136.7,17.6 133.9,20.5 
				134.4,16.5 130.4,16.1 133.9,14.1 131.7,10.7 135.4,12.2 136.7,8.3 			"/>
			<polygon class="st5" points="137.9,72.6 141.7,71.2 139.5,74.6 143,76.6 138.9,77 139.5,81 136.7,78 133.9,81 134.4,77 
				130.4,76.6 133.9,74.6 131.7,71.2 135.4,72.6 136.7,68.8 			"/>
			<polygon class="st5" points="158.1,30.7 161.9,29.2 159.7,32.6 163.1,34.6 159.1,35 159.7,39 156.8,36.1 154.1,39 154.6,35 
				150.6,34.6 154,32.6 151.8,29.2 155.6,30.7 156.8,26.8 			"/>
			<polygon class="st5" points="115.2,36.7 119.1,35.3 116.8,38.6 120.3,40.7 116.3,41.1 116.8,45.1 114,42.1 111.2,45.1 
				111.8,41.1 107.7,40.7 111.2,38.6 109,35.3 112.8,36.7 114,32.9 			"/>
			<polygon class="st5" points="145.8,44.8 144.9,47.6 142,47.6 144.3,49.3 143.4,52 145.8,50.3 148.1,52 147.2,49.2 149.5,47.6 
				146.7,47.6 			"/>
		</g>
	</g>
</g>
</svg>
