<?xml version="1.0" encoding="utf-8"?>
<!-- Generator: Adobe Illustrator 19.2.1, SVG Export Plug-In . SVG Version: 6.00 Build 0)  -->
<svg version="1.1" id="Layer_1" xmlns="http://www.w3.org/2000/svg" xmlns:xlink="http://www.w3.org/1999/xlink" x="0px" y="0px"
	 viewBox="0 0 90 90" style="enable-background:new 0 0 90 90;" xml:space="preserve">
<style type="text/css">
	.st0{clip-path:url(#SVGID_2_);}
	.st1{fill:#009968;}
	.st2{fill:#FFE52B;}
	.st3{fill:#005EAC;}
	.st4{fill:#FFFFFF;}
	.st5{fill:#F7FAFD;}
	.st6{fill:#231F20;}
</style>
<g>
	<defs>
		<circle id="SVGID_1_" cx="45" cy="45" r="45"/>
	</defs>
	<clipPath id="SVGID_2_">
		<use xlink:href="#SVGID_1_"  style="overflow:visible;"/>
	</clipPath>
	<g class="st0">
		<rect x="-30.8" y="-1.5" class="st1" width="151.7" height="91.5"/>
		<polygon class="st2" points="44.9,9.8 -17.6,44.4 44.9,78.3 45.1,78.3 107.6,44.4 45.1,9.8 		"/>
		<ellipse class="st3" cx="44.9" cy="44.3" rx="22.7" ry="22.7"/>
		<path class="st4" d="M67.5,48.1l-1,3.6c0,0-15.2-16.3-43.9-12.9l1.3-3.8C24,35.1,49.3,30.9,67.5,48.1z"/>
		<polygon class="st5" points="52.2,36.3 52.4,37 53.2,37 52.6,37.4 52.8,38.1 52.2,37.7 51.6,38.1 51.8,37.4 51.3,37 52,37 		"/>
		<polygon class="st5" points="61.2,51.4 61.4,52.1 62.1,52.1 61.5,52.6 61.8,53.3 61.2,52.8 60.6,53.3 60.8,52.6 60.2,52.1 
			61,52.1 		"/>
		<polygon class="st5" points="45.5,53.6 45.7,54.3 46.4,54.3 45.8,54.7 46.1,55.4 45.5,55 44.9,55.4 45.1,54.7 44.5,54.3 
			45.3,54.3 		"/>
		<polygon class="st5" points="57.3,58.1 57.5,58.7 58.1,58.7 57.6,59 57.8,59.6 57.3,59.3 56.8,59.6 57,59 56.5,58.7 57.1,58.7 		
			"/>
		<polygon class="st5" points="60.5,55 60.7,55.6 61.3,55.6 60.8,55.9 61,56.5 60.5,56.1 60,56.5 60.2,55.9 59.7,55.6 60.3,55.6 		
			"/>
		<polygon class="st5" points="61.6,53.7 61.7,54.3 62.3,54.3 61.9,54.6 62,55.2 61.6,54.9 61.1,55.2 61.2,54.6 60.8,54.3 
			61.4,54.3 		"/>
		<polygon class="st5" points="51,42.8 51.1,43.3 51.6,43.3 51.2,43.6 51.4,44.1 51,43.8 50.6,44.1 50.7,43.6 50.3,43.3 50.8,43.3 
					"/>
		<polygon class="st5" points="45.2,46.8 45.3,47.4 45.9,47.4 45.4,47.8 45.6,48.4 45.2,48 44.7,48.4 44.9,47.8 44.4,47.4 45,47.4 
					"/>
		<polygon class="st5" points="37,44.3 37.1,44.9 37.7,44.9 37.3,45.2 37.4,45.8 37,45.5 36.5,45.8 36.7,45.2 36.2,44.9 36.8,44.9 
					"/>
		<polygon class="st5" points="28.6,48.5 28.8,49.2 29.6,49.2 29,49.7 29.2,50.4 28.6,50 28,50.4 28.2,49.7 27.6,49.2 28.4,49.2 		
			"/>
		<polygon class="st5" points="26.4,39.1 26.7,39.8 27.4,39.8 26.8,40.3 27,41 26.4,40.5 25.9,41 26.1,40.3 25.5,39.8 26.2,39.8 		
			"/>
		<polygon class="st5" points="36.5,55.5 36.8,56.2 37.5,56.2 36.9,56.7 37.1,57.4 36.5,56.9 36,57.4 36.2,56.7 35.6,56.2 
			36.3,56.2 		"/>
		<polygon class="st5" points="47.9,49.2 48,49.8 48.6,49.8 48.2,50.2 48.3,50.7 47.9,50.4 47.4,50.7 47.6,50.2 47.1,49.8 
			47.7,49.8 		"/>
		<polygon class="st5" points="52.5,59.3 52.7,59.8 53.2,59.8 52.8,60.1 52.9,60.6 52.5,60.2 52.1,60.6 52.3,60.1 51.9,59.8 
			52.4,59.8 		"/>
		<polygon class="st5" points="53.9,56.1 54.1,56.6 54.6,56.6 54.1,56.9 54.3,57.4 53.9,57.1 53.5,57.4 53.6,56.9 53.2,56.6 
			53.7,56.6 		"/>
		<polygon class="st5" points="43.1,49.2 43.3,49.6 43.8,49.6 43.4,49.9 43.5,50.4 43.1,50.1 42.7,50.4 42.9,49.9 42.5,49.6 
			43,49.6 		"/>
		<polygon class="st5" points="30.8,47.5 30.9,47.9 31.3,47.9 31,48.2 31.1,48.6 30.8,48.3 30.4,48.6 30.6,48.2 30.2,47.9 
			30.7,47.9 		"/>
		<polygon class="st5" points="57.3,56.1 57.4,56.6 57.9,56.6 57.5,56.9 57.7,57.4 57.3,57.1 56.9,57.4 57,56.9 56.6,56.6 
			57.1,56.6 		"/>
		<polygon class="st5" points="57.3,60 57.4,60.4 57.9,60.4 57.5,60.7 57.6,61.1 57.3,60.9 56.9,61.1 57.1,60.7 56.7,60.4 
			57.1,60.4 		"/>
		<polygon class="st5" points="33.2,50.7 33.4,51.3 33.9,51.3 33.5,51.6 33.7,52.2 33.2,51.8 32.7,52.2 32.9,51.6 32.4,51.3 
			33,51.3 		"/>
		<polygon class="st5" points="25.7,50.7 25.9,51.3 26.5,51.3 26,51.6 26.2,52.2 25.7,51.8 25.3,52.2 25.5,51.6 25,51.3 25.6,51.3 
					"/>
		<polygon class="st5" points="44.7,51 44.9,51.4 45.3,51.4 45,51.7 45.1,52.1 44.7,51.8 44.4,52.1 44.5,51.7 44.2,51.4 44.6,51.4 
					"/>
		<polygon class="st5" points="32.6,53.7 32.7,54.1 33.2,54.1 32.8,54.4 32.9,54.8 32.6,54.5 32.2,54.8 32.4,54.4 32,54.1 
			32.5,54.1 		"/>
		<polygon class="st5" points="64.2,51.9 64.3,52.3 64.8,52.3 64.4,52.6 64.6,53 64.2,52.7 63.8,53 64,52.6 63.6,52.3 64.1,52.3 		
			"/>
		<polygon class="st5" points="59,56.1 59.1,56.6 59.6,56.6 59.2,56.9 59.4,57.4 59,57.1 58.6,57.4 58.7,56.9 58.3,56.6 58.8,56.6 
					"/>
		<polygon class="st5" points="50.6,56 50.8,56.5 51.3,56.5 50.8,56.8 51,57.3 50.6,57 50.2,57.3 50.3,56.8 49.9,56.5 50.4,56.5 		
			"/>
		<polygon class="st5" points="45.4,60.9 45.4,61.2 45.7,61.2 45.5,61.3 45.5,61.5 45.4,61.4 45.2,61.5 45.2,61.3 45,61.2 
			45.3,61.2 		"/>
		<path class="st6" d="M26.4,36.5c0,0.2,0.1,0.4,0.2,0.5c0.1,0.1,0.3,0.2,0.4,0.2c0.2,0,0.3-0.1,0.4-0.2c0.1-0.1,0.2-0.3,0.2-0.5
			c0-0.2-0.1-0.4-0.2-0.5c-0.1-0.1-0.3-0.2-0.4-0.2c-0.2,0-0.3,0.1-0.4,0.2C26.4,36.1,26.4,36.3,26.4,36.5z M25.9,36.6
			c0-0.2,0-0.4,0.1-0.5c0-0.1,0.1-0.2,0.2-0.3c0.1-0.1,0.2-0.1,0.3-0.2c0.1-0.1,0.3-0.1,0.5-0.1c0.3,0,0.6,0.1,0.8,0.3
			c0.2,0.2,0.3,0.4,0.3,0.8c0,0.3-0.1,0.6-0.3,0.8c-0.2,0.2-0.4,0.3-0.8,0.3c-0.3,0-0.6-0.1-0.8-0.3C26,37.1,25.9,36.9,25.9,36.6z"
			/>
		<path class="st6" d="M49.6,40.1c0,0.2,0.1,0.4,0.2,0.5c0.1,0.1,0.3,0.2,0.4,0.2c0.2,0,0.3-0.1,0.4-0.2c0.1-0.1,0.2-0.3,0.2-0.5
			c0-0.2-0.1-0.4-0.2-0.5c-0.1-0.1-0.3-0.2-0.4-0.2c-0.2,0-0.3,0.1-0.4,0.2C49.6,39.7,49.6,39.8,49.6,40.1z M49.1,40.1
			c0-0.2,0-0.4,0.1-0.5c0-0.1,0.1-0.2,0.2-0.3s0.2-0.1,0.3-0.2c0.1-0.1,0.3-0.1,0.5-0.1c0.3,0,0.6,0.1,0.8,0.3
			c0.2,0.2,0.3,0.4,0.3,0.8c0,0.3-0.1,0.6-0.3,0.8c-0.2,0.2-0.4,0.3-0.8,0.3c-0.3,0-0.6-0.1-0.8-0.3C49.2,40.7,49.1,40.4,49.1,40.1z
			"/>
		<path class="st6" d="M29.3,36.3h0.4c0.2,0,0.4,0,0.5,0c0.1,0,0.1,0,0.1-0.1c0,0,0.1-0.1,0.1-0.2c0-0.1,0-0.1-0.1-0.2
			c0,0-0.1-0.1-0.2-0.1c0,0-0.2,0-0.4,0h-0.4V36.3z M28.8,37.5v-2.1h1.1c0.3,0,0.5,0,0.6,0.1c0.1,0,0.2,0.1,0.3,0.2
			c0.1,0.1,0.1,0.2,0.1,0.3c0,0.2-0.1,0.3-0.2,0.4c-0.1,0.1-0.3,0.2-0.5,0.2c0.1,0.1,0.2,0.1,0.3,0.2c0.1,0.1,0.2,0.2,0.3,0.3
			l0.3,0.4h-0.6l-0.4-0.5c-0.1-0.2-0.2-0.3-0.3-0.3c0,0-0.1-0.1-0.2-0.1c-0.1,0-0.1,0-0.3,0h-0.1v0.9H28.8z"/>
		<path class="st6" d="M47.2,38.8l0.4,0.1c0.2,0.1,0.4,0.1,0.4,0.1c0.1,0,0.1,0,0.2,0c0,0,0.1-0.1,0.1-0.1c0-0.1,0-0.1,0-0.2
			c0-0.1-0.1-0.1-0.2-0.1c0,0-0.2-0.1-0.4-0.1l-0.4-0.1L47.2,38.8z M46.3,39.8l0.7-2l1,0.3c0.3,0.1,0.4,0.2,0.5,0.2
			c0.1,0.1,0.2,0.2,0.2,0.3c0,0.1,0,0.2,0,0.4c0,0.2-0.1,0.3-0.3,0.3c-0.1,0.1-0.3,0.1-0.5,0c0.1,0.1,0.2,0.2,0.2,0.3
			c0,0.1,0.1,0.2,0.2,0.4l0.2,0.5l-0.6-0.2l-0.2-0.6c-0.1-0.2-0.1-0.3-0.2-0.4c0-0.1-0.1-0.1-0.1-0.1c0,0-0.1-0.1-0.2-0.1l-0.1,0
			L46.8,40L46.3,39.8z"/>
		<path class="st6" d="M55.1,42l0.3,0.2c0.2,0.1,0.4,0.2,0.4,0.2c0.1,0,0.1,0,0.2,0c0.1,0,0.1-0.1,0.1-0.1c0-0.1,0-0.1,0-0.2
			c0-0.1-0.1-0.1-0.1-0.2c0,0-0.1-0.1-0.3-0.2l-0.4-0.2L55.1,42z M54.1,42.8l1-1.9l0.9,0.5c0.2,0.1,0.4,0.2,0.5,0.3
			c0.1,0.1,0.1,0.2,0.2,0.3c0,0.1,0,0.2-0.1,0.3c-0.1,0.1-0.2,0.2-0.3,0.3c-0.1,0-0.3,0-0.5-0.1c0.1,0.1,0.1,0.2,0.2,0.3
			c0,0.1,0.1,0.2,0.1,0.4l0.1,0.5l-0.5-0.3L55.4,43c0-0.2-0.1-0.3-0.1-0.4c0-0.1-0.1-0.1-0.1-0.1c0,0-0.1-0.1-0.2-0.1l-0.1,0
			L54.5,43L54.1,42.8z"/>
		<path class="st6" d="M32.2,35.8v1.4h0.4c0.1,0,0.2,0,0.3,0c0.1,0,0.1,0,0.2-0.1c0.1,0,0.1-0.1,0.1-0.2c0-0.1,0-0.2,0-0.4
			c0-0.2,0-0.3,0-0.4c0-0.1-0.1-0.2-0.1-0.2c-0.1,0-0.1-0.1-0.2-0.1c-0.1,0-0.2,0-0.4,0H32.2z M31.7,35.4h0.9c0.2,0,0.3,0,0.5,0
			c0.1,0,0.3,0.1,0.4,0.2c0.1,0.1,0.2,0.2,0.2,0.3c0.1,0.1,0.1,0.3,0.1,0.5c0,0.2,0,0.3-0.1,0.5c-0.1,0.2-0.1,0.3-0.3,0.4
			c-0.1,0.1-0.2,0.1-0.3,0.2c-0.1,0-0.2,0-0.4,0h-0.9V35.4z"/>
		<polygon class="st6" points="34.4,37.6 34.5,35.5 36.3,35.6 36.3,35.9 35,35.9 35,36.4 36.2,36.4 36.1,36.8 34.9,36.7 34.9,37.3 
			36.3,37.4 36.2,37.7 		"/>
		<polygon class="st6" points="56.4,44.1 57.4,42.2 59,43 58.8,43.3 57.7,42.7 57.5,43.1 58.5,43.7 58.4,44 57.3,43.5 57,44 
			58.2,44.6 58.1,44.9 		"/>
		<polygon class="st6" points="41,38.5 41.3,36.8 42.7,37 42.7,37.3 41.6,37.1 41.5,37.5 42.5,37.7 42.5,38 41.5,37.8 41.4,38.3 
			42.5,38.5 42.4,38.8 		"/>
		<polygon class="st6" points="37,37.9 37.3,35.8 37.9,35.9 38.1,37.3 38.7,35.9 39.3,36 39.1,38.1 38.7,38.1 38.9,36.4 38.3,38 
			37.8,38 37.6,36.3 37.4,37.9 		"/>
		<path class="st6" d="M63.7,47.7c-0.1,0.2-0.1,0.4,0,0.5c0.1,0.2,0.2,0.3,0.3,0.3c0.2,0.1,0.3,0.1,0.5,0c0.1-0.1,0.3-0.2,0.4-0.4
			c0.1-0.2,0.1-0.4,0-0.5c-0.1-0.1-0.2-0.3-0.3-0.3c-0.2-0.1-0.3-0.1-0.5,0C63.9,47.3,63.8,47.4,63.7,47.7z M63.3,47.5
			c0.1-0.2,0.2-0.3,0.3-0.4c0.1-0.1,0.2-0.1,0.3-0.2c0.1,0,0.2-0.1,0.3-0.1c0.1,0,0.3,0,0.5,0.1c0.3,0.1,0.5,0.3,0.6,0.5
			c0.1,0.2,0.1,0.5,0,0.8c-0.1,0.3-0.3,0.5-0.5,0.6c-0.2,0.1-0.5,0.1-0.8,0c-0.3-0.1-0.5-0.3-0.6-0.5C63.2,48.1,63.2,47.8,63.3,47.5
			z"/>
		<path class="st6" d="M61,45.9l0.4,0.2c-0.1,0.1-0.1,0.2,0,0.3c0,0.1,0.1,0.2,0.2,0.3c0.1,0.1,0.2,0.1,0.3,0.1c0.1,0,0.2,0,0.2-0.1
			c0,0,0-0.1,0-0.1c0,0,0-0.1-0.1-0.2c0,0-0.1-0.1-0.3-0.3c-0.2-0.2-0.3-0.4-0.3-0.5c-0.1-0.2,0-0.3,0.1-0.5
			c0.1-0.1,0.1-0.1,0.3-0.2c0.1,0,0.2,0,0.4,0c0.1,0,0.3,0.1,0.4,0.2c0.2,0.2,0.4,0.3,0.5,0.5c0.1,0.2,0,0.3-0.1,0.5L62.6,46
			c0-0.1,0.1-0.2,0-0.3c0-0.1-0.1-0.2-0.2-0.2c-0.1-0.1-0.2-0.1-0.3-0.1c-0.1,0-0.1,0-0.1,0.1c0,0,0,0.1,0,0.1
			c0,0.1,0.1,0.2,0.3,0.4c0.2,0.2,0.3,0.3,0.3,0.4c0.1,0.1,0.1,0.2,0.1,0.3c0,0.1,0,0.2-0.1,0.3c-0.1,0.1-0.2,0.2-0.3,0.2
			c-0.1,0-0.3,0-0.4,0c-0.1,0-0.3-0.1-0.5-0.2c-0.2-0.2-0.4-0.4-0.5-0.5C60.9,46.3,60.9,46.1,61,45.9z"/>
		<path class="st6" d="M58.9,44.6l0.4,0.2c-0.1,0.1-0.1,0.2,0,0.3c0,0.1,0.1,0.2,0.2,0.3c0.1,0.1,0.2,0.1,0.3,0.1
			c0.1,0,0.2,0,0.2-0.1c0,0,0-0.1,0-0.1c0,0,0-0.1-0.1-0.2c0,0-0.1-0.1-0.3-0.3c-0.2-0.2-0.3-0.4-0.3-0.5c-0.1-0.2,0-0.3,0.1-0.5
			c0.1-0.1,0.1-0.1,0.3-0.2c0.1,0,0.2,0,0.4,0c0.1,0,0.3,0.1,0.4,0.2c0.2,0.2,0.4,0.3,0.5,0.5c0.1,0.2,0,0.3-0.1,0.5l-0.4-0.3
			c0-0.1,0.1-0.2,0-0.3c0-0.1-0.1-0.2-0.2-0.2c-0.1-0.1-0.2-0.1-0.3-0.1c-0.1,0-0.1,0-0.1,0.1c0,0,0,0.1,0,0.1
			c0,0.1,0.1,0.2,0.3,0.4c0.2,0.2,0.3,0.3,0.3,0.4c0.1,0.1,0.1,0.2,0.1,0.3c0,0.1,0,0.2-0.1,0.3c-0.1,0.1-0.2,0.2-0.3,0.2
			c-0.1,0-0.3,0-0.4,0c-0.1,0-0.3-0.1-0.5-0.2c-0.2-0.2-0.4-0.4-0.5-0.5C58.8,45,58.8,44.8,58.9,44.6z"/>
		<path class="st6" d="M52.7,41.4l0.1-0.3l0.9,0.4l-0.4,0.8c-0.1,0-0.3,0-0.5,0c-0.2,0-0.4-0.1-0.5-0.1c-0.2-0.1-0.4-0.2-0.5-0.4
			c-0.1-0.2-0.2-0.3-0.2-0.5c0-0.2,0-0.4,0.1-0.6c0.1-0.2,0.2-0.4,0.4-0.5c0.2-0.1,0.3-0.2,0.6-0.2c0.2,0,0.3,0,0.5,0.1
			c0.3,0.1,0.4,0.3,0.5,0.4c0.1,0.2,0.1,0.3,0.1,0.5L53.4,41c0-0.1,0-0.2-0.1-0.3c-0.1-0.1-0.1-0.2-0.3-0.2c-0.2-0.1-0.3-0.1-0.5,0
			s-0.3,0.2-0.4,0.4c-0.1,0.2-0.1,0.4-0.1,0.6c0.1,0.2,0.2,0.3,0.3,0.4c0.1,0,0.2,0.1,0.3,0.1c0.1,0,0.2,0,0.3,0l0.1-0.2L52.7,41.4z
			"/>
		<path class="st6" d="M44.9,37.6l-0.2,0.6l0.2,0.1c0.2,0.1,0.3,0.1,0.3,0.1c0.1,0,0.1,0,0.2-0.1c0,0,0.1-0.1,0.1-0.1
			c0-0.1,0-0.1,0-0.2c0-0.1-0.1-0.1-0.1-0.1c0,0-0.1-0.1-0.3-0.1L44.9,37.6z M44,39.1l0.7-2l0.6,0.2c0.2,0.1,0.4,0.1,0.5,0.2
			c0.1,0.1,0.2,0.2,0.2,0.3c0,0.1,0,0.3,0,0.4c0,0.1-0.1,0.2-0.2,0.3c-0.1,0.1-0.2,0.1-0.2,0.1c-0.1,0-0.2,0-0.2,0
			c-0.1,0-0.2-0.1-0.4-0.1l-0.3-0.1l-0.3,0.8L44,39.1z"/>
	</g>
</g>
</svg>
