<?xml version="1.0" encoding="utf-8"?>
<!-- Generator: Adobe Illustrator 19.2.1, SVG Export Plug-In . SVG Version: 6.00 Build 0)  -->
<svg version="1.1" id="Layer_1" xmlns="http://www.w3.org/2000/svg" xmlns:xlink="http://www.w3.org/1999/xlink" x="0px" y="0px"
	 viewBox="0 0 90 90" style="enable-background:new 0 0 90 90;" xml:space="preserve">
<style type="text/css">
	.st0{clip-path:url(#SVGID_2_);}
	.st1{fill-rule:evenodd;clip-rule:evenodd;fill:#FF0000;}
	.st2{fill-rule:evenodd;clip-rule:evenodd;fill:#FFFFFF;}
</style>
<g>
	<defs>
		<circle id="SVGID_1_" cx="45" cy="45" r="45"/>
	</defs>
	<clipPath id="SVGID_2_">
		<use xlink:href="#SVGID_1_"  style="overflow:visible;"/>
	</clipPath>
	<g class="st0">
		<rect x="71.6" y="-6.3" class="st1" width="26.3" height="129.9"/>
		<rect x="-7.8" y="-6.3" class="st1" width="26.3" height="129.9"/>
		<rect x="18.4" y="-6.3" class="st2" width="53.1" height="129.9"/>
		<path class="st1" d="M46,68.3c-0.3-4.3-0.4-7.1-0.5-9.8c-0.1-1.2,1-1,1.7-0.9c6.2,1,9.2,1.4,9.2,1.4c-3.2-6.1,4.9-9,9.1-12.6
			c-3.2-1.1-2.8-0.7-0.7-8.5c-6.7,2.1-6.2,1.5-7.6-1.8c0,0-0.5,0.6-4.7,5.4c-0.6,0.7-1.6,0.2-1.4-0.8c2.2-10.9,2.3-11.3,2.3-11.3
			c-4.3,2.6-4.1,2.7-4.8,1.4c-2.4-4.6-3.5-6.8-3.5-6.8s-1.1,2.3-3.5,6.8c-0.7,1.3-0.5,1.2-4.8-1.4c0,0,0.1,0.4,2.3,11.3
			c0.2,1-0.8,1.5-1.4,0.8c-4.2-4.8-4.7-5.4-4.7-5.4c-1.4,3.3-0.9,4-7.6,1.8c2.1,7.8,2.5,7.4-0.7,8.5c4.2,3.5,12.3,6.5,9.1,12.6
			c0,0,2.9-0.5,9.2-1.4c0.7-0.1,1.8-0.2,1.7,0.9c-0.1,2.7-0.2,5.5-0.5,9.8H46z"/>
	</g>
</g>
</svg>
