<?xml version="1.0" encoding="utf-8"?>
<!-- Generator: Adobe Illustrator 19.2.1, SVG Export Plug-In . SVG Version: 6.00 Build 0)  -->
<svg version="1.1" id="Layer_1" xmlns="http://www.w3.org/2000/svg" xmlns:xlink="http://www.w3.org/1999/xlink" x="0px" y="0px"
	 viewBox="0 0 90 90" style="enable-background:new 0 0 90 90;" xml:space="preserve">
<style type="text/css">
	.st0{clip-path:url(#SVGID_2_);}
	.st1{fill:#00247D;}
	.st2{fill:#FFFFFF;}
	.st3{fill:#CF142B;}
</style>
<g>
	<defs>
		<circle id="SVGID_1_" cx="45" cy="45" r="45"/>
	</defs>
	<clipPath id="SVGID_2_">
		<use xlink:href="#SVGID_1_"  style="overflow:visible;"/>
	</clipPath>
	<g class="st0">
		<rect x="-7.1" y="-4.6" class="st1" width="108.2" height="115.9"/>
		<g>
			<g>
				<polyline class="st2" points="74.1,26.2 75,29 77.9,29 75.5,30.8 76.4,33.5 74.1,31.8 71.7,33.5 72.6,30.8 70.2,29 73.2,29 				
					"/>
			</g>
			<polyline class="st2" points="85.5,32.3 82.7,32.9 82.4,35.8 80.9,33.3 78.1,33.9 80,31.7 78.6,29.1 81.2,30.3 83.2,28.2 
				82.9,31 			"/>
			<polyline class="st2" points="91.3,38.3 88.4,37.7 87,40.3 86.6,37.4 83.8,36.8 86.4,35.6 86.1,32.6 88.1,34.8 90.8,33.6 
				89.4,36.1 			"/>
			<polyline class="st2" points="93.9,46.2 91.5,44.5 89.1,46.2 90,43.4 87.7,41.7 90.6,41.7 91.6,38.9 92.5,41.6 95.4,41.7 
				93.1,43.4 			"/>
			<polyline class="st2" points="93.3,54.5 91.8,52 88.9,52.6 90.9,50.4 89.4,47.9 92.1,49.1 94.1,46.9 93.8,49.8 96.5,51 
				93.7,51.6 			"/>
			<polygon class="st2" points="89.2,61.8 88.8,59 85.9,58.4 88.6,57.1 88.3,54.2 90.3,56.4 93,55.2 91.5,57.7 93.5,59.9 90.7,59.4 
							"/>
			<polyline class="st2" points="87.2,66.8 84.8,65.1 82.4,66.9 83.3,64 81,62.3 83.9,62.3 84.8,59.5 85.7,62.3 88.7,62.3 86.4,64 
							"/>
			<polyline class="st2" points="78.7,70.6 77.3,68.2 74.4,68.8 76.3,66.5 74.9,64 77.6,65.2 79.6,63.1 79.3,65.9 81.9,67.2 
				79.1,67.8 			"/>
			<polygon class="st2" points="69.5,70.7 69.1,67.8 66.2,67.2 68.9,65.9 68.6,63 70.5,65.2 73.3,64 71.8,66.5 73.8,68.7 71,68.2 
							"/>
			<polyline class="st2" points="65.6,66.8 63.3,65.1 60.9,66.9 61.8,64 59.4,62.3 62.3,62.3 63.3,59.5 64.2,62.3 67.1,62.3 
				64.8,64 			"/>
			<polygon class="st2" points="59.3,58.9 62.1,58.3 59.4,57.1 59.8,54.2 57.7,56.3 55.1,55.2 56.5,57.7 54.5,59.9 57.4,59.3 
				58.9,61.8 			"/>
			<polyline class="st2" points="61.2,40.3 59.7,37.8 56.8,38.4 58.8,36.2 57.4,33.7 60,34.9 62,32.7 61.7,35.6 64.4,36.8 
				61.6,37.4 			"/>
			<polyline class="st2" points="58.9,46.2 56.6,44.5 54.2,46.3 55.1,43.4 52.7,41.7 55.6,41.7 56.6,38.9 57.5,41.7 60.4,41.7 
				58.1,43.4 			"/>
			<polygon class="st2" points="54.9,54.5 54.5,51.6 51.7,51 54.4,49.8 54,46.9 56,49.1 58.7,47.9 57.3,50.4 59.2,52.6 56.4,52 			
				"/>
			<polygon class="st2" points="65.8,35.8 65.4,32.9 62.5,32.3 65.2,31.1 64.9,28.2 66.9,30.3 69.6,29.1 68.1,31.7 70.1,33.9 
				67.3,33.3 			"/>
		</g>
		<rect x="15.4" y="21.6" class="st2" width="9" height="27.1"/>
		<rect x="-7.1" y="30.5" class="st2" width="54.1" height="9.1"/>
		<polygon class="st2" points="-7.1,48.7 -0.9,48.7 47,24.7 46.9,21.6 40.9,21.6 -7.1,45.7 		"/>
		<polygon class="st2" points="-7.1,21.6 -7.1,24.7 41,48.7 47,48.7 47,45.6 -0.7,21.6 		"/>
		<rect x="17.2" y="21.6" class="st3" width="5.5" height="27.1"/>
		<rect x="-7.1" y="32.5" class="st3" width="54.1" height="5.4"/>
		<polyline class="st3" points="-7.1,23.7 7,30.6 10.7,30.6 -7.1,21.6 -7.1,23.7 		"/>
		<polyline class="st3" points="29.1,39.7 47,48.7 46.9,46.5 33.1,39.7 29.1,39.7 		"/>
		<polyline class="st3" points="43,21.6 25.1,30.6 29.3,30.6 47,21.6 43,21.6 		"/>
		<polyline class="st3" points="10.7,39.7 -7.1,48.7 -2.9,48.7 14.8,39.7 10.7,39.7 		"/>
	</g>
</g>
</svg>
