<?xml version="1.0" encoding="utf-8"?>
<!-- Generator: Adobe Illustrator 19.2.1, SVG Export Plug-In . SVG Version: 6.00 Build 0)  -->
<svg version="1.1" id="Layer_1" xmlns="http://www.w3.org/2000/svg" xmlns:xlink="http://www.w3.org/1999/xlink" x="0px" y="0px"
	 viewBox="0 0 90 90" style="enable-background:new 0 0 90 90;" xml:space="preserve">
<style type="text/css">
	.st0{clip-path:url(#SVGID_2_);}
	.st1{fill:#EC1C2E;stroke:#000000;stroke-width:0.25;}
	.st2{fill:#00498F;stroke:#000000;stroke-width:0.25;}
	.st3{fill:#FFFFFF;stroke:#000000;stroke-width:0.25;}
	.st4{fill:#FFFFFF;stroke:#000000;stroke-width:0.125;}
	.st5{fill:#FFE26D;stroke:#000000;stroke-width:0.125;}
	.st6{stroke:#000000;stroke-width:0.125;}
	.st7{fill:none;stroke:#000000;stroke-width:0.125;}
	.st8{fill:#FFE26D;stroke:#000000;stroke-width:6.250000e-02;}
	.st9{fill:#6DBF69;stroke:#000000;stroke-width:5.000000e-02;}
	.st10{fill:none;stroke:#000000;stroke-width:5.000000e-02;}
	.st11{fill:#3CC1D1;}
	.st12{fill:#FFE26D;stroke:#FFE26D;stroke-width:0.125;}
	.st13{fill:#0092AF;}
	.st14{fill:#996B38;stroke:#000000;stroke-width:2.500000e-02;}
	.st15{fill:#FFFFFF;stroke:#000000;stroke-width:2.500000e-02;}
	.st16{fill:none;stroke:#000000;stroke-width:2.500000e-02;}
	.st17{fill:#F1E901;}
	.st18{fill:#996B38;}
	.st19{fill:#A9BC27;}
	.st20{fill:#FFFFFF;stroke:#000000;stroke-width:0.1;}
	.st21{fill:none;stroke:#000000;stroke-width:0.1;}
	.st22{fill:#FFFFFF;}
	.st23{fill:#003876;stroke:#000000;stroke-width:2.500000e-02;}
	.st24{fill:#EC1C2E;stroke:#000000;stroke-width:2.500000e-02;}
	.st25{fill:#FFE26D;}
</style>
<g>
	<defs>
		<circle id="SVGID_1_" cx="45" cy="45" r="45"/>
	</defs>
	<clipPath id="SVGID_2_">
		<use xlink:href="#SVGID_1_"  style="overflow:visible;"/>
	</clipPath>
	<g class="st0">
		<rect x="-16" y="28.7" class="st1" width="155.8" height="31.2"/>
		<g>
			<rect x="-16" y="-2.4" class="st2" width="155.8" height="15.6"/>
			<rect x="-16" y="75.5" class="st2" width="155.8" height="15.6"/>
		</g>
		<g>
			<rect x="-16" y="13.2" class="st3" width="155.8" height="15.6"/>
			<rect x="-16" y="59.9" class="st3" width="155.8" height="15.6"/>
		</g>
		<g>
			<ellipse class="st4" cx="38.8" cy="44.3" rx="8.1" ry="11.8"/>
			<path class="st4" d="M38.8,44.3"/>
		</g>
		<g>
			<path class="st5" d="M38.8,37.4c0.4,0.5,1.2,1.6,2.4,1.3c0.4,0.1,0.7,0.2,1,0.4c0.2,0,0.4,0.1,0.5,0.2c0.1,0.2-0.1,0.3-0.3,0.3
				c0.2,0.4,1.5,0.2,2.1,1c-0.2-0.1-0.3-0.1-0.5-0.1l0.1,0.3c0.3,0.1,0.5,0.1,0.6,0.4c0.1,0.3,0.3,0.7,0.4,1
				c0.1,0.1,0.1,0.2,0.1,0.3c0,0.1-0.1,0.3-0.3,0.3c-0.2,0-0.3-0.1-0.3-0.3l-0.1-0.2c-0.2,0-0.4,0.1-0.5,0.2c-0.3,0.2-0.4,0.7-0.2,1
				c0.2,0.4,0.6,0.6,1.3,0.3c0.5-0.2,1.1,0.1,1.2,0.5c0.8,2.2-0.6,3.9-2.2,5c-1.7,1.1-2,1.4-2.4,1.9c-0.4,0.5-0.9,1.1-1.5,1.1
				c-0.1,0-0.2,0-0.3-0.1c-0.4,0-0.4,0.2-1,0.2c-0.6,0-0.6-0.2-1-0.2c-0.1,0-0.2,0.1-0.3,0.1c-0.7,0-1.1-0.6-1.5-1.1
				c-0.4-0.5-0.7-0.8-2.4-1.9c-1.6-1-3-2.8-2.2-5c0.2-0.5,0.7-0.8,1.2-0.5c0.7,0.3,1.1,0.1,1.3-0.3c0.2-0.4,0.1-0.8-0.2-1
				c-0.2-0.1-0.4-0.2-0.5-0.2L33,42.5c0,0.1-0.1,0.3-0.3,0.3c-0.2,0-0.3-0.2-0.3-0.3c0-0.1,0-0.2,0.1-0.3c0.1-0.2,0.3-0.7,0.4-1
				c0.1-0.3,0.3-0.3,0.6-0.4l0.1-0.3c-0.2,0-0.3,0.1-0.5,0.1c0.5-0.8,1.9-0.6,2.1-1c-0.2,0-0.3-0.1-0.3-0.3c0.1-0.2,0.3-0.3,0.5-0.2
				c0.3-0.2,0.6-0.3,1-0.4C37.6,39,38.4,37.9,38.8,37.4z"/>
			<g>
				<path class="st6" d="M38.5,50.9c-0.4-0.6-1.4-0.3-3-1.3c-1.7-1-2.3-3.3-1.5-4.8c0.5-1.1,0.8-1.7,0.2-3.4
					c-0.1-0.2-0.7-0.3-0.3,0.3c0.6,0.8,0.8,2.1-0.1,2.7c-0.3,0.2-0.7,0.3-1.1,0.3c-0.4,0-0.7,0.1-0.8,0.6c-0.3,2.3,1.6,4.4,3.4,4.8
					c0.6,0.1,2.2,0.5,2.6,1C38.1,51,38.3,50.9,38.5,50.9z"/>
				<path class="st6" d="M39.1,50.9c0.4-0.6,1.4-0.3,3-1.3c1.7-1,2.3-3.3,1.5-4.8c-0.5-1.1-0.8-1.7-0.2-3.4c0.1-0.2,0.7-0.3,0.3,0.3
					c-0.6,0.8-0.8,2.1,0.1,2.7c0.3,0.2,0.7,0.3,1.1,0.3c0.4,0,0.7,0.1,0.8,0.6c0.3,2.3-1.6,4.4-3.4,4.8c-0.6,0.1-2.2,0.5-2.6,1
					C39.5,51,39.2,50.9,39.1,50.9z"/>
			</g>
			<g>
				<path class="st7" d="M35.3,39.1c0.2,0,0.4,0.3,0.2,0.6c-0.3,0.6-1.5,0.2-2,0.5"/>
				<path class="st7" d="M35.1,39.6c0.1,0,0.3-0.3,0.1-0.4"/>
				<path class="st7" d="M35.1,49.9c1.1,0.8,1.3,1.9,2.5,1.9"/>
				<path class="st7" d="M37.6,52c-0.7,0.2-1.2-0.2-1.7-1.1c-0.3-0.4-1-1-2.3-1.8c-2-1.2-2.6-3.4-1.9-4.6c0.2-0.3,0.6-0.4,0.8-0.3
					c0.6,0.2,1.6,0,1.6-1c0-0.6-0.5-1.2-1-1.2c-0.4,0-0.5,0.1-0.6,0.2"/>
				<path class="st7" d="M32.7,42.4c0.1-0.1,0.3,0,0.3,0.2"/>
				<path class="st7" d="M32.9,42.3c0.1,0,0.2,0,0.3,0"/>
				<path class="st7" d="M37.5,51.6c0-0.1,0-0.1,0.1-0.1c0.1,0,0.1,0.1,0.1,0.1c0,0.2-0.1,0.3-0.3,0.2c-0.2,0-0.2-0.2-0.2-0.4
					c0.1-0.2,0.3-0.3,0.5-0.2c0.2,0.1,0.2,0.5,0.1,0.7c-0.1,0.1-0.2,0.2-0.3,0.3"/>
				<path class="st7" d="M42.2,39.1c-0.2,0-0.4,0.3-0.2,0.6c0.3,0.6,1.5,0.2,2,0.5"/>
				<path class="st7" d="M42.4,39.6c-0.1,0-0.3-0.3-0.1-0.4"/>
				<path class="st7" d="M42.4,49.9c-1.1,0.8-1.3,1.9-2.5,1.9"/>
				<path class="st7" d="M39.9,52c0.7,0.2,1.2-0.2,1.7-1.1c0.3-0.4,1-1,2.3-1.8c2-1.2,2.6-3.4,1.9-4.6c-0.2-0.3-0.6-0.4-0.8-0.3
					c-0.6,0.2-1.6,0-1.6-1c0-0.6,0.5-1.2,1-1.2c0.4,0,0.5,0.1,0.6,0.2"/>
				<path class="st7" d="M44.9,42.4c-0.1-0.1-0.3,0-0.3,0.2"/>
				<path class="st7" d="M40.2,51.6c0-0.5-0.8-0.7-1.5-0.7c-0.6,0-1.5,0.2-1.5,0.7"/>
				<path class="st7" d="M44.7,42.3c-0.1,0-0.2,0-0.3,0"/>
				<path class="st7" d="M40,51.6c0-0.1,0-0.1-0.1-0.1s-0.1,0.1-0.1,0.1c0,0.2,0.1,0.3,0.3,0.2c0.2,0,0.2-0.2,0.2-0.4
					c-0.1-0.2-0.3-0.3-0.5-0.2c-0.2,0.1-0.2,0.5-0.1,0.7c0.1,0.1,0.2,0.2,0.3,0.3"/>
				<path class="st7" d="M39.6,52.1c-0.3,0-0.3,0.4-0.8,0.4c-0.5,0-0.5-0.4-0.8-0.4"/>
			</g>
			<g>
				<path class="st8" d="M38.8,51.5c-0.2,0-0.2,0.4,0,0.4C39,51.9,39,51.5,38.8,51.5z"/>
				<path class="st8" d="M39.2,51.6c-0.1,0-0.1,0.2,0,0.2C39.4,51.8,39.4,51.6,39.2,51.6z"/>
				<path class="st8" d="M38.9,52.1c0-0.1-0.2-0.1-0.2,0C38.7,52.3,38.9,52.3,38.9,52.1z"/>
				<path class="st8" d="M38.3,51.8c0.1,0,0.1-0.2,0-0.2C38.2,51.6,38.2,51.8,38.3,51.8z"/>
				<path class="st8" d="M38.7,51.3c0,0.1,0.2,0.1,0.2,0C38.9,51.1,38.7,51.1,38.7,51.3z"/>
			</g>
			<path d="M38.8,44.3"/>
			<g>
				<g>
					<path class="st9" d="M38.2,39.7c0.3-0.2,0.7-0.5,0.8-0.7c0.2-0.3,0.2-0.2,0.4-0.2c-0.3,0.4-0.8,0.8-1.1,1L38.2,39.7z"/>
					<path class="st9" d="M35.7,40.4c-0.8-0.4-1,0-1.2,0C34.7,40.5,34.9,40.8,35.7,40.4z"/>
					<path class="st9" d="M36.1,40.1c-0.7-0.5-1-0.1-1.2-0.1C35,40.2,35.2,40.5,36.1,40.1z"/>
					<path class="st9" d="M36.6,39.9c-0.7-0.5-1-0.1-1.2-0.1C35.6,39.8,35.7,40.2,36.6,39.9z"/>
					<path class="st9" d="M37,39.6c-0.7-0.6-1-0.2-1.2-0.2C36,39.5,36.1,39.8,37,39.6z"/>
					<path class="st9" d="M37.5,39.4c-0.6-0.6-1-0.2-1.2-0.3C36.5,39.2,36.6,39.6,37.5,39.4z"/>
					<path class="st9" d="M38.1,39.3c-0.5-0.7-1-0.4-1.1-0.5C37.1,39,37.2,39.4,38.1,39.3z"/>
					<path class="st9" d="M38.2,39.4c0-0.2-0.3-0.4-0.3-0.4c0.1,0,0.1-0.1,0.1-0.1c0,0-0.1,0-0.1,0c0,0-0.1,0.1,0,0.2
						C37.9,39.1,38.1,39.3,38.2,39.4"/>
					<path class="st9" d="M39.3,39.7c-0.3-0.2-0.7-0.5-0.8-0.7c-0.2-0.3-0.2-0.2-0.4-0.2c0.3,0.4,0.8,0.8,1.1,1L39.3,39.7z"/>
					<path class="st9" d="M41.8,40.4c0.8-0.4,1,0,1.2,0C42.8,40.5,42.7,40.8,41.8,40.4z"/>
					<path class="st9" d="M41.5,40.1c0.7-0.5,1-0.1,1.2-0.1C42.5,40.2,42.4,40.5,41.5,40.1z"/>
					<path class="st9" d="M41,39.9c0.7-0.5,1-0.1,1.2-0.1C42,39.8,41.9,40.2,41,39.9z"/>
					<path class="st9" d="M40.6,39.6c0.7-0.6,1-0.2,1.2-0.2C41.6,39.5,41.5,39.8,40.6,39.6z"/>
					<path class="st9" d="M40,39.4c0.6-0.6,1-0.2,1.2-0.3C41,39.2,40.9,39.6,40,39.4z"/>
					<path class="st9" d="M39.4,39.3c0.5-0.7,1-0.4,1.1-0.5C40.4,39,40.4,39.4,39.4,39.3z"/>
					<path class="st9" d="M39.4,39.4c0-0.2,0.3-0.4,0.3-0.4c-0.1,0-0.1-0.1-0.1-0.1c0,0,0.1,0,0.1,0c0,0,0.1,0.1,0,0.2
						C39.6,39.1,39.5,39.3,39.4,39.4"/>
				</g>
				<g>
					<path class="st10" d="M35,40.4c0.2-0.1,0.5,0,0.6-0.1"/>
					<path class="st10" d="M35.4,40.1c0.2,0,0.5,0,0.6,0"/>
					<path class="st10" d="M35.9,39.8c0.2,0,0.5,0,0.6,0"/>
					<path class="st10" d="M36.3,39.5c0.2,0,0.5,0.1,0.6,0.1"/>
					<path class="st10" d="M36.9,39.3c0.2,0,0.5,0.1,0.6,0.1"/>
					<path class="st10" d="M37.5,39.1c0.2,0,0.4,0.2,0.6,0.2"/>
					<path class="st10" d="M42.5,40.4c-0.2-0.1-0.5,0-0.6-0.1"/>
					<path class="st10" d="M42.2,40.1c-0.2,0-0.5,0-0.6,0"/>
					<path class="st10" d="M41.7,39.8c-0.2,0-0.5,0-0.6,0"/>
					<path class="st10" d="M41.2,39.5c-0.2,0-0.5,0.1-0.6,0.1"/>
					<path class="st10" d="M40.7,39.3c-0.2,0-0.5,0.1-0.6,0.1"/>
					<path class="st10" d="M40.1,39.1c-0.2,0-0.4,0.2-0.6,0.2"/>
				</g>
			</g>
			<path class="st11" d="M34.4,44.2c0.2-0.7,0.3-1.6,0-2.8c1.3-0.8,2.2-1.6,4.3-1.6c2.1,0,3.1,0.6,4.3,1.6c-0.3,1.2-0.2,2.1,0,2.8
				H34.4z"/>
			<g>
				<g>
					<path class="st12" d="M34.7,44.2c0.2-0.8,1.3-0.8,1.5,0H34.7z"/>
					<g>
						<line class="st12" x1="35.4" y1="43.5" x2="35.4" y2="42.2"/>
						<line class="st12" x1="35.6" y1="43.5" x2="36" y2="42.1"/>
						<line class="st12" x1="35.8" y1="43.6" x2="36.6" y2="42.3"/>
						<line class="st12" x1="36" y1="43.7" x2="36.8" y2="42.9"/>
						<line class="st12" x1="36.1" y1="43.9" x2="36.6" y2="43.7"/>
						<line class="st12" x1="35.2" y1="43.5" x2="34.8" y2="42.1"/>
						<line class="st12" x1="35" y1="43.6" x2="34.6" y2="43"/>
						<line class="st12" x1="34.8" y1="43.7" x2="34.6" y2="43.5"/>
						<line class="st12" x1="34.6" y1="43.9" x2="34.5" y2="43.8"/>
					</g>
				</g>
			</g>
			<path class="st13" d="M34.4,44.2c-0.1,0.4-0.3,0.7-0.4,1c-0.3,0.7-0.4,2.5,0.8,3.7c1.8,1.8,3.2,1.1,3.9,2.1c0,0,0.1,0,0.1,0
				c0.7-1,2.1-0.3,3.9-2.1c1.2-1.2,1.1-2.9,0.8-3.7c-0.1-0.3-0.3-0.6-0.4-1C41.8,44.2,35.7,44.2,34.4,44.2z"/>
			<g>
				<path class="st14" d="M38.4,44.3l0-1.1c0-0.1,0-0.1,0,0L38.4,44.3"/>
				<path class="st15" d="M38.4,43.2c0,0,0.1,0,0.2,0C38.5,43.3,38.4,43.2,38.4,43.2L38.4,43.2z"/>
				<path class="st14" d="M38.7,44.3l0-1.1c0-0.1,0-0.1,0,0L38.7,44.3"/>
				<path class="st15" d="M38.8,43.2c0,0,0.1,0,0.2,0C38.9,43.3,38.8,43.2,38.8,43.2L38.8,43.2z"/>
				<path class="st14" d="M39.1,44.3l0-1.1c0-0.1,0-0.1,0,0L39.1,44.3"/>
				<path class="st15" d="M39.1,43.2c0,0,0.1,0,0.2,0C39.2,43.3,39.1,43.3,39.1,43.2L39.1,43.2z"/>
				<path class="st14" d="M39.2,44.5C39.1,44.5,39.1,44.4,39.2,44.5c-0.1,0-0.2,0-0.3,0c0,0-0.1,0-0.2,0c0,0-0.2,0-0.2,0
					c0,0-0.1,0-0.1,0c-0.1-0.1-0.2-0.2-0.3-0.2c-0.1-0.1-0.3-0.2-0.4-0.2c-0.1,0-0.1-0.1,0,0c0.1,0.1,0.3,0.1,0.5,0.2
					c0.2,0.1,1,0.1,1.1,0.1c0.1,0,0.2-0.1,0.2-0.1c0,0,0.1,0,0,0c-0.1,0-0.1,0.1-0.1,0.1C39.3,44.4,39.2,44.4,39.2,44.5z"/>
				<path class="st15" d="M39.3,43.4l-0.3,0c0,0.1-0.1,0.2,0,0.2c0.1-0.1,0.2,0,0.3,0C39.3,43.6,39.2,43.5,39.3,43.4z"/>
				<path class="st15" d="M39.3,43.6c-0.1,0-0.3,0-0.3,0c-0.1,0.1,0,0.2,0,0.3c0.1-0.1,0.3-0.1,0.4,0C39.3,43.8,39.2,43.8,39.3,43.6
					z"/>
				<path class="st15" d="M39.3,43.9c-0.1,0-0.3,0-0.4,0c0,0.1-0.1,0.2-0.1,0.3c0.1-0.1,0.4,0,0.4,0.1C39.2,44.1,39.2,44,39.3,43.9z
					"/>
				<path class="st15" d="M39,43.3l-0.3,0c0,0.1-0.1,0.2-0.1,0.3c0.1-0.1,0.3,0,0.4,0.1C39,43.5,38.9,43.4,39,43.3z"/>
				<path class="st15" d="M39,43.6l-0.4-0.1c-0.1,0.1-0.1,0.2,0,0.3c0.1-0.1,0.4,0,0.4,0.1C38.9,43.8,38.9,43.7,39,43.6z"/>
				<path class="st15" d="M39,44l-0.4,0c-0.1,0.1-0.1,0.2-0.1,0.3c0.1-0.1,0.3,0,0.4,0.1C38.9,44.2,38.9,44.1,39,44z"/>
				<path class="st15" d="M38.4,43.3c0,0-0.1,0.1-0.1,0.2c0.1,0,0.2,0,0.3,0c0-0.1,0-0.2,0-0.2C38.5,43.3,38.4,43.3,38.4,43.3z"/>
				<path class="st15" d="M38.2,43.6c0.1,0,0.3,0,0.4,0.1c-0.1,0.1,0,0.2,0,0.3c-0.1-0.1-0.4-0.1-0.5-0.1
					C38.1,43.8,38.2,43.6,38.2,43.6z"/>
				<path class="st15" d="M38.6,43.9c-0.1,0-0.3,0-0.4-0.1c0,0.1-0.1,0.3-0.1,0.4c0.1-0.1,0.4-0.1,0.5,0.1
					C38.5,44.2,38.5,44,38.6,43.9z"/>
				<path class="st15" d="M38.4,43.3c-0.3,0.2-0.5,0.5-0.5,0.7c0.1,0,0.2,0,0.2,0.1C38.1,43.8,38.2,43.5,38.4,43.3z"/>
				<path class="st16" d="M38.4,43.2c-0.2,0.2-0.5,0.6-0.6,0.9"/>
				<path class="st16" d="M39.3,43.4c0.1,0.3,0.1,0.7,0.1,0.9"/>
			</g>
			<g>
				<path class="st17" d="M41.4,44.9c0.1-0.3,0.3-0.5,0.3-0.8c0-0.2,0.1-0.3,0.2-0.5c0.1-0.2,0.2-0.3,0.2-0.5c0-0.2,0.2-0.2,0.2,0
					c0.1,0.2,0.2,0.7,0.2,0.8c0.1,0.1,0.1,0.3,0.1,0.3c0,0.1,0.1,0.1,0.1,0.2c0.1,0.1,0.1,0.2,0.2,0.4c0.2,0.2,0.3,0.3,0.5,0.3
					c0.1,0.3,0.2,0.8,0.2,1.3l-9.9,0c0-0.1,0-0.3,0-0.4c0.9-0.2,1.2-0.8,1.6-0.8c0.2-0.3,0.4-0.6,0.6-0.7c0.2-0.2,0.6-0.9,0.7-1.4
					c0.1-0.4,0.2-0.7,0.4-0.7c0.1,0,0.2,0,0.3,0.4c0.2,0.6,0.3,0.6,0.5,1c0.1,0.3,0.4,1,0.8,1.3c0.2-0.2,0.5-0.4,0.6-0.5
					c0.1-0.1,0.2-0.3,0.3-0.4c0.1-0.2,0.1-0.5,0.2-0.6c0.1-0.1,0.1-0.1,0.1-0.3c0-0.1,0.1-0.4,0.2-0.6c0.1-0.2,0.3-0.3,0.4,0
					c0.1,0.3,0.3,0.9,0.4,1.3C41,44.3,41.1,44.6,41.4,44.9z"/>
				<g>
					<path class="st18" d="M40.3,46c-0.2-0.2-0.5-0.1-0.6-0.3c-0.1-0.1-0.4,0-0.9-0.3c-0.1,0-0.1-0.1-0.2-0.1
						c-0.4-0.3-0.6-0.9-0.8-1.3c-0.1-0.4-0.3-0.5-0.5-1c-0.1-0.3-0.2-0.4-0.2-0.4c0.2,0.2,0.1,0.5,0.2,0.8c0.1,0.1,0,0.1-0.1,0.1
						c0,0-0.1-0.1-0.1-0.1c0.1,0.1,0.1,0.2,0.2,0.4c0.1,0.2-0.1,0.1,0.1,0.4c0,0.1,0.1,0.2,0,0.2c-0.1,0-0.1-0.1-0.2-0.1
						c0,0.1,0.1,0.2,0.2,0.2c0.1,0.1,0,0.1-0.1,0.1c-0.1,0-0.1-0.1-0.2-0.1c0,0,0.1,0.1,0.1,0.2c0.1,0.1,0,0.1-0.2,0.1
						c0,0,0,0.2-0.1,0.2c0.1,0,0.2,0.2,0.4,0.2c0.1,0,0.2,0.1,0,0.1c-0.1,0-0.4-0.2-0.6-0.4c0,0.1-0.1,0.1-0.2,0
						c0,0.1,0,0.2,0.1,0.3c-0.1,0-0.2-0.1-0.2-0.2c-0.1-0.1-0.1,0.1-0.1,0.1c0.1,0.1,0.1,0.2,0,0.2c-0.1,0.1-0.2,0-0.3-0.1
						c-0.1,0.1-0.2,0.1-0.3,0.1c0,0.1-0.1,0.2-0.2,0.3C35.7,46,40.4,46.5,40.3,46z"/>
					<path class="st18" d="M43.7,46c-1.2-0.1-1.9-0.6-2.3-1.1c-0.3-0.3-0.4-0.6-0.5-0.8c-0.2-0.4-0.3-1-0.4-1.3
						c0-0.1-0.1-0.2-0.1-0.2c-0.1,0,0,0.1,0,0.1c0.1,0.1,0,0.1,0,0.1c-0.1,0-0.1,0,0,0.1c0.1,0.1,0.1,0.2,0.2,0.3
						c0,0.1,0,0.2,0.1,0.2c0,0-0.1,0.1-0.2-0.1c0,0.1,0,0.2,0.1,0.2c0,0,0.1,0,0,0.1c-0.1,0.1-0.1,0.1,0,0.2c0,0.1,0.1-0.2,0.2-0.1
						c0,0.1,0.1,0.2,0.1,0.2c0,0.1,0,0.1,0,0.1c-0.1,0-0.1-0.1-0.1,0c0,0.1,0.1,0.2,0.2,0.2c0.1,0,0.1,0,0.1,0.1
						c0,0.1,0,0.1,0.1,0.1c0.1,0,0.1,0,0.2,0.2c0,0.1,0,0.2-0.1,0.1c-0.1-0.1-0.3-0.2-0.3-0.2c0-0.1-0.1,0,0,0.1
						c0,0.1,0.1,0.1,0.1,0.1c0.1,0,0,0.1-0.1,0.1c-0.1-0.1-0.1-0.1-0.2,0c0,0.1-0.2,0.1-0.1,0.2c0,0.1,0,0.2,0,0.2
						c-0.1,0-0.1,0-0.1-0.1c0,0-0.1,0-0.1,0c0,0.2-0.1,0.2-0.2,0.2c0,0,0,0.1-0.1,0.2c0.1,0,0.1,0.1,0.2,0.1c0,0.1,0,0,0.1,0.1
						c0.1,0,0.1,0.1,0,0.1c-0.1,0-0.3,0-0.4-0.1c0.1,0.1,0.4,0.1,0.6,0.2c1,0.4,2.8,0.6,3.5,0.4C43.7,46.2,43.7,46,43.7,46z"/>
					<path class="st18" d="M42.2,43.1c0,0,0.1,0.1,0.1,0.1c0.1,0.2,0.2,0.7,0.2,0.8c0.1,0.1,0.1,0.3,0.1,0.3c0,0.1,0.1,0.1,0.1,0.2
						c0.1,0.1,0.1,0.2,0.2,0.4c0.2,0.2,0.3,0.3,0.5,0.3c0.1,0.2,0.2,0.5,0.2,0.8c-0.4,0-1-0.2-1.2-0.3c0,0,0-0.1,0-0.2
						c0-0.1,0-0.1,0.1-0.2c0.1-0.1,0.1-0.2,0-0.3c0-0.1,0-0.1,0-0.1c0,0,0-0.1,0-0.2c-0.1-0.1,0-0.1,0-0.2c0-0.1,0.1-0.2,0.1-0.3
						c0-0.1-0.1,0-0.2,0c0,0-0.1-0.1,0-0.2c0-0.1,0-0.2,0-0.2c0.1,0-0.1-0.3-0.1-0.5C42.2,43.2,42.3,43.1,42.2,43.1z"/>
				</g>
				<g>
					<path class="st17" d="M37.7,44.2c0,0.1,0,0.2,0,0.2c0,0.1,0.1,0.2,0.1,0.3c0.1-0.1,0.2,0,0.2,0.1c0,0.2,0.1,0.3,0,0.4
						c0.1,0,0.2,0.1,0.2,0.2c0,0.1,0.1,0.1,0.1,0.1c0.2,0,0.2,0.2,0.3,0.2c0.2,0,0.1,0.2,0.3,0.2c0.1,0,0.3,0,0.4,0.2
						c0.1-0.2,0.2-0.1,0.3-0.1c0.1,0,0.2,0,0.1-0.1c-0.1-0.1-0.3-0.1-0.4-0.1c-0.1,0-0.3,0-0.4-0.1c-0.1-0.1-0.3-0.2-0.4-0.2
						c-0.1,0-0.1,0-0.2-0.1c-0.1-0.1-0.2-0.1-0.3-0.1c-0.1,0-0.1-0.1,0-0.2c0.1-0.1,0-0.1,0-0.2c0.1-0.1,0-0.2-0.1-0.2
						c-0.1,0-0.1-0.1-0.1-0.2C38,44.3,37.7,44.4,37.7,44.2z"/>
					<path class="st17" d="M43.3,45.5c0-0.1-0.1-0.2-0.1-0.3c0-0.1-0.2-0.1-0.2-0.1c0,0,0,0.1,0,0.1c0,0,0,0.1,0,0.1
						c0,0,0.1,0,0.1,0.1c0,0,0,0,0,0C43.1,45.3,43.2,45.4,43.3,45.5C43.3,45.6,43.3,45.6,43.3,45.5z"/>
					<path class="st17" d="M42.7,45.4c0,0.1,0.1,0.1,0.1,0.1c0,0,0.1,0,0.1,0.1c0,0,0,0.1,0.1,0.1c0,0,0,0,0,0c-0.1,0-0.2,0-0.2-0.1
						c0,0.1,0,0.1-0.1,0.1c-0.1-0.1-0.1-0.1-0.2-0.2c0.1,0,0.1,0,0-0.1C42.7,45.4,42.7,45.3,42.7,45.4z"/>
				</g>
			</g>
			<g>
				<path class="st19" d="M33.8,46.3c0.1-0.1,0.3,0,0.3,0c0-0.1,0.1-0.1,0.2-0.1c0.1-0.1,0.2-0.1,0.2-0.1c0.1-0.1,0.2-0.1,0.3-0.1
					c0.1-0.1,0.2-0.1,0.3-0.1c0.1-0.1,0.3-0.2,0.4-0.1c0.1-0.1,0.2-0.1,0.3,0c0.1,0.1,0.2-0.1,0.2,0c0.1,0,0.2,0,0.2,0.1
					c0,0,0.1-0.1,0.1,0c0-0.2,0.1-0.3,0.3-0.3c0.1-0.1,0.2-0.2,0.3-0.1c0.1-0.1,0.2,0,0.3,0.1c0.1,0,0.2,0.1,0.3,0.2
					c0.1,0.1,0.3,0.2,0.4,0.1c0.1-0.1,0.2-0.1,0.3,0c0.1-0.1,0.2,0,0.2,0c0.1,0.1,0.2-0.1,0.2,0c0.1,0.1,0.2-0.1,0.3,0
					c0.1,0.1,0.4,0.2,0.6,0.2c0.2,0,0.4-0.3,0.5-0.1c0.1-0.1,0.3-0.1,0.5-0.1c0.1-0.1,0.3-0.1,0.4,0c0.1-0.1,0.2-0.2,0.3-0.1
					c0.1-0.1,0.3-0.1,0.4,0c0.1,0,0.2,0.1,0.2,0.1c0.1,0,0.2,0,0.2,0.1c0.1,0,0.2,0,0.2,0.1c0.2,0,0.3,0.1,0.3,0.2
					c0.1,0,0-0.2,0.1-0.2c0.1,0,0.2,0,0.2,0.1c0.1-0.1,0.3-0.1,0.5,0.1c0.1,0,0.2,0,0.2,0c0.1,0,0.1-0.1,0.2-0.1
					c0,0.2,0,0.5-0.1,0.8h-9.8C33.8,46.8,33.8,46.5,33.8,46.3z"/>
			</g>
			<g>
				<path class="st20" d="M39,37.4c0,0.1,0.1,0.5-0.1,0.5c0.3,0.4,0.8,0.5,1.6,0.5c0.5,0,0.9,0,1.2,0c0,0.1,0,0.2,0,0.3
					c0,0.1,0.1,0.2,0.3,0.1c0.2,0,0.6-0.2,0.8,0c0.4,0.3,1,0.4,1.2,0.6c-0.1-0.3-0.3-0.5-0.5-0.7c0.2,0,0.6,0,0.7,0.1
					c-0.3-0.3-0.8-0.3-1-0.5c-0.3-0.2-0.5-0.3-0.7-0.3c0-0.1,0-0.2-0.1-0.2c-0.2-0.1-0.5-0.2-0.7-0.2c0,0,0-0.1,0-0.2
					c0-0.1,0-0.3,0-0.4c0-0.1,0-0.2-0.1-0.3c-0.6-0.4-1.3-0.7-2.7-0.7c-1.3,0-2.1,0.3-2.7,0.7C36,37,36,37,36,37.1
					c0,0.1,0,0.3,0,0.4c0,0.1,0,0.1,0,0.2c-0.3,0-0.6,0.1-0.7,0.2c-0.1,0.1-0.1,0.1-0.1,0.2c-0.2,0-0.4,0.2-0.7,0.3
					c-0.3,0.2-0.8,0.2-1,0.5c0.1-0.1,0.4-0.1,0.7-0.1c-0.3,0.2-0.5,0.5-0.5,0.7c0.2-0.2,0.8-0.3,1.2-0.6c0.2-0.2,0.6-0.1,0.8,0
					c0.2,0,0.3,0,0.3-0.1c0-0.1,0-0.2,0-0.3c0.3,0,0.7,0,1.2,0c0.8,0,1.3-0.1,1.6-0.5c-0.2,0-0.1-0.4-0.1-0.5
					c-0.4-0.1-0.6-0.2-0.9-0.2s-0.4,0.2-0.4,0.2c0,0,0,0,0,0.1c-0.2,0-0.6-0.1-0.7-0.2c0.5-0.2,1.1-0.4,2.1-0.4
					c0.9,0,1.6,0.2,2.1,0.4c-0.1,0.2-0.4,0.2-0.7,0.2c0,0,0,0,0-0.1c0-0.1-0.1-0.2-0.4-0.2C39.5,37.2,39.4,37.4,39,37.4z"/>
				<path class="st20" d="M38.8,38c0.2,0,0.2-0.2,0.2-0.3c0-0.2,0-0.3-0.2-0.3c-0.2,0-0.2,0.2-0.2,0.3C38.5,37.8,38.6,38,38.8,38z"
					/>
				<g>
					<path class="st21" d="M36.7,37.3c-0.1,0-0.2,0.1-0.3,0.1c-0.5,0.2-0.5,0.3-0.3,0.4"/>
					<path class="st21" d="M35.9,38.4c-0.2,0-0.4,0-0.5,0c-0.1,0-0.2,0.1-0.1,0.2"/>
					<path class="st21" d="M37.3,37.5c0,0.1,0,0.1,0,0.2c0,0.1,0.1,0.3,0.3,0.3c0.5,0,0.6-0.1,0.9-0.1"/>
					<path class="st21" d="M38.6,37.9c-0.3-0.1-0.6-0.2-0.9-0.2c-0.3,0-0.4,0.1-0.3,0.2"/>
					<path class="st21" d="M35.2,38.1c0,0.1,0,0.2,0,0.4c0,0.1,0.1,0.2,0.3,0.2c0.2,0,0.4,0,0.4,0.1"/>
					<path class="st21" d="M36,37.7c0.1,0.1,0.2,0.1,0.4,0.2c0.5,0.2,1.6,0.3,2.3,0"/>
					<path class="st21" d="M40.9,37.3c0.1,0,0.2,0.1,0.3,0.1c0.5,0.2,0.5,0.3,0.3,0.4"/>
					<path class="st21" d="M41.7,38.4c0.2,0,0.4,0,0.5,0c0.1,0,0.2,0.1,0.1,0.2"/>
					<path class="st21" d="M40.2,37.5c0,0.1,0,0.1,0,0.2c0,0.1-0.1,0.3-0.3,0.3c-0.5,0-0.6-0.1-0.9-0.1"/>
					<path class="st21" d="M39,37.9c0.3-0.1,0.6-0.2,0.9-0.2c0.3,0,0.4,0.1,0.3,0.2"/>
					<path class="st21" d="M42.3,38.1c0,0.1,0,0.2,0,0.4c0,0.1-0.1,0.2-0.3,0.2c-0.2,0-0.4,0-0.4,0.1"/>
					<path class="st21" d="M41.5,37.7c-0.1,0.1-0.2,0.1-0.4,0.2c-0.5,0.2-1.6,0.3-2.3,0"/>
				</g>
			</g>
			<g>
				<polygon class="st22" points="38.8,40.8 38.7,41.1 38.3,41.1 38.6,41.3 38.5,41.6 38.8,41.4 39,41.6 38.9,41.3 39.2,41.1 
					38.9,41.1 				"/>
				<polygon class="st22" points="37.5,40.9 37.5,41.2 37.1,41.3 37.4,41.4 37.4,41.7 37.6,41.5 37.9,41.6 37.8,41.4 38,41.1 
					37.7,41.2 				"/>
				<polygon class="st22" points="36.3,41.2 36.3,41.5 36,41.6 36.3,41.7 36.3,42.1 36.5,41.8 36.8,41.9 36.6,41.6 36.8,41.3 
					36.5,41.5 				"/>
				<polygon class="st22" points="35.1,41.7 35.2,42 34.9,42.2 35.2,42.2 35.3,42.5 35.4,42.2 35.8,42.3 35.5,42.1 35.7,41.8 
					35.4,41.9 				"/>
				<polygon class="st22" points="40,40.9 40.1,41.2 40.4,41.3 40.1,41.4 40.2,41.7 39.9,41.5 39.6,41.6 39.8,41.4 39.6,41.1 
					39.9,41.2 				"/>
				<polygon class="st22" points="41.3,41.2 41.2,41.5 41.6,41.6 41.2,41.7 41.2,42.1 41.1,41.8 40.7,41.9 40.9,41.6 40.7,41.3 
					41.1,41.5 				"/>
				<polygon class="st22" points="42.4,41.7 42.4,42 42.6,42.2 42.3,42.2 42.3,42.5 42.1,42.2 41.8,42.3 42,42.1 41.9,41.8 
					42.2,41.9 				"/>
			</g>
			<path class="st7" d="M43.1,41.4c-0.5,1.8,0.1,3,0.4,3.7c0.3,0.7,0.4,2.5-0.8,3.7c-1.8,1.8-3.2,1.1-3.9,2.1"/>
			<path class="st7" d="M38.7,50.9c-0.7-1-2.1-0.3-3.9-2.1c-1.2-1.2-1.1-2.9-0.8-3.7c0.4-0.8,0.9-1.9,0.4-3.7"/>
			<g>
				<path class="st14" d="M38.2,48.6l0-2.4c0-0.1,0-0.1,0,0L38.2,48.6"/>
				<path class="st15" d="M38.2,46.2c0.1-0.1,0.3,0.1,0.4,0c-0.1,0.2-0.4,0.1-0.4,0.1V46.2z"/>
				<path class="st14" d="M39,48.6l0-2.4c0-0.1,0-0.1,0,0L39,48.6"/>
				<path class="st15" d="M39.1,46.2c0.1-0.1,0.3,0.1,0.4,0c-0.1,0.2-0.4,0.1-0.4,0.1V46.2z"/>
				<path class="st14" d="M39.8,48.8l0-2.4c0-0.1,0-0.1,0,0L39.8,48.8"/>
				<path class="st15" d="M39.8,46.4c0.1-0.1,0.3,0.1,0.4,0c-0.1,0.2-0.4,0.1-0.4,0.1V46.4z"/>
				<path class="st14" d="M40,49.1c-0.1,0-0.2,0-0.2-0.1c-0.1,0.1-0.3,0.1-0.4,0c-0.1,0.1-0.3,0.1-0.4,0c-0.1,0.1-0.3,0.1-0.5,0
					c-0.1,0.1-0.2,0.1-0.3,0.1c-0.1-0.2-0.4-0.4-0.6-0.5c-0.2-0.1-0.7-0.3-0.9-0.4c-0.1-0.1-0.3-0.2,0-0.1c0.3,0.1,0.7,0.3,1.1,0.4
					c0.4,0.2,2.2,0.2,2.5,0.1c0.2,0,0.4-0.1,0.5-0.2c0.1-0.1,0.1,0,0,0c-0.1,0.1-0.2,0.1-0.3,0.2C40.3,48.9,40.1,48.9,40,49.1z"/>
				<path class="st15" d="M40.2,46.8l-0.6-0.1c-0.1,0.2-0.1,0.4-0.1,0.5c0.2-0.2,0.5-0.1,0.7,0C40.2,47.1,40.1,46.9,40.2,46.8z"/>
				<path class="st15" d="M40.2,47.2c-0.2,0-0.6,0-0.7,0c-0.1,0.2-0.1,0.4,0,0.5c0.2-0.2,0.6-0.1,0.8,0.1
					C40.2,47.7,40.2,47.5,40.2,47.2z"/>
				<path class="st15" d="M40.3,47.9c-0.2,0-0.7-0.1-0.8-0.1c-0.1,0.2-0.2,0.4-0.2,0.6c0.3-0.3,0.9-0.1,1,0.2
					C40.2,48.4,40.1,48,40.3,47.9z"/>
				<path class="st15" d="M39.6,46.6l-0.8-0.1c-0.1,0.1-0.2,0.4-0.2,0.6c0.2-0.2,0.7-0.1,0.9,0.1C39.5,47,39.5,46.7,39.6,46.6z"/>
				<path class="st15" d="M39.6,47.3l-0.8-0.1c-0.1,0.2-0.1,0.4-0.1,0.7c0.2-0.2,0.8-0.1,1,0.1C39.5,47.6,39.4,47.5,39.6,47.3z"/>
				<path class="st15" d="M39.6,48l-0.9-0.1c-0.1,0.2-0.2,0.3-0.2,0.6c0.1-0.2,0.7-0.1,0.9,0.2C39.3,48.4,39.3,48.2,39.6,48z"/>
				<path class="st15" d="M38.2,46.6c-0.1,0.1-0.2,0.3-0.3,0.4c0.2-0.1,0.5-0.1,0.7,0.1c-0.1-0.1-0.1-0.3,0-0.4
					C38.5,46.6,38.3,46.6,38.2,46.6z"/>
				<path class="st15" d="M37.8,47.1c0.2,0,0.7,0.1,0.9,0.1c-0.1,0.2-0.1,0.5-0.1,0.7c-0.3-0.3-0.8-0.3-1.1-0.2
					C37.6,47.5,37.8,47.3,37.8,47.1z"/>
				<path class="st15" d="M38.7,47.9c-0.2,0-0.8-0.1-1-0.2c-0.1,0.2-0.1,0.6-0.1,0.8c0.2-0.3,0.8-0.1,1,0.2
					C38.6,48.5,38.5,48.1,38.7,47.9z"/>
				<path class="st15" d="M38.2,46.6c-0.6,0.4-1.1,1.1-1.2,1.6c0.2,0,0.4,0.1,0.5,0.2C37.6,47.7,37.9,47,38.2,46.6z"/>
				<path class="st16" d="M38.2,46.3c-0.5,0.5-1.2,1.4-1.4,1.9"/>
				<path class="st16" d="M40.2,46.8c0.1,0.7,0.2,1.5,0.1,1.8"/>
				<path class="st23" d="M40.9,48.1c-0.1,0.1-0.4-0.1-0.5,0V48C40.5,47.9,40.7,48.1,40.9,48.1L40.9,48.1z"/>
				<path class="st15" d="M40.9,48.2c-0.1,0.1-0.4-0.1-0.5,0v-0.1C40.5,48,40.7,48.2,40.9,48.2L40.9,48.2z"/>
				<path class="st24" d="M40.9,48.3c-0.1,0.1-0.4-0.1-0.5,0v-0.1C40.5,48.1,40.7,48.3,40.9,48.3L40.9,48.3z"/>
				<path class="st15" d="M40.9,48.4c-0.1,0.1-0.4-0.1-0.5,0v-0.1C40.5,48.2,40.7,48.4,40.9,48.4L40.9,48.4z"/>
				<path class="st23" d="M40.9,48.5c-0.1,0.1-0.4-0.1-0.5,0v-0.1C40.5,48.3,40.7,48.5,40.9,48.5L40.9,48.5z"/>
			</g>
			<g>
				<g>
					<path class="st25" d="M32.4,44.7c-0.3,0-0.3,0.4,0,0.4C32.7,45.2,32.7,44.7,32.4,44.7z"/>
					<path class="st25" d="M33,44.7c-0.3,0-0.3,0.4,0,0.4C33.3,45.2,33.3,44.7,33,44.7z"/>
					<path class="st25" d="M33.5,44.7c-0.3,0-0.3,0.4,0,0.4C33.8,45.2,33.8,44.7,33.5,44.7z"/>
					<path class="st25" d="M32.2,45.2c-0.3,0-0.3,0.4,0,0.4C32.5,45.6,32.5,45.2,32.2,45.2z"/>
					<path class="st25" d="M32.8,45.2c-0.3,0-0.3,0.4,0,0.4C33.1,45.6,33.1,45.2,32.8,45.2z"/>
					<path class="st25" d="M33.3,45.2c-0.3,0-0.3,0.4,0,0.4C33.6,45.6,33.6,45.2,33.3,45.2z"/>
					<path class="st25" d="M32.2,45.7c-0.3,0-0.3,0.4,0,0.4S32.5,45.7,32.2,45.7z"/>
					<path class="st25" d="M32.7,45.7c-0.3,0-0.3,0.4,0,0.4C33,46.1,33,45.7,32.7,45.7z"/>
					<path class="st25" d="M33.2,45.7c-0.3,0-0.3,0.4,0,0.4C33.5,46.1,33.5,45.7,33.2,45.7z"/>
					<path class="st25" d="M32.3,46.2c-0.3,0-0.3,0.4,0,0.4C32.6,46.6,32.6,46.2,32.3,46.2z"/>
					<path class="st25" d="M32.8,46.2c-0.3,0-0.3,0.4,0,0.4C33.1,46.6,33.1,46.2,32.8,46.2z"/>
					<path class="st25" d="M33.3,46.2c-0.3,0-0.3,0.4,0,0.4C33.6,46.6,33.6,46.2,33.3,46.2z"/>
					<path class="st25" d="M32.4,46.7c-0.3,0-0.2,0.4,0,0.4C32.7,47.1,32.6,46.7,32.4,46.7z"/>
					<path class="st25" d="M32.9,46.7c-0.3,0-0.2,0.4,0,0.4C33.1,47,33.1,46.7,32.9,46.7z"/>
					<path class="st25" d="M33.3,46.7c-0.3,0-0.2,0.4,0,0.4C33.6,47,33.6,46.6,33.3,46.7z"/>
					<path class="st25" d="M32.6,47.2c-0.2,0-0.2,0.4,0,0.4C32.9,47.5,32.8,47.2,32.6,47.2z"/>
					<path class="st25" d="M33,47.1c-0.2,0-0.2,0.4,0,0.4C33.3,47.5,33.2,47.1,33,47.1z"/>
					<path class="st25" d="M33.4,47.1c-0.2,0-0.2,0.3,0,0.3C33.6,47.4,33.6,47.1,33.4,47.1z"/>
					<path class="st25" d="M32.8,47.6c-0.2,0-0.2,0.4,0,0.4C33,47.9,33,47.6,32.8,47.6z"/>
					<path class="st25" d="M33.2,47.5c-0.2,0-0.2,0.3,0,0.3C33.4,47.8,33.4,47.5,33.2,47.5z"/>
					<path class="st25" d="M33.5,47.4c-0.2,0-0.1,0.3,0,0.2C33.7,47.7,33.7,47.4,33.5,47.4z"/>
					<path class="st25" d="M32.9,47.9c-0.2,0-0.1,0.4,0.1,0.3C33.2,48.2,33.2,47.9,32.9,47.9z"/>
					<path class="st25" d="M33.3,47.8c-0.2,0-0.1,0.3,0.1,0.3C33.5,48,33.5,47.8,33.3,47.8z"/>
					<path class="st25" d="M33.6,47.7c-0.1,0-0.1,0.3,0.1,0.2C33.8,47.9,33.8,47.7,33.6,47.7z"/>
					<path class="st25" d="M33.2,48.3c-0.2,0.1-0.1,0.4,0.1,0.3C33.5,48.5,33.4,48.2,33.2,48.3z"/>
					<path class="st25" d="M33.5,48.1c-0.2,0.1-0.1,0.3,0.1,0.2C33.7,48.3,33.6,48,33.5,48.1z"/>
					<path class="st25" d="M33.8,48c-0.1,0-0.1,0.2,0.1,0.2C34,48.1,33.9,47.9,33.8,48z"/>
					<path class="st25" d="M33.4,48.5c-0.2,0.1-0.1,0.3,0.1,0.2C33.6,48.7,33.5,48.5,33.4,48.5z"/>
					<path class="st25" d="M33.6,48.4c-0.1,0.1,0,0.3,0.1,0.2C33.9,48.5,33.8,48.3,33.6,48.4z"/>
					<path class="st25" d="M33.9,48.2c-0.1,0.1,0,0.2,0.1,0.2C34.1,48.3,34,48.2,33.9,48.2z"/>
					<path class="st25" d="M33.6,48.8c-0.1,0.1,0,0.3,0.1,0.2C33.9,48.9,33.8,48.7,33.6,48.8z"/>
					<path class="st25" d="M33.8,48.6c-0.1,0.1,0,0.2,0.1,0.2C34,48.7,33.9,48.6,33.8,48.6z"/>
					<path class="st25" d="M34,48.5c-0.1,0.1,0,0.2,0.1,0.1C34.2,48.6,34.1,48.4,34,48.5z"/>
					<path class="st25" d="M33.8,49c-0.1,0.1,0,0.3,0.1,0.2C34.1,49.1,33.9,48.9,33.8,49z"/>
					<path class="st25" d="M34,48.8c-0.1,0.1,0,0.2,0.1,0.1C34.2,48.9,34.1,48.7,34,48.8z"/>
					<path class="st25" d="M34.2,48.7c-0.1,0.1,0,0.2,0.1,0.1C34.4,48.7,34.3,48.6,34.2,48.7z"/>
					<path class="st25" d="M34,49.2c-0.1,0.1,0,0.3,0.1,0.2C34.2,49.3,34.1,49.1,34,49.2z"/>
					<path class="st25" d="M34.2,49c-0.1,0.1,0,0.2,0.1,0.1C34.4,49.1,34.3,48.9,34.2,49z"/>
					<path class="st25" d="M34.4,48.8c-0.1,0.1,0,0.2,0.1,0.1C34.5,48.9,34.4,48.8,34.4,48.8z"/>
					<path class="st25" d="M34.5,49c-0.1,0.1,0,0.2,0.1,0.1C34.7,49.1,34.6,49,34.5,49z"/>
					<path class="st25" d="M34.4,49.2c-0.1,0.1,0,0.2,0.1,0.1C34.6,49.2,34.5,49.1,34.4,49.2z"/>
					<path class="st25" d="M34.2,49.3c-0.1,0.1,0,0.2,0.1,0.1C34.4,49.4,34.3,49.3,34.2,49.3z"/>
					<path class="st25" d="M34.7,49.2c-0.1,0,0,0.2,0.1,0.1C34.8,49.3,34.8,49.1,34.7,49.2z"/>
					<path class="st25" d="M34.6,49.3c-0.1,0.1,0,0.2,0.1,0.1C34.7,49.4,34.6,49.3,34.6,49.3z"/>
					<path class="st25" d="M34.4,49.5c-0.1,0.1,0,0.2,0.1,0.1C34.6,49.5,34.5,49.4,34.4,49.5z"/>
					<path class="st25" d="M34.8,49.3C34.8,49.4,34.8,49.5,34.8,49.3C35,49.4,34.9,49.3,34.8,49.3z"/>
					<path class="st25" d="M34.7,49.4c-0.1,0,0,0.2,0.1,0.1C34.9,49.5,34.8,49.4,34.7,49.4z"/>
					<path class="st25" d="M34.6,49.6c-0.1,0.1,0,0.2,0.1,0.1C34.8,49.6,34.7,49.5,34.6,49.6z"/>
					<path class="st25" d="M35,49.4C34.9,49.5,35,49.6,35,49.4C35.1,49.5,35.1,49.4,35,49.4z"/>
					<path class="st25" d="M34.9,49.5C34.8,49.6,34.9,49.7,34.9,49.5C35,49.6,35,49.5,34.9,49.5z"/>
					<path class="st25" d="M34.8,49.7c-0.1,0.1,0,0.2,0.1,0.1C34.9,49.7,34.9,49.6,34.8,49.7z"/>
					<path class="st25" d="M35.1,49.5C35.1,49.6,35.1,49.6,35.1,49.5C35.2,49.5,35.2,49.5,35.1,49.5z"/>
					<path class="st25" d="M35,49.6C35,49.7,35.1,49.8,35,49.6C35.2,49.7,35.1,49.6,35,49.6z"/>
					<path class="st25" d="M35,49.8C34.9,49.8,35,49.9,35,49.8C35.1,49.8,35,49.7,35,49.8z"/>
					<path class="st25" d="M35.3,49.6C35.2,49.6,35.3,49.7,35.3,49.6C35.4,49.6,35.3,49.5,35.3,49.6z"/>
					<path class="st25" d="M35.2,49.7C35.1,49.7,35.2,49.8,35.2,49.7C35.3,49.7,35.2,49.6,35.2,49.7z"/>
					<path class="st25" d="M35.1,49.8C35.1,49.9,35.1,49.9,35.1,49.8C35.2,49.8,35.2,49.8,35.1,49.8z"/>
					<path class="st25" d="M35.4,49.7C35.4,49.7,35.4,49.8,35.4,49.7C35.5,49.7,35.4,49.6,35.4,49.7z"/>
					<path class="st25" d="M35.3,49.8C35.3,49.8,35.4,49.9,35.3,49.8C35.4,49.8,35.4,49.7,35.3,49.8z"/>
					<path class="st25" d="M35.3,49.9C35.2,49.9,35.3,50,35.3,49.9C35.4,49.9,35.3,49.8,35.3,49.9z"/>
					<path class="st25" d="M33.8,44.4c-0.2,0-0.2,0.3,0,0.3C34,44.7,34,44.4,33.8,44.4z"/>
				</g>
				<g>
					<path class="st25" d="M45.1,44.7c0.3,0,0.3,0.4,0,0.4C44.8,45.2,44.8,44.7,45.1,44.7z"/>
					<path class="st25" d="M44.6,44.7c0.3,0,0.3,0.4,0,0.4C44.3,45.2,44.3,44.7,44.6,44.7z"/>
					<path class="st25" d="M44.1,44.7c0.3,0,0.3,0.4,0,0.4C43.8,45.2,43.8,44.7,44.1,44.7z"/>
					<path class="st25" d="M45.3,45.2c0.3,0,0.3,0.4,0,0.4S45,45.2,45.3,45.2z"/>
					<path class="st25" d="M44.8,45.2c0.3,0,0.3,0.4,0,0.4C44.5,45.6,44.5,45.2,44.8,45.2z"/>
					<path class="st25" d="M44.3,45.2c0.3,0,0.3,0.4,0,0.4S44,45.2,44.3,45.2z"/>
					<path class="st25" d="M45.4,45.7c0.3,0,0.3,0.4,0,0.4C45.1,46.1,45.1,45.7,45.4,45.7z"/>
					<path class="st25" d="M44.8,45.7c0.3,0,0.3,0.4,0,0.4C44.5,46.1,44.5,45.7,44.8,45.7z"/>
					<path class="st25" d="M44.3,45.7c0.3,0,0.3,0.4,0,0.4S44,45.7,44.3,45.7z"/>
					<path class="st25" d="M45.3,46.2c0.3,0,0.3,0.4,0,0.4C45,46.6,45,46.2,45.3,46.2z"/>
					<path class="st25" d="M44.8,46.2c0.3,0,0.3,0.4,0,0.4C44.5,46.6,44.5,46.2,44.8,46.2z"/>
					<path class="st25" d="M44.3,46.2c0.3,0,0.3,0.4,0,0.4C44,46.6,44,46.2,44.3,46.2z"/>
					<path class="st25" d="M45.2,46.7c0.3,0,0.2,0.4,0,0.4C44.9,47.1,44.9,46.7,45.2,46.7z"/>
					<path class="st25" d="M44.7,46.7c0.3,0,0.2,0.4,0,0.4C44.4,47,44.4,46.7,44.7,46.7z"/>
					<path class="st25" d="M44.2,46.7c0.3,0,0.2,0.4,0,0.4C43.9,47,44,46.6,44.2,46.7z"/>
					<path class="st25" d="M45,47.2c0.2,0,0.2,0.4,0,0.4C44.7,47.5,44.7,47.2,45,47.2z"/>
					<path class="st25" d="M44.6,47.1c0.2,0,0.2,0.4,0,0.4C44.3,47.5,44.3,47.1,44.6,47.1z"/>
					<path class="st25" d="M44.1,47.1c0.2,0,0.2,0.3,0,0.3C43.9,47.4,43.9,47.1,44.1,47.1z"/>
					<path class="st25" d="M44.8,47.6c0.2,0,0.2,0.4,0,0.4C44.5,47.9,44.5,47.6,44.8,47.6z"/>
					<path class="st25" d="M44.4,47.5c0.2,0,0.2,0.3,0,0.3C44.2,47.8,44.2,47.5,44.4,47.5z"/>
					<path class="st25" d="M44,47.4c0.2,0,0.1,0.3,0,0.2C43.8,47.7,43.8,47.4,44,47.4z"/>
					<path class="st25" d="M44.6,47.9c0.2,0,0.1,0.4-0.1,0.3C44.3,48.2,44.4,47.9,44.6,47.9z"/>
					<path class="st25" d="M44.3,47.8c0.2,0,0.1,0.3-0.1,0.3C44,48,44.1,47.8,44.3,47.8z"/>
					<path class="st25" d="M43.9,47.7c0.1,0,0.1,0.3-0.1,0.2C43.7,47.9,43.8,47.7,43.9,47.7z"/>
					<path class="st25" d="M44.4,48.3c0.2,0.1,0.1,0.4-0.1,0.3C44.1,48.5,44.2,48.2,44.4,48.3z"/>
					<path class="st25" d="M44.1,48.1c0.2,0.1,0.1,0.3-0.1,0.2C43.8,48.3,43.9,48,44.1,48.1z"/>
					<path class="st25" d="M43.8,48c0.1,0,0.1,0.2-0.1,0.2C43.6,48.1,43.6,47.9,43.8,48z"/>
					<path class="st25" d="M44.2,48.5c0.2,0.1,0.1,0.3-0.1,0.2C43.9,48.7,44,48.5,44.2,48.5z"/>
					<path class="st25" d="M43.9,48.4c0.1,0.1,0,0.3-0.1,0.2C43.7,48.5,43.8,48.3,43.9,48.4z"/>
					<path class="st25" d="M43.7,48.2c0.1,0.1,0,0.2-0.1,0.2C43.5,48.3,43.5,48.2,43.7,48.2z"/>
					<path class="st25" d="M43.9,48.8c0.1,0.1,0,0.3-0.1,0.2C43.7,48.9,43.8,48.7,43.9,48.8z"/>
					<path class="st25" d="M43.7,48.6c0.1,0.1,0,0.2-0.1,0.2C43.5,48.7,43.6,48.6,43.7,48.6z"/>
					<path class="st25" d="M43.5,48.5c0.1,0.1,0,0.2-0.1,0.1C43.3,48.6,43.4,48.4,43.5,48.5z"/>
					<path class="st25" d="M43.7,49c0.1,0.1,0,0.3-0.1,0.2C43.5,49.1,43.6,48.9,43.7,49z"/>
					<path class="st25" d="M43.5,48.8c0.1,0.1,0,0.2-0.1,0.1C43.3,48.9,43.4,48.7,43.5,48.8z"/>
					<path class="st25" d="M43.4,48.7c0.1,0.1,0,0.2-0.1,0.1C43.2,48.7,43.3,48.6,43.4,48.7z"/>
					<path class="st25" d="M43.6,49.2c0.1,0.1,0,0.3-0.1,0.2C43.3,49.3,43.4,49.1,43.6,49.2z"/>
					<path class="st25" d="M43.4,49c0.1,0.1,0,0.2-0.1,0.1C43.2,49.1,43.3,48.9,43.4,49z"/>
					<path class="st25" d="M43.2,48.8c0.1,0.1,0,0.2-0.1,0.1C43,48.9,43.1,48.8,43.2,48.8z"/>
					<path class="st25" d="M43,49c0.1,0.1,0,0.2-0.1,0.1C42.9,49.1,42.9,49,43,49z"/>
					<path class="st25" d="M43.2,49.2c0.1,0.1,0,0.2-0.1,0.1C43,49.2,43.1,49.1,43.2,49.2z"/>
					<path class="st25" d="M43.3,49.3c0.1,0.1,0,0.2-0.1,0.1C43.1,49.4,43.2,49.3,43.3,49.3z"/>
					<path class="st25" d="M42.9,49.2c0.1,0,0,0.2-0.1,0.1C42.7,49.3,42.8,49.1,42.9,49.2z"/>
					<path class="st25" d="M43,49.3c0.1,0.1,0,0.2-0.1,0.1C42.8,49.4,42.9,49.3,43,49.3z"/>
					<path class="st25" d="M43.1,49.5c0.1,0.1,0,0.2-0.1,0.1C42.9,49.5,43,49.4,43.1,49.5z"/>
					<path class="st25" d="M42.7,49.3C42.8,49.4,42.7,49.5,42.7,49.3C42.6,49.4,42.6,49.3,42.7,49.3z"/>
					<path class="st25" d="M42.8,49.4c0.1,0,0,0.2-0.1,0.1C42.7,49.5,42.7,49.4,42.8,49.4z"/>
					<path class="st25" d="M42.9,49.6c0.1,0.1,0,0.2-0.1,0.1C42.8,49.6,42.9,49.5,42.9,49.6z"/>
					<path class="st25" d="M42.6,49.4C42.6,49.5,42.5,49.6,42.6,49.4C42.4,49.5,42.5,49.4,42.6,49.4z"/>
					<path class="st25" d="M42.7,49.5C42.7,49.6,42.6,49.7,42.7,49.5C42.5,49.6,42.6,49.5,42.7,49.5z"/>
					<path class="st25" d="M42.8,49.7c0.1,0.1,0,0.2-0.1,0.1C42.6,49.7,42.7,49.6,42.8,49.7z"/>
					<path class="st25" d="M42.4,49.5C42.5,49.6,42.4,49.6,42.4,49.5C42.3,49.5,42.4,49.5,42.4,49.5z"/>
					<path class="st25" d="M42.5,49.6C42.6,49.7,42.5,49.8,42.5,49.6C42.4,49.7,42.5,49.6,42.5,49.6z"/>
					<path class="st25" d="M42.6,49.8C42.7,49.8,42.6,49.9,42.6,49.8C42.5,49.8,42.5,49.7,42.6,49.8z"/>
					<path class="st25" d="M42.3,49.6C42.3,49.6,42.3,49.7,42.3,49.6C42.2,49.6,42.2,49.5,42.3,49.6z"/>
					<path class="st25" d="M42.4,49.7C42.4,49.7,42.3,49.8,42.4,49.7C42.2,49.7,42.3,49.6,42.4,49.7z"/>
					<path class="st25" d="M42.4,49.8C42.5,49.9,42.4,49.9,42.4,49.8C42.3,49.8,42.4,49.8,42.4,49.8z"/>
					<path class="st25" d="M42.2,49.7C42.2,49.7,42.1,49.8,42.2,49.7C42.1,49.7,42.1,49.6,42.2,49.7z"/>
					<path class="st25" d="M42.2,49.8C42.2,49.8,42.2,49.9,42.2,49.8C42.1,49.8,42.2,49.7,42.2,49.8z"/>
					<path class="st25" d="M42.3,49.9C42.3,49.9,42.2,50,42.3,49.9C42.2,49.9,42.2,49.8,42.3,49.9z"/>
					<path class="st25" d="M43.7,44.4c0.2,0,0.2,0.3,0,0.3C43.5,44.7,43.5,44.4,43.7,44.4z"/>
				</g>
			</g>
			<g>
				<path class="st20" d="M38.8,39.6c0.2,0,0.3,0,0.4,0c0-0.1,0-0.2,0-0.2c0-0.1,0.3-0.2,0.7-0.1c1.7,0.3,1.9,1.1,3.2,1.5
					c0,0,0.1,0,0.1,0c0-0.1,0.1-0.2,0.1-0.2c0-0.1,0.2-0.1,0.4,0c0.2,0.1,0.3,0.2,0.2,0.3c0,0.1-0.1,0.1-0.1,0.2
					c0.3,0.1,0.8,0.3,0.7,1c-0.1-0.1-0.5-0.3-0.7-0.3c-0.2,0-0.5-0.1-0.4-0.3c0,0-0.1-0.1-0.2-0.1c0,0,0,0,0,0.1
					c-0.1,0.1-0.3,0.2-0.5,0.1c-1.3-0.5-1.7-1.4-3.3-1.5c0,0,0,0,0,0c0,0.1-0.2,0.2-0.6,0.2c-0.4,0-0.6-0.1-0.6-0.2c0,0,0,0,0,0
					c-1.6,0-2,1-3.3,1.5c-0.2,0.1-0.5,0-0.5-0.1c0,0,0,0,0-0.1c0,0-0.1,0-0.2,0.1c0.1,0.3-0.2,0.3-0.4,0.3c-0.2,0-0.5,0.1-0.7,0.3
					c-0.2-0.7,0.4-0.9,0.7-1c0-0.1-0.1-0.1-0.1-0.2c0-0.1,0.1-0.2,0.2-0.3c0.2-0.1,0.3-0.1,0.4,0c0,0.1,0.1,0.2,0.1,0.2
					c0.1,0,0.1,0,0.1,0c1.3-0.4,1.5-1.2,3.2-1.5c0.4-0.1,0.7,0,0.7,0.1c0,0.1,0,0.2,0,0.2C38.5,39.6,38.6,39.6,38.8,39.6z"/>
				<g>
					<path class="st21" d="M38.4,39.6c-0.1,0-0.2,0-0.2-0.1c0-0.1,0.2-0.1,0.2-0.2"/>
					<path class="st21" d="M34.1,40.8c0.1,0.2,0.2,0.4,0.2,0.5"/>
					<path class="st21" d="M34,40.9c0.1,0.2,0.2,0.4,0.2,0.5"/>
					<path class="st21" d="M33.7,40.9c0,0.1,0.3,0,0.3,0c0,0.1,0,0.1-0.2,0.2"/>
					<path class="st21" d="M34.3,40.6c0,0.1-0.2,0.1-0.1,0.2c0,0.1,0.2,0,0.3,0"/>
					<path class="st21" d="M38.2,39.6c0,0.1,0,0.4,0,0.5"/>
					<path class="st21" d="M39.2,39.6c0.1,0,0.2,0,0.2-0.1c0-0.1-0.2-0.1-0.2-0.2"/>
					<path class="st21" d="M43.4,40.8c-0.1,0.2-0.2,0.4-0.2,0.5"/>
					<path class="st21" d="M43.6,40.9c-0.1,0.2-0.2,0.4-0.2,0.5"/>
					<path class="st21" d="M43.9,40.9c0,0.1-0.3,0-0.3,0c0,0.1,0,0.1,0.2,0.2"/>
					<path class="st21" d="M43.3,40.6c0,0.1,0.2,0.1,0.1,0.2c0,0.1-0.2,0-0.3,0"/>
					<path class="st21" d="M39.4,39.6c0,0.1,0,0.4,0,0.5"/>
				</g>
			</g>
			<g>
				<g>
					<g>
						<polygon points="36.3,37.1 36.3,37.2 36.2,37 36.3,37.1 36.4,37.2 36.5,37.2 36.5,37.2 36.2,36.9 36.2,36.9 36.2,37.4 
							36.3,37.3 36.3,37.2 36.4,37.2 						"/>
					</g>
					<g>
						<polygon points="36.7,37.1 36.5,36.9 36.7,37.1 36.6,37.2 36.4,36.8 36.5,36.8 36.7,37 36.7,36.7 36.8,36.7 36.9,37 
							36.8,37.1 36.7,36.8 36.8,37.1 						"/>
					</g>
					<g>
						<polygon points="37.2,36.6 37,36.7 37,36.7 37.2,36.7 37.2,36.8 37.1,36.8 37.1,36.9 37.3,36.9 37.3,36.9 37,37 36.9,36.6 
							37.2,36.5 						"/>
					</g>
					<g>
						<path d="M37.4,36.7l0-0.1c0,0,0.1,0,0.1,0c0,0,0.1,0,0.1,0C37.5,36.6,37.5,36.6,37.4,36.7C37.5,36.6,37.4,36.7,37.4,36.7
							L37.4,36.7C37.4,36.7,37.4,36.7,37.4,36.7c0.1,0,0.1,0.1,0.2,0.1c0,0,0,0.1,0,0.1l0.1,0c0,0,0-0.1,0-0.1c0,0,0-0.1-0.1-0.1
							c0,0,0.1,0,0-0.1c0-0.1-0.1-0.1-0.1-0.1c-0.1,0-0.2,0-0.2,0c0,0,0.1,0.4,0.1,0.4l0.1,0L37.4,36.7L37.4,36.7z"/>
					</g>
					<g>
						<rect x="37.7" y="36.4" transform="matrix(0.9892 -0.1469 0.1469 0.9892 -4.9697 5.9413)" width="0.1" height="0.4"/>
					</g>
					<g>
						<path d="M38.1,36.5C38.1,36.5,38.1,36.4,38.1,36.5c-0.1-0.1-0.2,0-0.2,0.1c0,0.1,0,0.1,0.1,0.1c0,0,0.1-0.1,0.1-0.1l0.1,0
							c0,0.1,0,0.1-0.1,0.2c-0.1,0-0.2-0.1-0.2-0.2c0-0.1,0-0.2,0.1-0.2C38.1,36.4,38.2,36.4,38.1,36.5L38.1,36.5z"/>
					</g>
					<g>
						<path d="M39.1,36.5C39.1,36.5,39.1,36.4,39.1,36.5c-0.1-0.1-0.2,0-0.2,0.1c0,0.1,0,0.1,0.1,0.1c0,0,0.1,0,0.1-0.1l0.1,0
							c0,0.1-0.1,0.1-0.1,0.1c-0.1,0-0.1-0.1-0.1-0.2c0-0.1,0.1-0.2,0.2-0.2C39.1,36.4,39.2,36.4,39.1,36.5L39.1,36.5z"/>
					</g>
					<g>
						<polygon points="39.5,36.4 39.4,36.4 39.4,36.5 39.5,36.5 39.5,36.6 39.3,36.6 39.3,36.7 39.5,36.7 39.5,36.8 39.3,36.8 
							39.3,36.4 39.5,36.4 						"/>
					</g>
					<g>
						<polygon points="39.8,36.4 39.8,36.7 39.9,36.4 40,36.4 39.9,36.8 39.8,36.8 39.7,36.6 39.7,36.8 39.6,36.8 39.7,36.4 						
							"/>
					</g>
					<g>
						<polygon points="40.1,36.9 40.2,36.5 40.1,36.5 40.1,36.5 40.4,36.5 40.3,36.6 40.2,36.6 40.2,36.9 						"/>
					</g>
					<g>
						<polygon points="41.3,36.9 41.2,37.2 41.3,37.3 41.3,37.3 41.1,37.2 41.3,36.9 						"/>
					</g>
					<g>
						<polygon points="38.5,36.6 38.4,36.6 38.4,36.4 38.5,36.6 38.5,36.7 38.5,36.8 38.6,36.8 38.5,36.4 38.4,36.4 38.3,36.8 
							38.4,36.8 38.4,36.7 38.5,36.7 						"/>
					</g>
					<g>
						<polygon points="41,37 40.9,37 41,36.8 41,37 41,37.1 40.9,37.2 41,37.2 41.1,36.8 41,36.7 40.7,37.1 40.8,37.1 40.8,37 
							41,37.1 						"/>
					</g>
					<g>
						<path d="M40.5,36.7l0-0.1c0,0,0.1,0,0.1,0c0,0,0,0,0,0.1C40.6,36.8,40.6,36.8,40.5,36.7C40.6,36.8,40.5,36.7,40.5,36.7
							L40.5,36.7C40.5,36.8,40.5,36.8,40.5,36.7c0.1,0.1,0.1,0.1,0.1,0.2c0,0,0,0.1,0,0.1l0.1,0c0,0,0-0.1,0-0.1c0,0,0-0.1,0-0.1
							c0,0,0.1,0,0.1-0.1c0-0.1,0-0.1,0-0.1c0,0-0.2-0.1-0.2-0.1c0,0-0.1,0.4-0.1,0.4l0.1,0L40.5,36.7L40.5,36.7z"/>
					</g>
				</g>
				<g>
					<g>
						<path d="M34.7,41.1l0-0.1c0,0,0.1,0,0.1,0c0,0,0.1,0,0.1,0c0,0,0,0.1,0,0.1C34.8,41.1,34.7,41.1,34.7,41.1L34.7,41.1
							C34.7,41.2,34.7,41.2,34.7,41.1c0.1,0.1,0.2,0.1,0.2,0.1c0,0.1,0,0.1,0,0.1l0.1,0c0,0,0-0.1,0-0.1c0-0.1-0.1-0.1-0.1-0.1
							c0,0,0.1-0.1,0-0.1c0-0.1-0.1-0.1-0.1-0.1c-0.1,0-0.2,0.1-0.2,0.1l0.1,0.5l0.1,0L34.7,41.1L34.7,41.1z"/>
					</g>
					<g>
						<polygon points="35.2,40.8 35,40.9 35.1,41 35.2,40.9 35.3,41 35.1,41.1 35.2,41.2 35.3,41.1 35.4,41.2 35.1,41.3 34.9,40.9 
							35.2,40.7 						"/>
					</g>
					<g>
						<path d="M35.4,40.8c0,0-0.1-0.1-0.1-0.1c0,0,0,0,0.1,0c0,0,0.1,0,0.1,0C35.5,40.7,35.5,40.8,35.4,40.8
							C35.5,40.8,35.4,40.8,35.4,40.8L35.4,40.8c0,0.1,0.1,0,0.1,0c0.1,0,0.1-0.1,0-0.2c0-0.1-0.1-0.1-0.2-0.1
							c-0.1,0.1-0.2,0.1-0.2,0.1l0.2,0.4l0.1,0L35.4,40.8L35.4,40.8z"/>
					</g>
					<g>
						<path d="M35.9,40.7c0,0,0-0.1,0-0.1c0,0-0.2-0.3-0.2-0.3l0.1,0c0,0,0.1,0.2,0.2,0.3C36.1,40.6,36.1,40.7,35.9,40.7
							c-0.1,0.1-0.1,0.1-0.2,0c0-0.1-0.2-0.3-0.2-0.3l0.1,0c0,0,0.2,0.2,0.2,0.3C35.8,40.7,35.9,40.8,35.9,40.7z"/>
					</g>
					<g>
						<path d="M36.3,40.4C36.3,40.4,36.2,40.3,36.3,40.4c-0.1,0-0.2,0-0.2,0c0,0,0.1,0.1,0.1,0.1S36.3,40.5,36.3,40.4
							C36.3,40.4,36.3,40.4,36.3,40.4L36.3,40.4c0.1,0,0.1,0.1,0,0.2c-0.1,0-0.2,0.1-0.2,0.1c0,0-0.3-0.4-0.3-0.4s0,0,0.1-0.1
							c0.1,0,0.1-0.1,0.2,0l-0.1,0.1c0,0,0,0-0.1,0c0,0-0.1,0.1-0.1,0.1c0,0,0.1,0.1,0.1,0.1s0.1,0,0.1-0.1c0,0,0-0.1,0-0.1l0.1-0.1
							c0,0,0,0.1,0,0.1C36.3,40.3,36.3,40.3,36.3,40.4L36.3,40.4z"/>
					</g>
					<g>
						<polygon points="36.4,40 36.6,40.3 36.7,40.2 36.8,40.3 36.5,40.4 36.3,40 						"/>
					</g>
					<g>
						<rect x="36.7" y="39.8" transform="matrix(0.8978 -0.4404 0.4404 0.8978 -13.8549 20.2811)" width="0.1" height="0.5"/>
					</g>
					<g>
						<path d="M37.1,39.8c0,0,0-0.1-0.1,0c-0.1,0-0.1,0.1,0,0.2c0,0.1,0.1,0.1,0.1,0.1c0.1,0,0.1-0.1,0.1-0.1l0.1,0
							c0,0.1,0,0.2-0.1,0.2c-0.1,0-0.2,0-0.2-0.2c0-0.1,0-0.2,0.1-0.3C37.1,39.6,37.2,39.7,37.1,39.8L37.1,39.8z"/>
					</g>
					<g>
						<polygon points="37.5,39.8 37.5,39.6 37.6,39.8 37.5,39.8 37.5,39.9 37.6,39.8 37.7,39.9 37.7,39.9 37.5,39.5 37.4,39.5 
							37.4,40 37.5,40 37.5,39.9 						"/>
					</g>
					<g>
						<path d="M39.8,39.6C39.8,39.6,39.8,39.5,39.8,39.6c-0.1-0.1-0.2,0-0.2,0.1c0,0.1,0,0.2,0.1,0.2c0.1,0,0.1,0,0.1-0.1l0.1,0
							c0,0.1-0.1,0.2-0.2,0.1c-0.1,0-0.2-0.1-0.1-0.3c0-0.1,0.1-0.2,0.2-0.2C39.9,39.5,39.9,39.5,39.8,39.6L39.8,39.6z"/>
					</g>
					<g>
						<path d="M40.1,39.9c0.1,0,0.1,0,0.1-0.1c0-0.1,0-0.2-0.1-0.2s-0.1,0-0.1,0.1C40,39.8,40.1,39.9,40.1,39.9L40.1,39.9
							C40,40,40,39.8,40,39.7c0-0.1,0.1-0.2,0.2-0.2c0.1,0,0.2,0.1,0.1,0.3C40.3,39.9,40.2,40,40.1,39.9L40.1,39.9z"/>
					</g>
					<g>
						<path d="M40.7,39.9C40.7,39.8,40.7,39.8,40.7,39.9c-0.1-0.1-0.1-0.1-0.1-0.1C40.6,39.8,40.6,39.8,40.7,39.9c0,0.1,0,0.1,0,0.2
							c0,0.1-0.1,0.1-0.2,0.1c-0.1,0-0.1-0.1-0.1-0.2l0.1,0c0,0,0,0.1,0.1,0.1c0,0,0.1,0,0.1,0c0,0,0-0.1,0-0.1
							c-0.1-0.1-0.1-0.1-0.1-0.2c0,0,0.1-0.1,0.2-0.1C40.8,39.7,40.8,39.8,40.7,39.9L40.7,39.9z"/>
					</g>
					<g>
						<polygon points="40.8,40.3 41,39.9 40.9,39.9 41,39.8 41.3,40 41.2,40.1 41.1,40 40.9,40.3 						"/>
					</g>
					<g>
						<rect x="41.9" y="40.8" transform="matrix(0.4843 -0.8749 0.8749 0.4843 -14.0153 57.9488)" width="0.5" height="0.1"/>
					</g>
					<g>
						<path d="M42.6,41c0,0,0-0.1,0-0.1c-0.1,0-0.1,0-0.2,0.1c0,0.1,0,0.2,0,0.2c0.1,0,0.1,0,0.1,0l0.1,0c0,0.1-0.1,0.1-0.2,0.1
							c-0.1,0-0.1-0.2-0.1-0.3c0.1-0.1,0.2-0.2,0.3-0.1C42.6,40.8,42.7,40.9,42.6,41L42.6,41z"/>
					</g>
					<g>
						<path d="M38.5,40c0,0.1,0,0.2,0,0.2c0,0,0,0,0.1,0c0,0,0.1,0,0.1-0.1c0-0.1-0.1-0.2-0.1-0.2c0,0-0.1,0-0.1,0
							S38.5,39.9,38.5,40L38.5,40c-0.1-0.1-0.1-0.2-0.1-0.2c0,0,0.1,0,0.2,0c0.1,0,0.2,0,0.1,0.2c0,0.1-0.1,0.2-0.2,0.2
							c-0.1,0-0.2,0-0.2,0S38.4,40.1,38.5,40L38.5,40z"/>
					</g>
					<g>
						<polygon points="39.1,39.8 38.9,39.8 38.9,39.9 39.1,39.9 39.1,40 39,40 39,40.1 39.2,40.1 39.2,40.2 38.9,40.2 38.8,39.8 
							39.1,39.7 						"/>
					</g>
					<g>
						<path d="M41.8,40.6l0.1-0.1c0,0,0.1,0,0.1,0.1c0,0,0,0,0,0.1C42,40.7,42,40.7,41.8,40.6C41.9,40.7,41.8,40.6,41.8,40.6
							L41.8,40.6c0,0.1,0,0.1,0,0.1c0,0,0,0,0,0.1c0,0-0.1,0.1-0.1,0.1l0.1,0c0,0,0.1-0.1,0.1-0.1c0,0,0-0.1,0-0.1
							c0,0,0.1,0,0.1-0.1c0-0.1,0-0.1,0-0.2c-0.1,0-0.2-0.1-0.2-0.1c0,0-0.3,0.4-0.3,0.4l0.1,0L41.8,40.6L41.8,40.6z"/>
					</g>
					<g>
						<polygon points="41.3,40.4 41.5,40.2 41.4,40.4 41.3,40.4 41.2,40.4 41.4,40.5 41.3,40.6 41.4,40.6 41.6,40.2 41.5,40.1 
							41.1,40.4 41.2,40.5 41.2,40.4 						"/>
					</g>
					<g>
						<polygon points="42.8,41.2 42.9,41 42.9,41.2 42.8,41.2 42.8,41.3 42.9,41.3 43,41.4 43,41.4 42.9,40.9 42.8,40.9 42.7,41.4 
							42.8,41.4 42.8,41.3 						"/>
					</g>
				</g>
			</g>
		</g>
	</g>
</g>
</svg>
