<?xml version="1.0" encoding="utf-8"?>
<!-- Generator: Adobe Illustrator 19.2.1, SVG Export Plug-In . SVG Version: 6.00 Build 0)  -->
<svg version="1.1" id="Layer_1" xmlns="http://www.w3.org/2000/svg" xmlns:xlink="http://www.w3.org/1999/xlink" x="0px" y="0px"
	 viewBox="0 0 90 90" style="enable-background:new 0 0 90 90;" xml:space="preserve">
<style type="text/css">
	.st0{clip-path:url(#SVGID_2_);}
	.st1{fill:#EC1C2E;stroke:#000000;stroke-width:0.25;}
	.st2{fill:#005A9A;stroke:#000000;stroke-width:0.25;}
	.st3{fill:#FFFFFF;stroke:#000000;stroke-width:0.25;}
	.st4{fill:#005A9A;stroke:#000000;stroke-width:3.100000e-02;}
	.st5{fill:#EC1C2E;stroke:#000000;stroke-width:3.100000e-02;}
	.st6{fill:#FFFFFF;stroke:#000000;stroke-width:3.100000e-02;}
	.st7{fill:#005A9A;stroke:#000000;stroke-width:3.100000e-02;stroke-linecap:round;stroke-linejoin:round;}
	.st8{fill:#FFCE46;}
	.st9{fill:none;stroke:#000000;stroke-width:3.100000e-02;stroke-linecap:round;stroke-linejoin:round;}
	.st10{fill:#996B38;stroke:#000000;stroke-width:3.100000e-02;}
	.st11{fill:#FFCE46;stroke:#000000;stroke-width:3.100000e-02;}
	.st12{fill:#EC1C2E;stroke:#000000;stroke-width:3.100000e-02;stroke-linecap:round;stroke-linejoin:round;}
	.st13{fill:#FFFFFF;stroke:#000000;stroke-width:3.100000e-02;stroke-linecap:round;stroke-linejoin:round;}
	.st14{stroke:#000000;stroke-width:3.100000e-02;stroke-linecap:round;stroke-linejoin:round;}
	.st15{fill:#FFFFFF;stroke:#000000;stroke-width:3.130000e-02;stroke-linecap:round;stroke-linejoin:round;}
	.st16{fill:none;stroke:#000000;stroke-width:3.130000e-02;stroke-linecap:round;stroke-linejoin:round;}
	.st17{fill:none;stroke:#000000;stroke-width:1.560000e-02;stroke-linecap:round;stroke-linejoin:round;}
	.st18{fill:#549334;stroke:#000000;stroke-width:3.100000e-02;stroke-linecap:round;stroke-linejoin:round;}
</style>
<g>
	<defs>
		<circle id="SVGID_1_" cx="45" cy="45" r="45"/>
	</defs>
	<clipPath id="SVGID_2_">
		<use xlink:href="#SVGID_1_"  style="overflow:visible;"/>
	</clipPath>
	<g class="st0">
		<g>
			<rect x="45" y="-1.2" class="st1" width="74" height="46.2"/>
			<rect x="-29" y="45" class="st1" width="74" height="46.2"/>
		</g>
		<g>
			<rect x="-29" y="-1.2" class="st2" width="74" height="46.2"/>
			<rect x="45" y="45" class="st2" width="74" height="46.2"/>
		</g>
		<polygon class="st3" points="54.3,91.2 54.3,54.2 119,54.2 119,35.8 54.3,35.8 54.3,-1.2 35.7,-1.2 35.7,35.8 -29,35.8 -29,54.2 
			35.7,54.2 35.7,91.2 		"/>
		<g>
			<g>
				<g>
					<path class="st4" d="M45,38.2h-5.8l1,1c0,1.6,0,3.4,0,5H45V38.2z"/>
					<path class="st4" d="M45,50c0.8-0.8,1.3-0.8,3.5-0.8c1.2,0,1.3-0.8,1.3-2.3c0-0.6,0-1.6,0-2.8H45V50z"/>
				</g>
				<g>
					<path class="st5" d="M45,50c-0.8-0.8-1.3-0.8-3.5-0.8c-1.2,0-1.3-0.8-1.3-2.3c0-0.6,0-1.6,0-2.8H45V50z"/>
					<path class="st5" d="M45,38.2h5.8l-1,1c0,1.6,0,3.4,0,5H45V38.2z"/>
				</g>
				<g>
					<path class="st6" d="M45.8,49.4V38.2h-1.6v11.2c0.3,0.1,0.6,0.3,0.8,0.6C45.2,49.8,45.6,49.5,45.8,49.4z"/>
					<rect x="40.3" y="43.3" class="st6" width="9.5" height="1.6"/>
					<path class="st6" d="M45,44.1"/>
				</g>
				<g>
					<path class="st4" d="M45,43l3.1-3.3v1l0.6-0.5c0,1.2,0,4.4,0,5.6c0,2.1-3.3,1.9-3.7,0.9c-0.4,1-3.7,1.2-3.7-0.9
						c0-1.2,0-4.4,0-5.6l0.6,0.5v-1L45,43z"/>
				</g>
				<g>
					<path class="st6" d="M45,46.6c-1.5,0.8-2.5,0.2-2.5-0.6c0-0.2,0-0.7,0-1c-0.6,0-1.2-0.3-1.2-0.5v-0.8c0,0.2,1,0.5,1.2,0.5
						c0-0.5,0-2.3,0-2.9l0.5,0.4l0-0.7l0.8,0.8v0.6L43.4,42c0,0.7,0,2.1,0,2.4c0.6,0,1,0.3,1.6,0.3c0.6,0,1.1-0.3,1.6-0.3
						c0-0.3,0-1.8,0-2.4l-0.5,0.5v-0.6l0.8-0.8l0,0.7l0.5-0.4c0,0.6,0,2.4,0,2.9c0.3,0,1.2-0.2,1.2-0.5v0.8c0,0.2-0.7,0.5-1.2,0.5
						c0,0.3,0,0.7,0,1C47.5,46.8,46.5,47.4,45,46.6v-0.8c0.8,0.5,1.6,0.6,1.6,0.1c0-0.2,0-0.3,0-0.6c-0.6,0-1,0.3-1.6,0.3
						c-0.6,0-1.1-0.3-1.6-0.3c0,0.3,0,0.4,0,0.6c0,0.5,0.8,0.4,1.6-0.1V46.6z"/>
				</g>
				<g>
					<path class="st5" d="M46.1,41.9v0.6l0.5-0.5c0,0.7,0,2.1,0,2.4c-0.6,0-1,0.3-1.6,0.3c-0.6,0-1.1-0.3-1.6-0.3c0-0.3,0-1.8,0-2.4
						l0.5,0.5v-0.6L45,43L46.1,41.9z"/>
				</g>
				<g>
					<path class="st5" d="M41.3,44.6c0,0.5,0,0.9,0,1.2c0,2.1,3.3,1.9,3.7,0.9c0.4,1,3.7,1.2,3.7-0.9c0-0.3,0-0.7,0-1.2
						c0,0.2-0.7,0.5-1.2,0.5c0,0.3,0,0.7,0,1c0,0.8-1,1.4-2.5,0.6c-1.5,0.8-2.5,0.2-2.5-0.6c0-0.2,0-0.7,0-1
						C42,45.1,41.3,44.8,41.3,44.6z"/>
				</g>
			</g>
			<path class="st7" d="M46.3,36.2c0.1-0.1,0.1-0.4,0.2-0.6c-0.4-0.1-0.9-0.1-1.4-0.1c-0.5,0-1,0-1.4,0.1c0.1,0.2,0.1,0.4,0.2,0.6
				c0,0.1-0.2,0.4-1,0.3c-0.7,0-1.7,0-2.6,0.2c0.1,0.2,0.2,0.3,0.2,0.4c0,0.2-0.5,0.4-1.3,0.5c-0.8,0.1-1.1,0.9-1.4,2.1
				c-0.3-0.1-0.8-0.3-1.1-0.3c0.2-0.8,0.8-2.5,1.6-2.7c-0.2-0.4-0.1-0.6,0.6-1c0.8-0.4,2.1-0.6,3.6-0.6c-0.1-0.4,0-0.5,0.5-0.7
				c0.4-0.2,1-0.3,2.2-0.3c1.2,0,1.8,0.1,2.2,0.3c0.5,0.2,0.6,0.3,0.5,0.7c1.5,0.1,2.8,0.3,3.6,0.6c0.7,0.3,0.8,0.5,0.6,1
				c0.8,0.2,1.4,1.9,1.6,2.7c-0.3,0-0.8,0.2-1.1,0.3c-0.3-1.2-0.6-2-1.4-2.1c-0.8-0.1-1.3-0.3-1.3-0.5c0-0.2,0-0.2,0.2-0.4
				c-0.9-0.2-1.9-0.2-2.6-0.2C46.4,36.6,46.2,36.3,46.3,36.2z"/>
			<g>
				<g>
					<path class="st8" d="M43.2,34.6l0,0.3l0.1,0l0-0.2c0,0,0.1,0,0.1,0c0.1,0,0.1,0,0.1,0.1c0,0.1,0,0.1-0.1,0.2
						c-0.1,0-0.1,0-0.1,0l0-0.1l-0.1,0l0.1,0.5l0.1,0l0-0.3c0,0,0.1,0,0.2,0c0.1,0,0.2-0.2,0.1-0.3c0-0.1-0.1-0.2-0.2-0.2
						C43.3,34.6,43.2,34.6,43.2,34.6z"/>
				</g>
				<g>
					<polygon class="st8" points="44.2,35.1 44.3,35.3 44.4,35.2 44.1,34.5 44,34.5 43.8,35.3 43.9,35.3 44,35.1 44.1,35.1 44.1,35 
						44,35 44.1,34.7 44.2,35 44.1,35 44.1,35.1 					"/>
				</g>
				<g>
					<polygon class="st8" points="44.7,35.2 44.7,34.6 44.9,34.6 44.9,34.4 44.4,34.4 44.4,34.6 44.6,34.6 44.6,35.2 					"/>
				</g>
				<g>
					<path class="st8" d="M45.1,34.4l0,0.2l0.1,0l0-0.1c0,0,0.1,0,0.2,0c0,0,0.1,0,0.1,0.1c0,0.1,0,0.1-0.1,0.1c0,0-0.2,0-0.2,0
						l0-0.1l-0.1,0l0,0.6l0.1,0l0-0.3c0,0,0.1,0,0.1,0c0.1,0,0.1,0,0.1,0.1c0,0.1,0,0.2,0,0.2l0.1,0c0,0,0-0.2,0-0.2
						c0-0.1,0-0.2-0.1-0.2c0,0,0.1-0.1,0.1-0.2c0-0.1-0.1-0.2-0.1-0.2C45.4,34.4,45.1,34.4,45.1,34.4z"/>
				</g>
				<g>
					
						<rect x="45.5" y="34.8" transform="matrix(6.991063e-02 -0.9976 0.9976 6.991063e-02 7.872 78.173)" class="st8" width="0.8" height="0.1"/>
				</g>
				<g>
					<polygon class="st8" points="46.5,35.2 46.5,35.3 46.6,35.4 46.5,34.5 46.3,34.5 46,35.3 46.2,35.3 46.2,35.1 46.3,35.2 
						46.4,35 46.3,35 46.4,34.7 46.5,35 46.4,35 46.3,35.2 					"/>
				</g>
				<g>
					<path class="st8" d="M39.1,35.9c0.1,0,0.2,0,0.2-0.1c0.1,0,0.3,0,0.3,0.3c0.1,0.2,0,0.4-0.1,0.5c-0.2,0-0.3,0.1-0.3,0.1
						l-0.1-0.4l0.1,0l0.1,0.3c0,0,0.1,0,0.1,0c0,0,0.2-0.1,0.1-0.3c-0.1-0.2-0.2-0.2-0.2-0.2c0,0-0.1,0-0.1,0l0.1,0.2l-0.1,0
						L39.1,35.9z"/>
				</g>
				<g>
					
						<rect x="39.9" y="35.7" transform="matrix(0.9901 -0.1407 0.1407 0.9901 -4.6816 5.9819)" class="st8" width="0.1" height="0.8"/>
				</g>
				<g>
					<path class="st8" d="M40.5,36.3c-0.1,0-0.2-0.1-0.2-0.3c0-0.2,0-0.3,0.1-0.3c0.1,0,0.2,0.1,0.2,0.3
						C40.7,36.1,40.6,36.3,40.5,36.3l0,0.1c0.2,0,0.3-0.2,0.3-0.4c0-0.2-0.2-0.4-0.4-0.4c-0.2,0-0.3,0.2-0.3,0.4
						c0,0.2,0.2,0.4,0.4,0.4L40.5,36.3z"/>
				</g>
				<g>
					<path class="st8" d="M41.4,35.7c0-0.1-0.1-0.2-0.3-0.2c-0.2,0-0.2,0.2-0.2,0.3c0,0.1,0.1,0.2,0.3,0.2c0.1,0,0.1,0,0.2,0.1
						c0,0.1,0,0.1-0.1,0.1c-0.1,0-0.2,0-0.2-0.1l-0.1,0c0,0.1,0.1,0.3,0.3,0.2c0.2,0,0.3-0.1,0.2-0.3c0-0.2-0.1-0.2-0.3-0.2
						c-0.1,0-0.2,0-0.2-0.1c0,0,0-0.1,0.1-0.1c0.1,0,0.1,0,0.2,0.1L41.4,35.7z"/>
				</g>
				<path class="st8" d="M47.6,35.5v0.6h0.3v0.1h-0.4v-0.4C47.5,35.8,47.6,35.6,47.6,35.5z"/>
				<g>
					<rect x="48" y="35.5" class="st8" width="0.1" height="0.8"/>
				</g>
				<g>
					<path class="st8" d="M48.3,36.3c0,0,0.2,0,0.3,0c0.2,0,0.2-0.1,0.2-0.2c0-0.1,0-0.1-0.1-0.2c0,0,0.1-0.1,0.1-0.2
						c0-0.1-0.1-0.2-0.2-0.2c-0.2,0-0.3,0-0.3,0l0,0.2l0.1,0l0-0.1c0,0,0.1,0,0.2,0c0,0,0.1,0.1,0.1,0.1c0,0,0,0.1-0.1,0.1
						c-0.1,0-0.2,0-0.2,0l0-0.1l-0.1,0l0,0.3l0.1,0l0-0.1c0,0,0.1,0,0.2,0c0,0,0.1,0,0.1,0.1c0,0.1,0,0.1-0.1,0.1c0,0-0.2,0-0.2,0
						l0-0.1l-0.1,0L48.3,36.3z"/>
				</g>
				<g>
					<polygon class="st8" points="49.4,35.6 48.9,35.5 48.9,36.3 49.3,36.4 49.3,36.2 49,36.2 49,36 49.3,36 49.3,35.9 49,35.9 
						49.1,35.7 49.4,35.7 					"/>
				</g>
				<g>
					<path class="st8" d="M49.5,35.6l0,0.2l0.1,0l0-0.1c0,0,0.1,0,0.2,0c0,0,0.1,0,0.1,0.1c0,0.1,0,0.1-0.1,0.1c0,0-0.2,0-0.2,0
						l0-0.1l-0.1,0l-0.1,0.6l0.1,0l0-0.3c0,0,0.1,0,0.1,0c0.1,0,0.1,0,0.1,0.1c0,0.1,0,0.2,0,0.2l0.1,0c0,0,0-0.2,0-0.2
						c0-0.1,0-0.2-0.1-0.2c0,0,0.1-0.1,0.1-0.2c0-0.1,0-0.2-0.1-0.2C49.8,35.6,49.5,35.6,49.5,35.6z"/>
				</g>
				<g>
					<polygon class="st8" points="50.3,36.5 50.4,35.9 50.6,36 50.6,35.8 50.1,35.7 50.1,35.8 50.3,35.9 50.1,36.5 					"/>
				</g>
				<g>
					<polygon class="st8" points="50.8,36.5 50.8,36.7 50.9,36.8 51,35.9 50.8,35.9 50.4,36.6 50.5,36.6 50.6,36.5 50.7,36.5 
						50.7,36.4 50.7,36.4 50.9,36.1 50.8,36.4 50.7,36.4 50.7,36.5 					"/>
				</g>
				<g>
					<path class="st8" d="M51.4,36.1c0.1,0,0.2,0.1,0.2,0.1c0.1,0,0.2,0.1,0.1,0.5c-0.1,0.2-0.3,0.3-0.4,0.3
						c-0.1-0.1-0.2-0.1-0.2-0.1l0.2-0.4l0.1,0.1l-0.1,0.2c0,0,0.1,0,0.1,0c0,0,0.2,0.1,0.3-0.2c0.1-0.2,0-0.3,0-0.3c0,0-0.1,0-0.1,0
						l-0.1,0.2l-0.1-0.1L51.4,36.1z"/>
				</g>
			</g>
			<g>
				<path class="st9" d="M36.5,40.2c0-0.2,0.1-0.5,0.1-0.7"/>
				<path class="st9" d="M36.6,40.2c0-0.2,0.1-0.5,0.1-0.7"/>
				<path class="st9" d="M36.7,40.2c0-0.2,0.1-0.5,0.1-0.7"/>
				<path class="st9" d="M36.8,40.2c0-0.2,0.1-0.4,0.1-0.6"/>
				<path class="st9" d="M37,40.2c0-0.2,0.1-0.4,0.1-0.6"/>
				<path class="st9" d="M37.1,40.3c0-0.2,0.1-0.4,0.1-0.6"/>
				<path class="st9" d="M37.2,40.3c0-0.2,0.1-0.4,0.1-0.6"/>
				<path class="st9" d="M37.3,40.3c0-0.2,0.1-0.4,0.1-0.6"/>
				<path class="st9" d="M37.5,40.3c0-0.2,0.1-0.4,0.1-0.6"/>
				<path class="st9" d="M37.6,40.3c0-0.2,0.1-0.4,0.1-0.6"/>
				<path class="st9" d="M53.6,40.2c0-0.2-0.1-0.5-0.1-0.7"/>
				<path class="st9" d="M53.4,40.2c0-0.2-0.1-0.5-0.1-0.7"/>
				<path class="st9" d="M53.3,40.2c0-0.2-0.1-0.5-0.1-0.7"/>
				<path class="st9" d="M53.2,40.2c0-0.2-0.1-0.4-0.1-0.6"/>
				<path class="st9" d="M53.1,40.2c0-0.2-0.1-0.4-0.1-0.6"/>
				<path class="st9" d="M52.9,40.3c0-0.2-0.1-0.4-0.1-0.6"/>
				<path class="st9" d="M52.8,40.3c0-0.2-0.1-0.4-0.1-0.6"/>
				<path class="st9" d="M52.7,40.3c0-0.2-0.1-0.4-0.1-0.6"/>
				<path class="st9" d="M52.5,40.3c0-0.2-0.1-0.4-0.1-0.6"/>
				<path class="st9" d="M52.4,40.3c0-0.2-0.1-0.4-0.1-0.6"/>
				<path class="st9" d="M43.6,35.6c-0.6,0.1-1,0.2-0.9,0.4"/>
				<path class="st9" d="M39.5,37.6c-1.1,0.2-2.2-0.3-2.6,0.9"/>
				<path class="st9" d="M40.4,37.2C40.4,37.1,40.4,37.1,40.4,37.2c-0.1-0.3-0.7-0.1-1,0.1c-0.3,0.1-0.7,0.4-0.9,0.2
					c-0.1-0.2,0.3-0.4,0.7-0.5c0.3-0.1,0.6-0.2,0.9-0.2"/>
				<path class="st9" d="M43.8,36.2c-0.1-0.2-0.3-0.2-0.7-0.1c-0.5,0.1-0.5-0.2-0.6-0.6c0-0.1-0.1-0.2-0.1-0.3"/>
				<path class="st9" d="M38.2,36.8c0,0,0,0.1,0.1,0.1c0.2,0.5,0.3,0.6,0.4,0.6"/>
				<path class="st9" d="M46.4,35.6c0.6,0.1,1,0.2,0.9,0.4"/>
				<path class="st9" d="M50.5,37.6c1.1,0.2,2.2-0.3,2.6,0.9"/>
				<path class="st9" d="M49.6,37.2C49.6,37.1,49.6,37.1,49.6,37.2c0.1-0.3,0.7-0.1,1,0.1c0.3,0.1,0.7,0.4,0.9,0.2
					c0.1-0.2-0.3-0.4-0.7-0.5c-0.3-0.1-0.6-0.2-0.9-0.2"/>
				<path class="st9" d="M46.3,36.2c0.1-0.2,0.3-0.2,0.7-0.1c0.5,0.1,0.5-0.2,0.6-0.6c0-0.1,0.1-0.2,0.1-0.3"/>
				<path class="st9" d="M51.9,36.8c0,0,0,0.1-0.1,0.1c-0.2,0.5-0.3,0.6-0.4,0.6"/>
			</g>
			<g>
				<g>
					<polygon class="st10" points="45,43.3 48.8,40.1 48.9,40.2 45,43.5 					"/>
					<polygon class="st10" points="45,43 48.2,39.5 48.3,39.5 45,43.2 					"/>
					<polygon class="st10" points="45,42.5 47.6,38.9 47.7,39 45,42.7 					"/>
					<polygon class="st10" points="45,43.3 41.2,40.1 41.1,40.2 45,43.5 					"/>
					<polygon class="st10" points="45,43 41.8,39.5 41.7,39.5 45,43.2 					"/>
					<polygon class="st10" points="45,42.5 42.4,38.9 42.3,39 45,42.7 					"/>
				</g>
				<g>
					<path class="st11" d="M48.8,40l0.6-0.3L49,40.2C48.9,40.2,48.7,40,48.8,40z"/>
					<path class="st11" d="M48.2,39.4l0.5-0.4l-0.3,0.5C48.4,39.6,48.2,39.4,48.2,39.4z"/>
					<path class="st11" d="M47.5,38.9l0.5-0.4l-0.2,0.6C47.7,39.1,47.5,38.9,47.5,38.9z"/>
					<path class="st11" d="M41.2,40l-0.6-0.3l0.4,0.5C41.1,40.2,41.3,40,41.2,40z"/>
					<path class="st11" d="M41.8,39.4l-0.5-0.4l0.3,0.5C41.7,39.6,41.9,39.4,41.8,39.4z"/>
					<path class="st11" d="M42.5,38.9L42,38.5l0.2,0.6C42.3,39.1,42.5,38.9,42.5,38.9z"/>
				</g>
			</g>
			<g>
				<polygon class="st11" points="45.2,42.7 45.2,41 45.6,41 45.6,40.7 45.2,40.7 45.2,40.1 44.8,40.1 44.8,40.7 44.4,40.7 44.4,41 
					44.8,41 44.8,42.7 				"/>
			</g>
			<g>
				<path class="st12" d="M45.5,44.9c0.1,0.8,0.6,1.9,0.7,2.4c-0.1,0-0.2,0.1-0.3,0.1c0.1,0.3,0.1,0.5,0.1,0.7
					c-0.2-0.1-0.4-0.1-0.5,0c-0.1,0.4-0.3,0.8-0.5,1.2c0-0.3-0.3-0.9-0.9-1.6c-0.4-0.6-0.1-2.1,0.5-3c-0.1-0.1,0-0.2,0.2-0.4
					c0.2-0.2,0.4-0.2,0.6-0.1c0.2,0,0.5,0.2,0.4,0.5C45.7,44.9,45.5,45,45.5,44.9z"/>
				<path class="st13" d="M45.2,44.5c-0.8,1.3,0.2,3.5-0.2,4.8c0-0.3-0.3-0.9-0.9-1.6c-0.4-0.6-0.1-2.1,0.5-3
					C44.7,44.5,44.9,44.4,45.2,44.5z"/>
				<path class="st7" d="M44.6,44.6c-0.6,0.9-0.9,2.4-0.5,3.1c0.2,0.2,0.3,0.5,0.4,0.7c-0.2-0.9-0.4-2.5,0.5-3.8
					C45,44.4,44.7,44.4,44.6,44.6z"/>
				<path class="st9" d="M44.6,44.6c0.1-0.2,0.4-0.2,0.6-0.1c0.1,0,0.2,0.1,0.3,0.1c0,0.1,0,0.2,0,0.3"/>
				<path class="st9" d="M45.5,48.1c0.1-0.4,0.1-0.8,0-1.4c-0.1-0.8-0.2-1.6,0-2.1"/>
				<path class="st9" d="M45.5,44.9c0.1-0.1,0.1-0.2,0-0.3"/>
				<path class="st9" d="M45.5,44.6c-0.2,0.8,0.2,1.9,0.4,2.8"/>
			</g>
			<g>
				<path class="st14" d="M44.9,42.3c0.2-0.2,0.7-0.4,1-0.2l0.6,1.8c-0.2,0-0.5,0.1-0.6,0.2c-0.1,0.1-0.3,0.2-0.3,0.1
					c-0.1,0-0.2,0.2-0.4,0.1c-0.2,0-0.4,0.1-0.6,0.2l-0.6-1.8l0.1-0.2C44.2,42.4,44.7,42.2,44.9,42.3z"/>
				<path class="st15" d="M44.1,42.5c0.1-0.1,0.6-0.3,0.8-0.2c0.2-0.2,0.7-0.4,0.9-0.3l0.5,1.6c-0.1,0.1-0.4,0.1-0.6,0.2
					c-0.1,0-0.2,0.1-0.2,0.2c-0.1,0-0.3,0-0.4,0c-0.1,0-0.2,0.2-0.4,0.2L44.1,42.5"/>
				<line class="st16" x1="44.9" y1="42.3" x2="45.5" y2="44"/>
				<path class="st17" d="M44.8,42.4c-0.2,0-0.4,0.1-0.6,0.2"/>
				<path class="st17" d="M44.9,42.6c-0.2,0-0.4,0.1-0.6,0.2"/>
				<path class="st17" d="M45,42.9c-0.2,0-0.5,0.1-0.6,0.2"/>
				<path class="st17" d="M45.1,43.1c-0.2,0-0.5,0.1-0.6,0.2"/>
				<path class="st17" d="M45.1,43.3c-0.2,0-0.5,0.1-0.6,0.2"/>
				<path class="st17" d="M45.2,43.5c-0.2,0-0.5,0.1-0.6,0.2"/>
				<path class="st17" d="M45.3,43.7c-0.2,0-0.5,0.1-0.6,0.2"/>
				<path class="st17" d="M45.1,42.4c0.2-0.1,0.5-0.2,0.7-0.2"/>
				<path class="st17" d="M45.1,42.6c0.2-0.1,0.5-0.2,0.7-0.2"/>
				<path class="st17" d="M45.2,42.8c0.2-0.1,0.5-0.2,0.7-0.2"/>
				<path class="st17" d="M45.3,43c0.1-0.1,0.5-0.2,0.6-0.2"/>
				<path class="st17" d="M45.4,43.2c0.1-0.1,0.4-0.2,0.6-0.2"/>
				<path class="st17" d="M45.4,43.4c0.1-0.1,0.4-0.2,0.6-0.2"/>
				<path class="st17" d="M45.5,43.7c0.1-0.1,0.4-0.2,0.6-0.2"/>
			</g>
			<g>
				<path class="st18" d="M50.1,51.2c0.5,0,1.1,0.1,1.3,0.2c-0.2-0.2-0.5-0.3-0.9-0.4c0.4,0.1,0.6,0.1,0.9,0.2
					c0.2,0.1,0.2,0.1,0.2,0.4c0,0.2,0,0.5,0.1,0c0.1-0.4,0.2-0.4,0-0.6c-0.2-0.1-0.5-0.3-0.8-0.4c0.6,0.1,1,0.3,1.3,0.5
					c-0.1-0.2-0.4-0.5-0.7-0.7c0.3,0.1,0.8,0.3,1.1,0.4c-0.1-0.2-0.4-0.5-0.7-0.7c0.5,0.1,1.1,0.3,1.3,0.4c-0.3-0.4-0.6-0.7-1-0.8
					c0.6,0.1,1.1,0.2,1.4,0.4c-0.3-0.3-0.7-0.7-1-0.8c0.5,0.1,0.9,0.2,1.1,0.3c-0.3-0.3-0.8-0.6-1.4-0.7c0.4,0,0.8,0,1.2,0.1
					c-0.3-0.2-0.9-0.3-1.1-0.3c0.6-0.1,1.2-0.1,1.9,0.1c-0.3-0.2-0.8-0.4-1.3-0.5c0.3,0,0.7-0.1,1,0c-0.3-0.1-1-0.2-1.3-0.2
					c0.6-0.2,1.1-0.3,1.5-0.3c-0.6,0-1.3,0-1.9,0.1c0.7-0.6,1.1-0.6,1.6-0.6c0.4-0.1,0.7-0.2,0.3-0.2c-0.3,0-0.5,0-0.7-0.1
					c0.5-0.1,1.1-0.4,1.3-0.5c0.2-0.1,0.7-0.4,0.2-0.2c-0.5,0.2-1.3,0.3-1.9,0.3c-0.3,0-0.5,0.1-0.7,0.2c0.4-0.2,0.8-0.4,1.2-0.6
					c0.4-0.2,0.3-0.3,0.7,0.1c0.2,0.2,0.2,0-0.1-0.5c-0.2-0.4-0.3-0.2-0.7-0.1c-0.1,0.1-0.3,0.1-0.6,0.3c0.2-0.3,1-1.2,1.2-1.4
					c0.1-0.2,0.4,0,0.6,0.2c0.3,0.2,0.2,0-0.1-0.3c-0.3-0.3-0.4-0.3-0.5-0.2c-0.2,0.1-1,0.7-1.4,1.1c0.8-0.8,1.8-1.7,2-1.9
					c-0.5,0.3-0.9,0.5-1.3,0.8c0.1-0.2,0.4-0.5,0.5-0.7c-0.2,0.1-0.5,0.3-0.6,0.4c0.2-0.4,0.5-0.8,0.5-0.8c0.1-0.1,0.1-0.1,0.2-0.1
					c0.1,0,0.2,0,0.4,0c0.2,0,0.1-0.1,0-0.1c-0.7-0.2-0.6-0.1-0.8,0c-0.1,0.1-0.3,0.3-0.4,0.5c0.2-0.5,0.7-1,0.8-1.2
					c-0.5,0.3-0.8,0.5-1,0.8c0.2-0.4,1-1,1.2-1.2c-0.2,0.1-0.7,0.3-0.9,0.5c0.1-0.2,0.2-0.4,0.4-0.7c-0.4,0.3-0.7,0.6-0.9,1
					c0-0.1,0.1-0.2,0.1-0.4c0.1-0.3,0.5-0.6,0.7-0.8c0.2-0.2,0.2-0.3,0.8,0.1c-0.1-0.2-0.2-0.4-0.3-0.5c-0.2-0.2-0.2-0.1-0.4,0
					c-0.1,0.1-0.2,0.2-0.4,0.4c0.2-0.6,0.5-1.2,0.6-1.6c-0.4,0.4-0.7,0.9-0.9,1.5c0-0.4,0.2-1.3,0.2-1.7c-0.2,0.2-0.4,0.6-0.5,1.1
					c0-0.5,0-1-0.1-1.3c0,0.3-0.3,0.9-0.3,1.4c-0.2-0.4-0.4-0.8-0.5-1.1c0,0.2,0.1,0.7,0.2,1.3c-0.1-0.5-0.7-1-0.7-1.3
					c0,0.5,0.4,1.5,0.4,1.7c0,0.1,0,0.2,0.1,0.4c-0.2-0.3-0.6-0.8-0.7-1.2c0,0.2,0.1,0.6,0.1,0.9c-0.2-0.2-0.4-0.1-0.8,0.7
					c0.1,0,0.3-0.2,0.4-0.3c0.1-0.1,0.2-0.2,0.3,0c0.2,0.3,0.6,0.8,0.8,1.5c-0.1-0.2-0.4-0.7-0.6-0.9c0,0.1,0.1,0.4,0.1,0.6
					c-0.2-0.5-0.4-0.8-0.5-1c0,0.2,0.2,0.9,0.2,1.2c-0.1-0.3-0.2-0.5-0.3-0.7c0.1,0.2,0.2,0.9,0.2,1.2c-0.2-0.3-0.3-0.5-0.4-0.7
					c0.1,0.3,0.2,0.8,0.2,1.2c-0.1-0.1-0.1-0.2-0.1-0.2c-0.2-0.3-0.3,0.2-0.4,0.5c-0.1,0.3-0.1,0.2,0.1,0c0.2-0.3,0.2-0.3,0.3,0.1
					c0.1,0.2,0.3,0.7,0.4,1.3c-0.2-0.3-0.4-0.6-0.5-0.9c-0.1-0.3-0.1-0.2,0,0.3c0.1,0.3,0.3,1,0.2,1.6c-0.1-0.4-0.3-0.9-0.4-1.4
					c0,0.3,0.1,0.8,0.1,1.1c-0.1-0.1-0.2-0.2-0.3-0.3c0.1,0.4,0.2,1.1,0.2,1.5c-0.1-0.3-0.2-0.5-0.3-0.7c0,0.3,0.1,1,0.2,1.4
					c-0.1-0.3-0.2-0.5-0.3-0.7c0.1,0.4,0.1,0.9,0,1.3c0-0.2-0.1-0.4-0.1-0.6c0,0.2-0.1,0.7-0.2,0.9c0.1-0.3,0.1-0.6,0-0.8
					c-0.1,0.4-0.2,0.7-0.4,0.9c0-0.2,0.1-0.5,0.1-0.8c0,0.2-0.2,0.4-0.3,0.5c0-0.3,0-0.5,0-0.6c-0.1,0.5-0.3,0.8-0.6,1.2
					c0.1-0.4,0.2-0.8,0.2-1c-0.2,0.4-0.3,0.6-0.6,1.1c0.2-0.4,0.2-0.8,0.1-1c0,0.1-0.2,0.4-0.4,0.8c0-0.2,0-0.8,0.1-1
					c-0.2,0.1-0.4,0.4-0.4,0.7c-0.1-0.2-0.2-0.5-0.3-0.6c0.1,0.8,0.1,1.6-0.4,1.9c-1.1,0.7-2.1,2.4-3.4,3c0.1,0.1,0.3,0.2,0.4,0.4
					c1.3-0.6,2.2-1.9,3.2-2.6c0.5-0.3,1.6,0.3,2.8,0c0.5-0.1,1.4,0.1,1.8,0.3C51.1,51.6,50.7,51.4,50.1,51.2z"/>
				<path class="st9" d="M51.2,48.6c0.3-0.3,0.8-0.5,1.2-0.6"/>
				<path class="st9" d="M50.6,50c0.5-0.5,1.1-0.9,1.9-1.1"/>
				<path class="st9" d="M53.1,48.5c-0.4-0.1-0.8-0.1-1.1,0"/>
				<path class="st9" d="M51.6,49.5c0.3,0,0.7,0,1,0"/>
				<path class="st9" d="M51.9,49.1c0.1,0,0.3,0,0.5,0"/>
				<path class="st9" d="M50.5,49.4c0.2-0.3,0.4-0.9,0.5-1.4c0,0.4,0,1.1-0.3,1.7"/>
				<path class="st9" d="M49.4,50.5c0.4-0.1,1-0.2,1.5-0.1c-0.3-0.2-0.6-0.4-1-0.3"/>
				<path class="st9" d="M47.2,49.5c0,0.2,0.1,0.4,0.1,0.5"/>
				<path class="st9" d="M46.9,50.7c0.2-0.2,0.5-0.6,0.7-0.9"/>
				<path class="st9" d="M47.2,50.8c0.3-0.3,0.5-0.5,0.6-0.7"/>
				<path class="st9" d="M48.8,49.4c-0.1,0.3-0.2,1-0.7,1.4"/>
				<path class="st9" d="M48.2,50c-0.1,0.2-0.2,0.4-0.3,0.5"/>
				<path class="st9" d="M48.6,50.2c0.1-0.1,0.2-0.3,0.3-0.5"/>
				<path class="st9" d="M48.7,50.8c0.4-0.4,0.5-0.9,0.6-1.2"/>
				<path class="st9" d="M50.4,47.1c0.1,0.4,0.2,0.9,0.2,1.4"/>
				<path class="st9" d="M50,46.8c0.2,0.4,0.5,1.7,0.3,2.8"/>
				<path class="st9" d="M50,47.9c0.1,0.2,0.3,1.1,0.2,1.6"/>
				<path class="st9" d="M49.9,48.6c0.1,0.4,0.1,0.8,0.1,1.2"/>
				<path class="st9" d="M49.6,49.2c0,0.3-0.1,1.1-0.5,1.6"/>
				<path class="st9" d="M51.3,46.9c0-1-0.5-2.1-0.8-2.5"/>
				<path class="st9" d="M51.2,43.1c0.2,0.7,0.7,1.6,0.5,3"/>
				<path class="st9" d="M50.9,43.3c0.2,0.6,0.6,1.4,0.6,2.3"/>
				<path class="st9" d="M50.7,43.9c0.3,0.5,0.7,1.4,0.7,2.4"/>
				<path class="st9" d="M50.7,46c0.1,0.4,0.3,1,0.3,1.7"/>
				<path class="st9" d="M52,43.7c-0.2-0.8-0.4-1.3-0.8-1.8c-0.1-0.2-0.2-0.3-0.3-0.4"/>
				<path class="st9" d="M51.6,43.4c0.1,0.4,0.3,1,0.3,1.5"/>
				<path class="st9" d="M51.5,41.8c0.1,0.3,0.2,0.7,0.2,0.9"/>
				<path class="st9" d="M52.2,43c-0.2-0.6-0.3-1.3-0.4-1.9"/>
				<path class="st9" d="M52.5,42.3c0-0.4-0.2-0.9-0.4-1.4"/>
				<path class="st9" d="M52.5,40.8c0,0.2,0,0.4,0,0.5"/>
				<path class="st9" d="M52.2,43.2c0.2-0.6,0.3-1.2,0.6-1.7"/>
				<path class="st9" d="M52.8,42.4c0.1-0.2,0.2-0.5,0.3-0.8"/>
				<path class="st9" d="M52.1,44.1c0.2-0.5,0.4-0.9,0.6-1.3"/>
				<path class="st9" d="M52,44.9c0.2-0.6,0.3-1.2,0.7-1.6c0.2-0.2,0.4-0.5,0.6-0.8"/>
				<path class="st9" d="M52.4,44.2c0.2-0.4,0.3-0.7,0.5-1"/>
				<path class="st9" d="M52,45.3c0.2-0.5,0.7-1.2,1.1-1.7"/>
				<path class="st9" d="M52.9,44.8c0.1-0.2,0.2-0.4,0.3-0.6"/>
				<path class="st9" d="M51.9,45.8c0.3-0.4,0.8-0.9,1.4-1.4"/>
				<path class="st9" d="M51.6,46.7c0.3-0.4,0.6-0.8,1-1.1"/>
				<path class="st9" d="M51.6,47c0.4-0.4,0.8-0.7,1.2-0.9"/>
				<path class="st9" d="M51.4,47.7c0.4-0.5,0.7-0.7,0.9-0.9"/>
				<path class="st9" d="M51,49.1c0.4-0.4,1.1-0.6,1.7-0.8"/>
				<path class="st9" d="M51.4,48.1c0.5-0.5,1.2-1.1,2.1-1"/>
				<path class="st9" d="M51,49.9c0.4-0.1,0.8-0.1,1.3-0.1"/>
				<path class="st9" d="M51.2,50.2c0.2,0,0.5,0,0.8,0.1"/>
				<path class="st9" d="M51.6,50.5c-0.2-0.1-0.3-0.2-0.5-0.2"/>
				<path class="st9" d="M51,50.7c-0.4-0.2-0.9-0.3-1.4-0.3"/>
				<path class="st9" d="M49.3,50.8c0.4,0,0.8,0.1,1.3,0.2"/>
				<path class="st9" d="M49.7,51.3c0.1,0,0.2,0,0.4,0"/>
			</g>
			<g>
				<g>
					<path class="st18" d="M40.7,50.4c0.2,0,0.8,0,1.3,0c-0.3-0.1-0.1-0.9-0.5-1.2c0.4,0.2,0.6,0.1,0.8,0.2c0,0,0,0,0.1,0
						c0-0.1,0-0.3,0.1-0.4c0.1,0.2,0.3,0.3,0.5,0.4c0,0,0.1,0.1,0.1,0.1c0-0.2,0.4-0.6,0.4-0.7c0.1,0.2,0.3,0.4,0.3,0.7
						c0.2,0.8-0.4,1-0.2,1.5c1.1,0.7,2.1,2.2,3.5,2.8c-0.1,0.1-0.3,0.2-0.4,0.4c-1.8-0.8-3-3.1-4.6-3.2c0,0-0.1,0-0.1,0.1
						c-0.4,0.2-0.8,0.3-1.2,0.3c-0.4-0.1-0.7,0-1,0.2C40.1,50.7,40.4,50.5,40.7,50.4c-0.2,0.1-0.7,0.2-1,0c-0.2,0.5-0.7,0.6-1.1,0.7
						c-0.4,0.1-0.7,0.2-0.9,0.5c0-0.2,0-0.6,0-0.7c-0.2,0-0.4,0-0.7,0c0.3-0.1,0.5-0.8,1.1-0.9c-0.1-0.1-0.2-0.2-0.3-0.3
						c0.1,0.1,0.3,0,0.6-0.1c0.1,0,0.3-0.1,0.6-0.1c-0.2-0.1-0.4-0.4-0.4-0.6c-0.2,0.6-0.8,0.7-1.2,0.8c-0.4,0-0.7,0.2-0.7,0.3
						c0-0.3,0.1-0.5,0.2-0.7c-0.2,0-0.4,0-0.5,0.1c0.1-0.4,0.3-0.7,0.5-0.8c-0.3-0.1-0.7-0.5-0.7-0.9c0.2,0.3,1.1,0,1.5,0.5
						c-0.3-0.2-0.4-0.5-0.4-0.9c0.1,0.1,0.3,0.1,0.5,0.3c-0.3-1.1-1-0.8-1.5-1.2c-0.6-0.4-0.3-1.2-0.8-1.5c0.2,0,0.4,0,0.5,0
						c-0.1-0.2-0.1-0.7-0.1-1c0.1,0.3,0.5,0.3,0.7,0.6c0-0.1,0.1-0.2,0-0.3c0.2,0.2,0.3,0.4,0.4,0.6c0-0.4,0.1-0.6,0.2-0.7
						c0,0.1,0,0.4,0.2,0.7c0.1,0.3,0.2,0.6,0.1,1.1c-0.1,0.5,0.1,0.9,0.4,1.2c0-0.2,0-0.8-0.1-1c-0.1-0.2-0.1-0.5,0-0.9
						c0,0.1,0.2,0.4,0.4,0.6c0,0,0.1,0.1,0.1,0.2c0.1-0.1,0.1-0.2,0.1-0.3c0.1-0.2-0.7-0.5-0.7-1.3c-0.5-0.3-1-0.7-1.1-1.4
						c0.1,0.1,0.2,0.1,0.3,0.2c-0.3-0.4-0.4-1-0.3-1.2c0.1,0.2,0.3,0.3,0.5,0.5c0.1-0.5-0.4-0.8-0.4-1.3c0-0.7,0.4-0.7,0.5-1.2
						c0.1,0.2,0.2,0.3,0.2,0.5c0.1-0.3,0.4-0.5,0.5-0.7c0.2,0.3,0.3,0.6,0.2,0.9c0.2-0.1,0.5,0,0.7,0.1c-0.5,0.1-0.4,0.6-0.7,0.8
						c-0.3,0.1-0.9,0.5-0.7,1.1c0.2,0.2,0.4,0.5,0.5,1.1c0.1,0.1,0.2,0.2,0.2,0.3c0.1-0.1,0.1-0.3,0.2-0.4c0-0.2-0.3-0.5-0.4-0.7
						c-0.1-0.3,0.2-0.8,0-1.2c0.1,0.1,0.4,0.1,0.6,0.4c0.1-0.3,0.4-0.5,0.4-1.1c0.1,0.2,0.2,0.4,0.3,0.7c0.2-0.2,0.5-0.5,0.8-0.6
						c-0.2,0.4-0.1,0.7-0.1,1c0,0.3,0,0.8-0.5,1.2c-0.4,0.3-0.6,0.4-0.7,1.3c0.2-0.4,0.6-0.7,0.7-0.9c0.1,0.4,0.2,0.7,0.2,1
						c0.1-0.2,0.4-0.3,0.7-0.3c-0.2,0.3-0.4,1.3-1,1.4c-0.6,0.1-0.8,0.7-1,1c-0.2,0.3-0.3,0.5,0,1c0-0.3,0.1-0.7,0.2-0.9
						c0.2-0.4,0.6-0.6,0.7-0.8c0.1,0.3,0.1,0.5,0.1,0.7c0.3-0.6,0.9-0.4,1.1-0.6c-0.1,0.2-0.3,0.4-0.3,0.7c-0.1,0.3-0.3,0.6-0.7,0.8
						c-0.3,0.1-0.5,0.2-0.7,0.4c0,0.2,0.1,0.3,0.1,0.6c0-0.1,0-0.2,0.1-0.2c0.2-0.2,0.3-0.4,0.3-0.6c0.4,0.4,0.5,0.7,0.3,1.1
						c-0.1,0.4-0.2,0.7,0,1c0.1,0.1,0.3,0.2,0.5,0.3c0.2-0.2,0-0.4-0.3-0.7c-0.2-0.2-0.2-0.8,0-1c0.2-0.2,0.3-0.5,0.3-0.7
						c0.1,0.1,0.3,0.3,0.3,0.5c0.1-0.2,0.2-0.3,0.3-0.4c0,0.3,0.2,0.5,0.2,0.8c0.1-0.2,0.3-0.4,0.5-0.5c0,0.2,0.1,0.5,0.1,0.6
						c0,0.1,0,0.3-0.1,0.5c-0.1,0.2-0.2,0.4-0.5,0.5c-0.1,0-0.2,0.1-0.4,0.1c0.3,0,0.9,0.1,1,0.3C41.4,50.1,40.9,50.3,40.7,50.4z"/>
				</g>
				<g>
					<path class="st9" d="M37.3,42.1c0.1-0.7,0.5-1.3,0.7-1.5c0.1,0,0.1-0.1,0.2-0.1"/>
					<path class="st9" d="M37.3,40.1c0,0.4-0.2,1-0.1,1.4"/>
					<path class="st9" d="M38.6,40.7c-0.4,0.1-0.8,0.8-1,0.9"/>
					<path class="st9" d="M38.1,41.8c0.2,0.2,0.2,0.9,0.3,1.1"/>
					<path class="st9" d="M39,41.5c0,0.4-0.3,1-0.3,1.4"/>
					<path class="st9" d="M36.7,42.2c0.1,0.3,0.7,0.7,0.8,1"/>
					<path class="st9" d="M36.8,43.3c0.1,0.2,0.7,0.4,0.8,0.6"/>
					<path class="st9" d="M37.3,46.7c-0.2-0.5-0.5-0.3-0.7-1c-0.1-0.4-0.2-0.7-0.6-0.8"/>
					<path class="st9" d="M39.4,44c-0.3,0.4-0.1,0.9-0.4,1.3"/>
					<path class="st9" d="M37.9,44.2c0.1,0.4,0.4,0.6,0.4,0.8"/>
					<path class="st9" d="M36,44.3c0,0.2,0.3,0.5,0.4,0.7"/>
					<path class="st9" d="M36.7,44.6c0.1,0.3,0.1,0.8,0.1,1.1"/>
					<path class="st9" d="M35.7,45c0.6,0.3,0.5,1.1,0.9,1.3"/>
					<path class="st9" d="M40.1,44.4c-0.3,0.2-0.5,0.8-0.8,1"/>
					<path class="st9" d="M39.1,46.1c-0.1,0.5-0.3,0.5-0.4,0.9"/>
					<path class="st9" d="M40,46.2c-0.4,0.2-0.6,0.9-1,1.1"/>
					<path class="st9" d="M37.3,47.5c0.1,0.2,0.5,0.3,0.5,0.5"/>
					<path class="st9" d="M36.3,47.9c0.2,0.2,0.8,0.2,1,0.4"/>
					<path class="st9" d="M36.5,49.2c0.2-0.3,0.9-0.3,1.2-0.6"/>
					<path class="st9" d="M36.8,49.6c0.2-0.3,0.9-0.2,1.3-0.6"/>
					<path class="st9" d="M39.2,48c0,0.3-0.2,0.8-0.1,1.2"/>
					<path class="st9" d="M40.1,48.1c0,0.4-0.2,0.9-0.1,1.2"/>
					<path class="st9" d="M40.6,48c-0.1,0.5,0,0.8-0.1,1.1"/>
					<path class="st9" d="M37.4,50.7c0.4-0.2,1.1,0,1.4-0.3"/>
					<path class="st9" d="M40,51.1c0.4-0.3,1.4-0.2,1.8-0.4"/>
					<path class="st9" d="M41.2,48.5c-0.2,0.3-0.1,0.7-0.3,0.9"/>
					<path class="st9" d="M41.8,49.5c0.4,0.2,0.7,0.6,0.9,0.8"/>
					<path class="st9" d="M43.4,49.1c0.2,0.4,0,0.8,0,1"/>
					<path class="st9" d="M42.5,49.2c0.1,0.2,0.4,0.3,0.5,0.6"/>
					<path class="st9" d="M40.4,50.3c0.3-0.2,0.7-0.2,1-0.2"/>
					<path class="st9" d="M37.8,45.6c0.1,0.4,0.3,0.7,0.2,0.9"/>
					<path class="st9" d="M38.1,49.8c0.3,0.1,0.8-0.1,1.1,0.1"/>
					<path class="st9" d="M38,40c0,0.2-0.2,0.5-0.2,0.7"/>
					<path class="st9" d="M37.6,40.4c0.1,0.3,0.1,0.6,0,0.8"/>
					<path class="st9" d="M37.4,42.6c-0.1-0.1-0.2-0.1-0.2-0.2"/>
					<path class="st9" d="M37.9,43.7c-0.3-0.3-0.7-0.4-1-0.5"/>
					<path class="st9" d="M38.3,43.5c0.1-0.3,0.2-0.7,0.1-1c0-0.2,0-0.4,0.1-0.6"/>
					<path class="st9" d="M38.3,44.3c0-0.5,0.2-0.8,0.7-1.4c0.2-0.3,0.3-0.8,0.1-1.3"/>
					<path class="st9" d="M38.1,44c0,0.1,0.1,0.2,0.1,0.3"/>
					<path class="st9" d="M36.4,45.2c0-0.2,0.1-0.4,0.2-0.6"/>
					<path class="st9" d="M37.9,47.3C37.9,47.3,37.9,47.3,37.9,47.3"/>
					<path class="st9" d="M38.7,44.9c-0.1-0.5-0.8-0.7-0.8-0.9c0,0.2-0.1,0.3-0.1,0.4"/>
					<path class="st9" d="M39.6,44.6c0,0.2-0.1,0.4-0.3,0.6c-0.4,0.4-0.7,0.6-0.9,1.3"/>
					<path class="st9" d="M38.5,45.7c0.1-0.3,0.2-0.6,0.2-0.8c0-0.1,0-0.2,0.1-0.3"/>
					<path class="st9" d="M38.3,46.1c0.1,0.2,0,0.5-0.1,0.7"/>
					<path class="st9" d="M38.3,47.7C38.3,47.7,38.3,47.6,38.3,47.7"/>
					<path class="st9" d="M39.2,46.6c0,0.3-0.1,0.4-0.3,0.6c-0.4,0.3-0.4,0.5-0.3,0.7"/>
					<path class="st9" d="M38.1,48c-0.1-0.2-0.3-0.4-0.4-0.5"/>
					<path class="st9" d="M37.8,48.3c-0.1,0-0.1-0.1-0.2-0.1"/>
					<path class="st9" d="M38.1,48.1c-0.3,0.3-0.6,0.3-0.8,0.3c-0.1,0-0.3,0.1-0.5,0.2"/>
					<path class="st9" d="M38.3,48.2c-0.2,0-0.4,0.5-0.8,0.8c-0.2,0.2-0.6,0.3-0.9,0.3"/>
					<path class="st9" d="M38.5,48.3c0-0.1,0.1-0.2,0.1-0.3"/>
					<path class="st9" d="M38.5,48.9c0-0.1,0.1-0.3,0.1-0.4"/>
					<path class="st9" d="M38.9,49.5c0.2,0,0.4,0.1,0.5,0.2c0,0,0.1,0.1,0.1,0.1"/>
					<path class="st9" d="M40,50.1c0.1,0,0.1,0,0.1,0"/>
					<path class="st9" d="M39,49.4c-0.2-0.3-0.3-0.7-0.2-0.9"/>
					<path class="st9" d="M37.6,50.9c0.2,0,0.4,0.1,0.5,0.1c0.3,0,0.9-0.1,1.2-0.6"/>
					<path class="st9" d="M38.1,50c0.5,0.3,1.1,0.3,1.8,0.3"/>
					<path class="st9" d="M39.5,50.4C39.6,50.4,39.6,50.4,39.5,50.4"/>
					<path class="st9" d="M40.2,49.9c0.1-0.2,0.1-0.5,0-0.7c0-0.2,0-0.6,0.1-0.9"/>
					<path class="st9" d="M40.5,49.9c0.2-0.3,0.3-0.4,0.3-0.8c0-0.1,0.1-0.3,0.1-0.5"/>
					<path class="st9" d="M40.2,50.2c0.1-0.1,0.2-0.2,0.4-0.3"/>
					<path class="st9" d="M40.8,50.4c0,0-0.1,0-0.1,0"/>
					<path class="st9" d="M42.8,50.7c-0.3,0-0.5,0.1-0.8,0.2"/>
					<path class="st9" d="M43.2,50.6c0-0.7-0.5-1.1-0.8-1.2"/>
					<path class="st9" d="M42.4,50.5c0.4,0,0.8,0.2,1.2,0.4"/>
					<path class="st9" d="M43,49.5c0.2,0.2,0.4,0.5,0.2,1"/>
					<path class="st9" d="M37.1,44.9c0.1,0.2,0.1,0.6,0.1,0.9c-0.1,0.3-0.1,0.5,0,0.6"/>
					<path class="st9" d="M42.8,50.6c-0.2-0.1-0.5-0.1-0.8-0.2"/>
					<path class="st9" d="M40.6,49.9c-0.2,0-0.3,0.2-0.4,0.3"/>
					<path class="st13" d="M39.7,41.4c-0.3,0.5-0.1,1.1-0.5,1.6c-0.4,0.4-0.7,0.7-0.7,1.4"/>
				</g>
			</g>
			<g>
				<path class="st12" d="M43.8,52.4c-0.2,0-0.5,0.1-0.7,0.2c0,0.1,0.1,0.6,0.1,0.7c0.1-0.1,0.4-0.2,0.6-0.2V52.4z"/>
				<path class="st12" d="M44.8,52.5c-0.6-0.2-1-0.1-1,0.1c0,0.2,0,0.5,0,0.6c0,0.1,0.2,0.2,1,0V52.5z"/>
				<path class="st9" d="M44.8,53.1c-0.7-0.2-1-0.2-1,0"/>
				<path class="st12" d="M46.2,52.4c0.2,0,0.5,0.1,0.7,0.2c0,0.1-0.1,0.6-0.1,0.7c-0.1-0.1-0.4-0.2-0.6-0.2V52.4z"/>
				<path class="st12" d="M45.3,52.5c0.6-0.2,1-0.1,1,0.1c0,0.2,0,0.5,0,0.6c0,0.1-0.2,0.2-1,0V52.5z"/>
				<path class="st9" d="M45.3,53.1c0.7-0.2,1-0.2,1,0"/>
				<path class="st12" d="M45,52.4c0.3,0,0.4,0.1,0.4,0.4c0,0.3-0.1,0.4-0.4,0.4s-0.4-0.1-0.4-0.4C44.6,52.5,44.7,52.4,45,52.4z"/>
			</g>
			<g>
				<g>
					<path class="st13" d="M36.5,53.1c-0.1,0.1-0.2,0.3-0.3,0.5"/>
					<path class="st13" d="M36.6,53.2c-0.1,0.1-0.2,0.3-0.3,0.5"/>
					<path class="st13" d="M36.7,53.3c-0.1,0.1-0.2,0.3-0.3,0.5"/>
					<path class="st13" d="M36.8,53.4c-0.1,0.1-0.3,0.3-0.3,0.5"/>
					<path class="st13" d="M36.9,53.5c-0.1,0.1-0.3,0.3-0.3,0.5"/>
					<path class="st13" d="M37,53.6c-0.1,0.1-0.3,0.3-0.4,0.5"/>
					<path class="st13" d="M37.1,53.8c-0.1,0.1-0.3,0.3-0.4,0.5"/>
					<path class="st13" d="M37.1,53.9c-0.1,0.1-0.3,0.3-0.4,0.5"/>
					<path class="st13" d="M37.2,54c-0.1,0.1-0.3,0.3-0.4,0.5"/>
					<path class="st13" d="M37.3,54.1c-0.1,0.1-0.3,0.3-0.4,0.5"/>
				</g>
				<g>
					<path class="st13" d="M53.6,53.1c0.1,0.1,0.2,0.3,0.3,0.5"/>
					<path class="st13" d="M53.5,53.2c0.1,0.1,0.2,0.3,0.3,0.5"/>
					<path class="st13" d="M53.4,53.3c0.1,0.1,0.2,0.3,0.3,0.5"/>
					<path class="st13" d="M53.3,53.4c0.1,0.1,0.3,0.3,0.3,0.5"/>
					<path class="st13" d="M53.2,53.5c0.1,0.1,0.3,0.3,0.3,0.5"/>
					<path class="st13" d="M53.1,53.6c0.1,0.1,0.3,0.3,0.4,0.5"/>
					<path class="st13" d="M53,53.8c0.1,0.1,0.3,0.3,0.4,0.5"/>
					<path class="st13" d="M52.9,53.9c0.1,0.1,0.3,0.3,0.4,0.5"/>
					<path class="st13" d="M52.8,54c0.1,0.1,0.3,0.3,0.4,0.5"/>
					<path class="st13" d="M52.7,54.1c0.1,0.1,0.3,0.3,0.4,0.5"/>
				</g>
				<path class="st12" d="M45,51.9c1.7,0,3.1,0.1,4.2,0.3c-0.1,0.1-0.3,0.2-0.3,0.3c-0.1,0.1-0.1,0.3,0.2,0.5
					c0.2,0.2,0.8,0.4,1.3,0.1c0.1,0,0.2-0.1,0.3-0.1c-0.2,0.1-0.3,0.3-0.2,0.5c0.3,0.7,1.6-0.2,2.3,0.7c0.2-0.3,0.7-0.8,0.9-1
					c-0.4-0.5-1-0.4-1.5-0.4c0.2-0.3,0.2-0.5-0.2-0.8c-0.2-0.1-0.7-0.1-1.2,0.1c0.1-0.2,0.1-0.6-0.7-1c-1.2-0.5-3.2-0.6-5-0.6
					c-1.9,0-3.9,0.1-5,0.6c-0.8,0.3-0.8,0.7-0.7,1c-0.5-0.2-1-0.2-1.2-0.1c-0.4,0.3-0.4,0.5-0.2,0.8c-0.5,0-1.1-0.1-1.5,0.4
					c0.2,0.2,0.7,0.7,0.9,1c0.7-0.9,2,0,2.3-0.7c0.1-0.2-0.1-0.3-0.2-0.5c0.1,0,0.2,0.1,0.3,0.1c0.5,0.2,1.1,0.1,1.3-0.1
					c0.2-0.2,0.3-0.4,0.2-0.5c-0.1-0.1-0.2-0.2-0.3-0.3C41.9,52,43.3,51.9,45,51.9z"/>
				<path class="st9" d="M40.8,52.2c-0.1,0-0.2,0-0.3,0.1c-0.5,0.1-1.1,0.6-0.6,0.6"/>
				<path class="st9" d="M39.6,53.5c0.1-0.2-0.2-0.3-0.4-0.2c-0.2,0.1-0.4,0.1-0.7,0.1c-0.4,0-0.5-0.4-0.3-0.6
					c0.2-0.2,0.6,0,1.2,0.2"/>
				<path class="st9" d="M41.2,52.5c-0.1-0.1-0.3,0-0.5,0.1c-0.2,0.1-0.4,0.3-0.7,0.3c-0.3,0-0.4-0.2-0.6-0.6c0,0,0-0.1-0.1-0.1"/>
				<path class="st9" d="M37.9,52.8c0.1,0.1,0.2,0.3,0.3,0.4"/>
				<path class="st9" d="M49.2,52.2c0.1,0,0.2,0,0.3,0.1c0.5,0.1,1.1,0.6,0.6,0.6"/>
				<path class="st9" d="M50.4,53.5c-0.1-0.2,0.2-0.3,0.4-0.2c0.2,0.1,0.4,0.1,0.7,0.1c0.4,0,0.5-0.4,0.3-0.6
					c-0.2-0.2-0.6,0-1.2,0.2"/>
				<path class="st9" d="M48.8,52.5c0.1-0.1,0.3,0,0.5,0.1c0.2,0.1,0.4,0.3,0.7,0.3c0.3,0,0.4-0.2,0.6-0.6c0,0,0-0.1,0.1-0.1"/>
				<path class="st9" d="M52.1,52.8c-0.1,0.1-0.2,0.3-0.3,0.4"/>
			</g>
			<g>
				<g>
					<path class="st8" d="M45,50.9c0.1,0,0.2,0,0.2,0c0.1,0,0.2,0,0.2,0.3c0,0.2-0.1,0.4-0.2,0.4c-0.1,0-0.2,0-0.2,0v-0.4h0.1v0.2
						c0,0,0.1,0,0.1,0c0,0,0.1,0,0.1-0.2c0-0.2-0.1-0.2-0.1-0.2c0,0-0.1,0-0.1,0v0.2H45V50.9z"/>
				</g>
				<g>
					<path class="st8" d="M45.8,51.5c-0.1,0-0.2-0.1-0.2-0.3c0-0.2,0.1-0.3,0.2-0.3c0.1,0,0.2,0.1,0.2,0.3
						C46,51.4,45.9,51.5,45.8,51.5v0.1c0.2,0,0.3-0.1,0.3-0.4c0-0.2-0.1-0.4-0.3-0.4c-0.2,0-0.3,0.1-0.3,0.4c0,0.2,0.1,0.4,0.3,0.4
						V51.5z"/>
				</g>
				<g>
					<polygon class="st8" points="46.5,51.6 46.6,51.1 46.6,51.6 46.7,51.6 46.8,50.9 46.6,50.9 46.5,51.4 46.4,50.9 46.2,50.9 
						46.2,51.6 46.3,51.6 46.3,51.1 46.4,51.6 					"/>
				</g>
				<g>
					
						<rect x="46.6" y="51.2" transform="matrix(3.869291e-02 -0.9993 0.9993 3.869291e-02 -6.1236 96.1703)" class="st8" width="0.7" height="0.1"/>
				</g>
				<g>
					<polygon class="st8" points="47.2,50.9 47.4,51.4 47.5,50.9 47.6,51 47.5,51.7 47.4,51.7 47.2,51.1 47.2,51.6 47.1,51.6 
						47.1,50.9 					"/>
				</g>
				<g>
					
						<rect x="47.4" y="51.3" transform="matrix(8.279171e-02 -0.9966 0.9966 8.279171e-02 -7.3644 94.6467)" class="st8" width="0.7" height="0.1"/>
				</g>
				<g>
					<path class="st8" d="M48.4,51.3c0-0.1-0.1-0.3-0.2-0.3c-0.2,0-0.3,0.1-0.3,0.3c0,0.2,0.1,0.4,0.2,0.4c0.1,0,0.3-0.1,0.3-0.2
						l-0.1,0c0,0.1-0.1,0.1-0.1,0.1c-0.1,0-0.1-0.1-0.1-0.3c0-0.1,0.1-0.2,0.2-0.2c0.1,0,0.1,0.1,0.1,0.1L48.4,51.3z"/>
				</g>
				<g>
					<polygon class="st8" points="48.8,51.7 48.8,51.8 48.9,51.8 48.8,51.1 48.7,51.1 48.4,51.7 48.5,51.8 48.6,51.6 48.7,51.6 
						48.7,51.5 48.6,51.5 48.7,51.2 48.8,51.5 48.7,51.5 48.7,51.6 					"/>
				</g>
				<g>
					<polygon class="st8" points="49.3,51.2 49.4,51.7 49.5,51.2 49.6,51.3 49.4,52 49.3,51.9 49.2,51.4 49.1,51.9 49,51.9 
						49.1,51.2 					"/>
				</g>
				<g>
					<polygon class="st8" points="49.9,52 49.9,52.1 50,52.2 50,51.4 49.9,51.4 49.5,52 49.6,52 49.7,51.9 49.8,51.9 49.8,51.8 
						49.7,51.8 49.9,51.6 49.9,51.9 49.8,51.8 49.8,51.9 					"/>
				</g>
				<g>
					<path class="st8" d="M39.8,51.5l0.1,0.2l0.1,0l0-0.1c0,0,0.1,0,0.1-0.1c0,0,0.1,0,0.1,0.1c0,0.1,0,0.1,0,0.1
						c0,0-0.2,0.1-0.2,0.1l0-0.1l-0.1,0l0.2,0.5l0.1,0l-0.1-0.3c0,0,0.1,0,0.1,0c0.1,0,0.1,0,0.1,0.1c0,0.1,0.1,0.2,0.1,0.2l0.1,0
						c0,0-0.1-0.1-0.1-0.2c0-0.1-0.1-0.1-0.1-0.1c0,0,0.1-0.1,0-0.2c0-0.1-0.1-0.2-0.2-0.1C40,51.4,39.8,51.5,39.8,51.5z"/>
				</g>
				<g>
					<path class="st8" d="M41,51.1l0,0.3l0.1,0l0-0.1c0,0,0.1,0,0.1,0c0,0,0.1,0,0.1,0.1c0,0.1,0,0.1-0.1,0.1c-0.1,0-0.1,0-0.1,0
						l0-0.1l-0.1,0l0.1,0.4l0.1,0l0-0.3c0,0,0.1,0,0.1,0c0.1,0,0.1-0.2,0.1-0.3c0-0.1-0.1-0.2-0.2-0.2C41.1,51.1,41,51.1,41,51.1z"
						/>
				</g>
				<g>
					<path class="st8" d="M41.9,51.6c0.1,0,0.1-0.1,0.1-0.1c0-0.1-0.1-0.5-0.1-0.5l0.1,0c0,0,0,0.4,0.1,0.5c0,0.1,0,0.3-0.2,0.3
						c-0.2,0-0.2-0.1-0.3-0.2c0-0.1-0.1-0.5-0.1-0.5l0.1,0c0,0,0.1,0.4,0.1,0.5C41.7,51.6,41.8,51.6,41.9,51.6z"/>
				</g>
				<g>
					<path class="st8" d="M42.2,51.7c0,0,0.2,0,0.3,0c0.2,0,0.2-0.1,0.2-0.2c0-0.1,0-0.1-0.1-0.2c0,0,0.1-0.1,0-0.2
						c0-0.1-0.1-0.2-0.2-0.2c-0.2,0-0.2,0-0.2,0l0,0.2l0.1,0l0-0.1c0,0,0.1,0,0.1,0c0,0,0.1,0,0.1,0.1c0,0,0,0.1-0.1,0.1
						c-0.1,0-0.1,0-0.1,0l0-0.1l-0.1,0l0,0.3l0.1,0l0-0.1c0,0,0.1,0,0.2,0c0,0,0.1,0,0.1,0.1c0,0.1,0,0.1-0.1,0.1c0,0-0.2,0-0.2,0
						l0-0.1l-0.1,0L42.2,51.7z"/>
				</g>
				<g>
					<polygon class="st8" points="42.8,50.9 42.8,51.6 43.2,51.6 43.2,51.5 42.9,51.5 42.9,50.9 					"/>
				</g>
				<g>
					
						<rect x="43.3" y="50.9" transform="matrix(0.9987 -5.103993e-02 5.103993e-02 0.9987 -2.5598 2.2779)" class="st8" width="0.1" height="0.7"/>
				</g>
				<g>
					<path class="st8" d="M44,51.1c0-0.1-0.1-0.3-0.2-0.3c-0.2,0-0.3,0.2-0.3,0.4c0,0.2,0.1,0.4,0.3,0.4c0.1,0,0.3-0.1,0.3-0.3
						l-0.1,0c0,0.1,0,0.1-0.1,0.1c-0.1,0-0.1-0.1-0.1-0.2c0-0.1,0-0.2,0.1-0.2c0.1,0,0.1,0.1,0.1,0.1H44z"/>
				</g>
				<g>
					<polygon class="st8" points="44.4,51.4 44.4,51.6 44.6,51.6 44.4,50.9 44.2,50.9 44,51.6 44.2,51.6 44.2,51.5 44.3,51.4 
						44.3,51.3 44.2,51.3 44.3,51 44.4,51.3 44.3,51.3 44.3,51.4 					"/>
				</g>
				<g>
					<polygon class="st8" points="40.8,51.2 40.4,51.3 40.6,52 41,51.9 41,51.7 40.7,51.8 40.6,51.6 40.9,51.6 40.9,51.4 40.6,51.5 
						40.6,51.4 40.9,51.3 					"/>
				</g>
			</g>
			<g>
				<path class="st12" d="M37.2,42.4c0.3,0,0.3-0.4,0-0.4C37,42,37,42.1,37,42.3C37.1,42.3,37.2,42.3,37.2,42.4z"/>
				<path class="st12" d="M37.6,42.7c0.3,0,0.3-0.4,0-0.4c-0.1,0-0.2,0.1-0.2,0.2C37.4,42.5,37.5,42.6,37.6,42.7z"/>
				<path class="st12" d="M38.9,44.3c0-0.1-0.1-0.1-0.2-0.1c-0.3,0-0.3,0.4,0,0.4C38.8,44.5,38.9,44.4,38.9,44.3z"/>
				<path class="st12" d="M38.3,44.4c0.3,0,0.2-0.4-0.1-0.4c-0.1,0-0.1,0-0.1,0.1c0,0.1,0.1,0.2,0.1,0.2
					C38.3,44.3,38.3,44.4,38.3,44.4z"/>
				<g>
					<path class="st12" d="M37.3,46.7c-0.3,0-0.3,0.4,0,0.4C37.5,47.1,37.5,46.7,37.3,46.7z"/>
				</g>
				<path class="st12" d="M39,49.6c0.2-0.2,0-0.5-0.3-0.3c-0.1,0.1-0.1,0.2,0,0.3C38.8,49.5,38.9,49.5,39,49.6z"/>
				<path class="st12" d="M40,50.1c0.2-0.2,0-0.5-0.2-0.3c-0.1,0.1-0.1,0.1-0.1,0.2C39.7,50,39.9,50.1,40,50.1z"/>
				<path class="st12" d="M38.3,47.6c-0.3,0.1-0.4-0.3-0.1-0.4c0.1,0,0.1,0,0.1,0C38.3,47.3,38.3,47.5,38.3,47.6z"/>
				<path class="st12" d="M42.2,50.5c0.2-0.2-0.1-0.5-0.3-0.3c-0.1,0.1-0.1,0.2,0,0.2C42,50.4,42.1,50.5,42.2,50.5z"/>
				<path class="st12" d="M40.6,49.9c0-0.1,0-0.1-0.1-0.1c-0.2-0.1-0.4,0.2-0.2,0.4C40.3,50.1,40.5,49.9,40.6,49.9z"/>
			</g>
		</g>
	</g>
</g>
</svg>
