<?xml version="1.0" encoding="utf-8"?>
<!-- Generator: Adobe Illustrator 19.2.1, SVG Export Plug-In . SVG Version: 6.00 Build 0)  -->
<svg version="1.1" id="Layer_1" xmlns="http://www.w3.org/2000/svg" xmlns:xlink="http://www.w3.org/1999/xlink" x="0px" y="0px"
	 viewBox="0 0 90 90" style="enable-background:new 0 0 90 90;" xml:space="preserve">
<style type="text/css">
	.st0{clip-path:url(#SVGID_2_);}
	.st1{fill:#00693F;}
	.st2{fill:#F05C2A;}
	.st3{fill:#FFF100;}
	.st4{fill:#00A1E4;}
</style>
<title>Canada Flag</title>
<desc>Created with Sketch.</desc>
<g id="_x30_5-polar-projection">
	<g id="documents-copy-3" transform="translate(-2815.000000, -1677.000000)">
		<g>
			<g>
				<defs>
					<circle id="SVGID_1_" cx="2860" cy="1722" r="45"/>
				</defs>
				<clipPath id="SVGID_2_">
					<use xlink:href="#SVGID_1_"  style="overflow:visible;"/>
				</clipPath>
				<g class="st0">
					<rect x="2768.2" y="1677" class="st1" width="183.6" height="30.6"/>
					<rect x="2768.2" y="1736.4" class="st2" width="183.6" height="30.6"/>
					<rect x="2768.2" y="1705.8" class="st3" width="183.6" height="30.6"/>
					<circle class="st4" cx="2859.7" cy="1721.1" r="22.9"/>
					<polygon class="st3" points="2860,1729.8 2859.8,1739.4 2859.5,1739.4 2859.4,1729.8 					"/>
					<polygon class="st3" points="2868.1,1723.4 2877.2,1726.6 2877.1,1726.9 2867.9,1724 					"/>
					<polygon class="st3" points="2864.6,1713.8 2870.3,1706.1 2870.6,1706.3 2865.1,1714.1 					"/>
					<polygon class="st3" points="2854.3,1714.1 2848.7,1706.3 2849,1706.1 2854.8,1713.8 					"/>
					<polygon class="st3" points="2851.4,1724 2842.2,1726.9 2842.1,1726.6 2851.2,1723.4 					"/>
					<polygon class="st3" points="2858.4,1706.7 2855.6,1715.5 2842.4,1715.5 2844.9,1717.3 2855,1717.3 2853.8,1720.8 2855.4,1722 
						2859.4,1709.7 					"/>
					<polygon class="st3" points="2845.6,1717.8 2853.1,1723.2 2849,1735.8 2851.5,1734 2854.6,1724.4 2857.6,1726.6 2859.2,1725.4 
						2848.8,1717.8 					"/>
					<polygon class="st3" points="2852.2,1733.4 2859.7,1728.1 2870.4,1735.8 2869.4,1732.8 2861.2,1726.9 2864.2,1724.7 
						2863.7,1722.9 2853.2,1730.5 					"/>
					<polygon class="st3" points="2869.1,1732 2866.3,1723.2 2877,1715.5 2873.9,1715.5 2865.7,1721.4 2864.5,1717.9 2862.6,1717.9 
						2866.6,1730.1 					"/>
					<polygon class="st3" points="2872.9,1715.5 2863.8,1715.5 2859.7,1702.9 2858.7,1705.9 2861.8,1715.5 2858.1,1715.5 
						2857.5,1717.3 2870.4,1717.3 					"/>
				</g>
			</g>
		</g>
	</g>
</g>
</svg>
