<?xml version="1.0" encoding="utf-8"?>
<!-- Generator: Adobe Illustrator 19.2.1, SVG Export Plug-In . SVG Version: 6.00 Build 0)  -->
<svg version="1.1" id="Layer_1" xmlns="http://www.w3.org/2000/svg" xmlns:xlink="http://www.w3.org/1999/xlink" x="0px" y="0px"
	 viewBox="0 0 90 90" style="enable-background:new 0 0 90 90;" xml:space="preserve">
<style type="text/css">
	.st0{clip-path:url(#SVGID_2_);}
	.st1{fill:#5CC9E7;stroke:#000000;stroke-width:0.25;}
	.st2{fill:#171F69;stroke:#000000;stroke-width:0.25;}
	.st3{fill:#FFFFFF;stroke:#000000;stroke-width:0.25;}
	.st4{fill:#EC1C2E;stroke:#000000;stroke-width:0.25;stroke-linejoin:bevel;}
	.st5{fill:#EC1C2E;stroke:#000000;stroke-width:0.25;}
	.st6{fill:#EC1C2E;stroke:#000000;stroke-width:6.300000e-02;}
	.st7{fill:#FFFFFF;stroke:#000000;stroke-width:6.300000e-02;}
	.st8{fill:#B03427;stroke:#000000;stroke-width:6.300000e-02;}
	.st9{fill:none;stroke:#000000;stroke-width:6.300000e-02;}
	.st10{fill:#FFE152;stroke:#000000;stroke-width:6.300000e-02;}
	.st11{fill:#FFFFFF;stroke:#000000;stroke-width:6.250000e-02;}
	.st12{fill:none;stroke:#000000;stroke-width:6.250000e-02;}
	.st13{fill:#FFE152;stroke:#000000;stroke-width:6.250000e-02;}
	.st14{fill:#B03427;stroke:#000000;stroke-width:6.250000e-02;}
	.st15{fill:#009C57;stroke:#000000;stroke-width:6.250000e-02;}
	.st16{fill:#009C57;stroke:#000000;stroke-width:6.300000e-02;}
</style>
<g>
	<defs>
		<circle id="SVGID_1_" cx="45" cy="45" r="45"/>
	</defs>
	<clipPath id="SVGID_2_">
		<use xlink:href="#SVGID_1_"  style="overflow:visible;"/>
	</clipPath>
	<g class="st0">
		<g>
			<rect x="-17.7" y="-8.4" class="st1" width="121.5" height="145.9"/>
			<path class="st1" d="M43.1,64.5"/>
		</g>
		<rect x="-17.7" y="20.8" class="st2" width="60.7" height="30.4"/>
		<polygon class="st3" points="-17.7,30.9 -4.9,30.9 -17.7,24.5 -17.7,20.8 -10.3,20.8 7.6,29.7 7.6,20.8 17.7,20.8 17.7,29.7 
			35.6,20.8 43,20.8 43,24.5 30.1,30.9 43,30.9 43,41 30.1,41 43,47.5 43,51.2 35.6,51.2 17.7,42.2 17.7,51.2 7.6,51.2 7.6,42.2 
			-10.3,51.2 -17.7,51.2 -17.7,47.5 -4.9,41 -17.7,41 		"/>
		<g>
			<polygon class="st4" points="38.2,20.8 18,30.9 22.8,30.9 43,20.8 			"/>
			<polygon class="st4" points="43,51.2 22.8,41 27.7,41 43,48.7 			"/>
			<polygon class="st4" points="2.6,30.9 -17.7,20.8 -17.7,23.2 -2.3,30.9 			"/>
			<polygon class="st4" points="2.6,41 -17.7,51.2 -12.8,51.2 7.4,41 			"/>
			<polygon class="st5" points="-17.7,33 9.7,33 9.7,20.8 15.7,20.8 15.7,33 43,33 43,38.9 15.7,38.9 15.7,51.2 9.7,51.2 9.7,38.9 
				-17.7,38.9 			"/>
		</g>
		<g>
			<path class="st6" d="M83.9,37.5c0,0,0,13.5,0,17.4c0,3.8-5,7.7-10.4,10C68,62.5,63,58.7,63,54.9c0-3.8,0-17.4,0-17.4H83.9z"/>
			<g>
				<path class="st7" d="M71.5,63.9c-4.6-2.3-8.5-5.7-8.5-9.1h8.5V63.9z"/>
				<path class="st7" d="M63,50.9c0-2,0-4.3,0-6.4h8.5v6.4H63z"/>
				<path class="st7" d="M75.4,63.9c4.6-2.3,8.5-5.7,8.5-9.1h-8.5V63.9z"/>
				<path class="st7" d="M83.9,50.9c0-2,0-4.3,0-6.4h-8.5v6.4H83.9z"/>
			</g>
			<g>
				<g>
					<path class="st8" d="M80.5,56.2c0.4-0.4,1.5-0.4,1.8-0.2c0.1,0.1,0.2,0,0.2-0.3c0-0.3-0.1-0.4-0.5-0.4c-0.4,0-1.4,0-2.1,0.6
						C79.7,56.3,80.2,56.4,80.5,56.2z"/>
					<path class="st8" d="M77.5,60.1c-0.1,0.1-0.4,0.6-0.5,0.7c-0.1,0.2-0.2,0.3-0.6,0.4c-0.5,0.2-0.2,0.3-0.6,1
						c0.2,0,0.6-0.1,0.7-0.3c0.1,0.1,0.2,0.2,0.3,0.2c0-0.2,0.3-0.2,0.3-0.3c0,0.1,0.1,0.2,0.2,0.3c0-0.1,0.2-0.3,0.3-0.4
						c0-0.1-0.1-0.1-0.1-0.4c0-0.3-0.2-0.4,0.2-0.7C78,60.2,78,59.6,77.5,60.1z"/>
				</g>
				<g>
					<path class="st9" d="M82.4,56c-0.1-0.1-0.1-0.3-0.1-0.4c0-0.1,0.1-0.3,0.2-0.2"/>
					<path class="st9" d="M76.6,61.9c0,0,0-0.1,0-0.3"/>
					<path class="st9" d="M77.2,61.8c0-0.1,0.1-0.2,0.1-0.4"/>
				</g>
				<g>
					<path class="st10" d="M81.7,57.4c-0.3-0.2-0.5,0.3-0.8,0.6c-0.3,0.3-0.5,0.8-0.4,0.9c0.2,0.1,0.6-0.2,0.9-0.5
						C81.6,58.1,81.9,57.6,81.7,57.4z"/>
					<path class="st10" d="M81.5,57.1c-0.2-0.2-0.6,0.2-0.9,0.5c-0.3,0.3-0.6,0.7-0.5,0.9c0.2,0.1,0.7-0.1,0.9-0.4
						C81.4,57.8,81.8,57.3,81.5,57.1z"/>
					<path class="st10" d="M81.3,56.8c-0.2-0.2-0.6,0.2-0.9,0.5c-0.3,0.3-0.7,0.8-0.5,1c0.2,0.1,0.7-0.2,1-0.5
						C81.2,57.4,81.5,57,81.3,56.8z"/>
					<path class="st10" d="M80.9,56.4c-0.2-0.2-0.6,0.2-0.9,0.5c-0.3,0.3-0.6,0.8-0.4,1c0.2,0.1,0.6-0.2,0.9-0.5
						C80.8,57.1,81.1,56.6,80.9,56.4z"/>
					<path class="st10" d="M79.7,55.4c-0.3-0.2-0.5,0.3-0.8,0.6c-0.3,0.3-0.4,0.9-0.2,1.1c0.2,0.1,0.5-0.3,0.7-0.7
						C79.6,56.1,79.9,55.7,79.7,55.4z"/>
					<path class="st10" d="M80.2,55.7c-0.3-0.2-0.6,0.3-0.8,0.6c-0.3,0.3-0.5,0.9-0.3,1.1c0.2,0.1,0.5-0.3,0.7-0.6
						C80,56.4,80.4,55.9,80.2,55.7z"/>
					<path class="st10" d="M80.5,56c-0.3-0.2-0.6,0.3-0.8,0.6c-0.3,0.3-0.6,0.8-0.4,0.9c0.2,0.1,0.6-0.3,0.8-0.6
						C80.4,56.6,80.8,56.2,80.5,56z"/>
					<path class="st10" d="M78.6,56.7c-0.3-0.1-0.6,0.4-0.8,0.8c-0.2,0.4-0.2,1,0,1.1c0.2,0.1,0.5-0.4,0.7-0.8
						C78.6,57.3,78.9,56.8,78.6,56.7z"/>
					<path class="st10" d="M79,56.8c-0.3-0.2-0.6,0.4-0.8,0.8C78,58,77.8,58.8,78,58.9c0.2,0.1,0.7-0.6,0.8-1
						C79.1,57.5,79.4,57,79,56.8z"/>
					<path class="st10" d="M79.3,57.1c-0.3-0.2-0.5,0.4-0.7,0.7c-0.2,0.4-0.6,1-0.3,1.2c0.3,0.1,0.6-0.6,0.8-0.9
						C79.3,57.7,79.6,57.3,79.3,57.1z"/>
					<path class="st10" d="M80.8,58.8c-0.2-0.3-0.6,0.2-0.9,0.5c-0.3,0.2-0.8,0.4-0.6,0.7c0.2,0.2,0.6,0,1-0.3
						C80.5,59.4,81,59,80.8,58.8z"/>
					<path class="st10" d="M80.7,58.3c-0.3-0.3-0.7,0.4-1,0.7c-0.3,0.3-0.8,0.5-0.6,0.7c0.2,0.2,0.6-0.1,0.9-0.3
						C80.3,59,80.9,58.5,80.7,58.3z"/>
					<path class="st10" d="M80.3,57.8c-0.4-0.3-0.6,0.2-0.9,0.6c-0.3,0.3-0.9,1.1-0.6,1.3c0.2,0.2,0.8-0.6,1.1-0.9
						C80.2,58.4,80.6,58,80.3,57.8z"/>
					<path class="st10" d="M79.8,57.4c-0.4-0.2-0.5,0.3-0.7,0.7c-0.2,0.3-0.8,1.1-0.5,1.3c0.2,0.2,0.8-0.7,1-1
						C79.8,58,80.1,57.6,79.8,57.4z"/>
					<path class="st10" d="M77.7,58.2c-0.3-0.1-0.4,0.4-0.5,0.8c-0.1,0.4-0.2,0.8,0,0.9c0.2,0.1,0.4-0.4,0.5-0.8
						C77.7,58.8,78,58.3,77.7,58.2z"/>
					<path class="st10" d="M78,58.5c-0.3-0.1-0.4,0.4-0.6,0.8c-0.1,0.4-0.3,0.9-0.1,1c0.2,0.1,0.4-0.4,0.6-0.8
						C78,59.1,78.3,58.6,78,58.5z"/>
					<path class="st10" d="M79.5,59.9c-0.1-0.2-0.4,0-0.7,0.2c-0.2,0.2-0.5,0.4-0.5,0.6c0.1,0.2,0.5,0,0.7-0.2
						C79.3,60.4,79.7,60.1,79.5,59.9z"/>
					<path class="st10" d="M79.2,59.6c-0.3-0.3-0.4,0.2-0.7,0.4c-0.2,0.2-0.5,0.5-0.4,0.7c0.1,0.1,0.5-0.1,0.7-0.3
						C79.1,60.1,79.5,59.8,79.2,59.6z"/>
					<path class="st10" d="M79,59c-0.3-0.2-0.5,0.3-0.8,0.6c-0.3,0.3-0.6,0.8-0.5,0.9c0.2,0.1,0.6-0.2,0.9-0.5
						C78.9,59.7,79.2,59.3,79,59z"/>
					<path class="st10" d="M78.5,58.7c-0.4-0.2-0.5,0.3-0.7,0.7c-0.2,0.4-0.4,0.9-0.2,1c0.2,0.1,0.5-0.4,0.7-0.7
						C78.4,59.4,78.8,58.9,78.5,58.7z"/>
				</g>
			</g>
			<g>
				<g>
					<path class="st11" d="M64.8,40.2c0.8,0.9,1,2,0,3h-0.7c-1-1-0.8-2.1,0-3H64.8z"/>
					<path class="st12" d="M64.7,40.2c0.4,0.9,0.5,2,0,3h-0.4c-0.5-1-0.4-2.1,0-3H64.7z"/>
				</g>
				<path class="st13" d="M67.7,40.1c-0.5,0-1-0.3-1.3-0.5c-0.3-0.2-0.8-0.3-1.1-0.2c-0.5,0.3-0.5,0.4-0.7,0.4
					c-0.3-0.1-0.4-0.1-0.6,0.1c-0.3,0.2-0.3,0.5-0.2,0.6c0,0.1,0.1,0.1,0.2,0.1c0,0.1,0.1,0.1,0.2,0.1c0,0-0.1-0.1-0.1-0.1
					c0.1,0,0.1-0.1,0.1-0.1c0,0,0.1,0.1,0.1,0.1c0,0.1,0.1,0.2,0.2,0.2c0-0.1,0-0.2,0-0.2c0,0,0.1,0,0.1,0c0,0,0.1,0,0.1,0
					c0,0.1,0,0.2,0,0.2c0.1,0,0.2-0.1,0.2-0.2c0.2,0,0.3-0.1,0.3-0.3c0-0.2,0-0.3,0.1-0.3c0.1,0,0.6,0,0.7,0.1
					c0.2,0.1,0.7,0.6,0.9,0.6C67.8,40.8,68.2,40.1,67.7,40.1z"/>
				<path class="st13" d="M67.8,43.1c-0.2,0.2-0.7,0.4-1,0.6c-0.3,0.2-0.6,0.4-1.4,0c-0.1-0.1-0.3-0.1-0.5-0.1c-0.2,0-0.4,0-0.5-0.1
					c-0.2-0.2-0.2,0-0.5-0.1c-0.3-0.1-0.4-0.3-0.4-0.4c0,0-0.1-0.2,0-0.2c0,0.1,0.1,0.1,0.1,0.2c0.1,0,0.2,0,0.2,0
					c-0.1-0.2,0-0.4,0.1-0.4c0-0.1,0-0.2,0.1-0.3c0,0.1,0,0.2,0,0.3c0.1,0,0.1,0.1,0.1,0.1c0,0,0.1,0,0.1,0c0-0.1,0.1-0.2,0.2-0.2
					c-0.1,0.1,0,0.2,0,0.3c0.1,0,0.2,0.1,0.3,0.2c-0.1-0.1,0.1-0.2,0.1-0.3c0,0,0.1-0.2,0-0.3c0.1,0,0.2,0.2,0.2,0.4
					c0.2,0,0.2,0.3,0.2,0.4c0.1,0.1,0.2,0.1,0.3,0.2c0.1,0.1,0.5,0,0.7,0c0.2-0.1,0.6-0.4,0.9-0.7C67.9,42.1,68.3,42.6,67.8,43.1z"
					/>
				<path class="st13" d="M74.5,43.5c0,0.1,0,0.1,0,0.2c-0.2,0.1-0.2,0.2-0.2,0.4c0.1-0.1,0.2-0.2,0.4-0.2c0.2,0.2,0.4,0.2,0.6,0
					c0.1-0.1,0.2-0.2,0.5-0.1c0.4,0.1,1.5,0.1,2.3-0.7c-0.6-0.5-0.3-0.9,0-1c0.3-0.1,0.6-0.2,0.6-0.4c0.2,0.1,0.3,0.3,0.3,0.7
					c0.2-0.2,0.3-0.4,0.3-0.6c0.3,0.5,0.8,0.3,1,0.5c0-0.1,0-0.2,0-0.3c0.8,0.5,1.6-0.1,2,0.1c0.2,0.1,0.4,0.3,0.5,0.5
					c0.1,0.2,0.2,0.4,0,0.6c-0.2,0.3-0.5,0-0.6,0.2c-0.1-0.3-0.4-0.3-0.5,0c-0.2-0.3-0.4-0.2-0.6-0.1c-0.1,0.1-0.1,0.4,0.1,0.5
					C81,44,81,44.2,81.2,44.3c0-0.1,0-0.4,0.1-0.4c0,0.1,0.1,0.1,0.2,0.1c-0.1,0.2,0,0.4,0.3,0.5c0-0.1,0-0.4,0.1-0.5
					c0,0.1,0.2,0.1,0.3,0c-0.1,0.2,0.2,0.4,0.4,0.5c-0.1-0.1-0.1-0.4-0.1-0.5c0.2,0.1,0.3,0.1,0.3-0.2c0.1-0.4,0.8-0.4,0.8-0.9
					c0-0.3-0.3-0.2-0.6-1.2c-0.2-0.6-0.8-0.4-1.6-0.2c-1.5,0.3-1.5-0.8-2.1-1c1,0.2,1.4-0.7,1.7-1.1c0.2-0.4,0.9-0.1,0.9,0.3
					c0.3-0.5-0.3-1-0.9-0.7c0.1-0.1,0-0.3-0.2-0.4c-0.2-0.1-0.2-0.3-0.1-0.5c-0.3,0.1-0.5,0.3-0.3,0.7c-1.6-1.5-4.2,1.1-6.3,0.1
					c-0.1-1.4-2.7,0.8-2.4-0.7c-0.5,0.4,0,0.9,0.4,1c-0.4,0.3-0.2,0.7,0.2,0.9c-0.2-0.4-0.1-0.9,0.5-0.8c1,0.2,1.3,0.3,1.3-0.1
					c2.4,0.6,4.8-1.3,5.9-0.4c0.9,0.7-0.1,1.6-1.1,1.4c-2.2-1.6-4.3,1.4-7.8,0.8c-1-0.3-2.6,1.4-1.1,2c1.9,0.8,5.9-2.8,6.9-2.2
					c0.3,0.1,0.4,0.3,0.4,0.4c-0.2,0.4-0.8,0-1,0.5c0,0.1-0.2,0.3-0.3,0.4c0.2,0,0.4,0,0.6-0.1c-0.2,0.4-0.1,0.8,0.3,1.1
					c-0.5,0.3-1.1,0.3-1.4,0c-0.3-0.4-0.7-0.4-0.8-0.2c-0.1,0-0.2,0-0.3,0.1c0.1,0,0.2,0,0.2,0.1c-0.2,0-0.3,0.1-0.4,0.2
					c-0.1,0-0.2,0.2-0.3,0.3c0.1-0.1,0.2-0.1,0.3-0.1C74.4,43.4,74.5,43.5,74.5,43.5z"/>
				<path class="st13" d="M69.8,39.9c0.2,0.6,0.9,0.9,1.6,0.8c0,0.2-0.4,0.4-0.6,0.4c0.6,0.1,0.6,0.6,1.1,0.5
					c-0.3,0.5-0.9,0.5-1.3,0.3c0.3,0.1,0.6,0.4,0.8,0.8c-0.4,0.1-1.1,0.1-1.4-0.2c0,0.2,0.1,0.5,0.1,0.8c-0.2-0.4-1-0.6-1-1
					c-0.1,0.3-0.4,0.6-0.4,0.9c-0.2-0.3-0.4-0.4-0.3-0.8c-0.1,0.6-0.8,0.7-0.9,0.9c0-0.3,0-0.7,0.1-0.9c-0.3,0.2-0.7,0.4-1.1,0.2
					c0.5-0.2,0.4-0.9,0.9-1.1c-0.4,0.2-0.8,0.1-1-0.1c0.2,0,0.5-0.2,0.6-0.3c-0.3,0-0.7-0.1-0.9-0.4c0.3,0,0.8-0.2,1.2-0.5
					C67.5,40,69.6,39.2,69.8,39.9z"/>
				<path class="st13" d="M68.3,39.4c-0.2-0.1-0.4,0.2-0.7,0c0,0.1,0.1,0.3,0.3,0.4c-0.3,0-0.3,0.3-0.8,0.2c0.1,0.3,0.3,0.4,0.5,0.3
					c-0.2,0.1-0.4,0.5-0.6,0.4c0.1,0.2,0.5,0.3,0.7,0.2c-0.2,0.2,0,0.6-0.2,0.7c0.4,0.1,0.7-0.2,0.9-0.5c0,0.4,0.2,0.6,0.6,0.7
					c-0.1-0.3,0.1-0.5,0.1-0.8c0.1,0.2,0.4,0.2,0.6,0.4c0.1-0.2-0.1-0.3,0-0.8c0.1,0.1,0.3,0.2,0.5,0.2c-0.2-0.2-0.4-0.7-0.4-1.2
					C69.8,39.6,69,39.4,68.3,39.4z"/>
				<path class="st13" d="M68.3,40.8c-0.3,0-0.4-0.2-0.3-0.4c0.1-0.1,0.1-0.3,0.1-0.5c0-0.2,0-0.4,0.4-0.7c-0.2-0.1-0.1-0.3,0-0.4
					c0.1-0.1,0.3-0.1,0.3,0c0.3,0,0.8,0.3,1,0.6c0.1,0,0.3,0.1,0.2,0.3c0,0.2-0.2,0.3-0.4,0.2c-0.1,0.4-0.3,0.6-0.5,0.6
					c-0.2,0.1-0.3,0.2-0.4,0.3C68.7,41,68.5,41,68.3,40.8z"/>
				<path class="st13" d="M69.3,39.1c0.2,0.1,0.4,0.3,0.4,0.4c0,0.1,0.1,0,0.1,0c0.2-0.2,0.5-0.4,0.8-0.5c0.2,0,0.1-0.1,0-0.1
					c-0.1,0-0.1,0-0.3,0c0-0.1-0.1-0.2-0.2-0.2c-0.1,0.1-0.1,0.2,0,0.2c-0.2,0-0.4-0.2-0.4-0.5c0.1,0.1,0.2,0.1,0.3,0
					c0-0.1-0.1-0.2-0.1-0.2c0.1,0,0.2-0.2,0-0.3c-0.1-0.1-0.2,0.1-0.2,0.1c0-0.1-0.1-0.1-0.2,0c-0.1,0.1,0,0.2,0.1,0.2
					c-0.3,0.2-0.5,0-0.6-0.1c0.1,0,0.2,0,0.2-0.1c0-0.1-0.1-0.2-0.2-0.1c0-0.2-0.1-0.3-0.1-0.3c0,0-0.1-0.1-0.1,0.1
					c0.1,0.3,0,0.7-0.1,1c0,0.1,0,0.1,0,0.1C68.9,38.9,69.2,39,69.3,39.1z"/>
				<path class="st13" d="M68.7,40.4c0-0.1,0-0.2,0.1-0.3c-0.1,0.1-0.2,0.2-0.3,0.2c-0.2,0.2-0.4,0.5-0.2,0.6
					C68.4,41,68.6,40.6,68.7,40.4z"/>
				<g>
					<path class="st12" d="M78.2,41.4c0.1,0.1,0.3,0.1,0.4,0.2"/>
					<path class="st12" d="M75.1,43.4c-0.3-0.1-0.5,0-0.6,0.1"/>
					<path class="st12" d="M77.5,41.3c0.1,0.2-0.1,0.5-0.3,0.5c0.5,0.1,1.1-0.2,0.9-0.7"/>
					<path class="st12" d="M74.7,43c0.1,0,0.2,0,0.2,0.1"/>
					<path class="st12" d="M79.2,41.7c0-0.1-0.1-0.3-0.2-0.3"/>
					<path class="st12" d="M80.1,41.9c-0.1-0.1-0.2-0.1-0.2-0.2"/>
					<path class="st12" d="M81.6,43.3c0,0.1-0.1,0.3,0,0.3"/>
					<path class="st12" d="M82.1,43.4c0,0.1,0,0.2,0,0.3"/>
					<path class="st12" d="M64.6,40.5c-0.1,0-0.1-0.3,0.1-0.4"/>
					<path class="st12" d="M64.2,40.4c-0.1-0.1-0.1-0.4,0.1-0.5"/>
					<path class="st12" d="M64.3,42.6c-0.1,0-0.1,0.3,0.1,0.4"/>
					<path class="st12" d="M64,43c0,0.1,0.1,0.1,0.2,0.2"/>
					<path class="st12" d="M69,40c0,0.1-0.1,0.1-0.2,0c-0.1-0.1-0.1-0.1-0.1-0.2"/>
					<g>
						<path class="st12" d="M68.7,39.3c0.1,0.1,0.3,0,0.4,0.1"/>
						<path class="st12" d="M68.8,39.3c0,0-0.1,0.1,0,0.1"/>
						<path class="st12" d="M68.9,39.4c0,0.1,0,0.1-0.1,0.1"/>
						<path class="st12" d="M68.9,40.5c-0.2,0-0.3-0.2-0.1-0.5c-0.2,0.3-0.4,0.3-0.5,0.1"/>
						<path class="st12" d="M69.5,39.8c-0.1,0-0.2-0.2-0.3-0.2"/>
						<path class="st12" d="M69.4,39.7C69.4,39.8,69.4,39.8,69.4,39.7"/>
						<path class="st12" d="M69.3,39.6c-0.1,0-0.1,0.1-0.1,0.1"/>
					</g>
					<path class="st12" d="M69.9,39.3c-0.1-0.1-0.3-0.3-0.5-0.4c-0.1-0.1-0.4-0.2-0.6-0.2"/>
				</g>
			</g>
			<g>
				<path class="st14" d="M79.5,47.5c0.3,1.6,0,2.4-0.3,3.1c0.1,0,0.3-0.1,0.4-0.2c0,0.1,0,0.3,0.1,0.3c0.1-0.1,0.2-0.3,0.2-0.4
					c0.1,0.1,0.2,0.3,0.4,0.3c-0.3-0.7-0.3-2.5-0.3-3.2C80.1,47.3,79.5,47.2,79.5,47.5z"/>
				<path class="st15" d="M80.2,45.4c0.1-0.1,0.3-0.1,0.4-0.1c-0.2,0.2-0.3,0.5-0.4,0.7c0.4-0.6,1.4-0.8,1.5-1.1c0,0.1,0,0.2,0,0.3
					c0.2-0.1,0.3-0.3,0.5-0.2c-0.1,0.1-0.2,0.2-0.2,0.3c0.2-0.1,0.5-0.3,0.8-0.2c-0.1,0.1-0.2,0.2-0.3,0.3c0.2-0.1,0.4-0.2,0.7-0.1
					c-0.1,0-0.3,0.1-0.4,0.2c0.2,0,0.5,0,0.6,0.3c-0.2,0-0.5,0-0.6,0c0.2,0.1,0.2,0.3,0.3,0.5c-0.2-0.1-0.4-0.3-0.7-0.3
					c0.1,0.1,0.2,0.3,0.2,0.3c-0.2-0.2-0.5-0.4-0.8-0.4c0.1,0,0.2,0.2,0.3,0.3c-0.3-0.2-0.7-0.3-0.9-0.2c0.1,0,0.2,0.1,0.3,0.2
					c-0.1,0-0.5,0-0.6,0.1c0.9,0.2,1.9,0.7,1.5,2c0-0.2-0.1-0.6-0.2-0.8c0,0.2,0,0.5-0.2,0.6c0-0.2,0-0.5-0.1-0.6
					c0,0.1-0.1,0.3-0.2,0.3c0-0.2-0.1-0.5-0.3-0.6c0,0.2,0,0.4-0.1,0.5c0-0.1-0.1-0.4-0.2-0.5c0,0.1-0.1,0.2-0.2,0.3
					c-0.1-0.3-0.4-0.6-0.8-0.5c0.6,0.3,1.2,0.9,1.3,1.5c0,0.6,0,0.9-0.2,1.1c0-0.1,0-0.4,0-0.5c-0.1,0.1-0.1,0.3-0.3,0.4
					c0.1-0.1,0.1-0.4,0.1-0.6c-0.1,0.2-0.2,0.4-0.3,0.5c0.1-0.4,0.1-0.7,0.1-0.9c-0.1,0.2-0.2,0.3-0.3,0.4c0.1-0.2,0.1-0.6,0-0.8
					c0,0.1-0.1,0.3-0.2,0.4c0-0.2,0-0.5-0.2-0.7c0,0.1-0.1,0.2-0.2,0.2c0-0.2,0-0.4,0-0.5c0,0.1,0,0.3-0.1,0.5
					c0-0.1-0.1-0.4-0.1-0.5c0,0.5-0.2,0.8-0.2,1c-0.1-0.3-0.2-0.4-0.2-0.6c0,0.3-0.1,0.7-0.2,0.9c-0.1-0.2-0.1-0.4-0.2-0.6
					c0,0.6-0.2,1-0.2,1.2c-0.1-0.1-0.2-0.3-0.2-0.5c-0.1,0.3-0.2,0.6-0.2,0.7c-0.1-0.1-0.1-0.2-0.1-0.3c-0.1,0.1-0.2,0.3-0.2,0.4
					c-0.2-1.1,0.4-2.1,1.4-2.6c-0.1-0.1-0.4,0-0.6,0.2c0-0.1,0-0.3,0-0.4c-0.1,0.1-0.3,0.4-0.3,0.5c0-0.1-0.1-0.3-0.1-0.5
					c-0.1,0.2-0.3,0.5-0.3,0.7c0-0.1-0.1-0.4-0.1-0.5c-0.1,0.1-0.2,0.4-0.2,0.6c-0.1-0.1-0.1-0.3-0.2-0.4c-0.1,0.2-0.2,0.5-0.2,0.7
					c-0.1-0.1-0.2-0.4-0.2-0.5c-0.2,0.2-0.3,0.4-0.4,0.6c-0.2-1.1,0.9-2,2.8-1.6c-0.5-0.1-0.9-0.6-1.3-0.1c0-0.1-0.1-0.2,0-0.4
					c-0.2,0.1-0.4,0.3-0.5,0.4c0-0.1,0-0.4,0-0.5c-0.2,0.2-0.5,0.4-0.6,0.7c0-0.2,0-0.4,0-0.5c-0.1,0.1-0.4,0.3-0.4,0.4
					c0-0.2,0-0.6,0.1-0.7c-0.3,0.1-0.6,0.6-0.7,0.8c-0.1-0.3,0.1-0.8,0.2-1c-0.2,0-0.4,0-0.5,0.1c0.1-0.3,0.6-0.5,0.8-0.5
					c-0.1-0.1-0.2-0.3-0.3-0.4c0.2,0,0.5,0.1,0.7,0.3c0-0.1,0-0.4-0.1-0.5c0.2,0.1,0.4,0.2,0.5,0.4c0-0.1,0-0.3,0-0.4
					c0.2,0.1,0.4,0.3,0.5,0.5c0-0.1,0-0.3-0.1-0.4c0.1,0.1,0.3,0.3,0.4,0.5c0-0.1,0-0.3,0-0.4c0.2,0.2,0.4,0.4,0.5,0.7
					c0-0.1,0-0.3,0-0.4c0.2,0.1,0.4,0.6,0.6,0.9c0-0.1-0.1-0.4-0.2-0.5c0.1,0,0.2,0.1,0.2,0.1c-0.1-0.2-0.2-0.4-0.3-0.5
					c0.1,0.1,0.3,0.2,0.4,0.3c0-0.2,0-0.4,0-0.5c0.1,0.1,0.2,0.2,0.3,0.4c0-0.2,0.2-0.4,0.3-0.5C80.2,45.1,80.2,45.3,80.2,45.4z"/>
				<g>
					<path class="st12" d="M81.7,45.1c0,0-0.1,0.1-0.1,0.2"/>
					<path class="st12" d="M81,46.4c-0.2,0-0.5,0-0.7,0.1"/>
					<path class="st12" d="M81.1,47.3c0-0.1,0-0.2-0.1-0.3"/>
					<path class="st12" d="M81,48.9c0-0.1,0.1-0.3,0.1-0.4"/>
					<path class="st12" d="M81.2,49.2c0-0.1,0-0.3,0-0.3"/>
					<path class="st12" d="M80.5,48.1c0-0.1,0-0.2-0.1-0.3"/>
					<path class="st12" d="M80.8,48.5c0-0.1,0-0.3,0-0.4"/>
					<path class="st12" d="M80.2,47.8c0-0.1,0.1-0.2,0.1-0.3"/>
					<path class="st12" d="M78.5,48.9c0-0.1,0-0.4,0-0.5"/>
					<path class="st12" d="M78.2,49.3c0-0.1,0.1-0.4,0.1-0.6"/>
					<path class="st12" d="M77.7,47.3c0-0.1,0-0.2,0.1-0.3"/>
					<path class="st12" d="M77.3,47.5c0-0.1,0-0.3,0.1-0.3"/>
					<path class="st12" d="M78,47.1c0-0.1,0-0.2,0.1-0.2"/>
					<path class="st12" d="M78.4,47c0-0.1,0.1-0.2,0.1-0.2"/>
					<path class="st12" d="M78.8,46.9c0-0.1,0.1-0.1,0.1-0.2"/>
					<path class="st12" d="M79.5,46.1c0,0.1,0.1,0.4,0.2,0.5"/>
					<path class="st12" d="M77.3,45.6c0.8-0.1,1.8,0.3,2.3,0.8"/>
					<path class="st12" d="M82.5,45.7c-0.9-0.2-1.8,0.1-2.4,0.8"/>
					<path class="st12" d="M80.2,46c0,0.1-0.1,0.3-0.1,0.4"/>
					<path class="st12" d="M79.7,50.4c0-0.1,0-0.1,0-0.2"/>
				</g>
				<path class="st14" d="M80.2,47.8c-0.4,0-0.4,0.6,0,0.6C80.6,48.4,80.6,47.8,80.2,47.8z"/>
			</g>
			<g>
				<path class="st16" d="M66.5,55.9c-0.1,0-0.3,0-0.4,0c0,0.1-0.1,0.3-0.2,0.4c-0.1-0.2-0.3-0.6-0.5-0.7c0,0.1,0,0.4,0,0.5
					c-0.1-0.5-0.6-0.5-0.6-0.6c-0.1,0.2-0.1,0.3-0.1,0.5c-0.2-0.2-0.7-0.4-0.9-0.3c0.1,0.4,0.4,0.6,0.6,0.7c-0.2,0-0.5,0.1-0.6,0.3
					c0.3,0.2,0.6,0.3,0.9,0.2c-0.1,0.1-0.2,0.3-0.3,0.4c0.2,0.1,0.6,0,0.7-0.1C65,57.2,65,57.3,65,57.5c0.1,0,0.4,0,0.4-0.1
					c-0.2,0.3-0.3,0.9-0.2,1.1c0.3-0.2,0.6-0.5,0.7-0.8c0.1,0.1,0.3,0.3,0.5,0.3c-0.2-0.4,0.2-0.6,0-0.9c-0.2-0.3-0.3-0.4-0.4-0.5
					C66.1,56.5,66.5,56,66.5,55.9z"/>
				<path class="st7" d="M67.1,58.7c-0.2,0-0.3,0.1-0.3,0.4c0-0.1,0.1-0.1,0.2-0.1c0,0.1,0,0.2,0,0.3c0-0.1,0.2-0.2,0.2-0.2
					c0,0.1,0,0.2,0.1,0.3c0-0.1,0.1-0.2,0.2-0.3c0.1,0.1,0.2,0.1,0.3,0.2c-0.1,0.1-0.2,0.3-0.2,0.4c0.1-0.2,0.2-0.1,0.2,0.1
					c0.2-0.3,0.3-0.2,0.3,0.1c0.1-0.4,0.4-0.3,0.7-0.2c0.3,0.1,0.7,0.3,0.9,1c0.1,0.3,0.2,0.3,0.4,0.2c0.1,0.1,0.1,0.1,0.2,0
					c0.1,0,0.1-0.1,0.1-0.1c0.1,0.1,0.1,0.1,0.3,0c0.1-0.1,0.1-0.1,0.1-0.2c0.3-0.2,0.2-0.3,0-0.4c-0.2-0.1-0.4-0.2-0.5-0.3
					c-0.6-0.6-0.6-1.5-1-1.7c0.2-0.1,0.3-0.3,0.2-0.3c0.3-0.1,0.3-0.2,0.2-0.2c0,0-0.1,0-0.1,0c0.2,0,0.3-0.2,0.5-0.3
					c0.1-0.1,0.1-0.1,0-0.1c0.3-0.3,0.6-0.7,0.4-0.6c0.5-0.5,0.3-0.5,0.1-0.4c0.6-0.8,0.3-0.8,0.2-0.7c-0.3,0.4-1,0.7-1.6,0.7
					c0.1-0.1,0.2-0.2,0.2-0.3c0.1-0.2,0-0.2-0.1-0.1c0,0-0.1,0-0.1,0.1c0.1-0.1,0.3-0.3,0.3-0.5c0-0.2,0-0.2-0.1-0.1
					c-0.1,0.1-0.4,0.3-1,0.5c-0.6,0.2-0.5,0.7-0.3,0.9c0.2,0.2,0.3,0.3,0.2,0.5c-0.2-0.2-0.5-0.2-0.6-0.6c-0.1-0.3-0.1-0.5-0.4-0.6
					c0.1,0,0.2-0.2,0.3-0.4c-0.1,0.1-0.3,0.1-0.7,0c-0.4-0.1-0.7,0.1-0.7,0.4c-0.2,0.1-0.4,0.3-0.4,0.4c0.1,0,0.2-0.1,0.2-0.1
					c0.1,0,0.3,0,0.3,0c0.4,0.3,0.4,0.8,0.3,1.3C66.8,58,66.9,58.4,67.1,58.7z"/>
				<path d="M66.8,55.8c0.1,0,0.1,0.1,0.1,0.1C66.8,55.9,66.7,55.8,66.8,55.8z"/>
				<g>
					<path class="st9" d="M68.5,57.1C68.5,57.1,68.6,57.1,68.5,57.1"/>
					<path class="st9" d="M68.3,57.4c0.3-0.2,0.3-0.4,0.3-0.6c0-0.2,0-0.6,0.5-0.6c0,0,0.1,0,0.1,0"/>
					<path class="st9" d="M69.1,55.9c0.1-0.1,0.2-0.1,0.3-0.1"/>
					<path class="st9" d="M69.8,57.3c0.1,0,0.2-0.1,0.3-0.1c0,0,0.1,0,0.1,0"/>
					<path class="st9" d="M69.6,57.6c0,0,0.1,0,0.1,0"/>
					<path class="st9" d="M69.5,57.9C69.6,57.9,69.6,57.9,69.5,57.9"/>
					<path class="st9" d="M70.5,60.3c0.2,0.1,0.4,0.2,0.4,0.3"/>
					<path class="st9" d="M70.2,60.4c0.2,0.2,0.4,0.4,0.4,0.5"/>
					<path class="st9" d="M70,60.5c0.1,0.2,0.2,0.3,0.3,0.4"/>
					<path class="st9" d="M68.2,59.4c-0.1,0-0.2,0-0.3-0.1"/>
					<path class="st9" d="M67.1,58.7c0,0.1,0.1,0.1,0.1,0.2"/>
					<path class="st9" d="M67.6,59.1C67.6,59.1,67.5,59,67.6,59.1"/>
					<path class="st9" d="M68.7,57.5c0.2,0.1,0.4,0,0.4-0.2"/>
					<path class="st9" d="M69,57.3c0.4,0.2,0.6-0.3,0.3-0.5"/>
					<path class="st9" d="M69.3,56.9c0.2-0.1,0.3-0.4,0.1-0.5"/>
					<path class="st9" d="M70.7,56.2c-0.1,0-0.4,0.2-0.6,0.1"/>
					<path class="st9" d="M70.6,56.6c-0.1,0.1-0.3,0.2-0.6,0.2"/>
				</g>
			</g>
			<g>
				<g>
					<path class="st8" d="M68.9,48.4c-0.2,0.4-0.7,1.4-1,1.8c-0.1,0.2,0.5,0.5,0.6,0.2c0.3-0.7,0.7-1.7,0.9-1.9
						C69.5,48.3,69,48.1,68.9,48.4z"/>
					<path class="st8" d="M65.2,47.7c0.2,0.6,0.5,1.5,0.7,2.4c0.1,0.3,0.7,0.1,0.6-0.3c-0.2-0.8-0.6-1.9-0.8-2.4
						C65.7,47.3,65.2,47.4,65.2,47.7z"/>
					<path class="st8" d="M67,47.5c0,0.5,0,1.8,0,2.3c0,0.2,0.6,0.3,0.6,0c0-0.9-0.1-2-0.1-2.4C67.6,47.1,67,47.1,67,47.5z"/>
				</g>
				<g>
					<path class="st16" d="M65.8,47.6c0-0.5,0.3-1.4,0.6-1.5c0.3-0.2,0.8-0.6,1-0.9c-0.2,0.1-1,0.3-1.2,0.4c-0.8,0.3-0.8,1-0.8,1.8
						c0-0.5-0.1-0.9-0.6-1.5c-0.5-0.6-0.9-0.2-1,0.3c-0.2,0.4,0,0.6,0.2,0.9c0.1-0.4,0.2-0.8,0.4-0.7c0.3,0,0.6,0.6,0.7,1.3
						c-0.3-0.3-0.8-0.7-1.2-0.2c-0.5,0.5-0.2,0.7,0.1,1.2c0.1-0.5,0.1-0.6,0.3-0.8c0.3-0.2,0.8,0,1,0.3
						C65.5,48.5,65.8,48.1,65.8,47.6z"/>
					<path class="st16" d="M65.9,48.3c-0.8-0.7-1.6-0.2-1.8,0.5c-0.2,0.7,0.1,1,0.3,1.3c0.1-1.1,0.6-2,1.1-1.6
						C65.8,48.6,66.1,48.6,65.9,48.3z"/>
					<path class="st16" d="M67.5,48c0.2-0.3,0.6-0.7,0.6-0.2c0,0.6,0.4,0.6,0.6,0.6c-0.3-0.2-0.2-0.4-0.2-0.9c0-0.5-0.1-1.2-1-0.2
						c0.5-1.2,0.6-1.3,1.4-1.6c0.8-0.3,1-0.6,0.1-0.3c-0.9,0.3-1.5,0.5-1.6,1.5c0.1-0.6,0.2-0.8-0.1-1.1c-0.6-0.5-0.7-0.6-1.8-0.4
						c0.3,0.1,0.7,0.4,1.1,0.6c0.3,0.1,0.6,0.1,0.6,1.2c-0.1-0.4-0.4-0.9-0.8-0.2c-0.5,0.9-0.1,0.9,0.1,1.9c0.2-0.2,0.2-0.7,0.1-1
						c-0.1-0.3,0-0.3,0.1-0.5c0.1-0.2,0.2-0.2,0.3,0.2C67.1,47.9,67.3,48.2,67.5,48z"/>
					<path class="st16" d="M69.6,46.5c0.1-0.5-0.3-0.8-0.5-0.9c-0.3,0-0.8-0.1-1-0.4c0,0.5,0.4,0.9,0.7,1c0.3,0.1,0.4,0.4,0.4,0.7
						C69.1,48.6,69.5,49.2,69.6,46.5z"/>
					<path class="st16" d="M68.8,48.5c0.1-1.1-0.2-1.6,0.7-2.2c0.9-0.5,1.3-0.6,1.4,0.7c-0.3-0.1-0.5-0.3-0.6-0.4
						c-0.3,0.3-0.6,0.6-0.9,0.9c-0.1,0.6-0.1,0.9-0.2,1.2C69.2,48.9,68.8,48.9,68.8,48.5z"/>
					<path class="st16" d="M69,48.5c0.3-0.7,0.4-0.9,0.7-1.2c0.3-0.3,0.9-0.5,1.1,1.1c-0.3-0.2-0.6-0.5-0.7-0.6
						c-0.1-0.1-0.2,0-0.4,0.3C69.5,48.5,68.9,49,69,48.5z"/>
					<path class="st16" d="M68.8,48.6c0.4-0.7,0.9-0.5,1.2-0.2c0.4,0.5-0.2,1-0.1,1.5c-0.4,0-0.3-0.5-0.3-0.8c0-0.3-0.2-0.7-0.5-0.2
						C69.1,48.9,68.7,48.7,68.8,48.6z"/>
				</g>
			</g>
		</g>
	</g>
</g>
</svg>
