<?xml version="1.0" encoding="utf-8"?>
<!-- Generator: Adobe Illustrator 19.2.1, SVG Export Plug-In . SVG Version: 6.00 Build 0)  -->
<svg version="1.1" id="Layer_1" xmlns="http://www.w3.org/2000/svg" xmlns:xlink="http://www.w3.org/1999/xlink" x="0px" y="0px"
	 viewBox="0 0 90 90" style="enable-background:new 0 0 90 90;" xml:space="preserve">
<style type="text/css">
	.st0{clip-path:url(#SVGID_2_);}
	.st1{fill:#FFFFFF;}
	.st2{fill:#FF0000;}
</style>
<g>
	<defs>
		<circle id="SVGID_1_" cx="45" cy="45" r="45"/>
	</defs>
	<clipPath id="SVGID_2_">
		<use xlink:href="#SVGID_1_"  style="overflow:visible;"/>
	</clipPath>
	<g class="st0">
		<g>
			<defs>
				<rect id="SVGID_3_" x="-11.7" y="7.1" width="113.4" height="75.6"/>
			</defs>
			<clipPath id="SVGID_4_">
				<use xlink:href="#SVGID_3_"  style="overflow:visible;"/>
			</clipPath>
		</g>
		<g>
			<rect x="-11.6" y="-5.7" class="st1" width="113.4" height="108"/>
		</g>
		<g>
			<polygon class="st2" points="37.3,-7 37.3,37.6 -11.4,37.6 -11.4,52.9 37.3,52.9 37.3,97.5 52.6,97.5 52.6,52.9 101.7,52.9 
				101.7,37.6 52.6,37.6 52.6,-7 			"/>
		</g>
		<g>
			<g>
				<path d="M52.7,108H37.2v-55h-48.7V37.5h48.7v-54.5h15.5v54.5h49.5v15.5H52.7V108z M37.3,107.8h15.2v-55H102V37.6H52.5v-54.5
					H37.3v54.5h-48.7v15.2h48.7V107.8z"/>
			</g>
			<g>
				<path class="st2" d="M20,19.5c0,0-2.7,0.4-5.4,0.5c0.2-2.6,0.6-5.3,0.6-5.3h-5c0,0,0.4,2.6,0.5,5.3c-2.8-0.1-5.3-0.5-5.3-0.5v5
					c0,0,2.6-0.5,5.3-0.6c-0.1,2.8-0.5,5.4-0.5,5.4h5c0,0-0.5-2.7-0.7-5.4c2.6,0.2,5.5,0.6,5.5,0.6V19.5z"/>
			</g>
			<g>
				<path d="M15.3,29.4h-5.2l0-0.1c0,0,0.4-2.6,0.5-5.4c-2.6,0.2-5.2,0.6-5.2,0.6l-0.1,0v-5.2l0.1,0c0,0,2.5,0.4,5.2,0.5
					c-0.1-2.7-0.5-5.2-0.5-5.2l0-0.1h5.2l0,0.1c0,0-0.4,2.7-0.6,5.2c2.7-0.1,5.3-0.5,5.3-0.5l0.1,0v5.2l-0.1,0c0,0-2.8-0.4-5.4-0.6
					C14.8,26.7,15.2,29.3,15.3,29.4L15.3,29.4z M10.3,29.3h4.8c-0.1-0.5-0.5-2.9-0.6-5.4l0-0.1l0.1,0c2.4,0.2,4.9,0.5,5.4,0.6v-4.8
					c-0.5,0.1-2.9,0.4-5.3,0.5l-0.1,0l0-0.1c0.2-2.3,0.5-4.8,0.6-5.2h-4.8c0.1,0.5,0.4,2.8,0.5,5.2l0,0.1l-0.1,0
					c-2.5-0.1-4.8-0.4-5.2-0.5v4.8c0.5-0.1,2.8-0.5,5.2-0.6l0.1,0l0,0.1C10.6,26.4,10.3,28.8,10.3,29.3z"/>
			</g>
			<g>
				<path class="st2" d="M20,65.3c0,0-2.7,0.4-5.4,0.5c0.2-2.6,0.6-5.3,0.6-5.3h-5c0,0,0.4,2.6,0.5,5.3c-2.8-0.1-5.3-0.5-5.3-0.5v5
					c0,0,2.6-0.5,5.3-0.6c-0.1,2.8-0.5,5.4-0.5,5.4h5c0,0-0.5-2.7-0.7-5.4c2.6,0.2,5.5,0.6,5.5,0.6V65.3z"/>
			</g>
			<g>
				<path d="M15.3,75.1h-5.2l0-0.1c0,0,0.4-2.6,0.5-5.4c-2.6,0.2-5.2,0.6-5.2,0.6l-0.1,0v-5.2l0.1,0c0,0,2.5,0.4,5.2,0.5
					c-0.1-2.7-0.5-5.2-0.5-5.2l0-0.1h5.2l0,0.1c0,0-0.4,2.7-0.6,5.2c2.7-0.1,5.3-0.5,5.3-0.5l0.1,0v5.2l-0.1,0c0,0-2.8-0.4-5.4-0.6
					C14.8,72.4,15.2,75,15.3,75.1L15.3,75.1z M10.3,75h4.8c-0.1-0.5-0.5-2.9-0.6-5.4l0-0.1l0.1,0c2.4,0.2,4.9,0.5,5.4,0.6v-4.8
					c-0.5,0.1-2.9,0.4-5.3,0.5l-0.1,0l0-0.1c0.2-2.3,0.5-4.8,0.6-5.2h-4.8c0.1,0.5,0.4,2.8,0.5,5.2l0,0.1l-0.1,0
					c-2.5-0.1-4.8-0.4-5.2-0.5v4.8c0.5-0.1,2.8-0.5,5.2-0.6l0.1,0l0,0.1C10.6,72.2,10.3,74.5,10.3,75z"/>
			</g>
			<g>
				<path class="st2" d="M84.5,19.5c0,0-2.7,0.4-5.4,0.5c0.2-2.6,0.6-5.3,0.6-5.3h-5c0,0,0.4,2.6,0.5,5.3c-2.8-0.1-5.3-0.5-5.3-0.5
					v5c0,0,2.6-0.5,5.3-0.6c-0.1,2.8-0.5,5.4-0.5,5.4h5c0,0-0.5-2.7-0.7-5.4c2.6,0.2,5.5,0.6,5.5,0.6V19.5z"/>
			</g>
			<g>
				<path d="M79.8,29.4h-5.2l0-0.1c0,0,0.4-2.6,0.5-5.4c-2.6,0.2-5.2,0.6-5.2,0.6l-0.1,0v-5.2l0.1,0c0,0,2.5,0.4,5.2,0.5
					c-0.1-2.7-0.5-5.2-0.5-5.2l0-0.1h5.2l0,0.1c0,0-0.4,2.7-0.6,5.2c2.7-0.1,5.3-0.5,5.3-0.5l0.1,0v5.2l-0.1,0c0,0-2.8-0.4-5.4-0.6
					C79.3,26.7,79.8,29.3,79.8,29.4L79.8,29.4z M74.8,29.3h4.8c-0.1-0.5-0.5-2.9-0.6-5.4l0-0.1l0.1,0c2.4,0.2,4.9,0.5,5.4,0.6v-4.8
					c-0.5,0.1-2.9,0.4-5.3,0.5l-0.1,0l0-0.1c0.2-2.3,0.5-4.8,0.6-5.2h-4.8c0.1,0.5,0.4,2.8,0.5,5.2l0,0.1l-0.1,0
					c-2.5-0.1-4.8-0.4-5.2-0.5v4.8c0.5-0.1,2.8-0.5,5.2-0.6l0.1,0l0,0.1C75.2,26.4,74.8,28.8,74.8,29.3z"/>
			</g>
			<g>
				<path class="st2" d="M84.5,65.3c0,0-2.7,0.4-5.4,0.5c0.2-2.6,0.6-5.3,0.6-5.3h-5c0,0,0.4,2.6,0.5,5.3c-2.8-0.1-5.3-0.5-5.3-0.5
					v5c0,0,2.6-0.5,5.3-0.6c-0.1,2.8-0.5,5.4-0.5,5.4h5c0,0-0.5-2.7-0.7-5.4c2.6,0.2,5.5,0.6,5.5,0.6V65.3z"/>
			</g>
			<g>
				<path d="M79.8,75.1h-5.2l0-0.1c0,0,0.4-2.6,0.5-5.4c-2.6,0.2-5.2,0.6-5.2,0.6l-0.1,0v-5.2l0.1,0c0,0,2.5,0.4,5.2,0.5
					c-0.1-2.7-0.5-5.2-0.5-5.2l0-0.1h5.2l0,0.1c0,0-0.4,2.7-0.6,5.2c2.7-0.1,5.3-0.5,5.3-0.5l0.1,0v5.2l-0.1,0c0,0-2.8-0.4-5.4-0.6
					C79.3,72.4,79.8,75,79.8,75.1L79.8,75.1z M74.8,75h4.8c-0.1-0.5-0.5-2.9-0.6-5.4l0-0.1l0.1,0c2.4,0.2,4.9,0.5,5.4,0.6v-4.8
					c-0.5,0.1-2.9,0.4-5.3,0.5l-0.1,0l0-0.1c0.2-2.3,0.5-4.8,0.6-5.2h-4.8c0.1,0.5,0.4,2.8,0.5,5.2l0,0.1l-0.1,0
					c-2.5-0.1-4.8-0.4-5.2-0.5v4.8c0.5-0.1,2.8-0.5,5.2-0.6l0.1,0l0,0.1C75.2,72.2,74.8,74.5,74.8,75z"/>
			</g>
		</g>
	</g>
</g>
</svg>
