<?xml version="1.0" encoding="utf-8"?>
<!-- Generator: Adobe Illustrator 19.2.1, SVG Export Plug-In . SVG Version: 6.00 Build 0)  -->
<svg version="1.1" id="Layer_1" xmlns="http://www.w3.org/2000/svg" xmlns:xlink="http://www.w3.org/1999/xlink" x="0px" y="0px"
	 viewBox="0 0 90 90" style="enable-background:new 0 0 90 90;" xml:space="preserve">
<style type="text/css">
	.st0{clip-path:url(#SVGID_2_);}
	.st1{fill:#3697D3;stroke:#000000;stroke-width:0.25;}
	.st2{fill:#FFFFFF;stroke:#000000;stroke-width:0.25;}
	.st3{fill:#23913C;stroke:#000000;stroke-width:0.125;}
	.st4{fill:none;stroke:#000000;stroke-width:0.125;stroke-linecap:round;}
	.st5{fill:#EC1C2E;}
	.st6{fill:none;stroke:#000000;stroke-width:0.125;stroke-linecap:round;stroke-linejoin:round;}
	.st7{fill:#C3B8AF;stroke:#000000;stroke-width:0.125;stroke-linecap:round;stroke-linejoin:round;}
	.st8{fill:#7B2D19;stroke:#000000;stroke-width:0.125;stroke-linecap:round;stroke-linejoin:round;}
	.st9{fill:#FFCE46;stroke:#000000;stroke-width:0.125;stroke-linecap:round;stroke-linejoin:round;}
	.st10{fill:none;stroke:#000000;stroke-width:6.300000e-02;stroke-linecap:round;stroke-linejoin:round;}
	.st11{fill:#EC1C2E;stroke:#000000;stroke-width:0.125;stroke-linecap:round;stroke-linejoin:round;}
	.st12{fill:#23913C;stroke:#000000;stroke-width:0.125;stroke-linecap:round;stroke-linejoin:round;}
	.st13{fill:#FFF100;}
	.st14{fill:#FFFBD4;stroke:#000000;stroke-width:0.125;}
	.st15{fill:#FFFBD4;}
	.st16{fill:#23913C;stroke:#000000;stroke-width:0.125;stroke-linecap:round;}
	.st17{fill:none;stroke:#FFCE46;stroke-width:0.25;stroke-linecap:round;stroke-linejoin:round;}
</style>
<g>
	<defs>
		<circle id="SVGID_1_" cx="45" cy="45" r="45"/>
	</defs>
	<clipPath id="SVGID_2_">
		<use xlink:href="#SVGID_1_"  style="overflow:visible;"/>
	</clipPath>
	<g class="st0">
		<g>
			<rect x="-39.9" y="-8" class="st1" width="56.6" height="106.1"/>
			<rect x="73.3" y="-8" class="st1" width="56.6" height="106.1"/>
		</g>
		<rect x="16.7" y="-8" class="st2" width="56.6" height="106.1"/>
		<g>
			<g>
				<g>
					<g>
						<path class="st3" d="M43,59.6c-2.3-0.9-3.2-3.4-3-4.7c0.1-0.6,0.4-0.9,0.6,0c0.3,1.1,1.1,0.9,1.8,3c0.3,1.1,0.6,1.3,2.1,2"/>
						<path class="st3" d="M42.6,59.8c-4.2-0.6-4.1,1.3-6.2,1.9c-0.6,0.2-0.8,0.5,0.2,0.6c4.3,0.4,4.9-2.8,7.3-1.8"/>
						<path class="st3" d="M38,58.2c-1.3-0.6-3.5-1.4-4.8-1c-1.3,0.4-1.6,0.6-0.5,1.1c3.5,1.7,4.9,0.1,6.4,0.4"/>
						<path class="st3" d="M36.5,57.3c-2.5-1.8-2.1-2.9-2.7-3.9c-0.7-1-0.6-1.3,0.3-0.7c3.1,2.1,1.8,3.7,3,4.4"/>
						<path class="st3" d="M33.6,54.6c-2.3-3.1-0.3-3.9-0.5-4.7c-0.2-0.8,0-0.9,0.5,0c1.2,2.6-0.9,3.5,0.6,4.9"/>
						<path class="st3" d="M30.4,50c-0.6-1.3-1.9-1.7-2.4-1.6c-0.6,0.1-1.3,0.2-1.7,0c-0.4-0.1-0.4,0.5,0.7,1
							c1.2,0.5,3.7,1.5,4.3,2.5"/>
						<path class="st3" d="M29.2,43.9c0.1-1.4,0.3-2.3,1.2-3c0.9-0.8,1.3-0.9,1-0.2c-0.7,1.4-0.3,2.4-1.9,4.5"/>
						<path class="st3" d="M29.4,41.1C29.3,39,28.2,39,27.8,38c-0.3-1-0.6-0.2-0.4,0.8c0.2,1.5,1.8,2.5,1.8,3.9"/>
						<path class="st3" d="M29.4,42.2c0.1-1.4-0.1-2.5-0.6-3.3c-0.5-0.8-0.3,0.2-0.8,1.1c-0.5,1-0.3,3.2,1.2,4.9"/>
						<path class="st3" d="M30,38.3c0.1-2.8-1-2.8-1.4-4c-0.3-1.2-0.4-0.9-0.6,0c-0.7,4.5,1.7,4,1.5,5.7"/>
						<path class="st3" d="M31.2,34.7c0.3-1.8-0.4-2.3,0.3-3.4c0.3-0.6,0.9-1.3,0.7-0.4C32.2,31.8,32.3,33.3,31.2,34.7z"/>
						<path class="st3" d="M30.1,37.6c0.3-2.2-1.3-4.1-0.1-6c0.6-1,0.9-1.1,0.9-0.3c-0.1,1.4,1.3,3-0.5,5.8"/>
						<g>
							<path class="st3" d="M41.4,58.9c3.1,0.8,4.7,1.5,5.6,2.5c0,0.4,0,0.9-0.1,1.1c-2.4-2.5-5-2-8.4-3.9
								C26.9,52,27.9,42,31.2,34.7c0.4-1,0.9-1.9,1-2.9c0.1-1.1,1-1.8,2.2-2.1c1-0.3,0.7,0.1,0.3,0.5c-0.7,0.8-0.2,1.8-2.1,3.1
								c-0.5,0.3-0.7,0.8-1,1.5C25.8,48.2,33,56.6,41.4,58.9z"/>
						</g>
						<path class="st3" d="M30.3,37.8c0.3-0.9,1.1-2.8,2.3-3.1c1.2-0.3,2.3-0.9,2.9-2.5c0.2-0.6,0.6-1.8-0.2-0.8
							c-0.8,1-2.3,0.2-3.8,3.3c-0.3,0.6-1,1.8-1.5,3.5"/>
						<path class="st3" d="M29.8,38.3c0.8-2.8,2.4-2.4,3.1-3.4c0.8-1,1.1-1,0.6,0.3c-1.1,3.2-3.4,3-3.8,4.5"/>
						<path class="st3" d="M29.7,40c0.8-2.9,2.8-2.5,3.6-3.7c0.8-1.2,1.2-1.4,1,0.1c-0.4,3.9-4.4,2.5-4.7,4.6"/>
						<path class="st3" d="M29.1,42.1c0.3-3.1,2.8-2.7,3.6-3.6c0.3-0.3,0.5,0.5-0.1,1.3c-1.4,2-2.9,0.6-3.1,2.7"/>
						<path class="st3" d="M29.6,46c-0.3-3.1-2.3-4.1-2.8-5.2c-0.5-1.2-0.4,0.3-0.3,0.9c0.6,4.1,2.2,2.7,2.7,5"/>
						<path class="st3" d="M29.3,47c-0.4-2.2,0.3-3.8,1.6-4.7c1.2-0.9,0.9-0.4,0.8,0.4c-0.5,3.7-2.3,2.2-1.8,4.9"/>
						<path class="st3" d="M29.8,47.7c-0.6-2.1-2.2-3-3.3-3.1c-1.2-0.1-0.3,0.4-0.1,0.8c1,2.4,2.8,1.4,3.4,3.3"/>
						<path class="st3" d="M32.1,52.6C31,51,31.2,49.9,30.2,49c-1.1-0.9-1.9-1-2.5-1.6c-0.6-0.6-0.6,0.1-0.1,1.2
							c1.2,2.4,2.9,2.1,3.9,3.8"/>
						<path class="st3" d="M31.5,51.6c-0.5-1-0.1-3.9,0.2-5.4c0.3-1.5,0.1-1.7-0.6-0.9c-0.9,1-2.1,2.4,0.2,6.3"/>
						<path class="st3" d="M32,52.7c-2.2-2.7-3.8-1.6-4.9-2.3c-1.1-0.6-0.5,0.4-0.2,0.7c3.2,3.2,3.6,0.7,5.4,2.5"/>
						<path class="st3" d="M31.8,52.4c-1.1-1.7-1.1-3.4-0.3-4.9c0.7-1.4,0.9-1,0.8,0.1c-0.1,1,0.8,1.4,0.2,3.4
							c-0.2,0.6-0.3,2,0.5,2.9"/>
						<path class="st3" d="M34.5,55.5c-0.9-1.1-1.7-2.1-3.1-2.2c-1.4-0.2-1.9-0.4-1.2,0.5c2.5,3,3.8,1.7,5,2.6"/>
						<path class="st3" d="M36.1,56.5c-1.1-0.7-3.3-1.2-4.9-0.9c-0.9,0.2-0.6,0.3,0,0.5c1.2,0.4,1.5,1.6,4.1,1.4
							c0.5,0,1-0.2,1.9,0.3"/>
						<path class="st3" d="M37.2,57.5c-1.3-0.8-2.1-2.7-2.3-4.6c-0.1-1,0.2-1.5,0.6-0.4c0.6,1.4,1.5,1.3,2.2,3.4
							c0.6,1.9,0.9,2.1,1.9,2.4"/>
						<path class="st3" d="M40.3,58.8c-1.7-0.9-2.6-2.4-2.8-4.1c-0.2-1.6,0.2-1.3,0.7-0.4c0.5,0.9,1.5,0.8,2.1,2.8
							c0.2,0.6,0.7,1.7,2,2.1"/>
						<path class="st3" d="M42,59.4c-2.7-0.8-5.1-0.7-6.6,0.3c-0.7,0.5-0.5,0.7,0.1,0.6c1.8-0.3,2.5,0.7,4.7-0.2
							c0.5-0.2,1.3-0.4,3,0.2"/>
					</g>
					<g>
						<path class="st3" d="M46.9,59.6c2.3-0.9,3.2-3.4,3-4.7c-0.1-0.6-0.4-0.9-0.6,0c-0.3,1.1-1.1,0.9-1.8,3c-0.3,1.1-0.6,1.3-2.1,2
							"/>
						<path class="st3" d="M47.3,59.8c4.2-0.6,4.1,1.3,6.2,1.9c0.6,0.2,0.8,0.5-0.2,0.6c-4.3,0.4-4.9-2.8-7.3-1.8"/>
						<path class="st3" d="M51.9,58.2c1.3-0.6,3.5-1.4,4.8-1c1.3,0.4,1.6,0.6,0.5,1.1c-3.5,1.7-4.9,0.1-6.4,0.4"/>
						<path class="st3" d="M53.4,57.3c2.5-1.8,2.1-2.9,2.7-3.9c0.7-1,0.6-1.3-0.3-0.7c-3.1,2.1-1.8,3.7-3,4.4"/>
						<path class="st3" d="M56.4,54.6c2.3-3.1,0.3-3.9,0.5-4.7c0.2-0.8,0-0.9-0.5,0c-1.2,2.6,0.9,3.5-0.6,4.9"/>
						<path class="st3" d="M59.6,50c0.6-1.3,1.9-1.7,2.4-1.6c0.6,0.1,1.3,0.2,1.7,0c0.4-0.1,0.4,0.5-0.7,1c-1.2,0.5-3.7,1.5-4.3,2.5
							"/>
						<path class="st3" d="M60.7,43.9c-0.1-1.4-0.3-2.3-1.2-3c-0.9-0.8-1.3-0.9-1-0.2c0.7,1.4,0.3,2.4,1.9,4.5"/>
						<path class="st3" d="M60.5,41.1c0.2-2.1,1.3-2.1,1.6-3.1c0.3-1,0.6-0.2,0.4,0.8c-0.2,1.5-1.8,2.5-1.8,3.9"/>
						<path class="st3" d="M60.6,42.2c-0.1-1.4,0.1-2.5,0.6-3.3c0.5-0.8,0.3,0.2,0.8,1.1c0.5,1,0.3,3.2-1.2,4.9"/>
						<path class="st3" d="M59.9,38.3c-0.1-2.8,1-2.8,1.4-4c0.3-1.2,0.4-0.9,0.6,0c0.7,4.5-1.7,4-1.5,5.7"/>
						<path class="st3" d="M58.7,34.7c-0.3-1.8,0.4-2.3-0.3-3.4c-0.3-0.6-0.9-1.3-0.7-0.4C57.8,31.8,57.6,33.3,58.7,34.7z"/>
						<path class="st3" d="M59.8,37.6c-0.3-2.2,1.3-4.1,0.1-6c-0.6-1-0.9-1.1-0.9-0.3c0.1,1.4-1.3,3,0.5,5.8"/>
						<g>
							<path class="st3" d="M48.6,58.9c-3.1,0.8-4.7,1.5-5.6,2.5c0,0.4,0,0.9,0.1,1.1c2.4-2.5,5-2,8.4-3.9C63,52,62,42,58.8,34.7
								c-0.4-1-0.9-1.9-1-2.9c-0.1-1.1-1-1.8-2.2-2.1c-1-0.3-0.7,0.1-0.3,0.5c0.7,0.8,0.2,1.8,2.1,3.1c0.5,0.3,0.7,0.8,1,1.5
								C64.1,48.2,56.9,56.6,48.6,58.9z"/>
						</g>
						<path class="st3" d="M59.6,37.8c-0.3-0.9-1.1-2.8-2.3-3.1c-1.2-0.3-2.3-0.9-2.9-2.5c-0.2-0.6-0.6-1.8,0.2-0.8
							c0.8,1,2.3,0.2,3.8,3.3c0.3,0.6,1,1.8,1.5,3.5"/>
						<path class="st3" d="M60.1,38.3c-0.8-2.8-2.4-2.4-3.1-3.4c-0.8-1-1.1-1-0.6,0.3c1.1,3.2,3.4,3,3.8,4.5"/>
						<path class="st3" d="M60.3,40c-0.8-2.9-2.8-2.5-3.6-3.7c-0.8-1.2-1.2-1.4-1,0.1c0.4,3.9,4.5,2.5,4.7,4.6"/>
						<path class="st3" d="M60.8,42.1c-0.3-3.1-2.8-2.7-3.6-3.6c-0.3-0.3-0.5,0.5,0.1,1.3c1.4,2,2.9,0.6,3.1,2.7"/>
						<path class="st3" d="M60.3,46c0.3-3.1,2.3-4.1,2.8-5.2c0.5-1.2,0.4,0.3,0.3,0.9c-0.6,4.1-2.2,2.7-2.7,5"/>
						<path class="st3" d="M60.7,47c0.4-2.2-0.3-3.8-1.6-4.7c-1.2-0.9-0.9-0.4-0.8,0.4c0.5,3.7,2.3,2.2,1.8,4.9"/>
						<path class="st3" d="M60.1,47.7c0.6-2.1,2.2-3,3.3-3.1c1.2-0.1,0.3,0.4,0.1,0.8c-1,2.4-2.8,1.4-3.4,3.3"/>
						<path class="st3" d="M57.8,52.6c1.1-1.5,0.9-2.7,1.9-3.6c1.1-0.9,1.9-1,2.5-1.6c0.6-0.6,0.6,0.1,0.1,1.2
							c-1.2,2.4-2.9,2.1-3.9,3.8"/>
						<path class="st3" d="M58.5,51.6c0.5-1,0.1-3.9-0.2-5.4c-0.3-1.5-0.1-1.7,0.6-0.9c0.9,1,2.1,2.4-0.2,6.3"/>
						<path class="st3" d="M57.9,52.7c2.2-2.7,3.8-1.6,4.9-2.3c1.1-0.6,0.5,0.4,0.2,0.7c-3.2,3.2-3.6,0.7-5.4,2.5"/>
						<path class="st3" d="M58.1,52.4c1.1-1.7,1.1-3.4,0.3-4.9c-0.7-1.4-0.9-1-0.8,0.1c0.1,1-0.8,1.4-0.2,3.4c0.2,0.6,0.3,2-0.5,2.9
							"/>
						<path class="st3" d="M55.5,55.5c0.9-1.1,1.7-2.1,3.1-2.2c1.4-0.2,1.9-0.4,1.2,0.5c-2.5,3-3.8,1.7-5,2.6"/>
						<path class="st3" d="M53.8,56.5c1.1-0.7,3.3-1.2,4.9-0.9c0.9,0.2,0.6,0.3,0,0.5c-1.2,0.4-1.5,1.6-4.1,1.4
							c-0.5,0-1-0.2-1.9,0.3"/>
						<path class="st3" d="M52.7,57.5c1.3-0.8,2.1-2.7,2.3-4.6c0.1-1-0.2-1.5-0.6-0.4c-0.6,1.4-1.5,1.3-2.2,3.4
							c-0.6,1.9-0.9,2.1-1.9,2.4"/>
						<path class="st3" d="M49.6,58.8c1.7-0.9,2.6-2.4,2.8-4.1c0.2-1.6-0.2-1.3-0.7-0.4c-0.5,0.9-1.5,0.8-2.1,2.8
							c-0.2,0.6-0.7,1.7-2,2.1"/>
						<path class="st3" d="M48,59.4c2.7-0.8,5.1-0.7,6.6,0.3c0.7,0.5,0.5,0.7-0.1,0.6c-1.8-0.3-2.5,0.7-4.7-0.2
							c-0.5-0.2-1.3-0.4-3,0.2"/>
					</g>
				</g>
				<g>
					<g>
						<path class="st4" d="M34.3,30C33,31,33,32.4,32.4,32.9"/>
						<path class="st4" d="M32.3,34.3c1.1-1.2,2.3-1.2,2.8-2.3"/>
						<path class="st4" d="M32,31.2c-0.5,0.5-0.2,1.7-0.4,2.1"/>
						<path class="st4" d="M30.5,31.5c-0.5,1.3,0.4,2.7,0.1,3.9"/>
						<path class="st4" d="M28.4,34.3c0,1.7,0.7,1.3,1,3.6"/>
						<path class="st4" d="M33.2,35.2c-0.6,1.3-2.1,1.5-2.6,2.7"/>
						<path class="st4" d="M30.9,39c0.9-1,2.5-1.2,3-2.7"/>
						<path class="st4" d="M32.6,39.1c-0.7,0.9-1.8,0.7-2.4,1.7"/>
						<path class="st4" d="M28.6,39.5c0.1,0.8,0,2.1,0.1,2.7"/>
						<path class="st4" d="M27.6,38.3c0.1,0.4,0.3,0.9,0.4,1.2"/>
						<path class="st4" d="M26.8,41.3c0.4,1.9,1.6,2,1.8,3.2"/>
						<path class="st4" d="M31.3,42.7c-0.3,1.2-1.4,1.9-1.7,2.9"/>
						<path class="st4" d="M26.5,45c1,0.4,1.4,1.2,2.4,1.9"/>
						<path class="st4" d="M27.8,47.9c0.7,1,1.4,1,1.8,1.8"/>
						<path class="st4" d="M31.4,45.6c-0.1,0.9-0.9,1.6-0.8,2.5"/>
						<path class="st4" d="M32,47.2c-0.4,1.4,0.1,2.3-0.2,3.4"/>
						<path class="st4" d="M27.1,50.8c0.9,0.7,2.5,0.6,3.1,1.2"/>
						<path class="st4" d="M33.3,50.2c0.1,0.9-0.4,1.6-0.3,2.4"/>
						<path class="st4" d="M30.6,53.5c1.1,0.4,2.2,1.5,2.8,1.7"/>
						<path class="st4" d="M33.9,53c0.4,0.5,0.6,1.4,1.2,2.2"/>
						<path class="st4" d="M35.3,52.6c0.2,1.4,1.2,2,1.7,3.6"/>
						<path class="st4" d="M31.7,55.9c1.3,0.1,2.4,0.8,3.5,0.9"/>
						<path class="st4" d="M33,57.9c1.1,0,2.4,0.5,3.4,0.4"/>
						<path class="st4" d="M37.8,54.2c0.3,1.5,1.3,2,1.7,3.2"/>
						<path class="st4" d="M40.3,55.1c0.1,1.4,1.1,2.1,1.5,3"/>
						<path class="st4" d="M35.7,60c1.8-0.6,3.3-0.3,4.4-0.6"/>
						<path class="st4" d="M36.9,61.9c2.4-0.3,2.8-1.6,4.1-1.7"/>
					</g>
					<g>
						<path class="st4" d="M55.6,30c1.3,0.9,1.3,2.4,1.9,2.9"/>
						<path class="st4" d="M57.6,34.3c-1.1-1.2-2.3-1.2-2.8-2.3"/>
						<path class="st4" d="M57.9,31.2c0.5,0.5,0.2,1.7,0.4,2.1"/>
						<path class="st4" d="M59.4,31.5c0.5,1.3-0.4,2.7-0.1,3.9"/>
						<path class="st4" d="M61.5,34.3c0,1.7-0.7,1.3-1,3.6"/>
						<path class="st4" d="M56.7,35.2c0.6,1.3,2.1,1.5,2.6,2.7"/>
						<path class="st4" d="M59,39c-0.9-1-2.5-1.2-3-2.7"/>
						<path class="st4" d="M57.4,39.1c0.7,0.9,1.8,0.7,2.4,1.7"/>
						<path class="st4" d="M61.3,39.5c-0.1,0.8,0,2.1-0.1,2.7"/>
						<path class="st4" d="M62.3,38.3c-0.1,0.4-0.3,0.9-0.4,1.2"/>
						<path class="st4" d="M63.1,41.3c-0.4,1.9-1.6,2-1.8,3.2"/>
						<path class="st4" d="M58.6,42.7c0.3,1.2,1.4,1.9,1.7,2.9"/>
						<path class="st4" d="M63.4,45c-1,0.4-1.4,1.2-2.4,1.9"/>
						<path class="st4" d="M62.1,47.9c-0.7,1-1.4,1-1.8,1.8"/>
						<path class="st4" d="M58.6,45.6c0.1,0.9,0.9,1.6,0.8,2.5"/>
						<path class="st4" d="M57.9,47.2c0.4,1.4-0.1,2.3,0.2,3.4"/>
						<path class="st4" d="M62.8,50.8c-0.9,0.7-2.5,0.6-3.1,1.2"/>
						<path class="st4" d="M56.6,50.2c-0.1,0.9,0.4,1.6,0.3,2.4"/>
						<path class="st4" d="M59.4,53.5c-1.1,0.4-2.2,1.5-2.8,1.7"/>
						<path class="st4" d="M56,53c-0.4,0.5-0.6,1.4-1.2,2.2"/>
						<path class="st4" d="M54.6,52.6c-0.2,1.4-1.2,2-1.7,3.6"/>
						<path class="st4" d="M58.2,55.9c-1.3,0.1-2.4,0.8-3.5,0.9"/>
						<path class="st4" d="M57,57.9c-1.1,0-2.4,0.5-3.4,0.4"/>
						<path class="st4" d="M52.1,54.2c-0.3,1.5-1.3,2-1.7,3.2"/>
						<path class="st4" d="M49.6,55.1c-0.1,1.4-1.1,2.1-1.5,3"/>
						<path class="st4" d="M54.3,60c-1.8-0.6-3.3-0.3-4.4-0.6"/>
						<path class="st4" d="M53,61.9c-2.4-0.3-2.8-1.6-4.1-1.7"/>
					</g>
				</g>
			</g>
			<g>
				<g>
					<path class="st5" d="M60.7,39.2c0.6,0,0.6,0.8,0,0.8C60.1,40.1,60.1,39.2,60.7,39.2z"/>
					<path class="st5" d="M58.5,35c0.6,0,0.6,0.8,0,0.8C57.9,35.9,57.9,35,58.5,35z"/>
					<path class="st5" d="M60.9,42.5c0.6,0,0.6,0.8,0,0.8C60.3,43.4,60.3,42.5,60.9,42.5z"/>
					<path class="st5" d="M57.7,52.5c0.6,0,0.6,0.8,0,0.8C57.2,53.3,57.2,52.5,57.7,52.5z"/>
					<path class="st5" d="M49.3,58c0.6,0,0.6,0.8,0,0.8S48.8,58,49.3,58z"/>
				</g>
				<g>
					<path class="st5" d="M29.2,39.2c-0.6,0-0.6,0.8,0,0.8C29.8,40.1,29.8,39.2,29.2,39.2z"/>
					<path class="st5" d="M31.5,35c-0.6,0-0.6,0.8,0,0.8C32,35.9,32,35,31.5,35z"/>
					<path class="st5" d="M29.1,42.5c-0.6,0-0.6,0.8,0,0.8S29.6,42.5,29.1,42.5z"/>
					<path class="st5" d="M32.2,52.5c-0.6,0-0.6,0.8,0,0.8C32.8,53.3,32.8,52.5,32.2,52.5z"/>
					<path class="st5" d="M40.6,58c-0.6,0-0.6,0.8,0,0.8C41.2,58.9,41.1,58,40.6,58z"/>
				</g>
			</g>
			<g>
				<path class="st6" d="M52.4,52.8c-0.3,0.1-0.7,0.2-1-0.3c-0.2-0.4-0.1-0.8,0.3-1l0.5,0.8c-0.1,0.2-0.4,0.2-0.5,0.3"/>
				<path class="st7" d="M53.5,52.3c0,0-0.3-0.3-0.4-0.4c-0.2-0.2-0.2-0.7,0.1-0.9c-0.3,0-0.6-0.3-0.6-0.7l-5.8-5.8
					c-0.1-0.1-0.2-0.1-0.2,0c-0.9-0.9-8.7-8.7-9.6-9.6l-0.4,0.4l8.9,8.9c-0.3,0.3-0.3,0.9,0.6,1.9c0.9,0.9,4.9,4.9,4.9,4.9l0.1-0.2
					c0.3,0.4,1.5,2.6,1.5,2.6L53.5,52.3z"/>
				<path class="st7" d="M39.9,38.1c-0.3,0.3-0.4,0.3-0.7,0.1c-0.3-0.3-0.2-0.4-0.2-0.5c0.1,0.1,0.2-0.1,0.3-0.1
					c0.1-0.1,0.2-0.3,0.1-0.3c0.1,0,0.2-0.1,0.5,0.2C40.2,37.6,40.2,37.7,39.9,38.1z"/>
				<path class="st7" d="M36.6,35.1L35.7,36c0,0-5.4-5.4-6-6c-0.6-0.6-0.5-0.7,0.1-0.1c1.6,1.5,6,5.5,6,5.5s0.3-0.3,0.5-0.5
					L36.6,35.1z"/>
				<path class="st7" d="M36.9,34.5c-0.2-0.2-0.3-0.3-0.6,0c-0.3,0.3-0.2,0.4,0,0.6c0.2,0.2,0.3,0.3,0.6,0
					C37.2,34.8,37.1,34.7,36.9,34.5z"/>
				<path class="st8" d="M52.6,53.3c0,0.2,0.1,0.4,0.4,0.9c0.3,0.5,1.5,2.7,2.7,4.8c0.1,0.2,0.5,0.1,0.8-0.1
					c0.3-0.2,0.9-0.8,1.3-1.1c0.5-0.4,0.7-0.6,0.3-1c-0.3-0.4-2.9-3.2-3.3-3.7c-0.6-0.7-0.8-0.4-1.3-0.7c-0.1-0.1-0.4,0.2-0.6,0.4
					C52.7,52.9,52.6,53.1,52.6,53.3z"/>
				<path class="st8" d="M50.9,50.8c0,0-3.9-3.9-4.9-4.9c-0.9-0.9-0.9-1.6-0.6-1.9c0,0,0.3-0.3,0.3-0.3l6.1,6.1
					C51.6,49.9,51.2,51.1,50.9,50.8z"/>
			</g>
			<g>
				<path class="st6" d="M37.6,52.8c0.3,0.1,0.7,0.2,1-0.3c0.2-0.4,0.1-0.8-0.3-1l-0.5,0.8c0.1,0.2,0.4,0.2,0.5,0.3"/>
				<path class="st7" d="M36.4,52.3c0,0,0.3-0.3,0.4-0.4c0.2-0.2,0.2-0.7-0.1-0.9c0.3,0,0.6-0.3,0.6-0.7l5.8-5.8
					c0.1-0.1,0.2-0.1,0.2,0c0.9-0.9,8.7-8.7,9.6-9.6l0.4,0.4l-8.9,8.9c0.3,0.3,0.3,0.9-0.6,1.9C43,46.8,39,50.8,39,50.8l-0.1-0.2
					c-0.3,0.4-1.5,2.6-1.5,2.6L36.4,52.3z"/>
				<path class="st7" d="M50,38.1c0.3,0.3,0.4,0.3,0.7,0.1c0.3-0.3,0.2-0.4,0.2-0.5c-0.1,0.1-0.2-0.1-0.3-0.1
					c-0.1-0.1-0.2-0.3-0.1-0.3c-0.1,0-0.2-0.1-0.5,0.2C49.8,37.6,49.7,37.7,50,38.1z"/>
				<path class="st7" d="M53.4,35.1l0.9,0.9c0,0,5.4-5.4,6-6c0.6-0.6,0.5-0.7-0.1-0.1c-1.6,1.5-6,5.5-6,5.5s-0.3-0.3-0.5-0.5
					L53.4,35.1z"/>
				<path class="st7" d="M53.1,34.5c0.2-0.2,0.3-0.3,0.6,0c0.3,0.3,0.2,0.4,0,0.6c-0.2,0.2-0.3,0.3-0.6,0
					C52.8,34.8,52.8,34.7,53.1,34.5z"/>
				<path class="st8" d="M37.3,53.3c0,0.2-0.1,0.4-0.4,0.9c-0.3,0.5-1.5,2.7-2.7,4.8c-0.1,0.2-0.5,0.1-0.8-0.1
					c-0.3-0.2-0.9-0.8-1.3-1.1c-0.5-0.4-0.7-0.6-0.3-1c0.3-0.4,2.9-3.2,3.3-3.7c0.6-0.7,0.8-0.4,1.3-0.7c0.1-0.1,0.4,0.2,0.6,0.4
					C37.2,52.9,37.3,53.1,37.3,53.3z"/>
				<path class="st8" d="M39,50.8c0,0,3.9-3.9,4.9-4.9c0.9-0.9,0.9-1.6,0.6-1.9c0,0-0.3-0.3-0.3-0.3l-6.1,6.1
					C38.3,49.9,38.8,51.1,39,50.8z"/>
			</g>
			<g>
				<path class="st7" d="M40,56.2c4.7-5,11-10.5,16.2-13.2c-5.9,2-11.8,7.7-16.5,13L40,56.2z"/>
				<path class="st9" d="M39.8,56.4c-0.2,0.2-1.6,1.6-2,2c0,0.1-0.2,0.1-0.4,0c-0.1-0.1-0.1-0.3,0.1-0.3c-0.3-0.1-0.5-0.3-0.6-0.5
					c-0.2-0.7,0.1-1.1,0.5-1.5c0.7-0.7,1.5-0.7,1.9-0.4c0.4,0.3,0.6,0.4,1,0.5c0.4,0.1,0.4,0.5,0.1,0.5c-0.3,0-0.6-0.2-1-0.6
					c-0.4-0.4-0.8-0.4-1.2-0.3c-0.5,0.2-0.9,0.6-1,0.9c-0.1,0.2-0.2,0.7,0,0.9c0.2,0.2,0.3,0.3,0.6,0.1c0.2-0.2,1.1-1,1.6-1.6
					C39.7,56.2,39.8,56.4,39.8,56.4z"/>
				<path class="st9" d="M39.6,56.2c-0.1,0-0.2,0-0.3,0.1c-0.1,0.1-0.1,0.3-0.1,0.5c0,0.1,0,0.2,0,0.3c0.1,0,0.2,0,0.3-0.1
					c0.1-0.1,0.1-0.3,0.1-0.5C39.6,56.3,39.6,56.3,39.6,56.2z"/>
				<path class="st9" d="M39.2,56.6c-0.1,0-0.2,0-0.3,0.1c-0.1,0.1-0.1,0.3-0.1,0.5c0,0.1,0,0.2,0,0.3c0.1,0,0.2,0,0.3-0.1
					c0.1-0.1,0.1-0.3,0.1-0.5C39.2,56.7,39.2,56.6,39.2,56.6z"/>
				<path class="st9" d="M38.8,57c-0.1,0-0.2,0-0.3,0.1c-0.1,0.1-0.1,0.3-0.1,0.5c0,0.1,0,0.2,0,0.3c0.1,0,0.2,0,0.3-0.1
					c0.1-0.1,0.1-0.3,0.1-0.5C38.8,57.1,38.8,57,38.8,57z"/>
				<path class="st9" d="M38.4,57.4c-0.1,0-0.2,0-0.3,0.1C38,57.6,38,57.8,38,58c0,0.1,0,0.2,0,0.3c0.1,0,0.2,0,0.3-0.1
					c0.1-0.1,0.1-0.3,0.1-0.5C38.4,57.5,38.4,57.4,38.4,57.4z"/>
				<path class="st10" d="M40.1,55.8c4.2-4.6,11-10.5,15.3-12.4"/>
			</g>
			<g>
				<path class="st7" d="M49.9,56.2c-4.7-5-11-10.5-16.2-13.2c5.9,2,11.8,7.7,16.5,13L49.9,56.2z"/>
				<path class="st9" d="M50.1,56.4c0.2,0.2,1.6,1.6,2,2c0,0.1,0.2,0.1,0.4,0c0.1-0.1,0.1-0.3-0.1-0.3c0.3-0.1,0.5-0.3,0.6-0.5
					c0.2-0.7-0.1-1.1-0.5-1.5c-0.7-0.7-1.5-0.7-1.9-0.4c-0.4,0.3-0.6,0.4-1,0.5c-0.4,0.1-0.4,0.5-0.1,0.5c0.3,0,0.6-0.2,1-0.6
					c0.4-0.4,0.8-0.4,1.2-0.3c0.5,0.2,0.9,0.6,1,0.9c0.1,0.2,0.2,0.7,0,0.9c-0.2,0.2-0.3,0.3-0.6,0.1c-0.2-0.2-1.1-1-1.6-1.6
					C50.3,56.2,50.1,56.4,50.1,56.4z"/>
				<path class="st9" d="M50.3,56.2c0.1,0,0.2,0,0.3,0.1c0.1,0.1,0.1,0.3,0.1,0.5c0,0.1,0,0.2,0,0.3c-0.1,0-0.2,0-0.3-0.1
					c-0.1-0.1-0.1-0.3-0.1-0.5C50.4,56.3,50.3,56.3,50.3,56.2z"/>
				<path class="st9" d="M50.7,56.6c0.1,0,0.2,0,0.3,0.1c0.1,0.1,0.1,0.3,0.1,0.5c0,0.1,0,0.2,0,0.3c-0.1,0-0.2,0-0.3-0.1
					c-0.1-0.1-0.1-0.3-0.1-0.5C50.7,56.7,50.7,56.6,50.7,56.6z"/>
				<path class="st9" d="M51.1,57c0.1,0,0.2,0,0.3,0.1c0.1,0.1,0.1,0.3,0.1,0.5c0,0.1,0,0.2,0,0.3c-0.1,0-0.2,0-0.3-0.1
					c-0.1-0.1-0.1-0.3-0.1-0.5C51.1,57.1,51.1,57,51.1,57z"/>
				<path class="st9" d="M51.5,57.4c0.1,0,0.2,0,0.3,0.1c0.1,0.1,0.1,0.3,0.1,0.5c0,0.1,0,0.2,0,0.3c-0.1,0-0.2,0-0.3-0.1
					c-0.1-0.1-0.1-0.3-0.1-0.5C51.5,57.5,51.5,57.4,51.5,57.4z"/>
				<path class="st10" d="M49.8,55.8c-4.2-4.6-11-10.5-15.3-12.4"/>
			</g>
			<g>
				<path class="st11" d="M43.8,31.6c0.4,1.3,1,3.3,4.7,3.1C48.2,33.3,46,30.9,43.8,31.6z"/>
				<path class="st11" d="M43.8,29.8c-0.3,0-0.6-0.1-0.8-0.3c0.2,0,0.7,0,0.9,0L43.8,29.8z"/>
				<path class="st11" d="M43.7,29c-0.1,0.1-0.4,0.3-0.6,0.4c-0.1,0.1-0.2,0.1,0.1,0.1c0.3,0,0.7,0,0.8,0L43.7,29z"/>
				<path class="st12" d="M46.6,29.7c-0.7-0.4,0.4-2.3-1.2-2.6c-0.7-0.1-1.5,0.2-1.8,0.7c-0.2,0.3-0.3,0.9,0,1.4
					c0.3,0.6,0.2,0.7,0.1,0.9c-0.5,0.9-0.3,1.9,1.1,2.4C46.2,32.9,47,29.9,46.6,29.7z"/>
				<path class="st12" d="M45,30c-0.8,1.3-1,3.2,2,3.4c0.3,0.4,0.6,1.4,0.5,1.8c0.2-0.1,0.4-0.5,0.4-0.8c0.2,0.2,0.2,0.6,0.1,0.8
					c0.2-0.1,0.3-0.4,0.4-0.6c0.1,0.3,0.2,0.7,0.1,1c0.2-0.2,0.4-0.6,0.4-0.9c0.2,0.4,0.2,0.9,0.1,1.2c0.1-0.1,0.2-0.4,0.3-0.7
					c0,0.4,0,0.9-0.3,1.4c0.4-0.3,0.9-0.9,1-1.6c0.1,0.3,0.3,1,0.4,1.5c0.1-0.2,0.3-0.6,0.3-0.8c4.7,5.3,3.5,10.5,0,15.2
					c0.3-0.3,0.8-0.5,1.1-1c-0.1,0.1-0.3,0.5-0.5,0.6c0.4-0.2,0.7-0.4,1-0.8c-0.1,0.3-0.3,0.7-0.5,0.8c0.3-0.1,0.6-0.3,0.7-0.4
					c-2.1,4.6-6.4,8-9.2,9.6c2.2-0.4,4.7-2.1,5.9-3.2c-1.2,1.8-2.3,4.3-2.7,6.5c1.1-2.2,2.6-5.2,4.8-7.5c2.4-2.5,4.3-6.3,4.3-11.8
					c0-5.1-3.5-9.4-5.4-11.3c-1.9-1.9-2.3-1.6-3.5-2.8C45.9,28.7,45.1,29.9,45,30z"/>
				<path class="st13" d="M44.3,28.2c-0.3,0-0.3,0.4,0,0.4C44.5,28.6,44.5,28.2,44.3,28.2z"/>
				<path class="st10" d="M52.4,50.2c2-3.8,3.8-8.8-1.3-14.9"/>
				<path class="st10" d="M52.2,49.8c0.5-0.7,1.2-1.9,1.7-4.1"/>
				<path class="st10" d="M51.7,49.9c1.6-2.2,3.5-6,1.6-10.6"/>
				<path class="st10" d="M49.2,56.6c2.7-2.3,5.9-7.7,5.9-12.2c0-3.8-0.9-6.6-3.8-9.9"/>
				<path class="st10" d="M46.2,58.3c2.4-1.6,5.7-4.7,7.3-9"/>
				<path class="st10" d="M48.4,59c1.1-1.9,2.6-3.6,3.4-4.4c0.8-0.8,2.7-4.2,3-6.4"/>
				<path class="st10" d="M48.8,34.7c0-0.5-0.1-1.1-0.2-1.5"/>
				<path class="st10" d="M48.3,34.7c0.1-0.3,0-0.7-0.1-1"/>
				<path class="st10" d="M49.2,35.3c0.1-0.3,0.1-0.9,0.1-1.1"/>
				<path class="st10" d="M50,35c0.1-0.3,0.2-1,0.1-1.3"/>
				<path class="st10" d="M50.6,35.7c-0.2-0.2-0.4-0.5-0.5-0.6"/>
				<path class="st10" d="M47.8,34.5c0-0.4-0.1-1-0.3-1.3"/>
			</g>
			<g>
				<path class="st14" d="M48,34.5c-1.9,0.1-5.2,0-7.7-0.5c-1.4-0.3-2.8,1.4-2.1,3.7c1.1,3.5,2.6,5,4,7.6c-1.7-0.6-3.2,0.2-3.1,1.5
					c0.1,1.5,0.9,2.4,2.8,2c1.9-0.3,6.3-0.7,8.7-0.4c0.8,0.1,1.4-0.7,1.5-1.1c0.7-2.7,0.3-5.3-3.6-10.3c0.7,0,1-0.7,1-1.4
					C49.5,35.1,49.3,34.4,48,34.5z"/>
				<g>
					<path d="M40.3,34c-1.4-0.3-2.8,1.4-2.1,3.7c1.1,3.5,2.6,5,4,7.6c-1.7-0.6-3.2,0.2-3.1,1.5c0.1,1.5,0.9,2.4,2.8,2
						c-0.7,0.2-1.7-0.1-2-0.8c0.2,0.4,0.9,0.4,1.3,0.4c0.5,0,1.6-0.3,1.8-1.4c0.3-1.4-0.3-2.1-2-4.9c-1.1-1.7-2.3-4.3-2.3-5.7
						c0-1.3,0.6-2,1.3-1.7c-0.7-0.1-1,0.8-1,1.3c0,0.5,0.6,1.3,1.5,1.2c2.4-0.3,6.6-0.4,8.1-0.3c-2.5-0.2-5.8-0.1-7,0
						c-1.3,0.2-2.1,0.1-2.2-0.9c0.4,0.6,1.5,0.7,1.8-0.5C41.4,34.7,40.8,34.1,40.3,34z"/>
					<path d="M41.4,36.7c1.8-0.1,5.6-0.1,7.2,0C47.4,36.6,42,36.4,41.4,36.7z"/>
					<path d="M41.9,36.5c1.5-0.1,4.7-0.1,6.1,0C47,36.4,42.4,36.2,41.9,36.5z"/>
					<path d="M42.4,36.3c1.3-0.1,4-0.1,5.2,0C46.7,36.2,42.8,36,42.4,36.3z"/>
					<path d="M42.7,48.3c2-0.3,7-0.4,8.5-0.2C49.5,47.8,44,47.9,42.7,48.3z"/>
					<path d="M43.3,48.1c1.7-0.3,5.9-0.4,7.2-0.2C49.1,47.5,44.4,47.6,43.3,48.1z"/>
					<path d="M43.8,47.8c1.5-0.3,5.1-0.4,6.1-0.2C48.7,47.3,44.7,47.4,43.8,47.8z"/>
				</g>
				<g>
					<path class="st15" d="M40.7,35c0.3,0.6,0.1,1-0.3,1.1c0.2-0.3-0.1-1-0.5-1.2C40.2,35,40.6,35,40.7,35z"/>
					<path class="st15" d="M39.7,35.9v-0.4c0.2,0,0.4,0.2,0.4,0.4H39.7z"/>
					<path class="st15" d="M42.4,45.6l-0.8-0.2c0.7,0.2,0.9,1.8,0.3,2.5C42.5,47.4,42.6,46.4,42.4,45.6z"/>
					<path class="st15" d="M41.7,46c-0.2-0.7-0.8-0.6-1.4-0.4c-0.7,0.3-1.2,1.1-0.5,2.3c-0.2-0.4,0-1.1,0.1-1.3
						C40,46.4,40.3,45.8,41.7,46z"/>
					<path class="st15" d="M41.7,47.4c0.1-0.4,0.1-0.8,0-1.1c-1.1,0-1.5,0.1-1.7,0.5c0.6-0.4,1.2-0.1,1.2,0.3
						C41.3,47.4,41.3,47.5,41.7,47.4z"/>
					<path class="st15" d="M41.6,47.7c-0.5,0.3-1.4,0.1-1-0.7c0.2,0,0.5-0.1,0.5,0.3C41.1,47.4,41.1,47.7,41.6,47.7z"/>
				</g>
			</g>
			<g>
				<path class="st3" d="M38,58.2c-1.3-0.6-3.5-1.4-4.8-1c-1.3,0.4-1.6,0.6-0.5,1.1c3.5,1.7,4.9,0.1,6.4,0.4"/>
				<path class="st16" d="M33,57.9c1.1,0,2.4,0.5,3.4,0.4"/>
				<path class="st3" d="M51.9,58.2c1.3-0.6,3.5-1.4,4.8-1c1.3,0.4,1.6,0.6,0.5,1.1c-3.5,1.7-4.9,0.1-6.4,0.4"/>
				<path class="st16" d="M57,57.9c-1.1,0-2.4,0.5-3.4,0.4"/>
			</g>
			<g>
				<polyline class="st17" points="50.7,42.4 50.3,42.4 50.3,43.2 50.7,43.2 				"/>
				<line class="st17" x1="50.3" y1="42.8" x2="50.6" y2="42.8"/>
				<g>
					<polyline class="st17" points="41.5,38.8 41.5,39.5 41.9,39.5 					"/>
				</g>
				<g>
					<line class="st17" x1="42.5" y1="38.7" x2="42.5" y2="39.5"/>
				</g>
				<g>
					<polyline class="st17" points="44.8,38.7 44.4,38.7 44.4,39.4 44.8,39.4 					"/>
					<line class="st17" x1="44.4" y1="39" x2="44.7" y2="39"/>
				</g>
				<g>
					<line class="st17" x1="46.5" y1="38.6" x2="46.5" y2="39.3"/>
					<line class="st17" x1="46.3" y1="38.6" x2="46.8" y2="38.6"/>
				</g>
				<g>
					<path class="st17" d="M43.3,38.7l0.2,0c0.1,0,0.2,0.1,0.2,0.2c0,0.1-0.1,0.2-0.1,0.2c-0.1,0-0.2,0-0.3,0"/>
					<path class="st17" d="M43.3,39.5l0.2,0c0.1,0,0.2-0.1,0.2-0.2c0-0.1-0.1-0.2-0.1-0.2c-0.1,0-0.2,0-0.3,0"/>
					<line class="st17" x1="43.3" y1="38.7" x2="43.3" y2="39.5"/>
				</g>
				<g>
					<path class="st17" d="M45.3,38.6l0.2,0c0.1,0,0.2,0.1,0.2,0.2S45.7,39,45.6,39c-0.1,0-0.2,0-0.3,0c0.1,0,0.2,0,0.3,0.1
						c0.1,0.1,0,0.2,0.1,0.3"/>
					<line class="st17" x1="45.3" y1="38.6" x2="45.3" y2="39.4"/>
				</g>
				<g>
					<polyline class="st17" points="47.2,39.3 47.4,38.6 47.7,39.3 					"/>
					<line class="st17" x1="47.3" y1="39" x2="47.6" y2="39"/>
				</g>
				<g>
					<path class="st17" d="M48.4,39.3v-0.7c0.1,0,0.2,0,0.2,0c0,0,0.2,0.1,0.2,0.4c0,0.3-0.1,0.4-0.2,0.4
						C48.5,39.3,48.4,39.3,48.4,39.3z"/>
				</g>
				<g>
					<polyline class="st17" points="44.2,41.4 44.2,40.6 44.1,40.6 					"/>
				</g>
				<path class="st17" d="M45.1,40.6l-0.3,0V41c0.2-0.1,0.4-0.1,0.4,0.2c0,0.2-0.3,0.3-0.4,0.2"/>
				<g>
					<path class="st17" d="M46.5,41.3v-0.7c0.1,0,0.2,0,0.2,0c0,0,0.2,0.1,0.2,0.4c0,0.3-0.1,0.4-0.2,0.4S46.5,41.3,46.5,41.3z"/>
				</g>
				<g>
					<polyline class="st17" points="47.8,40.5 47.4,40.5 47.4,41.2 47.8,41.2 					"/>
					<line class="st17" x1="47.4" y1="40.9" x2="47.7" y2="40.9"/>
				</g>
				<g>
					<polyline class="st17" points="44.4,42.7 44.1,42.7 44.1,43.4 44.4,43.4 					"/>
					<line class="st17" x1="44.1" y1="43" x2="44.3" y2="43"/>
				</g>
				<g>
					<line class="st17" x1="45.1" y1="42.6" x2="45.1" y2="43.4"/>
					<line class="st17" x1="44.9" y1="42.6" x2="45.4" y2="42.6"/>
				</g>
				<g>
					<line class="st17" x1="45.9" y1="42.6" x2="45.9" y2="43.3"/>
				</g>
				<g>
					<polyline class="st17" points="46.9,42.6 46.5,42.6 46.5,43.3 46.9,43.3 					"/>
					<line class="st17" x1="46.5" y1="43" x2="46.8" y2="42.9"/>
				</g>
				<g>
					<path class="st17" d="M48.6,42.5l0.2,0c0.1,0,0.2,0.1,0.2,0.2c0,0.1-0.1,0.2-0.1,0.2c-0.1,0-0.2,0-0.3,0"/>
					<path class="st17" d="M48.6,43.2l0.2,0c0.1,0,0.2-0.1,0.2-0.2s-0.1-0.2-0.1-0.2c-0.1,0-0.2,0-0.3,0"/>
					<line class="st17" x1="48.6" y1="42.5" x2="48.6" y2="43.2"/>
				</g>
				<g>
					<path class="st17" d="M44.8,45.3v-0.7c0.1,0,0.2,0,0.2,0c0,0,0.2,0.1,0.2,0.4c0,0.3-0.1,0.4-0.2,0.4
						C45,45.3,44.9,45.3,44.8,45.3z"/>
				</g>
				<g>
					<polyline class="st17" points="46,44.5 45.6,44.5 45.6,45.2 46,45.2 					"/>
					<line class="st17" x1="45.6" y1="44.9" x2="45.9" y2="44.9"/>
				</g>
				<g>
					<polyline class="st17" points="47.3,45.2 47.3,44.4 47.2,44.4 					"/>
				</g>
				<g>
					<path class="st17" d="M43.5,42.8c-0.1-0.1-0.3-0.1-0.4,0.1c0,0.1,0.1,0.2,0.2,0.2c0.1,0,0.2,0.2,0.2,0.3
						c-0.1,0.2-0.3,0.1-0.4,0"/>
				</g>
				<g>
					<polyline class="st17" points="48.2,43.3 48,42.5 47.8,42.9 47.5,42.5 47.4,43.3 					"/>
				</g>
				<g>
					<path class="st17" d="M48.1,44.4c-0.3,0-0.3,0.4,0,0.4C48.3,44.7,48.3,44.4,48.1,44.4z"/>
					<path class="st17" d="M48.1,44.8c-0.3,0-0.3,0.4,0,0.4C48.4,45.1,48.4,44.7,48.1,44.8z"/>
				</g>
				<g>
					<polyline class="st17" points="49.7,45.1 49.7,44.3 49.6,44.3 					"/>
				</g>
				<g>
					<path class="st17" d="M48.8,44.5c0.1-0.1,0.3-0.1,0.4,0.1c0.1,0.1,0,0.3-0.1,0.3c-0.1,0.1-0.3,0.1-0.3,0.3l0.4,0"/>
				</g>
				<g>
					<path class="st17" d="M49.5,42.5l0.2,0c0.1,0,0.2,0.1,0.2,0.2c0,0.1-0.1,0.2-0.1,0.2c-0.1,0-0.2,0-0.3,0c0.1,0,0.2,0,0.3,0.1
						c0.1,0.1,0,0.2,0.1,0.3"/>
					<line class="st17" x1="49.5" y1="42.5" x2="49.5" y2="43.2"/>
				</g>
			</g>
		</g>
	</g>
</g>
</svg>
