<?xml version="1.0" encoding="utf-8"?>
<!-- Generator: Adobe Illustrator 19.2.1, SVG Export Plug-In . SVG Version: 6.00 Build 0)  -->
<svg version="1.1" id="Layer_1" xmlns="http://www.w3.org/2000/svg" xmlns:xlink="http://www.w3.org/1999/xlink" x="0px" y="0px"
	 viewBox="0 0 90 90" style="enable-background:new 0 0 90 90;" xml:space="preserve">
<style type="text/css">
	.st0{clip-path:url(#SVGID_2_);}
	.st1{fill:#FFFFFF;stroke:#000000;stroke-width:0.25;}
	.st2{fill:#00498F;}
	.st3{fill:#00498F;stroke:#000000;stroke-width:0.25;}
</style>
<g>
	<defs>
		<circle id="SVGID_1_" cx="45" cy="45" r="45"/>
	</defs>
	<clipPath id="SVGID_2_">
		<use xlink:href="#SVGID_1_"  style="overflow:visible;"/>
	</clipPath>
	<g class="st0">
		<rect x="-46.1" y="29.8" class="st1" width="182.2" height="30.4"/>
		<g>
			<polygon class="st2" points="45,39.8 43.8,43.4 40,43.4 43.1,45.6 41.9,49.2 45,47 48.1,49.2 46.9,45.6 50,43.4 46.2,43.4 			"/>
			<polygon class="st2" points="57.7,32 56.5,35.6 52.7,35.6 55.8,37.9 54.6,41.5 57.7,39.2 60.7,41.5 59.5,37.8 62.6,35.6 
				58.8,35.6 			"/>
			<polygon class="st2" points="57.7,47.5 58.8,51.2 62.6,51.2 59.5,53.4 60.7,57 57.7,54.8 54.6,57 55.8,53.4 52.7,51.2 56.5,51.2 
							"/>
			<polygon class="st2" points="32.3,32 33.5,35.6 37.3,35.6 34.2,37.9 35.4,41.5 32.3,39.2 29.3,41.5 30.5,37.8 27.4,35.6 
				31.2,35.6 			"/>
			<polygon class="st2" points="32.3,47.5 31.2,51.2 27.4,51.2 30.5,53.4 29.3,57 32.3,54.8 35.4,57 34.2,53.4 37.3,51.2 33.5,51.2 
							"/>
		</g>
		<g>
			<rect x="-46.1" y="60.2" class="st3" width="182.2" height="30.4"/>
			<rect x="-46.1" y="-0.5" class="st3" width="182.2" height="30.4"/>
		</g>
	</g>
</g>
</svg>
