<?xml version="1.0" encoding="utf-8"?>
<!-- Generator: Adobe Illustrator 19.2.1, SVG Export Plug-In . SVG Version: 6.00 Build 0)  -->
<svg version="1.1" id="Layer_1" xmlns="http://www.w3.org/2000/svg" xmlns:xlink="http://www.w3.org/1999/xlink" x="0px" y="0px"
	 viewBox="0 0 90 90" style="enable-background:new 0 0 90 90;" xml:space="preserve">
<style type="text/css">
	.st0{clip-path:url(#SVGID_2_);}
	.st1{fill:#FFFFFF;stroke:#000000;stroke-width:0.25;}
	.st2{fill:#003876;}
	.st3{fill:#FFFFFF;}
	.st4{fill:#003876;stroke:#000000;stroke-width:0.25;}
</style>
<g>
	<defs>
		<circle id="SVGID_1_" cx="45" cy="45" r="45"/>
	</defs>
	<clipPath id="SVGID_2_">
		<use xlink:href="#SVGID_1_"  style="overflow:visible;"/>
	</clipPath>
	<g class="st0">
		<rect x="-18.1" y="-0.9" class="st1" width="126.2" height="91.7"/>
		<path class="st2" d="M57.4,45c0,0,6.3,10.9,6.3,10.9H51.1L45,66.4l-6.1-10.5H26.3c0,0,6.2-10.9,6.3-10.9c0,0-6.3-10.9-6.3-10.9
			h12.6L45,23.6l6.1,10.5h12.6C63.7,34.1,57.4,45,57.4,45z"/>
		<g>
			<polygon class="st3" points="32.2,37.5 36.9,37.5 34.6,41.6 			"/>
			<polygon class="st3" points="57.8,37.5 53.1,37.5 55.4,41.6 			"/>
			<polygon class="st3" points="47.2,34.1 45,30.4 42.8,34.1 			"/>
			<polygon class="st3" points="32.2,52.5 36.9,52.5 34.6,48.4 			"/>
			<polygon class="st3" points="57.8,52.5 53.1,52.5 55.4,48.4 			"/>
			<polygon class="st3" points="53.4,45 49.2,52.5 40.8,52.5 36.5,45 40.8,37.5 49.2,37.5 			"/>
			<polygon class="st3" points="47.2,55.9 45,59.6 42.8,55.9 			"/>
		</g>
		<g>
			<rect x="-18.1" y="7.7" class="st4" width="126.2" height="14.3"/>
			<rect x="-18.1" y="67.9" class="st4" width="126.2" height="14.3"/>
		</g>
	</g>
</g>
</svg>
