<?xml version="1.0" encoding="utf-8"?>
<!-- Generator: Adobe Illustrator 19.2.1, SVG Export Plug-In . SVG Version: 6.00 Build 0)  -->
<svg version="1.1" id="Layer_1" xmlns="http://www.w3.org/2000/svg" xmlns:xlink="http://www.w3.org/1999/xlink" x="0px" y="0px"
	 viewBox="0 0 90 90" style="enable-background:new 0 0 90 90;" xml:space="preserve">
<style type="text/css">
	.st0{clip-path:url(#SVGID_2_);}
	.st1{fill:#F05C2F;stroke:#000000;stroke-width:0.25;}
	.st2{fill:#FFFFFF;stroke:#000000;stroke-width:0.25;}
	.st3{fill:#009C57;}
	.st4{fill:#FFFFFF;}
</style>
<g>
	<defs>
		<circle id="SVGID_1_" cx="45" cy="45" r="45"/>
	</defs>
	<clipPath id="SVGID_2_">
		<use xlink:href="#SVGID_1_"  style="overflow:visible;"/>
	</clipPath>
	<g class="st0">
		<rect x="-24.7" y="-1.4" class="st1" width="139.3" height="92.9"/>
		<rect x="-24.7" y="21.8" class="st2" width="139.3" height="46.4"/>
		<path class="st3" d="M40.5,23c-0.8,0.9-2.8,2.2-3.3,3.1c-0.4,0.9-1.9,1.8-2.7,2.1c-0.8,0.3-0.1,0.9,0.8,0.3c0.8-0.5,1.6-0.5,2.1-1
			c0.5-0.5,1.2,0,0.5,0.3c-0.7,0.3-1,0.9-1.3,1.3c-0.3,0.4-0.5,0.6-1.2,0.6c-0.7,0-1.3,0.2-1.8,0.9c-0.5,0.7-1.1,1.5-1.4,1.9
			c-0.3,0.4-0.1,0.7,0.6,0.2c0.7-0.5,1.4-0.9,1.7-0.4c0.3,0.5,0.3,0.8-0.6,1.1c-1.9,0.7-2.4,1.2-2.7,1.9c-0.3,0.8-0.1,1-1.3,1.4
			c-1.2,0.4-3.1,1.7-4.3,2.7c-1.2,0.9-0.5,1,0.4,0.9c1.4-0.1,3.3-1.1,4.3-0.6c0.3,0.5,0.6,1.2,1.1,1.7c-1.5,2.1-1.8,3-3.3,3
			c-1.6,0-2.5,1.6-3.3,2.4c-0.7,0.8-1.4,1.6-2.1,1.9c-0.7,0.3-0.8,0.5-0.3,0.8c0.5,0.3,1-0.4,1.4-0.1c0.5,0.2,0.8,0.1,1.5-0.3
			c0.7-0.5,1.5-1.1,2.7-1.3c0.6,0.7,0.8,1,1.5,1.3c-1.1,1.5-2.8,2.7-4.2,3.2c-1.4,0.5-1.7,1.1-2.7,2.4c-1,1.3-1,1.7-2,1.8
			c-1.1,0-1,0.3-0.5,0.7c0.6,0.4,1,0.2,1.8,0.4c0.8,0.2,1.9,0.3,3-0.8c1.1-1.2,3.7-3.2,5.9-3c1.1,0.1,1.8,0.3,0.5,1.5
			c-1.3,1.2-3.1,2.1-4.3,2.4c-2.4,0.5-3.5,1.4-4.2,1.4c-0.7,0-1.4,0.5-0.3,1.1c1.1,0.6,1.4,0.8,2.6,0.3c1.2-0.5,3.2-1.4,4-1.7
			c0.8-0.2,1.4-0.5,1.9-0.4c0.6,0.1,1,0,1.6-0.4c0.6-0.4,1.5-0.5,2.3-1.2c0.9-0.8,1.8-0.1,2.4,0.4c0.6,0.5,1.8,2.5,0.7,3.8
			c-1.1,1.4-2.2,2.8-2.6,3.5c-0.4,0.7-0.6,0.8-1,0.9c-1.4,0.5-2.9,1.4-3.3,1.8c-0.4,0.4-0.3,0.5,0.3,0.6c0.6,0.1,0.7,0,1.2-0.5
			c0.5-0.4,1.2-1.1,2.5-1.1c0.7,0,1.3-0.4,1.9-1c0.6-0.6,1.9-1.2,2.6-1.1c0.7,0.1,0.9,0,1.2-0.3c0.4-0.3,0.7-0.4,1.3,0.1
			c0.6,0.5,1.1,0.4,1.7,0c0.6-0.4,1.3-0.2,1.5,0.2c0.2,0.4,0.3,0.7,0.8,1.1c0.6,0.4,2.5,1.5,3.2,1.9c0.6,0.3,1-0.3,0.6-0.7
			c-0.5-0.4-0.7-0.8-0.7-1.1c0.1-0.4,0.4-0.5,1.5-0.3c1.7,0.2,4.1,1.4,5,2c0.9,0.5,1.7,1,2.4,1c0.7,0,0.9-0.2,0.3-0.7
			c-0.6-0.6-1.4-0.5-1.7-1.1c-0.5-1-1.3-0.3-1.8-1.3c-0.3-0.7-0.8-0.8-1.3-0.8c-0.5,0.1-1.3-0.4-1.8-1.2c-1.8-2.7-2.3-5.1-1.7-6.9
			c0.6-1.8,2.3-2.4,3.3-1.6c1,0.8,2.2,1.2,2.7,1.2c0.5-0.1,0.9-0.1,1.6,0.3c0.7,0.4,1.8,0.6,3.2,0c1.4-0.6,1.9-0.1,2.8-0.1
			c0.7,0,1.6,0.2,2.2,0.7c0.6,0.5,1.5,0.8,2.9,1c1.4,0.2,2.3-0.2,1.2-0.8c-1.1-0.6-2.1-1-2.5-1.6c-0.4-0.6-1-0.7-1.6-0.7
			c-0.6,0-1.5-0.4-2.3-1.2c-0.8-0.8-1.4-0.9-2.1-0.9c-0.6,0.1-1.3-0.1-1.8-0.6c0.6-0.7,1.2-2.1,1.8-2.5c0.7-0.1,1.3,0.1,1.8,0.5
			c0.5,0.4,1.1,0.3,1.6,0.3c0.5,0,1.1,0.2,1.5,0.5c0.4,0.3,1,0.3,1.6,0c0.6-0.2,0.5-0.6-0.3-1c-0.7-0.4-1.1-0.7-1.4-1.1
			c-0.2-0.4-0.4-0.6-1.3-0.6c-0.9,0-1.3-0.4-1.9-1.1c-1.5-1.6-2.5-1.7-3.5-1.6c-1,0.1-1.9,0.3-2.8-0.8c1-0.5,1.8,0.6,3.1-0.3
			c0.7-0.5,1.2-0.7,2-0.4c0.9,0.3,1.9,0.2,2.2,0c0.3-0.2,0.6-0.5,1-0.6c0.4,0,0.4-0.6-0.2-0.5c-1.2,0.1-1.4-0.6-2.6-0.4
			c-1.2,0.2-1.6,0-2.4-0.5c-0.8-0.5-1.4-1-3.6-0.6c0.1-0.7,0-1.4,1.1-1.7c0.8,0.5,1.6,0.4,2.3,0.4c0.7,0,2.9,0,3.6,0.1
			c0.7,0.1,0.8-0.2-0.2-0.7c-1-0.5-2.4-0.7-2.9-0.8c-0.5,0-0.8-0.4-1.1-1c-0.3-0.7-1.3-1.2-2.8-1.2c-1.2,0-2-0.5-2.6-1.1
			c-0.6-0.5-1.2-1-1.9-1.1c-0.7-0.1-1.3-0.6-1-1.2c0.3-0.6,1.5-0.9,2.3-0.3c0.8,0.5,1.3,0.6,1.8,0.3c0.5-0.3,0.8-0.4,1.6-0.2
			c0.7,0.3,1.5,0.2,0.3-0.6c-1.7-1.3-3.3-0.7-3.9-1.4c-0.6-0.7-1-0.4-1.4-0.2c-0.4,0.2-1.1-0.2-0.2-0.7c0.6-0.3,1.2-0.5,1.8-0.2
			c0.6,0.3,1.2,0.2,1.6,0c0.4-0.2,0.8-0.6-0.4-0.9c-1.3-0.2-3.3-1-4-1.7c-0.8-0.7-1.6-0.8-2.2-0.7c-0.7,0.1-1.2,0.2-2.4-0.5
			c-1.2-0.7-2.7-1.4-3.7-2.9C41.2,21.4,41.1,22.3,40.5,23z"/>
		<g>
			<path class="st4" d="M36.6,31.3c-0.8-0.1-1.4,0.3-1,0.8c0.4,0.5,0.6,0.2,1.1-0.1C37.2,31.8,37.7,31.4,36.6,31.3z"/>
			<path class="st4" d="M38.7,33c-0.7,0.3-1.4,0.7-1.6,1.4c-0.2,0.7-0.2,1.3,0.5,1.2c1-0.3,1.1-1.4,1.8-1.6
				C39.1,33.7,39.1,33.2,38.7,33z"/>
			<path class="st4" d="M39.9,32.4c0.1,0.3,0.2,0.8,0.4,1c0.6-0.3,2.3-0.9,2.9-1.1c0-0.4-0.1-0.7-0.2-1
				C42.1,31.4,40.9,31.7,39.9,32.4z"/>
			<path class="st4" d="M45.4,35.1c0,0.4,0.2,1.5,0.3,2c0.4,0.2,0.9,0.3,1.3,0.4c0.3-0.5,0.3-1.3,0.3-1.7
				C46.6,35.3,45.9,34.8,45.4,35.1z"/>
			<path class="st4" d="M44,35.7c0,0.4,0.1,0.9,0.1,1.2c-0.5,0-1.3,0.3-1.8,0.5c-0.5,0.2-1.1-0.8-0.2-1.1C43,35.9,43.5,35.8,44,35.7
				z"/>
			<path class="st4" d="M31.5,39.3c0.9-0.5,1.4-0.2,2.3-0.4c0.4,0.4,0.9,0.8,1.2,1.3c-0.5,0.8-2,0.3-2.5,0.6
				C32.1,40.3,31.8,39.9,31.5,39.3z"/>
			<path class="st4" d="M35.3,38.3c0.2,0.5,0.5,0.9,0.7,1.2c0.7,0.1,1-0.3,1.3-0.8c0.3-0.5,0.3-1.1-0.5-1
				C36,37.7,35.5,37.9,35.3,38.3z"/>
			<path class="st4" d="M29.2,47.3c0.2,0.5,0.8,0.7,1,1.1c0.7-0.4,1-0.4,1.5-0.3c0.5,0.1,2-0.4,2.9-1.3c0.8-0.9,0.3-0.8-0.7-0.7
				c-1,0.1-1.7,0.3-2.4,0.2C30.8,46.2,29.8,46.5,29.2,47.3z"/>
			<path class="st4" d="M37.8,43.2c-0.5,0.3-0.7,0.5-0.3,0.9c0.4,0.4,0.6,0.2,1,0c0.4-0.2,0.6-0.6,0.4-0.9
				C38.6,42.9,38.3,42.9,37.8,43.2z"/>
			<path class="st4" d="M40.1,42.5c-0.5,0-0.4,0.3-0.4,0.5c0.1,0.2,0.1,0.4,0.5,0.4c0.4,0,0.4-0.1,0.3-0.5
				C40.4,42.6,40.4,42.5,40.1,42.5z"/>
			<path class="st4" d="M41.5,42.9c0,0.5-0.1,0.5,0.5,0.6c0.5,0.1,0.7,0,0.7-0.5c0-0.5,0-0.7-0.6-0.7C41.5,42.3,41.5,42.5,41.5,42.9
				z"/>
			<path class="st4" d="M43.7,43.3c-0.2,0.4-0.4,0.8,0.3,1c0.7,0.3,0.7,0.1,0.9-0.5c0.2-0.6,0.2-0.8-0.3-1
				C44.1,42.8,43.9,42.8,43.7,43.3z"/>
			<path class="st4" d="M46,43.5c0,0.2-0.2,0.9-0.3,1.1c0.3,0.1,0.6,0.3,0.9,0.4c0.3,0.2,0.6-0.3,0.5-0.7C47,43.8,46.5,43.1,46,43.5
				z"/>
			<path class="st4" d="M48.8,36.5c-0.1,0.3-0.4,1.3-0.5,1.5c0.8,0.2,1.4,0.3,1.9,0.3c0.5,0,1.4-0.2,1.8-0.1c0.4,0.1,0.6-0.3,0-0.9
				c-0.7-0.5-1.1-0.6-1.5-0.6C49.9,36.7,49.2,36.2,48.8,36.5z"/>
			<path class="st4" d="M51.7,40.1c-0.5-0.1-0.8,0.3-0.5,0.6c0.4,0.3,0.8,0.2,0.9-0.1C52.2,40.4,52.2,40.2,51.7,40.1z"/>
			<path class="st4" d="M52.9,40c0,0.3,0.1,0.7,0.1,0.9c0.4,0.4,0.8,0,1.2,0.4c0.4,0.4,0.7,0,0.8-0.4c0.1-0.4,0.1-0.6-0.2-0.6
				C54,40.3,53.5,39.6,52.9,40z"/>
			<path class="st4" d="M44.5,30.9c0.1,0.2,0.3,0.7,0.3,0.9c0.4,0.2,1.2,0.5,1.4,0.1c0.2-0.4,0.3-0.6-0.1-0.8
				C45.8,30.9,45,30.2,44.5,30.9z"/>
			<path class="st4" d="M47.7,31.7c-0.3,0.3,0,0.4,0.3,0.6c0.4,0.2,0.6-0.1,0.6-0.4C48.5,31.6,48.1,31.2,47.7,31.7z"/>
			<path class="st4" d="M36.1,51.6c0.3,0.2,0.5,0.6,0.4,1c-0.1,0.4,0.2,0.5,0.4,0.7c0.3,0.1,1,0.8,1.1,0.1c0.1-0.7-0.5-1.9-0.9-2
				c-0.4-0.1-0.6-0.1-0.8-0.3C36.2,50.8,35.6,51.2,36.1,51.6z"/>
			<path class="st4" d="M60.2,48.5c-0.2,0.7-0.9,2.1-1.4,2.4c-0.7-0.3-2-0.6-2.1-1c0.3-0.7,0.5-1.3,0.7-1.7
				C58.2,48,59.5,48,60.2,48.5z"/>
			<path class="st4" d="M55.8,47.5c0,0.5-0.3,1.6-0.5,2c-0.8,0.1-2.8-0.3-3.4,0c0-0.5,0-1.3,0.2-1.6C53.3,47.9,54.5,47.1,55.8,47.5z
				"/>
		</g>
	</g>
</g>
</svg>
