<?xml version="1.0" encoding="utf-8"?>
<!-- Generator: Adobe Illustrator 19.2.1, SVG Export Plug-In . SVG Version: 6.00 Build 0)  -->
<svg version="1.1" id="Layer_1" xmlns="http://www.w3.org/2000/svg" xmlns:xlink="http://www.w3.org/1999/xlink" x="0px" y="0px"
	 viewBox="0 0 90 90" style="enable-background:new 0 0 90 90;" xml:space="preserve">
<style type="text/css">
	.st0{clip-path:url(#SVGID_2_);}
	.st1{fill:#EC1C2E;stroke:#000000;stroke-width:0.25;}
	.st2{stroke:#000000;stroke-width:0.25;}
	.st3{fill:#009C57;stroke:#000000;stroke-width:0.25;}
	.st4{fill:#EC1C2E;}
</style>
<g>
	<defs>
		<circle id="SVGID_1_" cx="45" cy="45" r="45"/>
	</defs>
	<clipPath id="SVGID_2_">
		<use xlink:href="#SVGID_1_"  style="overflow:visible;"/>
	</clipPath>
	<g class="st0">
		<title>Israel Flag</title>
		<desc>Created with Sketch.</desc>
		<g>
			<rect x="-24.3" y="29.8" class="st1" width="137" height="30.4"/>
			<rect x="-24.3" y="-0.6" class="st2" width="137" height="30.4"/>
			<rect x="-24.3" y="60.3" class="st3" width="137" height="30.4"/>
			<g>
				<path class="st4" d="M44.2,12.1c0-1.8-1.9-10.1,0-10.1C46.1,2,44.2,10.3,44.2,12.1z"/>
				<path class="st4" d="M42.3,12.2c-0.2-1.8-2.8-9.9-0.9-10.1C43.3,1.9,42.1,10.3,42.3,12.2z"/>
				<path class="st4" d="M40.5,12.4c-0.3-1.8-3.6-9.6-1.8-10C40.6,2.1,40.2,10.6,40.5,12.4z"/>
				<path class="st4" d="M38.7,12.8C38.2,11,34.2,3.5,36,3C37.9,2.6,38.2,11,38.7,12.8z"/>
				<path class="st4" d="M36.9,13.4c-0.6-1.7-5.2-8.8-3.5-9.5C35.2,3.2,36.3,11.7,36.9,13.4z"/>
				<path class="st4" d="M35.2,14.1c-0.8-1.7-6-8.4-4.3-9.2S34.4,12.4,35.2,14.1z"/>
				<path class="st4" d="M33.5,14.9c-0.9-1.6-6.7-7.8-5-8.8C30.1,5.2,32.6,13.4,33.5,14.9z"/>
				<path class="st4" d="M32,15.9c-1-1.5-7.4-7.2-5.8-8.3C27.7,6.6,30.9,14.4,32,15.9z"/>
				<path class="st4" d="M30.5,17.1c-1.2-1.4-8-6.5-6.5-7.7C25.5,8.1,29.3,15.7,30.5,17.1z"/>
				<path class="st4" d="M29.1,18.3c-1.3-1.3-8.5-5.8-7.1-7.1C23.3,9.8,27.8,17,29.1,18.3z"/>
				<path class="st4" d="M27.9,19.7c-1.4-1.2-9-5-7.7-6.5C21.4,11.7,26.5,18.5,27.9,19.7z"/>
				<path class="st4" d="M26.8,21.2c-1.5-1-9.4-4.2-8.3-5.8C19.6,13.8,25.3,20.1,26.8,21.2z"/>
				<path class="st4" d="M25.8,22.7c-1.6-0.9-9.7-3.4-8.7-5.1C18,16,24.2,21.8,25.8,22.7z"/>
				<path class="st4" d="M24.9,24.4c-1.7-0.8-10-2.5-9.2-4.3C16.6,18.4,23.3,23.6,24.9,24.4z"/>
				<path class="st4" d="M24.2,26.1c-1.7-0.6-10.1-1.7-9.5-3.5C15.4,20.9,22.5,25.5,24.2,26.1z"/>
				<path class="st4" d="M19,27.2c-2.7-0.4-5.4-0.9-5.1-2c0.4-1.5,5.2,0.8,8,2H19z"/>
				<path class="st4" d="M64.2,26c1.7-0.6,8.8-5.2,9.5-3.5C74.3,24.4,65.9,25.4,64.2,26z"/>
				<path class="st4" d="M63.5,24.3c1.7-0.8,8.4-6,9.2-4.3C73.4,21.8,65.1,23.5,63.5,24.3z"/>
				<path class="st4" d="M62.6,22.7c1.6-0.9,7.8-6.7,8.8-5.1C72.3,19.3,64.2,21.8,62.6,22.7z"/>
				<path class="st4" d="M61.6,21.1c1.5-1,7.2-7.4,8.3-5.8C71,16.9,63.1,20.1,61.6,21.1z"/>
				<path class="st4" d="M60.5,19.6c1.4-1.2,6.5-8,7.7-6.5S61.9,18.5,60.5,19.6z"/>
				<path class="st4" d="M59.2,18.3c1.3-1.3,5.8-8.5,7.1-7.1C67.7,12.5,60.5,17,59.2,18.3z"/>
				<path class="st4" d="M57.8,17c1.2-1.4,5-9,6.5-7.7C65.8,10.5,59,15.6,57.8,17z"/>
				<path class="st4" d="M56.4,15.9c1-1.5,4.2-9.4,5.8-8.3C63.7,8.7,57.4,14.4,56.4,15.9z"/>
				<path class="st4" d="M54.8,14.9c0.9-1.6,3.4-9.7,5.1-8.8C61.5,7.1,55.7,13.3,54.8,14.9z"/>
				<path class="st4" d="M53.1,14c0.8-1.7,2.5-10,4.3-9.2C59.2,5.7,53.9,12.4,53.1,14z"/>
				<path class="st4" d="M51.4,13.3c0.6-1.7,1.7-10.1,3.5-9.5C56.7,4.5,52.1,11.6,51.4,13.3z"/>
				<path class="st4" d="M49.7,12.8C50.2,11,50.5,2.5,52.3,3C54.1,3.5,50.1,11,49.7,12.8z"/>
				<path class="st4" d="M47.9,12.4c0.3-1.8-0.1-10.3,1.8-10C51.5,2.8,48.2,10.6,47.9,12.4z"/>
				<path class="st4" d="M46,12.1c0.2-1.8-1-10.2,0.9-10.1C48.8,2.2,46.2,10.3,46,12.1z"/>
				<path class="st4" d="M69.4,27.2c2.7-0.4,5.4-0.9,5.1-2c-0.4-1.5-5.2,0.8-8,2H69.4z"/>
				<path class="st4" d="M63.8,27.2c-2.7-8.3-10.4-14.3-19.6-14.3s-17,6-19.6,14.3H63.8z"/>
			</g>
		</g>
	</g>
</g>
</svg>
