<?xml version="1.0" encoding="utf-8"?>
<!-- Generator: Adobe Illustrator 19.2.1, SVG Export Plug-In . SVG Version: 6.00 Build 0)  -->
<svg version="1.1" id="Layer_1" xmlns="http://www.w3.org/2000/svg" xmlns:xlink="http://www.w3.org/1999/xlink" x="0px" y="0px"
	 viewBox="0 0 90 90" style="enable-background:new 0 0 90 90;" xml:space="preserve">
<style type="text/css">
	.st0{clip-path:url(#SVGID_2_);}
	.st1{stroke:#000000;stroke-width:0.25;}
	.st2{fill:#F3793E;stroke:#000000;stroke-width:0.25;stroke-linejoin:bevel;}
	.st3{fill:#FFCE46;stroke:#000000;stroke-width:0.125;}
	.st4{fill:#FFFFFF;}
</style>
<g>
	<defs>
		<circle id="SVGID_1_" cx="45" cy="45" r="45"/>
	</defs>
	<clipPath id="SVGID_2_">
		<use xlink:href="#SVGID_1_"  style="overflow:visible;"/>
	</clipPath>
	<g class="st0">
		<rect x="-14.9" class="st1" width="121.5" height="91.2"/>
		<polygon class="st2" points="106.6,91.2 106.6,0 -14.9,0 		"/>
		<g>
			<path class="st3" d="M81.7,37c0.1-0.7,0.1-1.4-0.1-2.2c1.4,0.6,2.1,1,2.9,1.9c-0.1-2.1-0.8-3.9-1.9-5.4c1.1,0.3,2.1,0.8,3.1,1.6
				c-0.4-1.9-1.8-4.6-3.5-5.9c1,0.2,2.3,0.6,3,1.1c-1.1-2-2.8-4.1-5.6-4.8c0.9-0.4,2.5-0.4,3.5-0.3c-2.8-2.1-8.3-3.4-12.1-1.3
				c0.7-1.7,1.8-3.5,3.5-4.4c-1-0.1-2,0.1-2.7,0.6C72.2,17,73,15,74,14c-0.9,0.1-2,0.3-2.7,0.9c0.5-1.2,1.4-3.2,2.3-4.2
				c-0.8,0.2-1.8,0.8-2.3,1.2c0.4-1.2,1.2-3,2.1-4.3c-0.9,0.2-2.2,0.5-2.7,1c0.4-1,0.7-2.1,1.6-3.2c-3.1,1.6-6.8,5.2-7.7,6.9
				c-0.9,1.8-0.9,3.4-0.2,4.8c0.7,1.4,1.7,3.9,0.5,4.8c-1.2,0.9-3.9,0.1-4.8-1.6c-0.9-1.7-3.2-3.9-5.2-3.3c-0.9,0.3-2.5,0.2-3.9,0
				c-1.5-0.1-2.5,0-0.7,0.7c1.8,0.7,2.7,1.1,3.4,1.8c0.7,0.7,1.5,1,2.6,1.3c1.1,0.2,2.3,1,2.3,2.5c0,2.1-1.6,3.2-3.9,2
				c-2.8-1.6-6.6-1.6-7.6,2.5c-1,4.1-1.6,7.3-3.5,8.5c3.2,0.1,5.5-2.5,6.6-3.7c-0.3,1.3-0.8,3-2,3.7c1.1-0.2,3.4-1.6,3.9-2.7
				c-0.2,1.1-0.1,2.5-0.9,3.2c1.3-0.5,2.4-2.1,2.5-3.1c0.4,0.9,0.2,1.7,0,2.3c2.4-0.8,2.3-4,3.9-3.8c0.4,6.1,3.1,11.2,8.8,13.9
				c-0.6-0.6-1.5-2.5-1.6-3.5c0.2,0.9,2.3,2.5,3.7,2.9c-0.8-0.5-1.1-2.1-1.2-3.2c2.8,3.5,7.6,7.2,11.8,8.6c-0.4-0.8-1.8-2.7-2.9-3.7
				c0.8,0.1,2.1,0.9,2.8,1.3c-1.3-2.5-3.4-5.3-5.3-6.9c0.4,0.1,1.6,0.2,2.3,0.6c-0.7-1.5-2.1-3.5-3-4.5c0.6,0.2,1.5,0.6,1.9,0.9
				c-0.4-1.4-1.5-3.3-2.2-4.3c3.3,2.2,5.5,4.8,7.3,6.7c0.2-0.4,0.5-0.8,0.8-1.4c4,4,7.8,10.9,6.1,14.2c-2,4-6.2,4.4-10.2,3.9
				c3.1,1.6,9.8,1.1,11.8-3.6c1-2.4,0.7-5-1.1-8.5c3.1,3.9,4.5,7.2,4.5,9.6c-0.2,3.9-2.3,8.1-9.1,8.8c5.9,0.8,10.4-2.6,10.8-7.9
				C93.7,49.9,88.9,43.3,81.7,37z"/>
		</g>
		<g>
			<polygon class="st4" points="23.8,60.6 22.7,63.6 19.6,63.5 22.1,65.6 20.9,68.6 23.5,66.8 26,68.9 25.1,65.7 27.8,63.9 
				24.6,63.7 			"/>
			<polygon class="st4" points="0.4,48.7 -1.2,53.1 -5.7,52.9 -2.1,55.9 -3.7,60.3 0,57.7 3.5,60.6 2.3,56 6.1,53.5 1.6,53.3 			"/>
			<polygon class="st4" points="17.3,31.2 15.8,35.7 11.3,35.5 14.8,38.4 13.2,42.9 16.9,40.2 20.4,43.2 19.2,38.6 23,36 18.5,35.8 
							"/>
			<polygon class="st4" points="31.5,45.6 29.9,50 25.4,49.8 28.9,52.7 27.3,57.2 31.1,54.5 34.6,57.5 33.4,52.9 37.1,50.4 
				32.6,50.1 			"/>
			<polygon class="st4" points="15.3,74.7 13.7,79.1 9.2,78.9 12.8,81.9 11.2,86.3 14.9,83.7 18.4,86.6 17.2,82 21,79.5 16.5,79.2 
							"/>
		</g>
	</g>
</g>
</svg>
