<?xml version="1.0" encoding="utf-8"?>
<!-- Generator: Adobe Illustrator 19.2.1, SVG Export Plug-In . SVG Version: 6.00 Build 0)  -->
<svg version="1.1" id="Layer_1" xmlns="http://www.w3.org/2000/svg" xmlns:xlink="http://www.w3.org/1999/xlink" x="0px" y="0px"
	 viewBox="0 0 90 90" style="enable-background:new 0 0 90 90;" xml:space="preserve">
<style type="text/css">
	.st0{clip-path:url(#SVGID_2_);}
	.st1{fill:#003263;stroke:#000000;stroke-width:0.25;}
	.st2{fill:#D53647;stroke:#000000;stroke-width:0.25;}
	.st3{fill:#FFFFFF;stroke:#000000;stroke-width:0.25;stroke-linejoin:bevel;}
	.st4{fill:#FFCE46;stroke:#000000;stroke-width:6.250000e-02;}
</style>
<g>
	<defs>
		<circle id="SVGID_1_" cx="45" cy="45" r="45"/>
	</defs>
	<clipPath id="SVGID_2_">
		<use xlink:href="#SVGID_1_"  style="overflow:visible;"/>
	</clipPath>
	<g class="st0">
		<rect x="-0.3" y="0" class="st1" width="181.5" height="45.4"/>
		<rect x="-0.3" y="45.4" class="st2" width="181.5" height="45.4"/>
		<polygon class="st3" points="-0.3,0 76.9,45.4 -0.3,90.8 		"/>
		<g>
			<path class="st4" d="M30.1,36.6c0.9,0.2,1.7,0.6,2.5,1l4.7-6l1.4,0.3l-5.3,6.2c0.1,0.1,0.4,0.3,0.6,0.4l6.4-6.9l1.1,0.2l0.2,1.1
				l-6.9,6.4c0.1,0.1,0.4,0.4,0.4,0.6l6.2-5.3l0.3,1.4l-6,4.7c0.5,0.8,0.8,1.6,1,2.5l7.5-0.9l0.8,1.1l-8.1,0.6
				c0,0.2,0.1,0.5,0.1,0.7l9.4-0.3l0.6,0.9l-0.6,0.9L37,46c0,0.2-0.1,0.6-0.1,0.7l8.1,0.6l-0.8,1.1l-7.6-0.9c-0.2,0.9-0.6,1.7-1,2.5
				l6,4.7l-0.3,1.4l-6.2-5.3c-0.1,0.1-0.3,0.4-0.4,0.6l6.9,6.4l-0.2,1.1l-1.1,0.2l-6.4-6.9c-0.1,0.1-0.4,0.4-0.6,0.4l5.3,6.2
				l-1.4,0.3l-4.7-6c-0.8,0.5-1.6,0.8-2.5,1l0.9,7.5l-1.1,0.8l-0.6-8.1c-0.2,0-0.5,0.1-0.7,0.1l0.3,9.4l-0.9,0.6L27,63.9l0.3-9.4
				c-0.2,0-0.6-0.1-0.7-0.1L26,62.5l-1.1-0.8l0.9-7.6c-0.9-0.2-1.7-0.6-2.5-1l-4.7,6l-1.4-0.3l5.3-6.2c-0.1-0.1-0.4-0.3-0.6-0.4
				l-6.4,6.9l-1.1-0.2l-0.2-1.1l6.9-6.4c-0.1-0.1-0.4-0.4-0.4-0.6l-6.2,5.3l-0.3-1.4l6-4.7c-0.5-0.8-0.8-1.6-1-2.5l-7.5,0.9
				l-0.8-1.1l8.1-0.6c0-0.2-0.1-0.5-0.1-0.7l-9.4,0.3l-0.6-0.9l0.6-0.9l9.4,0.3c0-0.2,0.1-0.6,0.1-0.7l-8.1-0.6l0.8-1.1l7.6,0.9
				c0.2-0.9,0.6-1.7,1-2.5l-6-4.7l0.3-1.4l6.2,5.3c0.1-0.1,0.3-0.4,0.4-0.6L14.2,33l0.2-1.1l1.1-0.2l6.4,6.9
				c0.1-0.1,0.4-0.4,0.6-0.4l-5.3-6.2l1.4-0.3l4.7,6c0.8-0.5,1.6-0.8,2.5-1L24.8,29l1.1-0.8l0.6,8.1c0.2,0,0.5-0.1,0.7-0.1L27,26.9
				l0.9-0.6l0.9,0.6l-0.3,9.4c0.2,0,0.6,0.1,0.7,0.1l0.6-8.1L31,29L30.1,36.6z"/>
		</g>
		<g>
			<polygon class="st4" points="67.8,45.4 64.4,44.3 64.4,40.6 62.2,43.6 58.7,42.4 60.9,45.4 58.7,48.3 62.2,47.2 64.3,50.2 
				64.3,46.5 			"/>
			<polygon class="st4" points="4.3,7.8 5.1,11.4 1.9,13.2 5.6,13.6 6.3,17.2 7.8,13.8 11.4,14.2 8.7,11.8 10.2,8.4 7,10.3 			"/>
			<polygon class="st4" points="4.3,82.9 5.1,79.4 1.9,77.5 5.6,77.1 6.3,73.6 7.8,76.9 11.4,76.5 8.7,79 10.2,82.3 7,80.5 			"/>
		</g>
	</g>
</g>
</svg>
