<?xml version="1.0" encoding="utf-8"?>
<!-- Generator: Adobe Illustrator 19.2.1, SVG Export Plug-In . SVG Version: 6.00 Build 0)  -->
<svg version="1.1" id="Layer_1" xmlns="http://www.w3.org/2000/svg" xmlns:xlink="http://www.w3.org/1999/xlink" x="0px" y="0px"
	 viewBox="0 0 90 90" style="enable-background:new 0 0 90 90;" xml:space="preserve">
<style type="text/css">
	.st0{clip-path:url(#SVGID_2_);}
	.st1{fill:#CE1126;}
	.st2{fill:#002B7F;}
	.st3{fill:#FFFFFF;}
</style>
<g>
	<defs>
		<circle id="SVGID_1_" cx="45" cy="45" r="45"/>
	</defs>
	<clipPath id="SVGID_2_">
		<use xlink:href="#SVGID_1_"  style="overflow:visible;"/>
	</clipPath>
	<g class="st0">
		<rect x="-0.8" class="st1" width="184.1" height="92.1"/>
		<rect x="-0.8" class="st2" width="92.1" height="46"/>
		<polygon class="st3" points="45.3,32 49.2,44.1 38.9,36.6 51.7,36.6 41.3,44.1 		"/>
		<polygon class="st3" points="31.2,13.4 34.4,23 26.1,17.1 36.3,17.1 28,23 		"/>
		<polygon class="st3" points="59.6,11.5 62.6,20.5 54.8,14.9 64.4,14.9 56.7,20.5 		"/>
		<polygon class="st3" points="45.3,1.9 48.4,11.5 40.1,5.6 50.4,5.6 42.1,11.5 		"/>
		<polygon class="st3" points="52.3,23.3 54.3,29.4 49.1,25.7 55.5,25.7 50.3,29.4 		"/>
	</g>
</g>
</svg>
