<?xml version="1.0" encoding="utf-8"?>
<!-- Generator: Adobe Illustrator 19.2.1, SVG Export Plug-In . SVG Version: 6.00 Build 0)  -->
<svg version="1.1" id="Layer_1" xmlns="http://www.w3.org/2000/svg" xmlns:xlink="http://www.w3.org/1999/xlink" x="0px" y="0px"
	 viewBox="0 0 90 90" style="enable-background:new 0 0 90 90;" xml:space="preserve">
<style type="text/css">
	.st0{clip-path:url(#SVGID_2_);}
	.st1{fill:#00A55D;}
	.st2{fill:none;stroke:#FCFCFD;stroke-width:0.9771;stroke-miterlimit:10;}
	.st3{fill:#F4DE3D;}
	.st4{fill:#232021;}
	.st5{fill:#FCFCFD;stroke:#FCFCFD;stroke-width:0.9771;stroke-miterlimit:10;}
	.st6{fill:#BD414B;}
	.st7{fill:#3476B0;}
</style>
<g>
	<defs>
		<path id="path-1" d="M-93.5,99.1c24.8,0,45-20.1,45-45s-20.2-45-45-45s-45,20.1-45,45S-118.4,99.1-93.5,99.1z"/>
	</defs>
	<clipPath id="path-1_1_">
		<use xlink:href="#path_x002D_1"  style="overflow:visible;"/>
	</clipPath>
	<title>Israel Flag</title>
	<desc>Created with Sketch.</desc>
</g>
<g>
	<defs>
		<circle id="SVGID_1_" cx="45" cy="45" r="45"/>
	</defs>
	<clipPath id="SVGID_2_">
		<use xlink:href="#SVGID_1_"  style="overflow:visible;"/>
	</clipPath>
	<g class="st0">
		<rect x="-4.9" y="-1.7" class="st1" width="155.5" height="94.7"/>
		<rect x="-4.9" y="-1.7" class="st2" width="155.5" height="94.7"/>
		<polygon class="st3" points="-4.9,12.6 52.4,45.7 -4.9,78.8 		"/>
		<polygon class="st2" points="-4.9,12.6 52.4,45.7 -4.9,78.8 		"/>
		<polygon class="st4" points="-4.9,21.2 37.4,45.7 -4.9,70.1 		"/>
		<polygon class="st2" points="-4.9,21.2 37.4,45.7 -4.9,70.1 		"/>
		<polygon class="st5" points="150.5,33.3 80.6,33.3 20.6,-1.7 150.5,-1.7 		"/>
		<polygon class="st5" points="150.5,58 80.6,58 20.6,93 150.5,93 		"/>
		<polygon class="st6" points="150.5,25.9 81.9,25.9 35.4,-1.7 150.5,-1.7 		"/>
		<polygon class="st2" points="150.5,25.9 81.9,25.9 35.4,-1.7 150.5,-1.7 		"/>
		<polygon class="st7" points="150.5,65.4 81.9,65.4 35.4,93 150.5,93 		"/>
		<polygon class="st2" points="150.5,65.4 81.9,65.4 35.4,93 150.5,93 		"/>
	</g>
</g>
</svg>
