<?xml version="1.0" encoding="utf-8"?>
<!-- Generator: Adobe Illustrator 19.2.1, SVG Export Plug-In . SVG Version: 6.00 Build 0)  -->
<svg version="1.1" id="Layer_1" xmlns="http://www.w3.org/2000/svg" xmlns:xlink="http://www.w3.org/1999/xlink" x="0px" y="0px"
	 viewBox="0 0 90 90" style="enable-background:new 0 0 90 90;" xml:space="preserve">
<style type="text/css">
	.st0{clip-path:url(#SVGID_2_);}
	.st1{fill:#FCFCFC;}
	.st2{fill:#0088C6;}
	.st3{fill:#D5374A;}
	.st4{fill:#231F20;}
</style>
<g>
	<defs>
		<circle id="SVGID_1_" cx="45" cy="45" r="45"/>
	</defs>
	<clipPath id="SVGID_2_">
		<use xlink:href="#SVGID_1_"  style="overflow:visible;"/>
	</clipPath>
	<g class="st0">
		<rect x="-15.4" y="-7" class="st1" width="129.1" height="111.7"/>
		<path class="st2" d="M61.7,49.6c1.4-5.5-3.9-10-8.3-10c-2.6,0-4.9,1.3-6.3,3.2c-0.9,1.1-4.2,6-4.9,6.8c-1.4,1.3-3.2,2.2-5.3,2.2
			c-4.4,0-8.6-3.8-8.6-9.8c0,0-0.2,2.3-0.2,3.1c0,9.9,7.7,17.4,17.2,17.3C53.6,62.4,59.9,56.3,61.7,49.6"/>
		<path class="st3" d="M28.3,42.1c1.6-7.9,8.6-13.8,16.9-13.8c9.3,0,16.9,7.6,16.9,17.1c0,1.5-0.2,2.9-0.5,4.3v0
			c1.4-5.5-3.9-10-8.3-10c-2.6,0-4.9,1.3-6.3,3.2c-0.9,1.1-4.2,6-4.9,6.8c-1.4,1.3-3.2,2.2-5.3,2.2C32.5,51.8,28.3,48,28.3,42.1
			L28.3,42.1"/>
		<polyline class="st4" points="9.3,33.2 11.4,34.8 21.6,20.7 19.3,19.1 9.3,33.2 		"/>
		<polyline class="st4" points="13,35.9 15.3,37.5 25.3,23.4 23.2,21.8 13,35.9 		"/>
		<polyline class="st4" points="17,38.6 19,40.2 29.2,26.1 26.9,24.5 17,38.6 		"/>
		<polyline class="st4" points="77,35.9 74.9,37.5 64.7,23.4 67,21.8 77,35.9 		"/>
		<polyline class="st4" points="67.5,30.4 65.2,32 61,26.1 63.3,24.5 67.5,30.4 		"/>
		<polyline class="st4" points="73.3,38.6 71.2,40.2 66.8,34.2 69.1,32.6 73.3,38.6 		"/>
		<polyline class="st4" points="80.9,33.2 78.6,34.8 74.5,28.8 76.5,27.2 80.9,33.2 		"/>
		<polyline class="st4" points="75.2,25 72.8,26.6 68.7,20.7 70.7,19.1 75.2,25 		"/>
		<polyline class="st4" points="17.2,52 19.3,50.4 29.5,64.5 27.2,66.1 17.2,52 		"/>
		<polyline class="st4" points="13.2,54.7 15.6,53.1 19.7,59.2 17.6,60.8 13.2,54.7 		"/>
		<polyline class="st4" points="19.3,63 21.4,61.4 25.5,67.3 23.4,68.9 19.3,63 		"/>
		<polyline class="st4" points="9.5,57.5 11.6,55.9 21.8,70 19.5,71.6 9.5,57.5 		"/>
		<polyline class="st4" points="77.2,54.7 74.9,53.1 70.7,59.2 72.8,60.8 77.2,54.7 		"/>
		<polyline class="st4" points="71.2,63 69.1,61.4 65,67.3 67,68.9 71.2,63 		"/>
		<polyline class="st4" points="73.3,52 71.2,50.4 66.8,56.5 69.1,58 73.3,52 		"/>
		<polyline class="st4" points="67.5,60.3 65.2,58.6 61,64.5 63.3,66.1 67.5,60.3 		"/>
		<polyline class="st4" points="80.9,57.5 78.9,55.9 74.5,61.9 76.8,63.5 80.9,57.5 		"/>
		<polyline class="st4" points="75.2,65.7 72.8,64.1 68.7,70 71,71.6 75.2,65.7 		"/>
	</g>
</g>
</svg>
