<?xml version="1.0" encoding="utf-8"?>
<!-- Generator: Adobe Illustrator 19.2.1, SVG Export Plug-In . SVG Version: 6.00 Build 0)  -->
<svg version="1.1" id="Layer_1" xmlns="http://www.w3.org/2000/svg" xmlns:xlink="http://www.w3.org/1999/xlink" x="0px" y="0px"
	 viewBox="0 0 90 90" style="enable-background:new 0 0 90 90;" xml:space="preserve">
<style type="text/css">
	.st0{clip-path:url(#SVGID_2_);}
	.st1{fill:#FFE01B;}
	.st2{fill:#F05C2F;}
	.st3{fill:#FFFFFF;}
	.st4{fill:#BCC4C0;}
	.st5{fill:none;}
</style>
<g>
	<defs>
		<circle id="SVGID_1_" cx="45" cy="45" r="45"/>
	</defs>
	<clipPath id="SVGID_2_">
		<use xlink:href="#SVGID_1_"  style="overflow:visible;"/>
	</clipPath>
	<g class="st0">
		<g>
			<rect x="-24.9" y="61" class="st1" width="139.8" height="15.5"/>
			<rect x="-24.9" y="14.4" class="st1" width="139.8" height="15.5"/>
		</g>
		<g>
			<rect x="-24.9" y="-1.1" width="139.8" height="15.5"/>
			<rect x="-24.9" y="45.5" width="139.8" height="15.5"/>
		</g>
		<g>
			<rect x="-24.9" y="30" class="st2" width="139.8" height="15.5"/>
			<rect x="-24.9" y="76.6" class="st2" width="139.8" height="15.5"/>
		</g>
		<g>
			<circle class="st3" cx="45" cy="45.5" r="14.5"/>
			<path class="st2" d="M42.6,34.7l-1-1.9c1.8-1.2,5.3-0.6,6,2.4l-1.7,0.4L42.6,34.7z"/>
			<path class="st1" d="M45.1,35.4l-1.8-0.5l0.2-2.7c1.1,0,2.2,0.3,3,1.1L45.1,35.4z"/>
			<path d="M44.7,48.6c0.8,2.5,0,3.2,0.4,4.7c0.3,1.1,0.2,2.9,0.2,3.8c-1.4-0.2-2.8,0-3.5,0.6c0.7-0.1,1.7-0.1,2.3,0
				c-0.5,0.1-1.1,0.8-1.1,1.5c1-1,3.1-1.9,5.4-1.6C48.1,57.3,47,56.9,46,57c-0.1-0.6-0.4-2.6-0.2-3.5c0.3-1.3-0.1-3.2,0.1-3.8
				c0.2-0.7,0.6-1.1,0.6-1.8"/>
			<path d="M50.3,45c3.8,1.3,3.1,3.8,2.1,4.2c-2.4,1-6,0.4-9.1-0.9c-1.3-0.5-3.1-2.1-2.7-3.5c0.4-1.4,3.2-2.6,4.9-1.8
				C47.3,43.8,49.6,44.8,50.3,45z"/>
			<path d="M44,45.7c-0.6,0.9-0.4,3.1,0.7,3.7c1,0.5,1.5,0.9,2,1.7c0.4,0.7,0.6,1.2-0.5,1.1c-2.6-0.2-5.6-0.5-6.4,0.3
				c-0.6,0.6-0.6,1.4-0.4,2.3c0.3-0.4,0.1-1.3,0.6-1.6c-0.1,0.3-0.1,1.1,0.2,1.5c0-0.5,0.1-1.6,0.4-1.8c0.3,0.2,0,0.9,0.4,1.3
				c0.2-0.4,0-0.8,0.5-1.2c0.4-0.4,1-0.6,2.3-0.5c1.3,0.1,2.2,0.2,2.8,0.1c0.6,0,0.8-0.1,1.1,0c0.3,0.1,0.6,0,0.7-0.2
				c0.1-0.2,0.3-0.5-0.1-0.9c-0.4-0.4-1.1-1.5-0.6-2.4c0.3-0.6,0.2-1.5,0-1.8"/>
			<path d="M40.4,37.1c0.1,0.2,0.8,0.1,2.1-0.1c0,0.2,0.6,0.5,0.4,0.8c-1.1,1.4-2.5,2.9-3,5.1c-0.2,1.2,0.1,2.8,1.2,3.8
				c0-0.4,0-0.8,0-1.1c0.1,0.1,0.3,0.3,0.4,0.4c0-0.1,0.1-0.6,0.1-0.8c0.2,0.1,0.4,0.2,0.7,0.3c0-0.2-0.1-0.7-0.1-0.8
				c0.2,0.1,0.5,0.2,0.6,0.3c-0.1-0.2-0.3-0.7-0.4-0.9c0.1,0.1,0.4,0.3,0.5,0.4c-0.1-0.2-0.1-0.7-0.2-0.9c0.1,0,0.4,0.2,0.8,0.4
				c-0.1-0.2-0.2-0.8-0.2-0.9c0.2,0.1,0.6,0.3,0.7,0.4c-0.1-0.2,0-0.5-0.1-0.6c0.2,0.1,0.7-0.1,1.1,0c-0.3-0.4-0.8-0.6-0.9-1.2
				c-0.3-1.5,0.2-3.4,0.9-3.9c1.4-1,1.6-3.2-0.4-3.9c-1.2-0.4-2.7,0.5-2.3,2.3c-1.4,0.2-2.2,0.4-2.1,0.9
				C40.2,37.1,40.3,37.1,40.4,37.1z"/>
			<path class="st4" d="M43.9,42.7C43.5,44,44.1,46,46.6,47c2.5,0.9,4.4,2.9,3.9,4.5c0.4-0.1,1.3-1.3,0.7-2.3
				c0.8,1.1-0.1,2.9-1.2,3.6c-0.4,0.2,0,0.4,0.3,0.3c-0.3,0.1-0.5,0.4-0.3,0.4c0.3,0,1-0.3,1.2-0.6c-0.2,0.2-0.7,0.4-0.4,0.6
				c0.2,0.2,0.7-0.1,1.1-0.6c-0.2,0.3-0.6,0.8-0.9,1c-0.3,0.2-0.3,0.7,0.2,0.4c1.2-0.8,2.5-2,2.8-3.3c0.3-1.2,0.8-4.1-2.4-5.6
				c-3.2-1.5-4.7-1.9-5.6-2.5C45.1,42.4,44.1,41.7,43.9,42.7z"/>
			<path class="st3" d="M50.2,45.3c-0.7-0.2-2.6-0.8-3.5-1.3c-0.8-0.5-1.9-0.4-1.8,0.4c0.1,0.8,2,1.1,2.4,2c0.4,0.8,2.3,0.9,2.9,1
				S53,46.7,50.2,45.3z"/>
			<path class="st2" d="M47.8,47.1c0.7,0.4,1.3,0.6,2.1,1.7c0.6,0.8,0.8,1.9,0.5,2.7c0.4-0.1,1.3-1.3,0.7-2.3
				c0.8,1.1-0.1,2.9-1.2,3.6c-0.4,0.2,0,0.4,0.3,0.3c-0.3,0.1-0.5,0.4-0.3,0.4c0.3,0,1-0.3,1.2-0.6c-0.2,0.2-0.7,0.4-0.4,0.6
				c0.2,0.2,0.7-0.1,1.1-0.6c-0.2,0.3-0.6,0.8-0.9,1c-0.3,0.2-0.3,0.7,0.2,0.4c1.2-0.8,2.5-2,2.8-3.3c0.3-1.2,0.8-4-2.4-5.6
				c-0.5-0.3-2.1-0.6-2.4-0.7c0.7,0.3,1.5,1.4,1.8,1.7c-0.4-0.2-1.9-1-2.3-1c0.3,0.3,0.6,0.5,0.9,1.1c-0.5-0.3-1.6-0.4-1.9-0.5
				c0.4,0.1,0.7,0.6,0.9,0.8C48.2,46.6,47.2,46.7,47.8,47.1z"/>
			<path class="st2" d="M42.5,37c-0.5,0.3-0.9,0.9-0.6,1.4c0.3,0.5,1.1,0,1.3-0.3C43.4,37.3,42.5,37.3,42.5,37z"/>
			<path class="st4" d="M43.3,38.2c-1.6,1.8-2.2,4-2.2,5.4c0,0.7,0.3,1.1,0.6,1.4c0-0.2,0-0.7-0.1-0.8c0.1,0.1,0.4,0.2,0.5,0.3
				c0-0.2-0.2-0.6-0.2-0.7c0.1,0.1,0.4,0,0.5,0.1c0-0.1-0.2-0.4-0.2-0.5c0.1,0,0.6,0.1,0.7,0.1c-0.1-0.1-0.3-0.6-0.3-0.6
				c0.1,0,0.6,0.1,0.7,0.1c-0.3-0.3-1.1-1.2,0.1-4.4C43.7,38.1,43.6,37.8,43.3,38.2z"/>
			<path class="st4" d="M44.4,46.2c-0.4,0.8-0.1,1.8,0,2.2c-0.1-0.4,1-0.7,1.9,0C46,47.9,44.5,46.8,44.4,46.2z"/>
			<path class="st3" d="M43.2,35.7c-0.4,0-0.4,0.6,0,0.6C43.6,36.3,43.6,35.7,43.2,35.7z"/>
			<path class="st5" d="M40.4,37.1c0.7-0.3,1.5-0.1,2-0.5c-0.1-0.1-0.1-0.2-0.1-0.3"/>
			<path class="st4" d="M44.6,35.2c0.2,0.8-0.1,1.3-0.6,1.4c-0.5,0.2-0.5,0.9,0.2,0.7c1.2-0.2,1.3-1.4,0.7-2.4
				C44.8,34.7,44.5,34.8,44.6,35.2z"/>
		</g>
	</g>
</g>
</svg>
