<?xml version="1.0" encoding="utf-8"?>
<!-- Generator: Adobe Illustrator 19.2.1, SVG Export Plug-In . SVG Version: 6.00 Build 0)  -->
<svg version="1.1" id="Layer_1" xmlns="http://www.w3.org/2000/svg" xmlns:xlink="http://www.w3.org/1999/xlink" x="0px" y="0px"
	 viewBox="0 0 90 90" style="enable-background:new 0 0 90 90;" xml:space="preserve">
<style type="text/css">
	.st0{clip-path:url(#SVGID_2_);}
	.st1{fill:#094CA0;}
	.st2{fill:#FFFFFF;}
	.st3{fill:#EC1C24;}
</style>
<g>
	<defs>
		<circle id="SVGID_1_" cx="45" cy="45" r="45"/>
	</defs>
	<clipPath id="SVGID_2_">
		<use xlink:href="#SVGID_1_"  style="overflow:visible;"/>
	</clipPath>
	<g class="st0">
		<rect x="-29.8" y="-4.6" class="st1" width="147" height="96.6"/>
		<path class="st2" d="M117.2-4.6H98.9L60.5,20.6c0-10.6,0-25.1,0-25.1H26.8c0,0,0,15.5,0,26.2L-13.7-4.6h-16.1V8.5l29,18.8
			c-14.6,0-29,0-29,0v33.5c0,0,14.3,0,28.8,0l-28.8,19V92h19.1l37.5-24.7c0,10.4,0,24.7,0,24.7h33.7c0,0,0-14.7,0-25.1L99.3,92h17.9
			V79.9L87.7,60.8c14.8,0,29.5,0,29.5,0V27.3c0,0-14.6,0-29.4,0L117.2,8V-4.6z"/>
		<g>
			<path class="st3" d="M17.5,27.3L-29.8-4.6v8.4L5.6,27.3C9.9,27.3,14,27.3,17.5,27.3z"/>
			<path class="st3" d="M70,60.8L117.2,92l0,0v-7.8L82,60.8C77.7,60.8,73.6,60.8,70,60.8z"/>
			<path class="st3" d="M26.8,60.8c-2.2,0-5.6,0-9.7,0L-29.8,92l0,0h11.2l45.4-29.7C26.8,61.8,26.8,61.3,26.8,60.8z"/>
			<path class="st3" d="M60.5,27.3c2.1,0,5.2,0,9.1,0l47.6-31.1v-0.8h-10.7l-46,29.9C60.5,26.1,60.5,26.7,60.5,27.3z"/>
		</g>
		<polygon class="st3" points="117.2,34.4 53.3,34.4 53.3,-4.6 34,-4.6 34,34.4 -29.8,34.4 -29.8,53.7 34,53.7 34,92 53.3,92 
			53.3,53.7 117.2,53.7 		"/>
	</g>
</g>
</svg>
