<?xml version="1.0" encoding="utf-8"?>
<!-- Generator: Adobe Illustrator 19.2.1, SVG Export Plug-In . SVG Version: 6.00 Build 0)  -->
<svg version="1.1" id="Layer_1" xmlns="http://www.w3.org/2000/svg" xmlns:xlink="http://www.w3.org/1999/xlink" x="0px" y="0px"
	 viewBox="0 0 90 90" style="enable-background:new 0 0 90 90;" xml:space="preserve">
<style type="text/css">
	.st0{clip-path:url(#SVGID_2_);}
	.st1{fill:#FFFFFF;}
	.st2{fill:#B22234;}
	.st3{fill:#3C3B6E;}
</style>
<title>Canada Flag</title>
<desc>Created with Sketch.</desc>
<g>
	<defs>
		<circle id="SVGID_1_" cx="45" cy="45" r="45"/>
	</defs>
	<clipPath id="SVGID_2_">
		<use xlink:href="#SVGID_1_"  style="overflow:visible;"/>
	</clipPath>
	<g class="st0">
		<rect x="-14.9" class="st1" width="171" height="90"/>
		<g>
			<rect id="stripe" x="-14.9" class="st2" width="171" height="6.9"/>
		</g>
		<g>
			<rect id="stripe_1_" x="-14.9" y="13.8" class="st2" width="171" height="6.9"/>
		</g>
		<g>
			<rect id="stripe_2_" x="-14.9" y="27.7" class="st2" width="171" height="6.9"/>
		</g>
		<g>
			<rect id="stripe_3_" x="-14.9" y="41.5" class="st2" width="171" height="6.9"/>
		</g>
		<g>
			<rect id="stripe_4_" x="-14.9" y="55.4" class="st2" width="171" height="6.9"/>
		</g>
		<g>
			<rect id="stripe_5_" x="-14.9" y="69.2" class="st2" width="171" height="6.9"/>
		</g>
		<g>
			<rect id="stripe_6_" x="-14.9" y="83.1" class="st2" width="171" height="6.9"/>
		</g>
		<rect x="-14.9" class="st3" width="68.4" height="48.5"/>
		<g id="_x3C_Group_x3E_">
			<g>
				<polygon class="st1" points="-8.4,3.9 -9,2 -9.7,3.9 -11.7,3.9 -10.1,5.1 -10.7,7 -9,5.8 -7.4,7 -8,5.1 -6.4,3.9 				"/>
				<polygon class="st1" points="2.9,3.9 2.3,2 1.7,3.9 -0.3,3.9 1.3,5.1 0.7,7 2.3,5.8 3.9,7 3.3,5.1 4.9,3.9 				"/>
				<polygon class="st1" points="14.3,3.9 13.6,2 13,3.9 11,3.9 12.6,5.1 12,7 13.6,5.8 15.3,7 14.6,5.1 16.3,3.9 				"/>
				<polygon class="st1" points="25.6,3.9 25,2 24.4,3.9 22.3,3.9 24,5.1 23.3,7 25,5.8 26.6,7 26,5.1 27.6,3.9 				"/>
				<polygon class="st1" points="36.9,3.9 36.3,2 35.7,3.9 33.7,3.9 35.3,5.1 34.7,7 36.3,5.8 37.9,7 37.3,5.1 38.9,3.9 				"/>
				<polygon class="st1" points="48.7,5.1 50.3,3.9 48.3,3.9 47.7,2 47,3.9 45,3.9 46.6,5.1 46,7 47.7,5.8 49.3,7 				"/>
			</g>
			<g>
				<polygon class="st1" points="-2.8,8.8 -3.4,6.9 -4,8.8 -6,8.8 -4.4,10 -5,11.9 -3.4,10.7 -1.7,11.9 -2.4,10 -0.7,8.8 				"/>
				<polygon class="st1" points="8.6,8.8 8,6.9 7.3,8.8 5.3,8.8 7,10 6.3,11.9 8,10.7 9.6,11.9 9,10 10.6,8.8 				"/>
				<polygon class="st1" points="19.9,8.8 19.3,6.9 18.7,8.8 16.7,8.8 18.3,10 17.7,11.9 19.3,10.7 20.9,11.9 20.3,10 21.9,8.8 				
					"/>
				<polygon class="st1" points="31.3,8.8 30.6,6.9 30,8.8 28,8.8 29.6,10 29,11.9 30.6,10.7 32.3,11.9 31.7,10 33.3,8.8 				"/>
				<polygon class="st1" points="43,10 44.6,8.8 42.6,8.8 42,6.9 41.4,8.8 39.3,8.8 41,10 40.4,11.9 42,10.7 43.6,11.9 				"/>
			</g>
			<g>
				<g>
					<g>
						<g id="star_17_">
						</g>
						<g id="star_18_">
						</g>
						<g id="star_19_">
						</g>
						<g id="star_20_">
						</g>
						<g id="star_21_">
						</g>
					</g>
				</g>
				<g>
					<g>
						<g id="s6_2_">
						</g>
						<g id="s5_3_">
						</g>
						<g id="s6_3_">
						</g>
						<g id="s5_4_">
						</g>
					</g>
					<g id="s6_4_">
					</g>
				</g>
			</g>
			<g>
				<polygon class="st1" points="-8.4,13.7 -9,11.7 -9.7,13.7 -11.7,13.7 -10.1,14.8 -10.7,16.8 -9,15.6 -7.4,16.8 -8,14.8 
					-6.4,13.7 				"/>
				<polygon class="st1" points="2.9,13.7 2.3,11.7 1.7,13.7 -0.3,13.7 1.3,14.8 0.7,16.8 2.3,15.6 3.9,16.8 3.3,14.8 4.9,13.7 				
					"/>
				<polygon class="st1" points="14.3,13.7 13.6,11.7 13,13.7 11,13.7 12.6,14.8 12,16.8 13.6,15.6 15.3,16.8 14.6,14.8 16.3,13.7 
									"/>
				<polygon class="st1" points="25.6,13.7 25,11.7 24.4,13.7 22.3,13.7 24,14.8 23.3,16.8 25,15.6 26.6,16.8 26,14.8 27.6,13.7 
									"/>
				<polygon class="st1" points="36.9,13.7 36.3,11.7 35.7,13.7 33.7,13.7 35.3,14.8 34.7,16.8 36.3,15.6 37.9,16.8 37.3,14.8 
					38.9,13.7 				"/>
				<polygon class="st1" points="48.7,14.8 50.3,13.7 48.3,13.7 47.7,11.7 47,13.7 45,13.7 46.6,14.8 46,16.8 47.7,15.6 49.3,16.8 
									"/>
			</g>
			<g>
				<polygon class="st1" points="-2.6,18.5 -3.2,16.6 -3.9,18.5 -5.9,18.5 -4.2,19.7 -4.9,21.6 -3.2,20.4 -1.6,21.6 -2.2,19.7 
					-0.6,18.5 				"/>
				<polygon class="st1" points="8.7,18.5 8.1,16.6 7.5,18.5 5.5,18.5 7.1,19.7 6.5,21.6 8.1,20.4 9.7,21.6 9.1,19.7 10.7,18.5 				
					"/>
				<polygon class="st1" points="20.1,18.5 19.4,16.6 18.8,18.5 16.8,18.5 18.4,19.7 17.8,21.6 19.4,20.4 21.1,21.6 20.5,19.7 
					22.1,18.5 				"/>
				<polygon class="st1" points="31.4,18.5 30.8,16.6 30.2,18.5 28.1,18.5 29.8,19.7 29.2,21.6 30.8,20.4 32.4,21.6 31.8,19.7 
					33.4,18.5 				"/>
				<polygon class="st1" points="43.1,19.7 44.8,18.5 42.7,18.5 42.1,16.6 41.5,18.5 39.5,18.5 41.1,19.7 40.5,21.6 42.1,20.4 
					43.8,21.6 				"/>
			</g>
			<g>
				<g>
					<g>
						<g id="star_31_">
						</g>
						<g id="star_30_">
						</g>
						<g id="star_29_">
						</g>
						<g id="star_28_">
						</g>
						<g id="star_27_">
						</g>
					</g>
				</g>
				<g>
					<g>
						<g id="s6_7_">
						</g>
						<g id="s5_7_">
						</g>
						<g id="s6_6_">
						</g>
						<g id="s5_6_">
						</g>
					</g>
					<g id="s6_5_">
					</g>
				</g>
			</g>
			<g>
				<g>
					<g>
						<g id="star_47_">
						</g>
						<g id="star_46_">
						</g>
						<g id="star_45_">
						</g>
						<g id="star_44_">
						</g>
						<g id="star_43_">
						</g>
					</g>
				</g>
				<g>
					<g>
						<g id="s6_11_">
						</g>
						<g id="s5_11_">
						</g>
						<g id="s6_10_">
						</g>
						<g id="s5_10_">
						</g>
					</g>
					<g id="s6_9_">
					</g>
				</g>
			</g>
			<g>
				<g>
					<g>
						<g id="star_63_">
						</g>
						<g id="star_62_">
						</g>
						<g id="star_61_">
						</g>
						<g id="star_60_">
						</g>
						<g id="star_59_">
						</g>
					</g>
				</g>
				<g>
					<g>
						<g id="s6_15_">
						</g>
						<g id="s5_15_">
						</g>
						<g id="s6_14_">
						</g>
						<g id="s5_14_">
						</g>
					</g>
					<g id="s6_13_">
					</g>
				</g>
			</g>
			<g>
				<polygon class="st1" points="-9.9,24.5 -10.5,26.4 -8.9,25.3 -7.2,26.4 -7.9,24.5 -6.2,23.3 -8.3,23.3 -8.9,21.4 -9.5,23.3 
					-11.5,23.3 				"/>
				<polygon class="st1" points="1.5,24.5 0.8,26.4 2.5,25.3 4.1,26.4 3.5,24.5 5.1,23.3 3.1,23.3 2.5,21.4 1.8,23.3 -0.2,23.3 				
					"/>
				<polygon class="st1" points="12.8,24.5 12.2,26.4 13.8,25.3 15.4,26.4 14.8,24.5 16.4,23.3 14.4,23.3 13.8,21.4 13.2,23.3 
					11.2,23.3 				"/>
				<polygon class="st1" points="24.1,24.5 23.5,26.4 25.1,25.3 26.8,26.4 26.2,24.5 27.8,23.3 25.8,23.3 25.1,21.4 24.5,23.3 
					22.5,23.3 				"/>
				<polygon class="st1" points="35.5,24.5 34.9,26.4 36.5,25.3 38.1,26.4 37.5,24.5 39.1,23.3 37.1,23.3 36.5,21.4 35.9,23.3 
					33.8,23.3 				"/>
				<polygon class="st1" points="46.8,24.5 46.2,26.4 47.8,25.3 49.5,26.4 48.8,24.5 50.5,23.3 48.4,23.3 47.8,21.4 47.2,23.3 
					45.2,23.3 				"/>
				<polygon class="st1" points="-3.2,26.2 -3.8,28.1 -5.8,28.1 -4.2,29.3 -4.8,31.2 -3.2,30 -1.6,31.2 -2.2,29.3 -0.6,28.1 
					-2.6,28.1 				"/>
				<polygon class="st1" points="8.1,26.2 7.5,28.1 5.5,28.1 7.1,29.3 6.5,31.2 8.1,30 9.8,31.2 9.1,29.3 10.8,28.1 8.8,28.1 				
					"/>
				<polygon class="st1" points="19.5,26.2 18.9,28.1 16.8,28.1 18.5,29.3 17.8,31.2 19.5,30 21.1,31.2 20.5,29.3 22.1,28.1 
					20.1,28.1 				"/>
				<polygon class="st1" points="30.8,26.2 30.2,28.1 28.2,28.1 29.8,29.3 29.2,31.2 30.8,30 32.4,31.2 31.8,29.3 33.5,28.1 
					31.4,28.1 				"/>
				<polygon class="st1" points="42.2,26.2 41.5,28.1 39.5,28.1 41.1,29.3 40.5,31.2 42.2,30 43.8,31.2 43.2,29.3 44.8,28.1 
					42.8,28.1 				"/>
				<path class="st1" d="M-8.8,31l-0.6,1.9h-2l1.6,1.2l-0.6,1.9l1.6-1.2l1.6,1.2l-0.6-1.9l1.6-1.2h-2L-8.8,31z M-8.8,33.8L-8.8,33.8
					L-8.8,33.8L-8.8,33.8z"/>
				<path class="st1" d="M2.6,31l-0.6,1.9h-2l1.6,1.2L0.9,36l1.6-1.2L4.2,36l-0.6-1.9l1.6-1.2h-2L2.6,31z M2.6,33.8L2.6,33.8
					L2.6,33.8L2.6,33.8z"/>
				<path class="st1" d="M13.9,31l-0.6,1.9h-2l1.6,1.2L12.3,36l1.6-1.2l1.6,1.2l-0.6-1.9l1.6-1.2h-2L13.9,31z M13.9,33.8L13.9,33.8
					L13.9,33.8L13.9,33.8z"/>
				<path class="st1" d="M25.3,31l-0.6,1.9h-2l1.6,1.2L23.6,36l1.6-1.2l1.6,1.2l-0.6-1.9l1.6-1.2h-2L25.3,31z M25.3,33.8L25.3,33.8
					L25.3,33.8L25.3,33.8z"/>
				<polygon class="st1" points="36.6,31 36,32.9 34,32.9 35.6,34.1 35,36 36.6,34.8 38.2,36 37.6,34.1 39.2,32.9 37.2,32.9 				"/>
				<path class="st1" d="M48.6,32.9L47.9,31l-0.6,1.9h-2l1.6,1.2L46.3,36l1.6-1.2l1.6,1.2l-0.6-1.9l1.6-1.2H48.6z M47.9,33.8
					L47.9,33.8L47.9,33.8L47.9,33.8L47.9,33.8z"/>
				<polygon class="st1" points="-2.6,37.7 -3.2,35.8 -3.9,37.7 -5.9,37.7 -4.2,38.9 -4.9,40.8 -3.2,39.7 -1.6,40.8 -2.2,38.9 
					-0.6,37.7 				"/>
				<polygon class="st1" points="8.7,37.7 8.1,35.8 7.5,37.7 5.5,37.7 7.1,38.9 6.5,40.8 8.1,39.7 9.7,40.8 9.1,38.9 10.7,37.7 				
					"/>
				<polygon class="st1" points="20.1,37.7 19.4,35.8 18.8,37.7 16.8,37.7 18.4,38.9 17.8,40.8 19.4,39.7 21.1,40.8 20.5,38.9 
					22.1,37.7 				"/>
				<polygon class="st1" points="31.4,37.7 30.8,35.8 30.2,37.7 28.1,37.7 29.8,38.9 29.2,40.8 30.8,39.7 32.4,40.8 31.8,38.9 
					33.4,37.7 				"/>
				<polygon class="st1" points="42.7,37.7 42.1,35.8 41.5,37.7 39.5,37.7 41.1,38.9 40.5,40.8 42.1,39.7 43.8,40.8 43.1,38.9 
					44.8,37.7 				"/>
				<polygon class="st1" points="-8.3,42.6 -8.9,40.7 -9.5,42.6 -11.5,42.6 -9.9,43.8 -10.5,45.7 -8.9,44.5 -7.3,45.7 -7.9,43.8 
					-6.3,42.6 				"/>
				<polygon class="st1" points="3.1,42.6 2.4,40.7 1.8,42.6 -0.2,42.6 1.4,43.8 0.8,45.7 2.4,44.5 4.1,45.7 3.4,43.8 5.1,42.6 				
					"/>
				<polygon class="st1" points="14.4,42.6 13.8,40.7 13.2,42.6 11.1,42.6 12.8,43.8 12.1,45.7 13.8,44.5 15.4,45.7 14.8,43.8 
					16.4,42.6 				"/>
				<polygon class="st1" points="25.7,42.6 25.1,40.7 24.5,42.6 22.5,42.6 24.1,43.8 23.5,45.7 25.1,44.5 26.7,45.7 26.1,43.8 
					27.7,42.6 				"/>
				<polygon class="st1" points="37.1,42.6 36.5,40.7 35.8,42.6 33.8,42.6 35.4,43.8 34.8,45.7 36.5,44.5 38.1,45.7 37.5,43.8 
					39.1,42.6 				"/>
				<polygon class="st1" points="48.4,42.6 47.8,40.7 47.2,42.6 45.2,42.6 46.8,43.8 46.2,45.7 47.8,44.5 49.4,45.7 48.8,43.8 
					50.4,42.6 				"/>
			</g>
		</g>
	</g>
</g>
</svg>
