<?xml version="1.0" encoding="utf-8"?>
<!-- Generator: Adobe Illustrator 19.2.1, SVG Export Plug-In . SVG Version: 6.00 Build 0)  -->
<svg version="1.1" id="Layer_1" xmlns="http://www.w3.org/2000/svg" xmlns:xlink="http://www.w3.org/1999/xlink" x="0px" y="0px"
	 viewBox="0 0 90 90" style="enable-background:new 0 0 90 90;" xml:space="preserve">
<style type="text/css">
	.st0{clip-path:url(#SVGID_2_);}
	.st1{fill:#00AA66;stroke:#000000;stroke-width:0.25;}
	.st2{fill:#FFFFFF;stroke:#000000;stroke-width:0.25;}
	.st3{fill:#F69139;stroke:#000000;stroke-width:0.25;}
	.st4{fill:#231F20;stroke:#000000;stroke-width:0.25;}
	.st5{fill:#EE3E33;stroke:#000000;stroke-width:0.25;}
	.st6{fill:#F69139;stroke:#000000;stroke-width:0.125;}
	.st7{fill:none;stroke:#000000;stroke-width:0.125;}
</style>
<g>
	<defs>
		<circle id="SVGID_1_" cx="45" cy="45" r="45"/>
	</defs>
	<clipPath id="SVGID_2_">
		<use xlink:href="#SVGID_1_"  style="overflow:visible;"/>
	</clipPath>
	<g class="st0">
		<g>
			<rect x="-46.5" y="-0.7" class="st1" width="137" height="91.3"/>
			<path class="st2" d="M21.9,45"/>
		</g>
		<rect x="74.1" y="31.9" class="st3" width="16.3" height="58.7"/>
		<rect x="57.8" y="31.9" class="st4" width="16.3" height="58.7"/>
		<rect x="41.5" y="31.9" class="st5" width="16.3" height="58.7"/>
		<g>
			<g>
				<path class="st6" d="M67.3,9.3c-0.3,0-0.6-0.1-0.7-0.3c0.6-0.3,0.9-0.3,1.4,0.2c0.1-0.3,0-0.7-0.2-0.9c-0.2-0.2-0.4-0.2-0.6-0.2
					C66.9,8,66.7,8,66.5,8c-0.3-0.6-0.9-0.3-1.5-0.1c-1,0.4-1.9,1.1-2.4,1.8c-0.2,0.3-0.2,0.4-0.3,0.6c0.1,0,0.1,0,0.1,0
					c-0.1,0.8-0.2,1.5,0,2c-0.2,0.7,0,1.1,0.2,1.3c0.2,0.2,0.3,0.3,0.3,0.6c0,0.3,0.1,0.5,0.3,0.6c0.2,0.1,0.3,0.4,0.3,0.5
					c0,0.1,0.6,0.7,0.8,0.8c0.1,0.1,0.1,0.2,0.2,0.3c-0.2,1.4,0.7,2.7,0.5,4.1c0.2,0,0.4,0,0.6-0.1c0.2,1.2,0.3,1.7-0.7,2
					c-1,0.3-1.5,0.7-1.3,1.1c0.2,0.3,0.6,0,0.9-0.2c0.2-0.2,0.4-0.3,0.6-0.4c0.2-0.1,0.2,0,0.1,0.2c-0.1,0.2-0.6,0.7-0.6,1
					c0,0.3,0.2,0.4,0.5,0.2c0.3-0.2,0.6-0.7,0.7-1c0.1-0.2,0.1-0.4,0.1,0c0,0.4-0.2,1,0.3,1.1c0.5,0.1,0.6-0.5,0.5-1
					c-0.2-0.5-0.2-0.8-0.1-1c0.1-0.2,0.1-0.3,0.3-0.2c0.2,0.1,0.5,0,0.5-0.3c0-0.3-0.3-0.5-0.6-0.4c-0.3,0.2-0.5,0.1-0.4-0.2
					c0.1-0.3,0.3-0.6,0.3-0.8c0.2,0.3,1.3,0.3,1.8,0.1c0.1,0.5,0.4,1-0.2,1.5c-0.6,0.5-1.1,1-1.1,1.3c0,0.4,0.2,0.6,0.5,0.4
					c0.3-0.2,0.5-0.4,0.6-0.7c0.1-0.2,0.2-0.2,0.1,0.1c-0.1,0.3-0.2,0.7-0.1,1c0.1,0.3,0.4,0.3,0.6,0c0.2-0.2,0.1-0.5,0.1-0.8
					c0-0.3,0-0.6,0.1-0.8c0.1-0.1,0.2-0.3,0.4,0c0.1,0.3,0.2,0.6,0.5,0.7c0.3,0.1,0.5,0,0.4-0.4c-0.1-0.3-0.4-0.7-0.8-1
					c-0.4-0.3-0.3-0.4-0.2-0.7c0-0.3,0-0.8-0.1-1c0.3,0.3,0.7,0.2,0.9,0.2c0.2,0,0.5-0.1,0.2-0.3c-0.6-0.5-0.4-0.9-0.8-1.3
					c-0.4-0.4-0.8-1-0.9-1.5c-0.1-0.5-0.4-1.5-0.9-2c-0.3-0.3-0.4-1-0.3-1.9c0.1-0.8,0.1-1.8-0.7-2.2c-0.8-0.4-0.8-0.8-0.5-1.2
					c0.3-0.4,0.6-0.7,1-0.8c0.1,0,0.3,0,0.4-0.1C67.5,9.4,67.4,9.3,67.3,9.3z"/>
				<path class="st6" d="M62.3,11.3c0,0.4,0,0.7,0.1,0.9c-0.2,0.7,0,1.1,0.2,1.3c0.2,0.2,0.3,0.3,0.3,0.6c0,0.3,0.1,0.5,0.3,0.6
					c0.2,0.1,0.3,0.4,0.3,0.5c0,0.1,0.6,0.7,0.8,0.8c0.1,0.1,0.1,0.2,0.2,0.3c-0.1,0.6,0,1.1,0.1,1.7c-1.3,1.1-2.5,0.6-2-0.5
					c-1,0.8-2.9,0.8-2.5,0c-1.6,0.6-2.1,0.1-1.9-0.4c-1.4,0.6-2.1,0-1.9-0.4c-1.1,0.3-1.9,0.1-2-0.1c-0.1-0.2,0.2-0.6,0.4-0.8
					c-0.5,0.2-1,0.2-1.5,0.1c-0.5-0.1-0.4-0.2-0.3-0.4c0.1-0.2,0.2-0.6,0.6-0.9c-0.9,0.2-2.1,0.3-2.9,0c-0.2-0.1-0.4-0.1-0.3-0.3
					c0.2-0.2,0.6-0.6,1.2-0.8c-1.3,0.2-3.9,0.3-4.6-0.5c0.7,0.1,1.6-0.1,2.2-0.4c-2.3-0.3-5.3-1.8-5.4-3.3c0.6,1,1.8,1.4,2.9,1.7
					c-1.5-0.9-2.1-1.9-2.2-2.6c0.9,0.8,2.2,1.8,3.4,2C47.2,10,46,8.6,45.7,7.6c0.7,0.6,2.4,1.5,3.5,1.9c-0.8-0.6-2.1-2.1-2-2.9
					c0.3,0.3,1.1,0.9,2.6,1.8c1.5,0.9,2.4,0.8,3.6,1.1C53.2,9,53,8.6,53,8.5c0.4,0.1,0.7,0.2,1.8,0.9c1.1,0.7,3.4,0.9,4.8,1.5
					C60.5,11.3,61.9,11,62.3,11.3z"/>
				<path class="st6" d="M70.4,20.5c0.1,0,0.1-0.1-0.1-0.3c-0.6-0.5-0.4-0.9-0.8-1.3c-0.4-0.4-0.8-1-0.9-1.5c-0.1-0.5-0.4-1.5-0.9-2
					c-0.3-0.3-0.4-1-0.3-1.9c0.1-0.7,0.1-1.5-0.4-2c0.9-0.3,1.7-0.3,2,0c1.5-0.4,2.8-0.5,4-0.6c1.5-0.1,4.2-0.7,6.1-2
					c-0.1,0.5-0.8,1.2-1.4,1.6c2-0.5,4.4-1.4,6.4-2.9c0,1.1-0.9,1.8-1.4,2.3c1.4-0.8,3.4-1.7,4.1-2.9c0.3,1.2-1.8,2.8-2.9,3.7
					c1.1-0.6,2.6-1.1,3.2-1.9c0,1-1.3,2.2-2.5,2.9c1.3-0.5,2.7-1,3.5-1.7c0.1,1-3.8,3.3-5.7,3.9c1.7-0.4,3.8-1,4.8-1.5
					c0,0.2-0.4,0.5-0.7,0.7c-1.2,0.9-3,1.3-4,1.5c0.1,0.6,0,0.9-0.7,1c-0.7,0-2.3-0.2-3.1-0.6c-0.1,0.1-0.3,0.1-0.4,0.1
					c0.8,0.6,1.1,1,0.9,1.3c-0.2,0.3-0.7,0.2-1.2,0.1c0.3,1-0.8,0.9-1.7,0.4c0.4,0.5,0.4,0.9-0.1,1c-0.5,0.1-0.9,0.1-1.4-0.3
					c0,0.4-0.4,0.6-0.8,0.5c1.6,1,1.5,1.3,1.2,1.7c-0.3,0.4-1.2,0.3-1.7,0c-0.2,0.7-1.1,0.7-1.7,0.2C71.6,20.3,71,20.9,70.4,20.5z"
					/>
			</g>
			<path class="st7" d="M53.4,9.3c0.2,0.3,0.9,0.9,1.3,1"/>
			<path class="st7" d="M54.7,10.2c0,0.5,0.2,1.2,1,1.4c0.8,0.2,1.5,0.2,1.9,0"/>
			<path class="st7" d="M57.7,11.6c-0.7,0.2-1.6,0.6-1.8,1c-0.2,0.4-0.1,0.5,0.3,0.6c1.2,0.3,2.5,0,3.4-0.7"/>
			<path class="st7" d="M57.7,11.5c0,0.5,1,1.1,2.7,0.8"/>
			<path class="st7" d="M58.8,12.3c-0.4,0.2-0.9,0.4-1.7,0.6"/>
			<path class="st7" d="M59.5,12.3c-0.2,0.5,1,0.9,2.8,0.5"/>
			<path class="st7" d="M60.2,13c-0.5,0.3-1.2,0.7-2,0.9"/>
			<path class="st7" d="M57.3,13.4c-0.2,0.2-0.2,1,0.4,1.1c1.3,0.2,3.2-0.7,3.9-1.5"/>
			<path class="st7" d="M59,14.3c-0.3,0.6-0.2,1.2,0.6,1.3c0.8,0.1,2.1-0.5,3.2-1.8"/>
			<path class="st7" d="M62.4,13.2c-0.8,0.5-1.7,1.2-2.6,1.5"/>
			<path class="st7" d="M60.7,15.4c-0.3,0.4-0.4,0.7-0.2,0.9c0.2,0.3,0.6,0.1,1.1-0.2c0.5-0.3,1.3-0.9,1.7-1.2"/>
			<path class="st7" d="M63,14.4c-0.4,0.3-1.5,1.1-1.8,1.4"/>
			<path class="st7" d="M62.7,15.4c-0.2,0.6,0,0.9,0.4,1c0.3,0.1,0.9,0.2,1.4-0.3"/>
			<path class="st7" d="M60.2,17.5c0.8-0.3,2-1.1,2.4-1.4"/>
			<path class="st7" d="M63,16.4c-0.3,0.3-1,0.8-1.7,1.1"/>
			<path class="st7" d="M62.7,17.5c0.6-0.4,1.5-1,1.8-1.3"/>
			<path class="st7" d="M64.5,16.8c-0.2,0.2-0.6,0.7-0.8,1"/>
			<path class="st7" d="M61.2,16.3c-0.6,0.3-1.3,0.6-1.9,0.9"/>
			<path class="st7" d="M58.3,17.1c0.5-0.2,1.8-0.8,2.2-1.1"/>
			<path class="st7" d="M57.5,16.7c1-0.2,1.8-0.8,2.3-1.1"/>
			<path class="st7" d="M56.4,16.7c0.9-0.2,2.1-1,2.6-1.3"/>
			<path class="st7" d="M58.8,14.8c-0.7,0.4-1.8,1-2.8,1.3"/>
			<path class="st7" d="M54.8,15.8c0.7-0.2,2.1-0.8,3.1-1.4"/>
			<path class="st7" d="M57.3,14.1c-0.8,0.3-2.1,0.8-2.9,1"/>
			<path class="st7" d="M53.7,14.6c1-0.1,2.3-0.8,2.9-1.2"/>
			<path class="st7" d="M49.2,9.4c0.5,0.4,1.4,0.6,2.1,0.7"/>
			<path class="st7" d="M48.4,7.8c0.8,0.8,2.1,1.7,3.6,1.9"/>
			<path class="st7" d="M51.3,9.5c-0.2,0.3-0.2,1.1,1.1,1"/>
			<path class="st7" d="M51.8,10.5c-0.2,0.4,0.1,1.2,1.7,0.7"/>
			<path class="st7" d="M53.2,10.6c0.3,0.9,1.4,1.1,2,0.6"/>
			<path class="st7" d="M51.7,10.8c-0.8-0.1-1.6-0.3-1.9-0.1c-0.3,0.1-0.4,0.4,0,0.7c1.2,0.9,5.6,0.9,6.7,0.7"/>
			<path class="st7" d="M50.2,11.5c-0.4,0.1-0.4,0.6,0.3,0.9c1.1,0.4,4,0.6,5.3,0.5"/>
			<path class="st7" d="M50.1,12.2c-0.2,0.2-0.1,0.5,0.1,0.7c1,0.9,3.5,0.8,5.6,0.1"/>
			<path class="st7" d="M49.4,12.7c0.2-0.1,0.5-0.1,0.6-0.1"/>
			<path class="st7" d="M46.9,11.1c0.8,0.5,1.8,0.8,3.1,0.9"/>
			<path class="st7" d="M48.1,10.5c0.6,0.2,1,0.3,1.5,0.4"/>
			<path class="st7" d="M77.7,10.6c-0.8,0.3-2.7,1-3.6,1.1"/>
			<path class="st7" d="M67.3,13.3c0.6,0.3,1.7,0.5,1.8-0.4"/>
			<path class="st7" d="M69.1,13.2c0.6,0.4,1.9,0.1,1.9-0.6"/>
			<path class="st7" d="M70.9,12.9c0.7,0.3,1.6,0.3,1.8-0.6"/>
			<path class="st7" d="M72.5,12.7c0.9,0.2,1.9-0.6,1.6-1.2"/>
			<path class="st7" d="M68.9,11.6c-0.4,0.1-0.6,0.3-0.9,0.4"/>
			<path class="st7" d="M73.7,12.4c0.7,0.1,2,0.5,2.5,0.9c0.5,0.4,0.6,0.8-0.2,0.9c-0.8,0.1-1.2,0.1-2-0.1"/>
			<path class="st7" d="M74.2,12.5c0.9-0.5,2.3-0.7,3.2-0.5c0.9,0.2,0.8,0.7,0.5,1c-0.3,0.3-0.9,0.4-1.7,0.4"/>
			<path class="st7" d="M75.1,12.7c0.5-0.1,1.7-0.2,2.3-0.2"/>
			<path class="st7" d="M82.7,10c-0.8,0.7-3.1,1.7-4.9,2.1"/>
			<path class="st7" d="M79.2,11.7c0.6,0.2,0.2,1-0.1,1.2c-0.6,0.5-1.4,1-2.6,1.1"/>
			<path class="st7" d="M76.7,14c0.6,0.3,1.9,0.4,2.4,0.1c0.5-0.3,0.4-0.9,0-1.1"/>
			<path class="st7" d="M78.2,15.2c-0.5-0.4-2.8-0.9-3.6-1"/>
			<path class="st7" d="M78.6,15.1c0.3-0.1,0.6-0.6,0.4-1"/>
			<path class="st7" d="M69.5,13.3c0.8,0.7,2.5,1.6,3.6,1.8c1.1,0.2,1.9,0,1.4-0.6c-0.6-0.6-2-1.2-2.7-1.4"/>
			<path class="st7" d="M77.9,16.6c-1.2-0.3-2.5-1.1-3.4-1.6"/>
			<path class="st7" d="M74.6,14.6c1,0.4,2.7,1.2,3.6,1.4"/>
			<path class="st7" d="M76.2,17c-0.7-0.3-2-1.1-2.7-1.8"/>
			<path class="st7" d="M74.1,15.1c0.5,0.4,1.9,1.1,2.6,1.5"/>
			<path class="st7" d="M70.5,13.2c0.9,0.5,2.1,1.1,3,1.4"/>
			<path class="st7" d="M72,13c1.3,0.1,2.4,0.4,3.6,0.7"/>
			<path class="st7" d="M68.5,17.2c0.1,0.3,0.4,0.7,0.8,0.8c0.4,0.2,0.7-0.2,0.7-0.6c0-0.4,0-0.6-0.1-0.7"/>
			<path class="st7" d="M67.8,13.5c0.1,1.1,1.1,2.6,1.8,3c0.8,0.5,1.4,0.3,1.6,0.1c0.2-0.2,0.2-0.9-0.8-1.4
				c-0.7-0.4-1.5-1.1-1.9-1.6"/>
			<path class="st7" d="M68.2,13.5c0.1,0.4,1.3,1.9,1.8,2.2"/>
			<path class="st7" d="M67.3,14.1c0.4,0.5,1.7,2.3,1.9,2.9"/>
			<path class="st7" d="M68.9,13.4c0.3,0.3,1.5,1.3,2.1,1.5"/>
			<path class="st7" d="M71,15.6c0.3,0.2,0.6,0.2,0.8,0.2c0.2,0,0.4-0.1,0.3-0.4c-0.1-0.3-0.3-0.6-0.5-0.8"/>
			<path class="st7" d="M71.1,16.6c0.4,0.6,2,1.5,2.6,1.6"/>
			<path class="st7" d="M74.7,17.7c-0.7-0.3-2.1-1.6-2.6-2"/>
			<path class="st7" d="M73.3,19.8c-0.6-0.3-2.5-2.2-3.3-3"/>
			<path class="st7" d="M71.6,20c-0.6-0.4-1.5-1.7-1.8-2"/>
			<path class="st7" d="M71,15.6c0.6,0.5,1.9,1.5,2.4,1.8"/>
			<path class="st7" d="M69.6,18c0.2,0.4,0.4,0.8,0.3,1c0,0.1-0.1,0.3-0.3,0.2"/>
			<path class="st7" d="M83.9,10.8c-1.5,0.8-2.8,1.7-4.8,2.1"/>
			<path class="st7" d="M79.5,12.1c1.4-0.5,3.6-1.3,5.6-2.9"/>
			<path class="st7" d="M79.4,13.5c2.1-0.5,4.4-1.4,5.9-2.7"/>
			<path class="st7" d="M84.6,11.8c-1.2,0.5-2.1,1.6-5.3,2"/>
			<path class="st7" d="M82.4,14c-0.9,0.4-2.5,0.4-3.3,0.3"/>
			<path class="st7" d="M82.4,14.7c-0.9,0.2-2.7,0.1-3.4,0"/>
			<path class="st7" d="M62.4,10.2c0.3-0.2,0.4,0,0.6-0.3c0.7-0.7,1.8-1.4,2.3-1.6C65.9,8.1,66.1,8,66.5,8"/>
			<path class="st7" d="M65.3,8.3c0.2-0.1,0.2,0.4,0.6,0.2C66.2,8.4,66,8,66.1,8"/>
			<path class="st7" d="M66.6,9c-0.2,0.1-0.4,0.3-0.5,0.5"/>
			<path class="st7" d="M63,10.6c-0.1,0.3-0.1,0.7-0.1,1"/>
			<path class="st7" d="M63,12.1c-0.1,0.3,0,1,0.1,1.3"/>
			<path class="st7" d="M63.2,14c0.1,0.2,0.3,0.4,0.4,0.6"/>
			<path class="st7" d="M63.6,12.6c0,0.4,0.2,1.3,0.5,1.6c0.1,0.4,0.3,1.1,0.9,1.7"/>
			<path class="st7" d="M63.5,11.3c0,0.2,0,0.5,0,0.8"/>
			<path class="st7" d="M64.2,9.5C64,9.9,63.9,10.8,64,11c0,0.3-0.2,0.8,0.1,1.7"/>
			<path class="st7" d="M64.7,9.9c-0.2,0.7-0.2,2.1,0,2.6"/>
			<path class="st7" d="M64.5,12.7c-0.1,0.4-0.1,0.9,0,1.3"/>
			<path class="st7" d="M65.2,10.1c0,0.6,0.2,1.3,0.7,1.9"/>
			<path class="st7" d="M65.1,12.1c-0.1,0.7,0,1.3,0.1,1.7c0.1,0.4,0.1,1.1,0.4,1.5"/>
			<path class="st7" d="M65.7,13.1c0.1,0.3,0.2,0.6,0.1,0.9"/>
			<path class="st7" d="M66.2,12.6c0.1,0.5,0.2,1,0.2,1.2"/>
			<path class="st7" d="M66.4,15c0,0.4,0.2,0.8,0.3,1.1"/>
			<path class="st7" d="M65.8,16.1c0.1,0.4,0.4,0.9,0.6,1.1"/>
			<path class="st7" d="M67.5,16.2c0.3,0.4,0.4,0.8,0.5,1.1"/>
			<path class="st7" d="M64.5,16.3c0.3,0,0.5-0.1,0.7,0.4c0.2,0.5,0.9,1.3,1.2,1.5c0.3,0.1,0.9,0.4,1,1c0.2-0.4,0.4-0.8,0.1-1.2
				c0.4,0.6,0.9,1.1,1,1.4c0.1,0.3,0.4,0.8,0.6,1"/>
			<path class="st7" d="M65.6,20.3c0.2,0,0.5-0.3,0.6-0.4c0.2,0.1,0.6,0.3,0.7,0.8"/>
			<path class="st7" d="M67,20.7c0.1-0.5,0-1.6-0.5-2.5"/>
			<path class="st7" d="M65.1,17.6c0.1,0.4,0.3,0.9,0.3,1.2"/>
			<path class="st7" d="M66,18.4c0.2,0.4,0.3,1,0.3,1.3"/>
			<path class="st7" d="M67.7,19.5c0.1,0.3,0.2,0.7,0.2,1"/>
			<path class="st7" d="M68.5,20.6c-0.1-0.4-0.1-1.5-0.2-1.8"/>
			<path d="M63.1,24.1c0-0.2,0-0.5,0.2-0.7c0.2-0.2,0.3-0.3,0.5-0.1c0.2,0.2,0.1,0.3-0.2,0.4c-0.2,0.1-0.4,0.3-0.4,0.4
				C63.2,24.2,63.1,24.3,63.1,24.1z"/>
			<path d="M64.4,25.2c-0.1-0.4-0.1-0.9,0.1-1c0.1-0.1,0.3-0.2,0.5-0.1c0.2,0.1,0.2,0.3-0.1,0.5c-0.3,0.1-0.3,0.4-0.3,0.6
				C64.5,25.3,64.5,25.4,64.4,25.2z"/>
			<path d="M66.1,24.2c-0.1,0.2,0,0.8,0.3,0.9c0.2,0.1,0.3,0.1,0.2-0.1c-0.1-0.2-0.1-0.4,0-0.5c0.1-0.1,0.1-0.3-0.1-0.4
				C66.3,24.1,66.1,24.1,66.1,24.2z"/>
			<path d="M67.4,23.7c-0.2-0.1-0.4,0-0.5,0.2c-0.1,0.3,0,0.6,0.2,0.8c0.2,0.2,0.2-0.1,0.1-0.2c-0.1-0.1-0.1-0.4,0.1-0.4
				C67.5,24.1,67.6,23.8,67.4,23.7z"/>
			<path d="M68.5,24.1c-0.2-0.1-0.4,0.1-0.4,0.4c0,0.2,0,0.4,0.2,0.5c0.1,0.1,0.2,0.1,0.1-0.1c-0.1-0.2,0-0.4,0.1-0.5
				C68.8,24.4,68.7,24.2,68.5,24.1z"/>
			<path d="M70.1,23.1c-0.1,0.1-0.1,0.3,0,0.4c0.1,0.1,0.3,0.2,0.3,0.4c0,0.2,0.1,0.3,0.2,0c0.1-0.2,0.1-0.6,0-0.7
				C70.5,23.1,70.2,23,70.1,23.1z"/>
		</g>
	</g>
</g>
</svg>
